<?xml version="1.0" encoding="UTF-8"?><svg id="Layer_2" xmlns="http://www.w3.org/2000/svg" viewBox="0 0 323.72 177.55"><defs><style>.cls-1{fill:#fff;}</style></defs><g id="logo_vertical"><path class="cls-1" d="m223.63,128.12v49.43h-122.04v-49.43h122.04Zm-18.79,4.28h-20.89l-3.43,25.06-3.39-25.06h-7.53l.84,6.69c-.87-1.72-3.95-6.69-10.74-6.69-.04,0-7.54,0-7.54,0l-.03,36.54-5.49-36.54h-9.86s-5.68,37.85-5.68,37.85v-37.85h-9.44l-3.4,21.26-3.32-21.26h-9.44v41.16h7.44v-19.84l3.38,19.84h3.95l3.34-19.84v19.84h14.34l.87-6.33h5.77l.87,6.33h14.08s0,.01,0,.01h0s0-.01,0-.01h.02v-13.36l1.72-.26,3.58,13.62h7.28,0s.01-.01.01-.01h0l-4.68-15.96c2.37-1.76,5.05-6.22,4.34-10.49,0,.06,4.43,26.48,4.43,26.48l8.65-.02,5.92-37.31v37.31h14.04v-7.4h-6.67v-9.44h6.67v-7.52h-6.67v-9.3h6.67v-7.5Zm-40.33,13.9c0,3.34-1.48,5.44-3.21,6.28-.57.27-1.17.41-1.74.41v-13.24h.03c.58,0,4.92.17,4.92,6.54Zm-22.78-3.19l2.12,17.6h-4.16l2.04-17.6Zm78.09,23.04h-6.32v-33.75h-7.37v41.16h13.69v-7.41Z"/><path class="cls-1" d="m119.67,63.19c-.77,2.44-.91,2.9,1.79,2.9,2.54,0,3.5-.11,4.85-2.3.22-.07.44-.02.49.13-.24.75-1.02,2.32-1.42,2.92-.82-.02-1.71-.04-2.59-.04-.89-.02-1.75-.02-2.52-.02h-2.57c-.91,0-1.64.02-2.35.07-.18-.11-.18-.42-.02-.55l.53-.07c1.06-.15,1.28-.38,1.99-2.63l2.59-8.23c.66-2.08.71-2.44-.51-2.61l-.53-.09c-.13-.18-.11-.46.13-.55.86.02,1.62.07,2.52.07.95,0,1.64-.04,2.79-.07.16.09.2.44,0,.55l-.69.09c-1.26.16-1.37.42-2.06,2.61l-2.43,7.83Z"/><path class="cls-1" d="m136.45,59.07c0,1.68-2.19,2.79-5.38,3.67-.16.38-.31,1.08-.31,1.97,0,.75.46,1.26,1.06,1.26.8,0,1.35-.44,2.32-1.28.2,0,.33.18.29.38-1.35,1.66-2.61,2.01-3.54,2.01-1.33,0-1.79-1.24-1.79-2.32,0-1.39.89-4.09,3.3-5.95,1.15-.89,2.01-1.06,2.66-1.06.89,0,1.39.75,1.39,1.33Zm-3.52.42c-.86.93-1.37,1.95-1.64,2.59,1.46-.44,2.15-.86,2.97-1.64.69-.64.86-1.31.86-1.51,0-.22-.11-.51-.51-.51-.31,0-.88.2-1.68,1.06Z"/><path class="cls-1" d="m149.17,54.89c.53-1.7.33-1.9-.66-1.97l-.73-.02c-.16-.11-.11-.42,0-.53.8-.11,2.08-.27,3.72-.27,1.17,0,2.52.09,3.59.53,1.08.46,1.88,1.31,1.88,2.79,0,2.24-2.23,3.28-3.45,3.36-.35.02-.2.18,0,.24,1.26.42,2.3,1.66,2.3,3.25,0,.82-.24,1.95-1.2,2.88-.93.93-2.57,1.68-5.31,1.68-1.2,0-2.01-.07-2.94-.07s-1.64.02-2.28.07c-.18-.11-.18-.42-.02-.55l.44-.07c1.06-.15,1.28-.38,1.99-2.63l2.68-8.7Zm-1.22,9.34c-.47,1.46.18,1.93,1.77,1.93,1.86,0,4.18-1.15,4.18-4.14,0-1.88-1.62-2.79-3.28-2.79-1.06,0-1.15.02-1.37.75l-1.31,4.25Zm1.95-6.31c-.15.53-.13.64.82.64,1.59,0,4.43-.77,4.43-3.56,0-1.28-.97-2.21-2.79-2.21-.84,0-.88-.02-1.08.71l-1.37,4.43Z"/><path class="cls-1" d="m162.06,59.84l-.95,2.79h.11c.66-1.24,1.75-3.01,2.32-3.74.51-.66,1.06-1.15,1.62-1.15.77,0,.89.75.89,1.08s-.2.97-.47,1.33c-.27.33-.62.35-.71-.11-.11-.58-.24-.86-.46-.86-.2,0-.44.22-.77.66-1.35,1.73-2.59,4.43-3.76,6.97-.09.18-.2.27-.38.27-.24,0-.89-.09-.73-.58.29-.89,1.68-4.8,2.28-6.97.07-.24.02-.46-.18-.46-.58,0-1.17.62-1.57,1.15-.22.04-.38-.09-.35-.35.71-1.2,1.55-2.12,2.61-2.12s.71,1.51.51,2.1Z"/><path class="cls-1" d="m174.26,57.23c.38-.18.95.04,1.08.33-.33.82-2.26,5.71-2.97,7.72-.13.38-.02.51.16.51.38,0,1.02-.38,2.28-1.48.16,0,.31.11.31.29-.93,1.24-2.5,2.48-3.72,2.48-.51,0-.64-.42-.64-.6,0-.16.04-.35.22-.86l.73-1.99-.07-.02c-1.57,1.95-3.83,3.47-4.87,3.47-.62,0-.97-.62-.97-1.24,0-.51.49-2.28,1.95-4.29,1.06-1.46,2.01-2.35,2.92-2.85.86-.49,1.42-.64,1.99-.64.24,0,.4.07.53.13.09.04.33.24.44.46l.62-1.42Zm-3.85,2.52c-1.42,1.26-2.77,4.16-2.77,5.73,0,.27.13.42.33.42.22,0,.88-.29,2.15-1.44,1.68-1.57,2.61-3.47,2.97-4.78-.16-.42-.53-.8-1.11-.8-.53,0-.88.24-1.57.86Z"/><path class="cls-1" d="m182.6,59c0,.35-.22.6-.4.69-.16.04-.29,0-.42-.18-.38-.38-.66-.71-1.35-.71-.64,0-.91.55-.91.89,0,.46.11.93.75,2.01.55.93.88,1.48.84,2.46-.02.6-.33,1.42-1.15,2.12-.58.51-1.39.8-2.24.8s-1.35-.66-1.35-1.17c0-.22.09-.46.33-.73.18-.16.42-.16.6,0,.29.33.95.89,1.53.89.53,0,1.06-.55,1.06-1.26,0-.38-.27-1.06-.82-1.95-.58-.93-.78-1.68-.78-2.06,0-.86.38-1.51,1.33-2.32.64-.55,1.35-.73,1.64-.73.82,0,1.33.71,1.33,1.26Z"/><path class="cls-1" d="m189.51,59c0,.35-.22.6-.4.69-.15.04-.29,0-.42-.18-.38-.38-.66-.71-1.35-.71-.64,0-.91.55-.91.89,0,.46.11.93.75,2.01.55.93.89,1.48.84,2.46-.02.6-.33,1.42-1.15,2.12-.57.51-1.39.8-2.23.8s-1.35-.66-1.35-1.17c0-.22.09-.46.33-.73.18-.16.42-.16.6,0,.29.33.95.89,1.53.89.53,0,1.06-.55,1.06-1.26,0-.38-.27-1.06-.82-1.95-.58-.93-.77-1.68-.77-2.06,0-.86.38-1.51,1.33-2.32.64-.55,1.35-.73,1.64-.73.82,0,1.33.71,1.33,1.26Z"/><path class="cls-1" d="m193.41,64.87c-.2.53-.09.75.15.75.33,0,1.22-.71,2.37-1.84,2.01-1.99,3.16-4.56,3.9-5.91.46-.09,1,.13,1.08.4-.22.6-1.66,4.23-2.59,6.86-.11.29-.13.55.09.55.42,0,1.59-1.04,2.17-1.73.2-.04.38.04.4.31-.57,1.06-2.7,2.81-3.87,2.81-.35,0-.69-.42-.55-.77l1.5-4.05-.04-.02c-1.59,2.01-4.34,4.85-5.53,4.85-.91,0-1.02-.91-.64-1.88l2.04-5.38c.15-.42.18-.64,0-.64-.42,0-1.57.97-2.1,1.53-.22.04-.4-.13-.38-.33.57-.89,2.79-2.63,3.83-2.63.29,0,.8.29.66.66l-2.48,6.46Z"/><path class="cls-1" d="m208.5,59c0,.35-.22.6-.4.69-.16.04-.29,0-.42-.18-.38-.38-.66-.71-1.35-.71-.64,0-.91.55-.91.89,0,.46.11.93.75,2.01.55.93.89,1.48.84,2.46-.02.6-.33,1.42-1.15,2.12-.58.51-1.39.8-2.24.8s-1.35-.66-1.35-1.17c0-.22.09-.46.33-.73.18-.16.42-.16.6,0,.29.33.95.89,1.53.89.53,0,1.06-.55,1.06-1.26,0-.38-.27-1.06-.82-1.95-.58-.93-.78-1.68-.78-2.06,0-.86.38-1.51,1.33-2.32.64-.55,1.35-.73,1.64-.73.82,0,1.33.71,1.33,1.26Z"/><path class="cls-1" d="m42.72,8.43c1.61,0,3.01,1.65,3.01,4.25v20.35c0,7.47-3.07,6.86-6.3,6.86s-3.61-3.2-3.61-6.9V12.68c0-2.6,1.4-4.25,3.01-4.25v-1.05h-11.01v1.05c1.61,0,3.07,1.65,3.07,4.25v21.99c0,4.24,2.29,7.39,7.67,7.39s8.67-.28,8.67-9.19V12.68c0-2.6,1.4-4.25,3-4.25v-1.05h-7.52v1.05"/><path class="cls-1" d="m275.59,8.43c1.61,0,2.89,1.65,2.89,4.25v20.35c0,7.47-3.07,6.86-6.3,6.86s-3.61-3.2-3.61-6.9V12.68c0-2.6,1.34-4.25,2.95-4.25v-1.05h-10.83v1.05c1.61,0,2.95,1.65,2.95,4.25v21.99c0,4.24,2.29,7.39,7.67,7.39s8.67-.28,8.67-9.19V12.68c0-2.6,1.28-4.25,2.89-4.25v-1.05h-7.28v1.05"/><path class="cls-1" d="m64.88,39.66c-.44.12-2.33.33-3.88.19-1.27-.12-1.33-.3-1.33-3.11V12.38c0-2.81.71-3.49,2.98-3.49,2.81,0,4.04.81,4.98,3.31,1.88,4.82,1.57,13.79,1.05,20.61,0,0-.71,6.01-3.8,6.86Zm-.75-32.28h-12.34v1.05c1.62,0,2.96,1.65,2.96,4.25v23.46c0,2.6-1.34,4.24-2.96,4.24v1.05h13.84c2.23,0,4.79-1.28,6.37-5.83,1.55-4.72,1.73-8.57,1.51-14.5-.29-5.87-1.25-9.45-2.63-11.23-1.38-1.78-3.59-2.49-6.76-2.49Z"/><path class="cls-1" d="m84.56,39.83c-1.58-.2-1.77-.9-1.77-3.45v-11.24c3.56.3,3.89.29,4.8,4.98h.96v-11.71h-.96c-.77,4.44-1.24,4.68-4.8,4.98v-11.45c0-2.55.21-3,1.33-2.96l2.06.1c4.86.2,5.11,3.12,5.42,4.82h1.22v-6.53h-17.97v1.05c1.61,0,3.01,1.65,3.01,4.25v23.46c0,2.6-1.4,4.24-3.01,4.24v1.05h18.19l1.36-6.17h-1.38c-1.6,5.51-6.03,4.65-8.47,4.57"/><path class="cls-1" d="m294.07,39.83c-1.58-.2-1.77-.9-1.77-3.45v-11.24c3.56.3,3.89.29,4.8,4.98h.96v-11.71h-.96c-.77,4.44-1.24,4.68-4.8,4.98v-11.45c0-2.55.22-3,1.33-2.96l2.06.1c4.86.2,5.12,3.12,5.42,4.82h1.22v-6.53h-17.91v1.05c1.61,0,2.95,1.65,2.95,4.25v23.46c0,2.6-1.34,4.24-2.95,4.24v1.05h18.14l1.36-6.17h-1.38c-1.6,5.51-6.03,4.65-8.47,4.57"/><path class="cls-1" d="m19.2,26.8h-8.52L19.2,5.77v21.03M24.7,0h-9.36v1.08c2.47,0,2.7,1.82,1.91,3.82-3.14,7.95-11.07,28.05-12,30.1-1.16,2.57-2.79,5.39-5.25,5.39v1.05h8.86v-1.05c-2.02,0-2.62-2.95-1.62-5.38,1-2.42,2.76-6.7,2.76-6.7h9.2v7.38c0,4.48-1.59,4.7-3.85,4.7,0,.46,0-.72,0,1.05,0,0-.67,0,13.22,0v-1.05c-1.88,0-3.85-.14-3.85-4.7,0-2.37-.02-35.68-.02-35.68Z"/><path class="cls-1" d="m218.97,19.82c0,1.11-.4,1.71-1.22,1.71h-4.44v-9.05s0-2.09,0-2.09V1.52s4.44,0,4.44,0c.82,0,1.22.65,1.22,1.95v16.36Zm1.05-19.82h-16.14v1.09c2.31,0,3.86,1.55,3.86,4.63v29.57c0,4.72-1.77,5.1-3.85,5.1v1.05h13.22v-1.05c-2.39,0-3.79-.52-3.79-5.07v-12.21h7.05c2.27,0,4.03-1.65,4.03-5.39V5.16c0-2.99-1.48-5.16-4.37-5.16Z"/><path class="cls-1" d="m111.06,31.19l-6.58-23.81h-8.68v1.05c2.18,0,3.07.75,3.07,4.35v23.37c0,2.6-1.25,4.24-3.02,4.24v1.05h7.66v-1.05c-1.77,0-3.02-1.64-3.02-4.24V11.63l8.35,29.8h.82l8.65-29.69v24.41c0,2.6-1.25,4.24-3.02,4.24v1.05h11.12v-1.05c-1.77,0-3.08-1.64-3.08-4.24V12.68c0-2.6,1.31-4.25,3.08-4.25v-1.05h-8.37l-6.85,23.26"/><path class="cls-1" d="m164.08,20.43c0,4.08-4.32,3.51-5.84,3.56v-12.86c0-1.36.05-2.05,1.27-2.05,2.31,0,4.57-.38,4.57,2.81v8.54Zm6.25,18.17l-5.67-13.4c1.8-.42,4.08-1.11,4.08-4.26,0-3.39-.08-6.96-.08-9.33,0-4.23-3.88-4.23-7.86-4.23h-10.43v1.05c1.61,0,2.94,1.65,2.94,4.25v23.46c0,2.6-1.74,4.24-2.99,4.24.09,0-.07,0,0,0v1.05h10.93v-1.05c-1.6,0-3.01-1.64-3.01-4.24v-10.56h1.62l5.62,13.98s.29.83.86,1.39c.54.53,1.63.48,1.63.48h4.06v-1.05c-.37,0-.84.26-1.71-1.79Z"/><path class="cls-1" d="m227.35,8.43c2.02,0,2.95,1.65,2.95,4.25v23.46c0,2.6-.93,4.24-2.95,4.24v1.05h10.81v-1.05c-2.02,0-2.94-1.64-2.94-4.24V12.68c0-2.6.92-4.25,2.94-4.25v-1.05h-10.81v1.05"/><path class="cls-1" d="m183.3,20.44c-3.75-1.95-5.19-4.5-5.19-6.7,0-1.2.51-5.63,3.5-5.63,4.57.05,5.99,6.52,6.49,9.35h.9V6.86h-1c-.05,1.16-.48,1.44-1.02,1.44-1.7-.05-2.2-2.04-6.63-1.85-2.86.12-6.44,2.62-6.44,9.43,0,3.1,1.19,7.46,5.01,10.05,5.55,3.76,7.32,5.26,7.32,8.16,0,1.2-.35,6.24-4.78,6.24-3.13,0-5.2-5.16-5.6-7.11l-.71-3.5h-1v11.92h1.04c.1-.95.35-1.47.77-1.47,1.63,0,3.31,1.74,6.21,1.7,7.36-.09,8.66-6.33,8.66-9.83,0-4.8-2.29-8.91-7.53-11.61"/><path class="cls-1" d="m252.34,24.23v.88s1.49.13,1.49,2.51v7.97c0,4.25-1.47,4.6-4.06,4.6s-3.63-.96-3.63-4.21V12.52c0-2.22,1.15-4.12,3.89-4.12,3.04,0,6.29,3.05,6.29,8.94h1.66V6.85h-1.25c0,4.01-2.38-.12-6.56-.12-3.03,0-5.54.78-6.96,2.4-1.45,1.64-2.12,3.62-2.12,5.94v18.41c0,2.32.67,4.29,2.12,5.89,1.45,1.67,4.62,2.5,6.69,2.5,1.2,0,2.92-.44,3.79-.86.86-.42,1.66-1.03,2.37-1.85,1.48-1.67,2.22-3.63,2.22-5.89v-5.7c0-2.27,1.49-2.45,1.49-2.45v-.88h-7.43Z"/><path class="cls-1" d="m147.15,38.05l-6.32-30.78h-6.1v1.08c2.12,0,1.82,1.72,1.43,3.84l-5.57,24.89c-.69,2.83-1.58,3.31-2.43,3.31v1.05h5.78v-1.05c-2.16,0-2.19-1.75-1.57-4.38l1.32-4.96h6.99l1.33,6.12c.68,2.73-.4,3.22-1.71,3.22v1.05h8.77v-1.05h0c-.53-.01-1.42-.23-1.95-2.34Zm-13.1-8.61l3.35-15.31,2.84,15.31h-6.19Z"/><path class="cls-1" d="m304.57,7.38v6.53h1.13c.15-1.3.44-3.22,1.62-3.98,1.18-.76,2.39-.71,4.36-.71v26.93c0,2.6-1.27,4.24-2.89,4.24v1.05h10.77v-1.05c-1.61,0-2.95-1.64-2.95-4.24V9.28s0-.03,0-.06h0c1.96,0,3.18-.05,4.36.71,1.18.76,1.47,2.68,1.62,3.98h1.13v-6.53h-19.15Z"/><path class="cls-1" d="m152.85,87.39h4.17l4.54,7.06,4.73-7.06h3.92l-6.61,9.63,7.08,10.36h-4.26l-4.98-7.64-5.07,7.64h-4l7.08-10.36-6.61-9.63Z"/></g></svg>