<svg width="967" height="198" viewBox="0 0 967 198" fill="none" xmlns="http://www.w3.org/2000/svg">
<g filter="url(#filter0_d_817_1443)">
<mask id="path-1-outside-1_817_1443" maskUnits="userSpaceOnUse" x="10.2535" y="10.8496" width="946" height="177" fill="black">
<rect fill="white" x="10.2535" y="10.8496" width="946" height="177"/>
<path d="M48.0699 186.85C23.5257 186.85 11.2535 169.271 11.2535 134.115V59.9941C11.2535 27.8978 25.316 11.8496 53.441 11.8496C65.0296 11.8496 73.9163 14.1934 80.1012 18.8809C86.2861 23.5033 90.5504 30.2741 92.8942 39.1934C95.2379 48.1126 96.4098 58.985 96.4098 71.8105H62.816V56.5762C62.816 52.8652 62.2952 49.7728 61.2535 47.2988C60.277 44.7598 58.1936 43.4902 55.0035 43.4902C51.0322 43.4902 48.3955 44.8249 47.0934 47.4941C45.8564 50.1634 45.2379 53.0931 45.2379 56.2832V139.584C45.2379 144.206 45.8239 147.982 46.9957 150.912C48.2327 153.777 50.609 155.209 54.1246 155.209C57.7705 155.209 60.1793 153.777 61.3512 150.912C62.5882 147.982 63.2067 144.141 63.2067 139.389V114.877H54.027V85.1895H96.0192V185.287H82.2496L76.3903 170.834C70.4007 181.511 60.9606 186.85 48.0699 186.85Z"/>
<path d="M103.691 185.287V13.4121H156.425C165.214 13.4121 171.855 15.4303 176.347 19.4668C180.839 23.4382 183.834 29.0371 185.332 36.2637C186.894 43.4251 187.675 51.8561 187.675 61.5566C187.675 70.9316 186.471 78.4186 184.062 84.0176C181.718 89.6165 177.259 93.4902 170.683 95.6387C176.087 96.7454 179.863 99.4473 182.011 103.744C184.225 107.976 185.332 113.477 185.332 120.248V185.287H151.445V118.002C151.445 112.989 150.403 109.896 148.32 108.725C146.302 107.488 143.014 106.869 138.457 106.869V185.287H103.691ZM138.652 77.084H146.953C151.705 77.084 154.082 71.9082 154.082 61.5566C154.082 54.8509 153.561 50.4564 152.519 48.373C151.477 46.2897 149.524 45.248 146.66 45.248H138.652V77.084Z"/>
<path d="M193.004 185.287V13.4121H261.754V46.6152H227.964V80.1113H260.386V112.436H227.964V151.791H264V185.287H193.004Z"/>
<path d="M268.738 185.287L285.339 13.4121H343.64L359.949 185.287H327.429L324.988 157.553H304.285L302.136 185.287H268.738ZM306.726 130.111H322.351L314.832 42.709H313.269L306.726 130.111Z"/>
<path d="M373.242 185.287V46.4199H352.832V13.4121H428.027V46.4199H407.617V185.287H373.242Z"/>
<path d="M476.472 185.287V13.4121H521.882C531.388 13.4121 538.907 15.528 544.441 19.7598C550.04 23.9915 554.044 30.0137 556.453 37.8262C558.862 45.6387 560.066 54.9486 560.066 65.7559C560.066 76.1725 559.057 85.2546 557.039 93.002C555.02 100.684 551.407 106.641 546.199 110.873C541.056 115.105 533.731 117.221 524.226 117.221H510.261V185.287H476.472ZM510.261 86.3613H512.214C518.595 86.3613 522.501 84.571 523.933 80.9902C525.366 77.4095 526.082 72.1361 526.082 65.1699C526.082 58.6595 525.366 53.6465 523.933 50.1309C522.566 46.5501 519.278 44.7598 514.07 44.7598H510.261V86.3613Z"/>
<path d="M608.019 186.85C594.282 186.85 583.768 182.715 576.476 174.447C569.25 166.114 565.636 154.102 565.636 138.412V56.7715C565.636 42.0579 569.217 30.8926 576.379 23.2754C583.605 15.6582 594.152 11.8496 608.019 11.8496C621.886 11.8496 632.401 15.6582 639.562 23.2754C646.789 30.8926 650.402 42.0579 650.402 56.7715V138.412C650.402 154.102 646.756 166.114 639.464 174.447C632.238 182.715 621.756 186.85 608.019 186.85ZM608.312 155.209C613.52 155.209 616.125 150.163 616.125 140.072V56.1855C616.125 47.722 613.586 43.4902 608.507 43.4902C602.778 43.4902 599.914 47.8197 599.914 56.4785V140.268C599.914 145.606 600.565 149.447 601.867 151.791C603.169 154.07 605.317 155.209 608.312 155.209Z"/>
<path d="M669.746 185.287L651.289 13.4121H684.882L694.355 121.908L704.023 13.4121H736.054L745.234 121.908L754.414 13.4121H788.398L769.648 185.287H728.437L719.843 102.572L711.64 185.287H669.746Z"/>
<path d="M794.652 185.287V13.4121H863.402V46.6152H829.613V80.1113H862.035V112.436H829.613V151.791H865.648V185.287H794.652Z"/>
<path d="M871.074 185.287V13.4121H923.808C932.597 13.4121 939.238 15.4303 943.73 19.4668C948.222 23.4382 951.217 29.0371 952.714 36.2637C954.277 43.4251 955.058 51.8561 955.058 61.5566C955.058 70.9316 953.854 78.4186 951.445 84.0176C949.101 89.6165 944.642 93.4902 938.066 95.6387C943.47 96.7454 947.246 99.4473 949.394 103.744C951.608 107.976 952.714 113.477 952.714 120.248V185.287H918.828V118.002C918.828 112.989 917.786 109.896 915.703 108.725C913.685 107.488 910.397 106.869 905.839 106.869V185.287H871.074ZM906.035 77.084H914.336C919.088 77.084 921.464 71.9082 921.464 61.5566C921.464 54.8509 920.944 50.4564 919.902 48.373C918.86 46.2897 916.907 45.248 914.043 45.248H906.035V77.084Z"/>
</mask>
<path d="M48.0699 186.85C23.5257 186.85 11.2535 169.271 11.2535 134.115V59.9941C11.2535 27.8978 25.316 11.8496 53.441 11.8496C65.0296 11.8496 73.9163 14.1934 80.1012 18.8809C86.2861 23.5033 90.5504 30.2741 92.8942 39.1934C95.2379 48.1126 96.4098 58.985 96.4098 71.8105H62.816V56.5762C62.816 52.8652 62.2952 49.7728 61.2535 47.2988C60.277 44.7598 58.1936 43.4902 55.0035 43.4902C51.0322 43.4902 48.3955 44.8249 47.0934 47.4941C45.8564 50.1634 45.2379 53.0931 45.2379 56.2832V139.584C45.2379 144.206 45.8239 147.982 46.9957 150.912C48.2327 153.777 50.609 155.209 54.1246 155.209C57.7705 155.209 60.1793 153.777 61.3512 150.912C62.5882 147.982 63.2067 144.141 63.2067 139.389V114.877H54.027V85.1895H96.0192V185.287H82.2496L76.3903 170.834C70.4007 181.511 60.9606 186.85 48.0699 186.85Z" fill="white" shape-rendering="crispEdges"/>
<path d="M48.0699 186.85C23.5257 186.85 11.2535 169.271 11.2535 134.115V59.9941C11.2535 27.8978 25.316 11.8496 53.441 11.8496C65.0296 11.8496 73.9163 14.1934 80.1012 18.8809C86.2861 23.5033 90.5504 30.2741 92.8942 39.1934C95.2379 48.1126 96.4098 58.985 96.4098 71.8105H62.816V56.5762C62.816 52.8652 62.2952 49.7728 61.2535 47.2988C60.277 44.7598 58.1936 43.4902 55.0035 43.4902C51.0322 43.4902 48.3955 44.8249 47.0934 47.4941C45.8564 50.1634 45.2379 53.0931 45.2379 56.2832V139.584C45.2379 144.206 45.8239 147.982 46.9957 150.912C48.2327 153.777 50.609 155.209 54.1246 155.209C57.7705 155.209 60.1793 153.777 61.3512 150.912C62.5882 147.982 63.2067 144.141 63.2067 139.389V114.877H54.027V85.1895H96.0192V185.287H82.2496L76.3903 170.834C70.4007 181.511 60.9606 186.85 48.0699 186.85Z" fill="url(#paint0_linear_817_1443)" shape-rendering="crispEdges"/>
<path d="M48.0699 186.85C23.5257 186.85 11.2535 169.271 11.2535 134.115V59.9941C11.2535 27.8978 25.316 11.8496 53.441 11.8496C65.0296 11.8496 73.9163 14.1934 80.1012 18.8809C86.2861 23.5033 90.5504 30.2741 92.8942 39.1934C95.2379 48.1126 96.4098 58.985 96.4098 71.8105H62.816V56.5762C62.816 52.8652 62.2952 49.7728 61.2535 47.2988C60.277 44.7598 58.1936 43.4902 55.0035 43.4902C51.0322 43.4902 48.3955 44.8249 47.0934 47.4941C45.8564 50.1634 45.2379 53.0931 45.2379 56.2832V139.584C45.2379 144.206 45.8239 147.982 46.9957 150.912C48.2327 153.777 50.609 155.209 54.1246 155.209C57.7705 155.209 60.1793 153.777 61.3512 150.912C62.5882 147.982 63.2067 144.141 63.2067 139.389V114.877H54.027V85.1895H96.0192V185.287H82.2496L76.3903 170.834C70.4007 181.511 60.9606 186.85 48.0699 186.85Z" fill="url(#paint1_linear_817_1443)" fill-opacity="0.25" shape-rendering="crispEdges"/>
<path d="M103.691 185.287V13.4121H156.425C165.214 13.4121 171.855 15.4303 176.347 19.4668C180.839 23.4382 183.834 29.0371 185.332 36.2637C186.894 43.4251 187.675 51.8561 187.675 61.5566C187.675 70.9316 186.471 78.4186 184.062 84.0176C181.718 89.6165 177.259 93.4902 170.683 95.6387C176.087 96.7454 179.863 99.4473 182.011 103.744C184.225 107.976 185.332 113.477 185.332 120.248V185.287H151.445V118.002C151.445 112.989 150.403 109.896 148.32 108.725C146.302 107.488 143.014 106.869 138.457 106.869V185.287H103.691ZM138.652 77.084H146.953C151.705 77.084 154.082 71.9082 154.082 61.5566C154.082 54.8509 153.561 50.4564 152.519 48.373C151.477 46.2897 149.524 45.248 146.66 45.248H138.652V77.084Z" fill="white" shape-rendering="crispEdges"/>
<path d="M103.691 185.287V13.4121H156.425C165.214 13.4121 171.855 15.4303 176.347 19.4668C180.839 23.4382 183.834 29.0371 185.332 36.2637C186.894 43.4251 187.675 51.8561 187.675 61.5566C187.675 70.9316 186.471 78.4186 184.062 84.0176C181.718 89.6165 177.259 93.4902 170.683 95.6387C176.087 96.7454 179.863 99.4473 182.011 103.744C184.225 107.976 185.332 113.477 185.332 120.248V185.287H151.445V118.002C151.445 112.989 150.403 109.896 148.32 108.725C146.302 107.488 143.014 106.869 138.457 106.869V185.287H103.691ZM138.652 77.084H146.953C151.705 77.084 154.082 71.9082 154.082 61.5566C154.082 54.8509 153.561 50.4564 152.519 48.373C151.477 46.2897 149.524 45.248 146.66 45.248H138.652V77.084Z" fill="url(#paint2_linear_817_1443)" shape-rendering="crispEdges"/>
<path d="M103.691 185.287V13.4121H156.425C165.214 13.4121 171.855 15.4303 176.347 19.4668C180.839 23.4382 183.834 29.0371 185.332 36.2637C186.894 43.4251 187.675 51.8561 187.675 61.5566C187.675 70.9316 186.471 78.4186 184.062 84.0176C181.718 89.6165 177.259 93.4902 170.683 95.6387C176.087 96.7454 179.863 99.4473 182.011 103.744C184.225 107.976 185.332 113.477 185.332 120.248V185.287H151.445V118.002C151.445 112.989 150.403 109.896 148.32 108.725C146.302 107.488 143.014 106.869 138.457 106.869V185.287H103.691ZM138.652 77.084H146.953C151.705 77.084 154.082 71.9082 154.082 61.5566C154.082 54.8509 153.561 50.4564 152.519 48.373C151.477 46.2897 149.524 45.248 146.66 45.248H138.652V77.084Z" fill="url(#paint3_linear_817_1443)" fill-opacity="0.25" shape-rendering="crispEdges"/>
<path d="M193.004 185.287V13.4121H261.754V46.6152H227.964V80.1113H260.386V112.436H227.964V151.791H264V185.287H193.004Z" fill="white" shape-rendering="crispEdges"/>
<path d="M193.004 185.287V13.4121H261.754V46.6152H227.964V80.1113H260.386V112.436H227.964V151.791H264V185.287H193.004Z" fill="url(#paint4_linear_817_1443)" shape-rendering="crispEdges"/>
<path d="M193.004 185.287V13.4121H261.754V46.6152H227.964V80.1113H260.386V112.436H227.964V151.791H264V185.287H193.004Z" fill="url(#paint5_linear_817_1443)" fill-opacity="0.25" shape-rendering="crispEdges"/>
<path d="M268.738 185.287L285.339 13.4121H343.64L359.949 185.287H327.429L324.988 157.553H304.285L302.136 185.287H268.738ZM306.726 130.111H322.351L314.832 42.709H313.269L306.726 130.111Z" fill="white" shape-rendering="crispEdges"/>
<path d="M268.738 185.287L285.339 13.4121H343.64L359.949 185.287H327.429L324.988 157.553H304.285L302.136 185.287H268.738ZM306.726 130.111H322.351L314.832 42.709H313.269L306.726 130.111Z" fill="url(#paint6_linear_817_1443)" shape-rendering="crispEdges"/>
<path d="M268.738 185.287L285.339 13.4121H343.64L359.949 185.287H327.429L324.988 157.553H304.285L302.136 185.287H268.738ZM306.726 130.111H322.351L314.832 42.709H313.269L306.726 130.111Z" fill="url(#paint7_linear_817_1443)" fill-opacity="0.25" shape-rendering="crispEdges"/>
<path d="M373.242 185.287V46.4199H352.832V13.4121H428.027V46.4199H407.617V185.287H373.242Z" fill="white" shape-rendering="crispEdges"/>
<path d="M373.242 185.287V46.4199H352.832V13.4121H428.027V46.4199H407.617V185.287H373.242Z" fill="url(#paint8_linear_817_1443)" shape-rendering="crispEdges"/>
<path d="M373.242 185.287V46.4199H352.832V13.4121H428.027V46.4199H407.617V185.287H373.242Z" fill="url(#paint9_linear_817_1443)" fill-opacity="0.25" shape-rendering="crispEdges"/>
<path d="M476.472 185.287V13.4121H521.882C531.388 13.4121 538.907 15.528 544.441 19.7598C550.04 23.9915 554.044 30.0137 556.453 37.8262C558.862 45.6387 560.066 54.9486 560.066 65.7559C560.066 76.1725 559.057 85.2546 557.039 93.002C555.02 100.684 551.407 106.641 546.199 110.873C541.056 115.105 533.731 117.221 524.226 117.221H510.261V185.287H476.472ZM510.261 86.3613H512.214C518.595 86.3613 522.501 84.571 523.933 80.9902C525.366 77.4095 526.082 72.1361 526.082 65.1699C526.082 58.6595 525.366 53.6465 523.933 50.1309C522.566 46.5501 519.278 44.7598 514.07 44.7598H510.261V86.3613Z" fill="white" shape-rendering="crispEdges"/>
<path d="M476.472 185.287V13.4121H521.882C531.388 13.4121 538.907 15.528 544.441 19.7598C550.04 23.9915 554.044 30.0137 556.453 37.8262C558.862 45.6387 560.066 54.9486 560.066 65.7559C560.066 76.1725 559.057 85.2546 557.039 93.002C555.02 100.684 551.407 106.641 546.199 110.873C541.056 115.105 533.731 117.221 524.226 117.221H510.261V185.287H476.472ZM510.261 86.3613H512.214C518.595 86.3613 522.501 84.571 523.933 80.9902C525.366 77.4095 526.082 72.1361 526.082 65.1699C526.082 58.6595 525.366 53.6465 523.933 50.1309C522.566 46.5501 519.278 44.7598 514.07 44.7598H510.261V86.3613Z" fill="url(#paint10_linear_817_1443)" shape-rendering="crispEdges"/>
<path d="M476.472 185.287V13.4121H521.882C531.388 13.4121 538.907 15.528 544.441 19.7598C550.04 23.9915 554.044 30.0137 556.453 37.8262C558.862 45.6387 560.066 54.9486 560.066 65.7559C560.066 76.1725 559.057 85.2546 557.039 93.002C555.02 100.684 551.407 106.641 546.199 110.873C541.056 115.105 533.731 117.221 524.226 117.221H510.261V185.287H476.472ZM510.261 86.3613H512.214C518.595 86.3613 522.501 84.571 523.933 80.9902C525.366 77.4095 526.082 72.1361 526.082 65.1699C526.082 58.6595 525.366 53.6465 523.933 50.1309C522.566 46.5501 519.278 44.7598 514.07 44.7598H510.261V86.3613Z" fill="url(#paint11_linear_817_1443)" fill-opacity="0.25" shape-rendering="crispEdges"/>
<path d="M608.019 186.85C594.282 186.85 583.768 182.715 576.476 174.447C569.25 166.114 565.636 154.102 565.636 138.412V56.7715C565.636 42.0579 569.217 30.8926 576.379 23.2754C583.605 15.6582 594.152 11.8496 608.019 11.8496C621.886 11.8496 632.401 15.6582 639.562 23.2754C646.789 30.8926 650.402 42.0579 650.402 56.7715V138.412C650.402 154.102 646.756 166.114 639.464 174.447C632.238 182.715 621.756 186.85 608.019 186.85ZM608.312 155.209C613.52 155.209 616.125 150.163 616.125 140.072V56.1855C616.125 47.722 613.586 43.4902 608.507 43.4902C602.778 43.4902 599.914 47.8197 599.914 56.4785V140.268C599.914 145.606 600.565 149.447 601.867 151.791C603.169 154.07 605.317 155.209 608.312 155.209Z" fill="white" shape-rendering="crispEdges"/>
<path d="M608.019 186.85C594.282 186.85 583.768 182.715 576.476 174.447C569.25 166.114 565.636 154.102 565.636 138.412V56.7715C565.636 42.0579 569.217 30.8926 576.379 23.2754C583.605 15.6582 594.152 11.8496 608.019 11.8496C621.886 11.8496 632.401 15.6582 639.562 23.2754C646.789 30.8926 650.402 42.0579 650.402 56.7715V138.412C650.402 154.102 646.756 166.114 639.464 174.447C632.238 182.715 621.756 186.85 608.019 186.85ZM608.312 155.209C613.52 155.209 616.125 150.163 616.125 140.072V56.1855C616.125 47.722 613.586 43.4902 608.507 43.4902C602.778 43.4902 599.914 47.8197 599.914 56.4785V140.268C599.914 145.606 600.565 149.447 601.867 151.791C603.169 154.07 605.317 155.209 608.312 155.209Z" fill="url(#paint12_linear_817_1443)" shape-rendering="crispEdges"/>
<path d="M608.019 186.85C594.282 186.85 583.768 182.715 576.476 174.447C569.25 166.114 565.636 154.102 565.636 138.412V56.7715C565.636 42.0579 569.217 30.8926 576.379 23.2754C583.605 15.6582 594.152 11.8496 608.019 11.8496C621.886 11.8496 632.401 15.6582 639.562 23.2754C646.789 30.8926 650.402 42.0579 650.402 56.7715V138.412C650.402 154.102 646.756 166.114 639.464 174.447C632.238 182.715 621.756 186.85 608.019 186.85ZM608.312 155.209C613.52 155.209 616.125 150.163 616.125 140.072V56.1855C616.125 47.722 613.586 43.4902 608.507 43.4902C602.778 43.4902 599.914 47.8197 599.914 56.4785V140.268C599.914 145.606 600.565 149.447 601.867 151.791C603.169 154.07 605.317 155.209 608.312 155.209Z" fill="url(#paint13_linear_817_1443)" fill-opacity="0.25" shape-rendering="crispEdges"/>
<path d="M669.746 185.287L651.289 13.4121H684.882L694.355 121.908L704.023 13.4121H736.054L745.234 121.908L754.414 13.4121H788.398L769.648 185.287H728.437L719.843 102.572L711.64 185.287H669.746Z" fill="white" shape-rendering="crispEdges"/>
<path d="M669.746 185.287L651.289 13.4121H684.882L694.355 121.908L704.023 13.4121H736.054L745.234 121.908L754.414 13.4121H788.398L769.648 185.287H728.437L719.843 102.572L711.64 185.287H669.746Z" fill="url(#paint14_linear_817_1443)" shape-rendering="crispEdges"/>
<path d="M669.746 185.287L651.289 13.4121H684.882L694.355 121.908L704.023 13.4121H736.054L745.234 121.908L754.414 13.4121H788.398L769.648 185.287H728.437L719.843 102.572L711.64 185.287H669.746Z" fill="url(#paint15_linear_817_1443)" fill-opacity="0.25" shape-rendering="crispEdges"/>
<path d="M794.652 185.287V13.4121H863.402V46.6152H829.613V80.1113H862.035V112.436H829.613V151.791H865.648V185.287H794.652Z" fill="white" shape-rendering="crispEdges"/>
<path d="M794.652 185.287V13.4121H863.402V46.6152H829.613V80.1113H862.035V112.436H829.613V151.791H865.648V185.287H794.652Z" fill="url(#paint16_linear_817_1443)" shape-rendering="crispEdges"/>
<path d="M794.652 185.287V13.4121H863.402V46.6152H829.613V80.1113H862.035V112.436H829.613V151.791H865.648V185.287H794.652Z" fill="url(#paint17_linear_817_1443)" fill-opacity="0.25" shape-rendering="crispEdges"/>
<path d="M871.074 185.287V13.4121H923.808C932.597 13.4121 939.238 15.4303 943.73 19.4668C948.222 23.4382 951.217 29.0371 952.714 36.2637C954.277 43.4251 955.058 51.8561 955.058 61.5566C955.058 70.9316 953.854 78.4186 951.445 84.0176C949.101 89.6165 944.642 93.4902 938.066 95.6387C943.47 96.7454 947.246 99.4473 949.394 103.744C951.608 107.976 952.714 113.477 952.714 120.248V185.287H918.828V118.002C918.828 112.989 917.786 109.896 915.703 108.725C913.685 107.488 910.397 106.869 905.839 106.869V185.287H871.074ZM906.035 77.084H914.336C919.088 77.084 921.464 71.9082 921.464 61.5566C921.464 54.8509 920.944 50.4564 919.902 48.373C918.86 46.2897 916.907 45.248 914.043 45.248H906.035V77.084Z" fill="white" shape-rendering="crispEdges"/>
<path d="M871.074 185.287V13.4121H923.808C932.597 13.4121 939.238 15.4303 943.73 19.4668C948.222 23.4382 951.217 29.0371 952.714 36.2637C954.277 43.4251 955.058 51.8561 955.058 61.5566C955.058 70.9316 953.854 78.4186 951.445 84.0176C949.101 89.6165 944.642 93.4902 938.066 95.6387C943.47 96.7454 947.246 99.4473 949.394 103.744C951.608 107.976 952.714 113.477 952.714 120.248V185.287H918.828V118.002C918.828 112.989 917.786 109.896 915.703 108.725C913.685 107.488 910.397 106.869 905.839 106.869V185.287H871.074ZM906.035 77.084H914.336C919.088 77.084 921.464 71.9082 921.464 61.5566C921.464 54.8509 920.944 50.4564 919.902 48.373C918.86 46.2897 916.907 45.248 914.043 45.248H906.035V77.084Z" fill="url(#paint18_linear_817_1443)" shape-rendering="crispEdges"/>
<path d="M871.074 185.287V13.4121H923.808C932.597 13.4121 939.238 15.4303 943.73 19.4668C948.222 23.4382 951.217 29.0371 952.714 36.2637C954.277 43.4251 955.058 51.8561 955.058 61.5566C955.058 70.9316 953.854 78.4186 951.445 84.0176C949.101 89.6165 944.642 93.4902 938.066 95.6387C943.47 96.7454 947.246 99.4473 949.394 103.744C951.608 107.976 952.714 113.477 952.714 120.248V185.287H918.828V118.002C918.828 112.989 917.786 109.896 915.703 108.725C913.685 107.488 910.397 106.869 905.839 106.869V185.287H871.074ZM906.035 77.084H914.336C919.088 77.084 921.464 71.9082 921.464 61.5566C921.464 54.8509 920.944 50.4564 919.902 48.373C918.86 46.2897 916.907 45.248 914.043 45.248H906.035V77.084Z" fill="url(#paint19_linear_817_1443)" fill-opacity="0.25" shape-rendering="crispEdges"/>
<path d="M48.0699 186.85C23.5257 186.85 11.2535 169.271 11.2535 134.115V59.9941C11.2535 27.8978 25.316 11.8496 53.441 11.8496C65.0296 11.8496 73.9163 14.1934 80.1012 18.8809C86.2861 23.5033 90.5504 30.2741 92.8942 39.1934C95.2379 48.1126 96.4098 58.985 96.4098 71.8105H62.816V56.5762C62.816 52.8652 62.2952 49.7728 61.2535 47.2988C60.277 44.7598 58.1936 43.4902 55.0035 43.4902C51.0322 43.4902 48.3955 44.8249 47.0934 47.4941C45.8564 50.1634 45.2379 53.0931 45.2379 56.2832V139.584C45.2379 144.206 45.8239 147.982 46.9957 150.912C48.2327 153.777 50.609 155.209 54.1246 155.209C57.7705 155.209 60.1793 153.777 61.3512 150.912C62.5882 147.982 63.2067 144.141 63.2067 139.389V114.877H54.027V85.1895H96.0192V185.287H82.2496L76.3903 170.834C70.4007 181.511 60.9606 186.85 48.0699 186.85Z" stroke="black" stroke-opacity="0.75" stroke-width="2" shape-rendering="crispEdges" mask="url(#path-1-outside-1_817_1443)"/>
<path d="M103.691 185.287V13.4121H156.425C165.214 13.4121 171.855 15.4303 176.347 19.4668C180.839 23.4382 183.834 29.0371 185.332 36.2637C186.894 43.4251 187.675 51.8561 187.675 61.5566C187.675 70.9316 186.471 78.4186 184.062 84.0176C181.718 89.6165 177.259 93.4902 170.683 95.6387C176.087 96.7454 179.863 99.4473 182.011 103.744C184.225 107.976 185.332 113.477 185.332 120.248V185.287H151.445V118.002C151.445 112.989 150.403 109.896 148.32 108.725C146.302 107.488 143.014 106.869 138.457 106.869V185.287H103.691ZM138.652 77.084H146.953C151.705 77.084 154.082 71.9082 154.082 61.5566C154.082 54.8509 153.561 50.4564 152.519 48.373C151.477 46.2897 149.524 45.248 146.66 45.248H138.652V77.084Z" stroke="black" stroke-opacity="0.75" stroke-width="2" shape-rendering="crispEdges" mask="url(#path-1-outside-1_817_1443)"/>
<path d="M193.004 185.287V13.4121H261.754V46.6152H227.964V80.1113H260.386V112.436H227.964V151.791H264V185.287H193.004Z" stroke="black" stroke-opacity="0.75" stroke-width="2" shape-rendering="crispEdges" mask="url(#path-1-outside-1_817_1443)"/>
<path d="M268.738 185.287L285.339 13.4121H343.64L359.949 185.287H327.429L324.988 157.553H304.285L302.136 185.287H268.738ZM306.726 130.111H322.351L314.832 42.709H313.269L306.726 130.111Z" stroke="black" stroke-opacity="0.75" stroke-width="2" shape-rendering="crispEdges" mask="url(#path-1-outside-1_817_1443)"/>
<path d="M373.242 185.287V46.4199H352.832V13.4121H428.027V46.4199H407.617V185.287H373.242Z" stroke="black" stroke-opacity="0.75" stroke-width="2" shape-rendering="crispEdges" mask="url(#path-1-outside-1_817_1443)"/>
<path d="M476.472 185.287V13.4121H521.882C531.388 13.4121 538.907 15.528 544.441 19.7598C550.04 23.9915 554.044 30.0137 556.453 37.8262C558.862 45.6387 560.066 54.9486 560.066 65.7559C560.066 76.1725 559.057 85.2546 557.039 93.002C555.02 100.684 551.407 106.641 546.199 110.873C541.056 115.105 533.731 117.221 524.226 117.221H510.261V185.287H476.472ZM510.261 86.3613H512.214C518.595 86.3613 522.501 84.571 523.933 80.9902C525.366 77.4095 526.082 72.1361 526.082 65.1699C526.082 58.6595 525.366 53.6465 523.933 50.1309C522.566 46.5501 519.278 44.7598 514.07 44.7598H510.261V86.3613Z" stroke="black" stroke-opacity="0.75" stroke-width="2" shape-rendering="crispEdges" mask="url(#path-1-outside-1_817_1443)"/>
<path d="M608.019 186.85C594.282 186.85 583.768 182.715 576.476 174.447C569.25 166.114 565.636 154.102 565.636 138.412V56.7715C565.636 42.0579 569.217 30.8926 576.379 23.2754C583.605 15.6582 594.152 11.8496 608.019 11.8496C621.886 11.8496 632.401 15.6582 639.562 23.2754C646.789 30.8926 650.402 42.0579 650.402 56.7715V138.412C650.402 154.102 646.756 166.114 639.464 174.447C632.238 182.715 621.756 186.85 608.019 186.85ZM608.312 155.209C613.52 155.209 616.125 150.163 616.125 140.072V56.1855C616.125 47.722 613.586 43.4902 608.507 43.4902C602.778 43.4902 599.914 47.8197 599.914 56.4785V140.268C599.914 145.606 600.565 149.447 601.867 151.791C603.169 154.07 605.317 155.209 608.312 155.209Z" stroke="black" stroke-opacity="0.75" stroke-width="2" shape-rendering="crispEdges" mask="url(#path-1-outside-1_817_1443)"/>
<path d="M669.746 185.287L651.289 13.4121H684.882L694.355 121.908L704.023 13.4121H736.054L745.234 121.908L754.414 13.4121H788.398L769.648 185.287H728.437L719.843 102.572L711.64 185.287H669.746Z" stroke="black" stroke-opacity="0.75" stroke-width="2" shape-rendering="crispEdges" mask="url(#path-1-outside-1_817_1443)"/>
<path d="M794.652 185.287V13.4121H863.402V46.6152H829.613V80.1113H862.035V112.436H829.613V151.791H865.648V185.287H794.652Z" stroke="black" stroke-opacity="0.75" stroke-width="2" shape-rendering="crispEdges" mask="url(#path-1-outside-1_817_1443)"/>
<path d="M871.074 185.287V13.4121H923.808C932.597 13.4121 939.238 15.4303 943.73 19.4668C948.222 23.4382 951.217 29.0371 952.714 36.2637C954.277 43.4251 955.058 51.8561 955.058 61.5566C955.058 70.9316 953.854 78.4186 951.445 84.0176C949.101 89.6165 944.642 93.4902 938.066 95.6387C943.47 96.7454 947.246 99.4473 949.394 103.744C951.608 107.976 952.714 113.477 952.714 120.248V185.287H918.828V118.002C918.828 112.989 917.786 109.896 915.703 108.725C913.685 107.488 910.397 106.869 905.839 106.869V185.287H871.074ZM906.035 77.084H914.336C919.088 77.084 921.464 71.9082 921.464 61.5566C921.464 54.8509 920.944 50.4564 919.902 48.373C918.86 46.2897 916.907 45.248 914.043 45.248H906.035V77.084Z" stroke="black" stroke-opacity="0.75" stroke-width="2" shape-rendering="crispEdges" mask="url(#path-1-outside-1_817_1443)"/>
</g>
<defs>
<filter id="filter0_d_817_1443" x="0.25354" y="0.849609" width="965.805" height="197" filterUnits="userSpaceOnUse" color-interpolation-filters="sRGB">
<feFlood flood-opacity="0" result="BackgroundImageFix"/>
<feColorMatrix in="SourceAlpha" type="matrix" values="0 0 0 0 0 0 0 0 0 0 0 0 0 0 0 0 0 0 127 0" result="hardAlpha"/>
<feOffset/>
<feGaussianBlur stdDeviation="5"/>
<feComposite in2="hardAlpha" operator="out"/>
<feColorMatrix type="matrix" values="0 0 0 0 1 0 0 0 0 1 0 0 0 0 1 0 0 0 0.14 0"/>
<feBlend mode="normal" in2="BackgroundImageFix" result="effect1_dropShadow_817_1443"/>
<feBlend mode="normal" in="SourceGraphic" in2="effect1_dropShadow_817_1443" result="shape"/>
</filter>
<linearGradient id="paint0_linear_817_1443" x1="481.886" y1="-137.713" x2="481.886" y2="228.686" gradientUnits="userSpaceOnUse">
<stop stop-color="#FF0000"/>
<stop offset="0.0001" stop-color="#FF0000"/>
<stop offset="1" stop-color="#9E3033"/>
</linearGradient>
<linearGradient id="paint1_linear_817_1443" x1="481.886" y1="-137.713" x2="481.886" y2="228.686" gradientUnits="userSpaceOnUse">
<stop stop-color="white"/>
<stop offset="1" stop-color="white" stop-opacity="0"/>
</linearGradient>
<linearGradient id="paint2_linear_817_1443" x1="481.886" y1="-137.713" x2="481.886" y2="228.686" gradientUnits="userSpaceOnUse">
<stop stop-color="#FF0000"/>
<stop offset="0.0001" stop-color="#FF0000"/>
<stop offset="1" stop-color="#9E3033"/>
</linearGradient>
<linearGradient id="paint3_linear_817_1443" x1="481.886" y1="-137.713" x2="481.886" y2="228.686" gradientUnits="userSpaceOnUse">
<stop stop-color="white"/>
<stop offset="1" stop-color="white" stop-opacity="0"/>
</linearGradient>
<linearGradient id="paint4_linear_817_1443" x1="481.886" y1="-137.713" x2="481.886" y2="228.686" gradientUnits="userSpaceOnUse">
<stop stop-color="#FF0000"/>
<stop offset="0.0001" stop-color="#FF0000"/>
<stop offset="1" stop-color="#9E3033"/>
</linearGradient>
<linearGradient id="paint5_linear_817_1443" x1="481.886" y1="-137.713" x2="481.886" y2="228.686" gradientUnits="userSpaceOnUse">
<stop stop-color="white"/>
<stop offset="1" stop-color="white" stop-opacity="0"/>
</linearGradient>
<linearGradient id="paint6_linear_817_1443" x1="481.886" y1="-137.713" x2="481.886" y2="228.686" gradientUnits="userSpaceOnUse">
<stop stop-color="#FF0000"/>
<stop offset="0.0001" stop-color="#FF0000"/>
<stop offset="1" stop-color="#9E3033"/>
</linearGradient>
<linearGradient id="paint7_linear_817_1443" x1="481.886" y1="-137.713" x2="481.886" y2="228.686" gradientUnits="userSpaceOnUse">
<stop stop-color="white"/>
<stop offset="1" stop-color="white" stop-opacity="0"/>
</linearGradient>
<linearGradient id="paint8_linear_817_1443" x1="481.886" y1="-137.713" x2="481.886" y2="228.686" gradientUnits="userSpaceOnUse">
<stop stop-color="#FF0000"/>
<stop offset="0.0001" stop-color="#FF0000"/>
<stop offset="1" stop-color="#9E3033"/>
</linearGradient>
<linearGradient id="paint9_linear_817_1443" x1="481.886" y1="-137.713" x2="481.886" y2="228.686" gradientUnits="userSpaceOnUse">
<stop stop-color="white"/>
<stop offset="1" stop-color="white" stop-opacity="0"/>
</linearGradient>
<linearGradient id="paint10_linear_817_1443" x1="481.886" y1="-137.713" x2="481.886" y2="228.686" gradientUnits="userSpaceOnUse">
<stop stop-color="#FF0000"/>
<stop offset="0.0001" stop-color="#FF0000"/>
<stop offset="1" stop-color="#9E3033"/>
</linearGradient>
<linearGradient id="paint11_linear_817_1443" x1="481.886" y1="-137.713" x2="481.886" y2="228.686" gradientUnits="userSpaceOnUse">
<stop stop-color="white"/>
<stop offset="1" stop-color="white" stop-opacity="0"/>
</linearGradient>
<linearGradient id="paint12_linear_817_1443" x1="481.886" y1="-137.713" x2="481.886" y2="228.686" gradientUnits="userSpaceOnUse">
<stop stop-color="#FF0000"/>
<stop offset="0.0001" stop-color="#FF0000"/>
<stop offset="1" stop-color="#9E3033"/>
</linearGradient>
<linearGradient id="paint13_linear_817_1443" x1="481.886" y1="-137.713" x2="481.886" y2="228.686" gradientUnits="userSpaceOnUse">
<stop stop-color="white"/>
<stop offset="1" stop-color="white" stop-opacity="0"/>
</linearGradient>
<linearGradient id="paint14_linear_817_1443" x1="481.886" y1="-137.713" x2="481.886" y2="228.686" gradientUnits="userSpaceOnUse">
<stop stop-color="#FF0000"/>
<stop offset="0.0001" stop-color="#FF0000"/>
<stop offset="1" stop-color="#9E3033"/>
</linearGradient>
<linearGradient id="paint15_linear_817_1443" x1="481.886" y1="-137.713" x2="481.886" y2="228.686" gradientUnits="userSpaceOnUse">
<stop stop-color="white"/>
<stop offset="1" stop-color="white" stop-opacity="0"/>
</linearGradient>
<linearGradient id="paint16_linear_817_1443" x1="481.886" y1="-137.713" x2="481.886" y2="228.686" gradientUnits="userSpaceOnUse">
<stop stop-color="#FF0000"/>
<stop offset="0.0001" stop-color="#FF0000"/>
<stop offset="1" stop-color="#9E3033"/>
</linearGradient>
<linearGradient id="paint17_linear_817_1443" x1="481.886" y1="-137.713" x2="481.886" y2="228.686" gradientUnits="userSpaceOnUse">
<stop stop-color="white"/>
<stop offset="1" stop-color="white" stop-opacity="0"/>
</linearGradient>
<linearGradient id="paint18_linear_817_1443" x1="481.886" y1="-137.713" x2="481.886" y2="228.686" gradientUnits="userSpaceOnUse">
<stop stop-color="#FF0000"/>
<stop offset="0.0001" stop-color="#FF0000"/>
<stop offset="1" stop-color="#9E3033"/>
</linearGradient>
<linearGradient id="paint19_linear_817_1443" x1="481.886" y1="-137.713" x2="481.886" y2="228.686" gradientUnits="userSpaceOnUse">
<stop stop-color="white"/>
<stop offset="1" stop-color="white" stop-opacity="0"/>
</linearGradient>
</defs>
</svg>
