<?xml version="1.0" encoding="UTF-8"?><svg id="Layer_2" xmlns="http://www.w3.org/2000/svg" xmlns:xlink="http://www.w3.org/1999/xlink" viewBox="0 0 272.2 115.05"><defs><style>.cls-1{fill:url(#linear-gradient);}.cls-2{fill:url(#linear-gradient-10);}.cls-2,.cls-3,.cls-4,.cls-5,.cls-6{fill-opacity:.25;}.cls-7{fill:#fff;}.cls-3{fill:url(#linear-gradient-8);}.cls-4{fill:url(#linear-gradient-6);}.cls-5{fill:url(#linear-gradient-4);}.cls-6{fill:url(#linear-gradient-2);}.cls-8{fill:url(#linear-gradient-9);}.cls-9{fill:url(#linear-gradient-3);}.cls-10{fill:url(#linear-gradient-7);}.cls-11{fill:url(#linear-gradient-5);}.cls-12{fill-rule:evenodd;}</style><linearGradient id="linear-gradient" x1="-634.17" y1="-1055.67" x2="-634.17" y2="-1415.47" gradientTransform="translate(662.5 -1152.29) scale(1 -1)" gradientUnits="userSpaceOnUse"><stop offset="0" stop-color="red"/><stop offset="0" stop-color="red"/><stop offset="1" stop-color="#9e3033"/></linearGradient><linearGradient id="linear-gradient-2" x1="-634.17" y1="-1055.67" x2="-634.17" y2="-1415.47" gradientTransform="translate(662.5 -1152.29) scale(1 -1)" gradientUnits="userSpaceOnUse"><stop offset="0" stop-color="#fff"/><stop offset="1" stop-color="#fff" stop-opacity="0"/></linearGradient><linearGradient id="linear-gradient-3" x1="-574.47" x2="-574.47" xlink:href="#linear-gradient"/><linearGradient id="linear-gradient-4" x1="-574.47" y1="-1055.67" x2="-574.47" y2="-1415.47" xlink:href="#linear-gradient-2"/><linearGradient id="linear-gradient-5" x1="-520.64" x2="-520.64" xlink:href="#linear-gradient"/><linearGradient id="linear-gradient-6" x1="-520.64" x2="-520.64" xlink:href="#linear-gradient-2"/><linearGradient id="linear-gradient-7" x1="-464.84" x2="-464.84" xlink:href="#linear-gradient"/><linearGradient id="linear-gradient-8" x1="-464.84" y1="-1055.67" x2="-464.84" y2="-1415.47" xlink:href="#linear-gradient-2"/><linearGradient id="linear-gradient-9" x1="-415.39" x2="-415.39" xlink:href="#linear-gradient"/><linearGradient id="linear-gradient-10" x1="-415.39" x2="-415.39" xlink:href="#linear-gradient-2"/></defs><g id="Layer_1-2"><path d="m28.07,0c7.61,0,13.54,1.54,17.72,4.7,4.16,3.11,7,7.65,8.55,13.56,1.54,5.87,2.31,12.99,2.31,21.37v.65h-23.14v-10.55c0-2.36-.33-4.27-.96-5.78h0s0-.02,0-.02c-.27-.71-.68-1.21-1.22-1.53-.55-.33-1.28-.52-2.23-.52-2.43,0-3.85.8-4.55,2.23-.76,1.64-1.14,3.45-1.14,5.43v54.15c0,2.95.37,5.31,1.09,7.11.36.82.86,1.4,1.5,1.79.65.39,1.48.6,2.54.6s1.96-.22,2.62-.61c.65-.39,1.14-.97,1.48-1.78h0c.76-1.8,1.15-4.2,1.15-7.24v-15.28h-5.97v-20.6h28.59v66.36h-10.04l-3.48-8.59c-4.04,6.4-10.17,9.6-18.3,9.6s-14.35-2.93-18.48-8.85c-4.1-5.87-6.1-14.6-6.1-26.08V31.94C0,21.43,2.3,13.43,7.02,8.05,11.75,2.65,18.81,0,28.07,0Z"/><path d="m142.16,23.9v20.47h21.07v22.31h-21.07v24.28h23.42v23.07h-47.45V1.02h45.99v22.88h-21.96Z"/><path d="m235.29,114.03V23.77h-13.27V1.02h50.18v22.76h-13.27v90.26h-23.64Z"/><path class="cls-12" d="m108.39,5.12c-3.08-2.77-7.58-4.1-13.38-4.1h-34.93v113.02h23.9v-50.96c2.58.06,4.36.45,5.42,1.1h.01s.01.01.01.01c.49.28.92.81,1.23,1.72.31.91.47,2.15.47,3.74v44.39h23.33v-42.93c0-4.46-.73-8.15-2.23-11.02-1.22-2.44-3.19-4.12-5.87-5.07,3.42-1.53,5.85-3.93,7.22-7.2,1.61-3.75,2.4-8.72,2.4-14.85s-.51-11.86-1.54-16.58c-1-4.8-3-8.58-6.04-11.27Zm-24.28,37.29h4.75c.65,0,1.19-.17,1.65-.51.47-.34.89-.87,1.24-1.64.71-1.55,1.1-3.96,1.1-7.3,0-2.17-.08-3.94-.25-5.33-.17-1.41-.41-2.37-.7-2.94-.54-1.08-1.54-1.67-3.23-1.67h-4.56v19.39Z"/><path class="cls-12" d="m191.72,96.01h12.26l1.59,18.03h22.45L217.29,1.02h-39.08l-10.92,113.02h23.03l1.4-18.03Zm1.69-19.14h8.75l-4.68-54.37-4.07,54.37Z"/><path class="cls-7" d="m24.58,114.4c-15.95,0-23.93-11.43-23.93-34.28V31.94C.65,11.08,9.79.65,28.07.65c7.53,0,13.31,1.52,17.33,4.57,4.02,3,6.79,7.41,8.32,13.2,1.52,5.8,2.29,12.86,2.29,21.2h-21.84v-9.9c0-2.41-.34-4.42-1.02-6.03-.63-1.65-1.99-2.48-4.06-2.48-2.58,0-4.3.87-5.14,2.6-.8,1.74-1.21,3.64-1.21,5.71v54.15c0,3,.38,5.46,1.14,7.36.8,1.86,2.35,2.79,4.63,2.79s3.94-.93,4.7-2.79c.8-1.9,1.21-4.4,1.21-7.49v-15.93h-5.97v-19.3h27.29v65.06h-8.95l-3.81-9.39c-3.89,6.94-10.03,10.41-18.41,10.41Z"/><path class="cls-1" d="m24.58,114.4c-15.95,0-23.93-11.43-23.93-34.28V31.94C.65,11.08,9.79.65,28.07.65c7.53,0,13.31,1.52,17.33,4.57,4.02,3,6.79,7.41,8.32,13.2,1.52,5.8,2.29,12.86,2.29,21.2h-21.84v-9.9c0-2.41-.34-4.42-1.02-6.03-.63-1.65-1.99-2.48-4.06-2.48-2.58,0-4.3.87-5.14,2.6-.8,1.74-1.21,3.64-1.21,5.71v54.15c0,3,.38,5.46,1.14,7.36.8,1.86,2.35,2.79,4.63,2.79s3.94-.93,4.7-2.79c.8-1.9,1.21-4.4,1.21-7.49v-15.93h-5.97v-19.3h27.29v65.06h-8.95l-3.81-9.39c-3.89,6.94-10.03,10.41-18.41,10.41Z"/><path class="cls-6" d="m24.58,114.4c-15.95,0-23.93-11.43-23.93-34.28V31.94C.65,11.08,9.79.65,28.07.65c7.53,0,13.31,1.52,17.33,4.57,4.02,3,6.79,7.41,8.32,13.2,1.52,5.8,2.29,12.86,2.29,21.2h-21.84v-9.9c0-2.41-.34-4.42-1.02-6.03-.63-1.65-1.99-2.48-4.06-2.48-2.58,0-4.3.87-5.14,2.6-.8,1.74-1.21,3.64-1.21,5.71v54.15c0,3,.38,5.46,1.14,7.36.8,1.86,2.35,2.79,4.63,2.79s3.94-.93,4.7-2.79c.8-1.9,1.21-4.4,1.21-7.49v-15.93h-5.97v-19.3h27.29v65.06h-8.95l-3.81-9.39c-3.89,6.94-10.03,10.41-18.41,10.41Z"/><path class="cls-7" d="m60.73,113.38V1.67h34.28c5.71,0,10.03,1.31,12.95,3.94,2.92,2.58,4.87,6.22,5.84,10.92,1.02,4.65,1.52,10.14,1.52,16.44s-.78,10.96-2.35,14.6c-1.52,3.64-4.42,6.16-8.7,7.55,3.51.72,5.97,2.48,7.36,5.27,1.44,2.75,2.16,6.33,2.16,10.73v42.28h-22.03v-43.74c0-3.26-.68-5.27-2.03-6.03-1.31-.8-3.45-1.21-6.41-1.21v50.97h-22.6Zm22.72-70.33h5.4c3.09,0,4.63-3.36,4.63-10.09,0-4.36-.34-7.22-1.02-8.57-.68-1.35-1.95-2.03-3.81-2.03h-5.21v20.69Z"/><path class="cls-9" d="m60.73,113.38V1.67h34.28c5.71,0,10.03,1.31,12.95,3.94,2.92,2.58,4.87,6.22,5.84,10.92,1.02,4.65,1.52,10.14,1.52,16.44s-.78,10.96-2.35,14.6c-1.52,3.64-4.42,6.16-8.7,7.55,3.51.72,5.97,2.48,7.36,5.27,1.44,2.75,2.16,6.33,2.16,10.73v42.28h-22.03v-43.74c0-3.26-.68-5.27-2.03-6.03-1.31-.8-3.45-1.21-6.41-1.21v50.97h-22.6Zm22.72-70.33h5.4c3.09,0,4.63-3.36,4.63-10.09,0-4.36-.34-7.22-1.02-8.57-.68-1.35-1.95-2.03-3.81-2.03h-5.21v20.69Z"/><path class="cls-5" d="m60.73,113.38V1.67h34.28c5.71,0,10.03,1.31,12.95,3.94,2.92,2.58,4.87,6.22,5.84,10.92,1.02,4.65,1.52,10.14,1.52,16.44s-.78,10.96-2.35,14.6c-1.52,3.64-4.42,6.16-8.7,7.55,3.51.72,5.97,2.48,7.36,5.27,1.44,2.75,2.16,6.33,2.16,10.73v42.28h-22.03v-43.74c0-3.26-.68-5.27-2.03-6.03-1.31-.8-3.45-1.21-6.41-1.21v50.97h-22.6Zm22.72-70.33h5.4c3.09,0,4.63-3.36,4.63-10.09,0-4.36-.34-7.22-1.02-8.57-.68-1.35-1.95-2.03-3.81-2.03h-5.21v20.69Z"/><path class="cls-7" d="m118.79,113.38V1.67h44.69v21.58h-21.96v21.77h21.07v21.01h-21.07v25.58h23.42v21.77h-46.15Z"/><path class="cls-11" d="m118.79,113.38V1.67h44.69v21.58h-21.96v21.77h21.07v21.01h-21.07v25.58h23.42v21.77h-46.15Z"/><path class="cls-4" d="m118.79,113.38V1.67h44.69v21.58h-21.96v21.77h21.07v21.01h-21.07v25.58h23.42v21.77h-46.15Z"/><path class="cls-7" d="m168.01,113.38L178.81,1.67h37.9l10.6,111.72h-21.14l-1.59-18.03h-13.46l-1.4,18.03h-21.71Zm24.69-35.86h10.16l-4.89-56.81h-1.01l-4.25,56.81Z"/><path class="cls-10" d="m168.01,113.38L178.81,1.67h37.9l10.6,111.72h-21.14l-1.59-18.03h-13.46l-1.4,18.03h-21.71Zm24.69-35.86h10.16l-4.89-56.81h-1.01l-4.25,56.81Z"/><path class="cls-3" d="m168.01,113.38L178.81,1.67h37.9l10.6,111.72h-21.14l-1.59-18.03h-13.46l-1.4,18.03h-21.71Zm24.69-35.86h10.16l-4.89-56.81h-1.01l-4.25,56.81Z"/><path class="cls-7" d="m235.94,113.38V23.12h-13.27V1.67h48.88v21.46h-13.27v90.26h-22.34Z"/><path class="cls-8" d="m235.94,113.38V23.12h-13.27V1.67h48.88v21.46h-13.27v90.26h-22.34Z"/><path class="cls-2" d="m235.94,113.38V23.12h-13.27V1.67h48.88v21.46h-13.27v90.26h-22.34Z"/></g></svg>