<?xml version="1.0" encoding="UTF-8"?><svg id="Layer_2" xmlns="http://www.w3.org/2000/svg" xmlns:xlink="http://www.w3.org/1999/xlink" viewBox="0 0 312.38 115.05"><defs><style>.cls-1{fill:url(#linear-gradient);}.cls-2{fill:url(#linear-gradient-10);}.cls-2,.cls-3,.cls-4,.cls-5,.cls-6{fill-opacity:.25;}.cls-7{fill:#fff;}.cls-3{fill:url(#linear-gradient-8);}.cls-4{fill:url(#linear-gradient-6);}.cls-5{fill:url(#linear-gradient-4);}.cls-6{fill:url(#linear-gradient-2);}.cls-8{fill:url(#linear-gradient-9);}.cls-9{fill:url(#linear-gradient-3);}.cls-10{fill:url(#linear-gradient-7);}.cls-11{fill:url(#linear-gradient-5);}.cls-12{fill-rule:evenodd;}</style><linearGradient id="linear-gradient" x1="-634.68" y1="-1421.14" x2="-634.68" y2="-1780.94" gradientTransform="translate(662.5 -1636.76) scale(1 -1)" gradientUnits="userSpaceOnUse"><stop offset="0" stop-color="red"/><stop offset="0" stop-color="red"/><stop offset="1" stop-color="#9e3033"/></linearGradient><linearGradient id="linear-gradient-2" x1="-634.68" y1="-1421.14" x2="-634.68" y2="-1780.94" gradientTransform="translate(662.5 -1636.76) scale(1 -1)" gradientUnits="userSpaceOnUse"><stop offset="0" stop-color="#fff"/><stop offset="1" stop-color="#fff" stop-opacity="0"/></linearGradient><linearGradient id="linear-gradient-3" x1="-576.34" x2="-576.34" xlink:href="#linear-gradient"/><linearGradient id="linear-gradient-4" x1="-576.34" x2="-576.34" xlink:href="#linear-gradient-2"/><linearGradient id="linear-gradient-5" x1="-503.66" x2="-503.66" xlink:href="#linear-gradient"/><linearGradient id="linear-gradient-6" x1="-503.66" y1="-1421.14" x2="-503.66" y2="-1780.94" xlink:href="#linear-gradient-2"/><linearGradient id="linear-gradient-7" x1="-431.96" x2="-431.96" xlink:href="#linear-gradient"/><linearGradient id="linear-gradient-8" x1="-431.96" y1="-1421.14" x2="-431.96" y2="-1780.94" xlink:href="#linear-gradient-2"/><linearGradient id="linear-gradient-9" x1="-378.06" x2="-378.06" xlink:href="#linear-gradient"/><linearGradient id="linear-gradient-10" x1="-378.06" x2="-378.06" xlink:href="#linear-gradient-2"/></defs><g id="Layer_1-2"><path d="m230.84,23.9v20.47h21.07v22.31h-21.07v24.28h23.42v23.07h-47.45V1.02h45.99v22.88h-21.96Z" shape-rendering="crispEdges"/><path d="m125.69,114.03L113.56,1.02h23.15l5.57,63.77,5.68-63.77h22.01l5.37,63.46,5.37-63.46h23.41l-12.33,113.02h-27.96l-4.99-47.98-4.76,47.98h-28.4Z" shape-rendering="crispEdges"/><path class="cls-12" d="m45.22,5.27c-3.75-2.86-8.79-4.26-15.06-4.26H0v113.02h23.26v-44.24h8.43c6.27,0,11.19-1.39,14.69-4.27,3.51-2.85,5.92-6.85,7.26-11.95h0c1.33-5.1,1.99-11.06,1.99-17.88s-.79-13.19-2.38-18.35c-1.6-5.19-4.27-9.22-8.04-12.07Zm-14.33,20.5h0c-.39-1.03-1.04-1.78-1.97-2.29-.94-.51-2.21-.79-3.83-.79h-1.83v25.74h.62c4.07,0,6.24-1.14,7.01-3.08.88-2.21,1.35-5.54,1.35-10.04,0-4.2-.46-7.36-1.35-9.53h0Z" shape-rendering="crispEdges"/><path class="cls-12" d="m65.16,106.76h0c4.89,5.55,11.92,8.29,20.99,8.29s16.08-2.73,20.93-8.28c4.88-5.58,7.27-13.56,7.27-23.85V29.85c0-9.66-2.37-17.11-7.22-22.22-4.81-5.12-11.85-7.63-20.98-7.63s-16.18,2.51-21.04,7.63h0c-4.81,5.12-7.16,12.56-7.16,22.22v53.07c0,10.29,2.37,18.27,7.2,23.85Zm24.42-15.69c.77-1.5,1.2-3.84,1.2-7.08V29.47c0-2.71-.41-4.63-1.15-5.85-.7-1.17-1.73-1.75-3.16-1.75-1.67,0-2.85.62-3.65,1.82-.83,1.25-1.29,3.21-1.29,5.97v54.46c0,3.45.43,5.8,1.19,7.17.71,1.24,1.87,1.89,3.62,1.89.74,0,1.35-.18,1.87-.51.52-.34.98-.86,1.36-1.6Z" shape-rendering="crispEdges"/><path class="cls-12" d="m304.8,5.12c-3.08-2.77-7.58-4.1-13.38-4.1h-34.93v113.02h23.9v-50.96c2.58.06,4.36.45,5.42,1.1h0s.01.01.01.01c.49.28.92.81,1.23,1.72.31.91.47,2.15.47,3.74v44.39h23.33v-42.93c0-4.46-.73-8.15-2.23-11.02-1.22-2.44-3.2-4.13-5.87-5.07,3.43-1.53,5.85-3.93,7.22-7.2,1.61-3.75,2.4-8.72,2.4-14.85s-.51-11.87-1.54-16.58c-.99-4.8-3-8.57-6.04-11.27Zm-24.29,37.29h4.75c.65,0,1.19-.17,1.64-.51.47-.34.89-.87,1.24-1.64.71-1.55,1.1-3.96,1.1-7.3,0-2.17-.08-3.94-.25-5.33-.17-1.41-.41-2.37-.7-2.94-.54-1.08-1.54-1.67-3.23-1.67h-4.56v19.39Z" shape-rendering="crispEdges"/><path class="cls-7" d="m.65,113.39V1.67h29.52c6.18,0,11.07,1.38,14.66,4.13,3.64,2.75,6.24,6.67,7.81,11.74,1.57,5.08,2.35,11.13,2.35,18.15s-.66,12.67-1.97,17.71c-1.31,4.99-3.66,8.87-7.05,11.62-3.34,2.75-8.1,4.13-14.28,4.13h-9.08v44.24H.65ZM22.61,49.08h1.27c4.15,0,6.69-1.16,7.62-3.49.93-2.33,1.4-5.76,1.4-10.28,0-4.23-.47-7.49-1.4-9.78-.89-2.33-3.03-3.49-6.41-3.49h-2.48v27.04Z"/><path class="cls-1" d="m.65,113.39V1.67h29.52c6.18,0,11.07,1.38,14.66,4.13,3.64,2.75,6.24,6.67,7.81,11.74,1.57,5.08,2.35,11.13,2.35,18.15s-.66,12.67-1.97,17.71c-1.31,4.99-3.66,8.87-7.05,11.62-3.34,2.75-8.1,4.13-14.28,4.13h-9.08v44.24H.65ZM22.61,49.08h1.27c4.15,0,6.69-1.16,7.62-3.49.93-2.33,1.4-5.76,1.4-10.28,0-4.23-.47-7.49-1.4-9.78-.89-2.33-3.03-3.49-6.41-3.49h-2.48v27.04Z"/><path class="cls-6" d="m.65,113.39V1.67h29.52c6.18,0,11.07,1.38,14.66,4.13,3.64,2.75,6.24,6.67,7.81,11.74,1.57,5.08,2.35,11.13,2.35,18.15s-.66,12.67-1.97,17.71c-1.31,4.99-3.66,8.87-7.05,11.62-3.34,2.75-8.1,4.13-14.28,4.13h-9.08v44.24H.65ZM22.61,49.08h1.27c4.15,0,6.69-1.16,7.62-3.49.93-2.33,1.4-5.76,1.4-10.28,0-4.23-.47-7.49-1.4-9.78-.89-2.33-3.03-3.49-6.41-3.49h-2.48v27.04Z"/><path class="cls-7" d="m86.16,114.4c-8.93,0-15.76-2.69-20.5-8.06-4.7-5.42-7.05-13.22-7.05-23.42V29.85c0-9.56,2.33-16.82,6.98-21.77,4.7-4.95,11.55-7.43,20.57-7.43s15.85,2.48,20.5,7.43c4.7,4.95,7.04,12.21,7.04,21.77v53.07c0,10.2-2.37,18.01-7.11,23.42-4.7,5.37-11.51,8.06-20.44,8.06Zm.19-20.57c3.39,0,5.08-3.28,5.08-9.84V29.47c0-5.5-1.65-8.25-4.95-8.25-3.72,0-5.59,2.81-5.59,8.44v54.46c0,3.47.42,5.97,1.27,7.49.85,1.48,2.24,2.22,4.19,2.22Z"/><path class="cls-9" d="m86.16,114.4c-8.93,0-15.76-2.69-20.5-8.06-4.7-5.42-7.05-13.22-7.05-23.42V29.85c0-9.56,2.33-16.82,6.98-21.77,4.7-4.95,11.55-7.43,20.57-7.43s15.85,2.48,20.5,7.43c4.7,4.95,7.04,12.21,7.04,21.77v53.07c0,10.2-2.37,18.01-7.11,23.42-4.7,5.37-11.51,8.06-20.44,8.06Zm.19-20.57c3.39,0,5.08-3.28,5.08-9.84V29.47c0-5.5-1.65-8.25-4.95-8.25-3.72,0-5.59,2.81-5.59,8.44v54.46c0,3.47.42,5.97,1.27,7.49.85,1.48,2.24,2.22,4.19,2.22Z"/><path class="cls-5" d="m86.16,114.4c-8.93,0-15.76-2.69-20.5-8.06-4.7-5.42-7.05-13.22-7.05-23.42V29.85c0-9.56,2.33-16.82,6.98-21.77,4.7-4.95,11.55-7.43,20.57-7.43s15.85,2.48,20.5,7.43c4.7,4.95,7.04,12.21,7.04,21.77v53.07c0,10.2-2.37,18.01-7.11,23.42-4.7,5.37-11.51,8.06-20.44,8.06Zm.19-20.57c3.39,0,5.08-3.28,5.08-9.84V29.47c0-5.5-1.65-8.25-4.95-8.25-3.72,0-5.59,2.81-5.59,8.44v54.46c0,3.47.42,5.97,1.27,7.49.85,1.48,2.24,2.22,4.19,2.22Z"/><path class="cls-7" d="m126.28,113.39L114.28,1.67h21.84l6.16,70.52L148.56,1.67h20.82l5.97,70.52L181.31,1.67h22.09l-12.19,111.72h-26.79l-5.59-53.76-5.33,53.76h-27.23Z"/><path class="cls-11" d="m126.28,113.39L114.28,1.67h21.84l6.16,70.52L148.56,1.67h20.82l5.97,70.52L181.31,1.67h22.09l-12.19,111.72h-26.79l-5.59-53.76-5.33,53.76h-27.23Z"/><path class="cls-4" d="m126.28,113.39L114.28,1.67h21.84l6.16,70.52L148.56,1.67h20.82l5.97,70.52L181.31,1.67h22.09l-12.19,111.72h-26.79l-5.59-53.76-5.33,53.76h-27.23Z"/><path class="cls-7" d="m207.47,113.39V1.67h44.69v21.58h-21.96v21.77h21.07v21.01h-21.07v25.58h23.42v21.77h-46.15Z"/><path class="cls-10" d="m207.47,113.39V1.67h44.69v21.58h-21.96v21.77h21.07v21.01h-21.07v25.58h23.42v21.77h-46.15Z"/><path class="cls-3" d="m207.47,113.39V1.67h44.69v21.58h-21.96v21.77h21.07v21.01h-21.07v25.58h23.42v21.77h-46.15Z"/><path class="cls-7" d="m257.14,113.39V1.67h34.28c5.71,0,10.03,1.31,12.95,3.94,2.92,2.58,4.87,6.22,5.84,10.92,1.02,4.65,1.52,10.14,1.52,16.44s-.78,10.96-2.35,14.6c-1.52,3.64-4.42,6.16-8.7,7.55,3.51.72,5.97,2.48,7.36,5.27,1.44,2.75,2.16,6.33,2.16,10.73v42.28h-22.03v-43.74c0-3.26-.68-5.27-2.03-6.03-1.31-.8-3.45-1.21-6.41-1.21v50.97h-22.6Zm22.73-70.33h5.39c3.09,0,4.63-3.36,4.63-10.09,0-4.36-.34-7.22-1.02-8.57-.68-1.35-1.95-2.03-3.81-2.03h-5.2v20.69Z"/><path class="cls-8" d="m257.14,113.39V1.67h34.28c5.71,0,10.03,1.31,12.95,3.94,2.92,2.58,4.87,6.22,5.84,10.92,1.02,4.65,1.52,10.14,1.52,16.44s-.78,10.96-2.35,14.6c-1.52,3.64-4.42,6.16-8.7,7.55,3.51.72,5.97,2.48,7.36,5.27,1.44,2.75,2.16,6.33,2.16,10.73v42.28h-22.03v-43.74c0-3.26-.68-5.27-2.03-6.03-1.31-.8-3.45-1.21-6.41-1.21v50.97h-22.6Zm22.73-70.33h5.39c3.09,0,4.63-3.36,4.63-10.09,0-4.36-.34-7.22-1.02-8.57-.68-1.35-1.95-2.03-3.81-2.03h-5.2v20.69Z"/><path class="cls-2" d="m257.14,113.39V1.67h34.28c5.71,0,10.03,1.31,12.95,3.94,2.92,2.58,4.87,6.22,5.84,10.92,1.02,4.65,1.52,10.14,1.52,16.44s-.78,10.96-2.35,14.6c-1.52,3.64-4.42,6.16-8.7,7.55,3.51.72,5.97,2.48,7.36,5.27,1.44,2.75,2.16,6.33,2.16,10.73v42.28h-22.03v-43.74c0-3.26-.68-5.27-2.03-6.03-1.31-.8-3.45-1.21-6.41-1.21v50.97h-22.6Zm22.73-70.33h5.39c3.09,0,4.63-3.36,4.63-10.09,0-4.36-.34-7.22-1.02-8.57-.68-1.35-1.95-2.03-3.81-2.03h-5.2v20.69Z"/></g></svg>