<?xml version="1.0" encoding="UTF-8"?><svg id="Layer_2" xmlns="http://www.w3.org/2000/svg" xmlns:xlink="http://www.w3.org/1999/xlink" viewBox="0 0 133.06 65.54"><defs><style>.cls-1{fill:url(#linear-gradient);}.cls-2{fill:#fff;}.cls-3{fill:url(#linear-gradient-8);}.cls-3,.cls-4,.cls-5,.cls-6{fill-opacity:.25;}.cls-4{fill:url(#linear-gradient-6);}.cls-5{fill:url(#linear-gradient-4);}.cls-6{fill:url(#linear-gradient-2);}.cls-7{fill:url(#linear-gradient-3);}.cls-8{fill:url(#linear-gradient-7);}.cls-9{fill:url(#linear-gradient-5);}</style><linearGradient id="linear-gradient" x1="-636.19" y1="-1408.16" x2="-636.19" y2="-1767.96" gradientTransform="translate(662.5 -1434.27) scale(1 -1)" gradientUnits="userSpaceOnUse"><stop offset="0" stop-color="red"/><stop offset="0" stop-color="red"/><stop offset="1" stop-color="#9e3033"/></linearGradient><linearGradient id="linear-gradient-2" x1="-636.19" y1="-1408.16" x2="-636.19" y2="-1767.96" gradientTransform="translate(662.5 -1434.27) scale(1 -1)" gradientUnits="userSpaceOnUse"><stop offset="0" stop-color="#fff"/><stop offset="1" stop-color="#fff" stop-opacity="0"/></linearGradient><linearGradient id="linear-gradient-3" x1="-601.86" x2="-601.86" xlink:href="#linear-gradient"/><linearGradient id="linear-gradient-4" x1="-601.86" x2="-601.86" xlink:href="#linear-gradient-2"/><linearGradient id="linear-gradient-5" x1="-578.61" x2="-578.61" xlink:href="#linear-gradient"/><linearGradient id="linear-gradient-6" x1="-578.61" x2="-578.61" xlink:href="#linear-gradient-2"/><linearGradient id="linear-gradient-7" x1="-545.93" x2="-545.93" xlink:href="#linear-gradient"/><linearGradient id="linear-gradient-8" x1="-545.93" x2="-545.93" xlink:href="#linear-gradient-2"/></defs><g id="Layer_1-2"><path d="m114.23,22.96h4.76V0h14.07v65.54h-14.07v-29.13h-4.76v29.13h-14.08V0h14.08v22.96Z"/><path d="m7.04,65.54L0,0h13.87l2.95,33.8L19.84,0h13.16l2.83,33.49L38.67,0h14.02l-7.15,65.54h-16.57l-2.61-25.13-2.49,25.13H7.04Z"/><path d="m53.82,65.54V0h13.71v65.54h-13.71Z"/><path d="m76.85,65.54V13.64h-7.63V0h29.4v13.64h-7.63v51.9h-14.15Z"/><path class="cls-2" d="m7.59,64.89L.69.65h12.56l3.54,40.55L20.4.65h11.97l3.43,40.55L39.23.65h12.7l-7.01,64.24h-15.4l-3.21-30.91-3.07,30.91H7.59Z"/><path class="cls-1" d="m7.59,64.89L.69.65h12.56l3.54,40.55L20.4.65h11.97l3.43,40.55L39.23.65h12.7l-7.01,64.24h-15.4l-3.21-30.91-3.07,30.91H7.59Z"/><path class="cls-6" d="m7.59,64.89L.69.65h12.56l3.54,40.55L20.4.65h11.97l3.43,40.55L39.23.65h12.7l-7.01,64.24h-15.4l-3.21-30.91-3.07,30.91H7.59Z"/><path class="cls-2" d="m54.43,64.89V.65h12.41v64.24h-12.41Z"/><path class="cls-7" d="m54.43,64.89V.65h12.41v64.24h-12.41Z"/><path class="cls-5" d="m54.43,64.89V.65h12.41v64.24h-12.41Z"/><path class="cls-2" d="m77.46,64.89V12.99h-7.63V.65h28.1v12.34h-7.63v51.9h-12.85Z"/><path class="cls-9" d="m77.46,64.89V12.99h-7.63V.65h28.1v12.34h-7.63v51.9h-12.85Z"/><path class="cls-4" d="m77.46,64.89V12.99h-7.63V.65h28.1v12.34h-7.63v51.9h-12.85Z"/><path class="cls-2" d="m100.77,64.89V.65h12.77v22.96h6.06V.65h12.77v64.24h-12.77v-29.13h-6.06v29.13h-12.77Z"/><path class="cls-8" d="m100.77,64.89V.65h12.77v22.96h6.06V.65h12.77v64.24h-12.77v-29.13h-6.06v29.13h-12.77Z"/><path class="cls-3" d="m100.77,64.89V.65h12.77v22.96h6.06V.65h12.77v64.24h-12.77v-29.13h-6.06v29.13h-12.77Z"/></g></svg>