<svg width="226" height="122" viewBox="0 0 226 122" fill="none" xmlns="http://www.w3.org/2000/svg">
<g filter="url(#filter0_d_817_1442)">
<path d="M22.4688 110.287L11.856 11.459H31.1724L36.6191 73.8442L42.1782 11.459H60.5962L65.8745 73.8442L71.1528 11.459H90.6938L79.9126 110.287H56.2163L51.2749 62.7261L46.5581 110.287H22.4688Z" fill="white" shape-rendering="crispEdges"/>
<path d="M22.4688 110.287L11.856 11.459H31.1724L36.6191 73.8442L42.1782 11.459H60.5962L65.8745 73.8442L71.1528 11.459H90.6938L79.9126 110.287H56.2163L51.2749 62.7261L46.5581 110.287H22.4688Z" fill="url(#paint0_linear_817_1442)" shape-rendering="crispEdges"/>
<path d="M22.4688 110.287L11.856 11.459H31.1724L36.6191 73.8442L42.1782 11.459H60.5962L65.8745 73.8442L71.1528 11.459H90.6938L79.9126 110.287H56.2163L51.2749 62.7261L46.5581 110.287H22.4688Z" fill="url(#paint1_linear_817_1442)" fill-opacity="0.25" shape-rendering="crispEdges"/>
<path d="M94.5414 110.287V11.459H113.633V110.287H94.5414Z" fill="white" shape-rendering="crispEdges"/>
<path d="M94.5414 110.287V11.459H113.633V110.287H94.5414Z" fill="url(#paint2_linear_817_1442)" shape-rendering="crispEdges"/>
<path d="M94.5414 110.287V11.459H113.633V110.287H94.5414Z" fill="url(#paint3_linear_817_1442)" fill-opacity="0.25" shape-rendering="crispEdges"/>
<path d="M129.974 110.287V30.4385H118.238V11.459H161.475V30.4385H149.739V110.287H129.974Z" fill="white" shape-rendering="crispEdges"/>
<path d="M129.974 110.287V30.4385H118.238V11.459H161.475V30.4385H149.739V110.287H129.974Z" fill="url(#paint4_linear_817_1442)" shape-rendering="crispEdges"/>
<path d="M129.974 110.287V30.4385H118.238V11.459H161.475V30.4385H149.739V110.287H129.974Z" fill="url(#paint5_linear_817_1442)" fill-opacity="0.25" shape-rendering="crispEdges"/>
<path d="M165.828 110.287V11.459H185.481V46.7788H194.803V11.459H214.456V110.287H194.803V65.4775H185.481V110.287H165.828Z" fill="white" shape-rendering="crispEdges"/>
<path d="M165.828 110.287V11.459H185.481V46.7788H194.803V11.459H214.456V110.287H194.803V65.4775H185.481V110.287H165.828Z" fill="url(#paint6_linear_817_1442)" shape-rendering="crispEdges"/>
<path d="M165.828 110.287V11.459H185.481V46.7788H194.803V11.459H214.456V110.287H194.803V65.4775H185.481V110.287H165.828Z" fill="url(#paint7_linear_817_1442)" fill-opacity="0.25" shape-rendering="crispEdges"/>
<path d="M21.9716 110.34L22.0196 110.787H22.4688H46.5581H47.011L47.0557 110.336L51.2865 67.6758L55.719 110.339L55.7656 110.787H56.2163H79.9126H80.361L80.4096 110.341L91.1909 11.5132L91.2514 10.959H90.6938H71.1528H70.6933L70.6546 11.4168L65.8745 67.9136L61.0944 11.4168L61.0557 10.959H60.5962H42.1782H41.7208L41.6802 11.4146L36.6242 68.1539L31.6705 11.4155L31.6306 10.959H31.1724H11.856H11.2994L11.3588 11.5124L21.9716 110.34ZM94.0414 110.287V110.787H94.5414H113.633H114.133V110.287V11.459V10.959H113.633H94.5414H94.0414V11.459V110.287ZM129.474 110.287V110.787H129.974H149.739H150.239V110.287V30.9385H161.475H161.975V30.4385V11.459V10.959H161.475H118.238H117.738V11.459V30.4385V30.9385H118.238H129.474V110.287ZM165.328 110.287V110.787H165.828H185.481H185.981V110.287V65.9775H194.303V110.287V110.787H194.803H214.456H214.956V110.287V11.459V10.959H214.456H194.803H194.303V11.459V46.2788H185.981V11.459V10.959H185.481H165.828H165.328V11.459V110.287Z" stroke="black" stroke-opacity="0.75" shape-rendering="crispEdges"/>
</g>
<defs>
<filter id="filter0_d_817_1442" x="0.742798" y="0.458984" width="224.713" height="120.828" filterUnits="userSpaceOnUse" color-interpolation-filters="sRGB">
<feFlood flood-opacity="0" result="BackgroundImageFix"/>
<feColorMatrix in="SourceAlpha" type="matrix" values="0 0 0 0 0 0 0 0 0 0 0 0 0 0 0 0 0 0 127 0" result="hardAlpha"/>
<feOffset/>
<feGaussianBlur stdDeviation="5"/>
<feComposite in2="hardAlpha" operator="out"/>
<feColorMatrix type="matrix" values="0 0 0 0 1 0 0 0 0 1 0 0 0 0 1 0 0 0 0.14 0"/>
<feBlend mode="normal" in2="BackgroundImageFix" result="effect1_dropShadow_817_1442"/>
<feBlend mode="normal" in="SourceGraphic" in2="effect1_dropShadow_817_1442" result="shape"/>
</filter>
<linearGradient id="paint0_linear_817_1442" x1="114.588" y1="-29.7129" x2="114.588" y2="336.686" gradientUnits="userSpaceOnUse">
<stop stop-color="#FF0000"/>
<stop offset="0.0001" stop-color="#FF0000"/>
<stop offset="1" stop-color="#9E3033"/>
</linearGradient>
<linearGradient id="paint1_linear_817_1442" x1="114.588" y1="-29.7129" x2="114.588" y2="336.686" gradientUnits="userSpaceOnUse">
<stop stop-color="white"/>
<stop offset="1" stop-color="white" stop-opacity="0"/>
</linearGradient>
<linearGradient id="paint2_linear_817_1442" x1="114.588" y1="-29.7129" x2="114.588" y2="336.686" gradientUnits="userSpaceOnUse">
<stop stop-color="#FF0000"/>
<stop offset="0.0001" stop-color="#FF0000"/>
<stop offset="1" stop-color="#9E3033"/>
</linearGradient>
<linearGradient id="paint3_linear_817_1442" x1="114.588" y1="-29.7129" x2="114.588" y2="336.686" gradientUnits="userSpaceOnUse">
<stop stop-color="white"/>
<stop offset="1" stop-color="white" stop-opacity="0"/>
</linearGradient>
<linearGradient id="paint4_linear_817_1442" x1="114.588" y1="-29.7129" x2="114.588" y2="336.686" gradientUnits="userSpaceOnUse">
<stop stop-color="#FF0000"/>
<stop offset="0.0001" stop-color="#FF0000"/>
<stop offset="1" stop-color="#9E3033"/>
</linearGradient>
<linearGradient id="paint5_linear_817_1442" x1="114.588" y1="-29.7129" x2="114.588" y2="336.686" gradientUnits="userSpaceOnUse">
<stop stop-color="white"/>
<stop offset="1" stop-color="white" stop-opacity="0"/>
</linearGradient>
<linearGradient id="paint6_linear_817_1442" x1="114.588" y1="-29.7129" x2="114.588" y2="336.686" gradientUnits="userSpaceOnUse">
<stop stop-color="#FF0000"/>
<stop offset="0.0001" stop-color="#FF0000"/>
<stop offset="1" stop-color="#9E3033"/>
</linearGradient>
<linearGradient id="paint7_linear_817_1442" x1="114.588" y1="-29.7129" x2="114.588" y2="336.686" gradientUnits="userSpaceOnUse">
<stop stop-color="white"/>
<stop offset="1" stop-color="white" stop-opacity="0"/>
</linearGradient>
</defs>
</svg>
