<svg width="103" height="83" viewBox="0 0 103 83" fill="none" xmlns="http://www.w3.org/2000/svg">
<path d="M46.2827 46.9191H42.5752C42.5752 46.9191 44.304 48.0698 42.9995 49.8285L41.1403 52.3278L37.4657 46.9175H34.8285L39.765 54.1759L34.6367 61.0609H38.2955C38.2955 61.0609 36.584 59.9772 37.8901 58.1961C38.1415 57.853 39.1034 56.5555 40.2916 54.9611L44.4392 61.0609H47.0701L41.6652 53.113L46.2764 46.9191" fill="#525252"/>
<path d="M48.6367 59.7471L49.9223 61.0605L51.208 59.7471L49.9223 58.4336L48.6367 59.7471Z" fill="#525252"/>
<path d="M58.5736 46.6333C54.5565 46.6333 51.707 49.929 51.707 54.0114C51.707 58.0939 54.5769 61.3528 58.5736 61.3528C62.5703 61.3528 65.4229 58.0795 65.4229 54.0114C65.4229 49.9433 62.5939 46.6333 58.5736 46.6333ZM58.5736 60.5548C55.9929 60.5548 53.8743 57.647 53.8743 54.0114C53.8743 50.0678 56.1753 47.4233 58.5736 47.4233C60.972 47.4233 63.2744 50.0678 63.2744 54.0114C63.2744 57.2225 61.423 60.5548 58.5736 60.5548Z" fill="#525252"/>
<path d="M78.1067 32.847C78.4834 33.233 78.7724 33.698 78.9534 34.2094C79.1345 34.7208 79.2033 35.2662 79.155 35.8075C79.0607 37.3827 77.9134 39.7367 74.3991 39.9027C72.8796 39.9874 71.3637 39.6788 69.9938 39.0058V36.1171C69.9938 36.1171 72.2302 39.5611 75.1095 39.0967C76.4784 38.8749 77.0112 38.0817 77.0552 37.1672C77.1464 35.2696 75.1441 34.1652 73.8994 33.4295C70.9509 31.6915 70.0771 30.6621 70.0221 29.1731C69.9042 25.9524 73.0192 25.3428 74.1885 25.2853C76.3889 25.1768 77.7656 25.7178 77.7656 25.7178L77.9102 28.2713C77.6399 27.684 75.658 25.3731 73.4939 25.9668C72.4739 26.2477 72.213 27.0488 72.2491 27.6457C72.3261 28.956 73.409 29.7811 74.8046 30.611C76.3417 31.5255 77.4922 32.1703 78.1145 32.8454M16.034 19.9181H11.9193C11.9193 19.9181 12.3468 20.7384 12.3673 22.0902V28.4613L3.94317 28.4533V22.1508C3.95103 20.764 4.39267 19.9165 4.39267 19.9165H0.289062C0.575231 20.5571 0.726718 21.2512 0.733845 21.9545V37.804C0.726591 38.5068 0.575105 39.2004 0.289062 39.8404H4.39267C4.39267 39.8404 3.95103 38.9978 3.94317 37.6061V29.3534H12.3673V37.6747C12.3468 39.0265 11.9193 39.8468 11.9193 39.8468H16.023C16.023 39.8468 15.6143 39.0648 15.5766 37.7721V22.0008C15.6143 20.7033 16.023 19.9261 16.023 19.9261M20.5933 32.0139C20.5603 33.8205 20.8888 37.5806 24.1642 37.7481C27.0874 37.8998 28.2065 34.9871 28.2065 34.9871H28.3794C28.3794 34.9871 27.9409 40.2283 22.9068 40.0192C20.1721 39.9075 17.6025 37.2055 17.6025 32.9587C17.6025 27.601 20.7018 25.2646 23.4648 25.2646C28.1169 25.2646 28.7015 29.9391 28.7015 31.0467L21.5489 31.0563C21.2976 31.0563 21.0565 31.1567 20.8776 31.336C20.6988 31.5152 20.5967 31.7587 20.5933 32.0139ZM20.7662 30.3461H25.0301C25.6305 30.3461 25.7421 29.9678 25.7437 29.4555C25.7437 28.8172 25.5519 25.646 23.2542 25.7545C20.6751 25.8742 20.7662 30.3461 20.7662 30.3461ZM102.065 25.705H100.506C100.506 25.705 100.556 26.6626 99.86 28.6703L97.0782 36.4187L93.9742 27.6138C93.7985 26.9859 93.6682 26.3458 93.5844 25.6987H89.7967C89.7967 25.6987 90.3295 26.2333 91.032 28.1373L95.0461 38.9675C95.4358 40.0846 95.3604 41.2337 94.9675 42.0301C94.507 42.9494 93.2496 43.5 91.4831 42.8185L90.7318 44.8932C91.3248 45.0546 91.9431 45.0964 92.5518 45.0161C93.3832 44.9044 94.9942 44.2836 95.7989 42.0796C96.0283 41.4508 99.0129 33.1821 100.652 28.6384L100.643 28.6655C101.011 27.63 101.488 26.6375 102.065 25.705ZM41.3204 29.7237C41.3204 28.0718 40.6666 26.752 39.5444 25.9444C38.1048 24.9071 35.7944 25.0746 33.998 26.902L33.2264 27.6872V25.4848H33.1242C31.7694 26.5605 29.8661 26.8892 29.8661 26.8892C30.2873 27.3282 30.5202 27.9187 30.5137 28.5315V37.5774C30.5137 38.9882 30.0642 39.8452 30.0642 39.8452H33.6696C33.6696 39.8452 33.2169 38.9882 33.2169 37.5774V37.5854V30.1546C33.2169 27.6713 34.9866 26.7073 36.5897 26.9946C37.9382 27.2372 38.6156 28.1293 38.6156 30.3301V37.6364C38.603 39.0121 38.1661 39.8452 38.1661 39.8452H41.7809C41.7809 39.8452 41.3314 38.9882 41.3314 37.5774L41.3204 29.7237ZM55.3082 29.7237C55.3082 28.0718 54.6544 26.752 53.5322 25.9444C52.0926 24.9071 49.7838 25.0746 47.9874 26.902C47.4169 27.4797 47.255 27.6457 47.2157 27.6872V25.4848H47.112C45.7588 26.5605 43.8539 26.8892 43.8539 26.8892C44.2751 27.3282 44.5079 27.9187 44.5014 28.5315V37.5774C44.5014 38.9882 44.052 39.8452 44.052 39.8452H47.6668C47.6668 39.8452 47.2047 38.9882 47.2047 37.5774V37.5854V30.1546C47.2047 27.6713 48.9744 26.7073 50.5775 26.9946C51.926 27.2372 52.6034 28.1293 52.6034 30.3301V37.6364C52.5908 39.0121 52.1554 39.8452 52.1554 39.8452H55.7545C55.7545 39.8452 55.305 38.9882 55.305 37.5774L55.3082 29.7237ZM60.3233 32.0123C60.2903 33.8189 60.6204 37.579 63.8957 37.7465C66.819 37.8982 67.938 34.9855 67.938 34.9855H68.1078C68.1078 34.9855 67.6693 40.2314 62.6353 40.0224C59.9006 39.9107 57.3293 37.2087 57.3293 32.9619C57.3293 27.6042 60.4286 25.2677 63.1916 25.2677C67.8437 25.2677 68.4284 29.9423 68.4284 31.0499L61.2773 31.0595C61.0261 31.0599 60.785 31.1604 60.6059 31.3395C60.4269 31.5186 60.3243 31.7619 60.3202 32.0171M60.4947 30.3493H64.757C65.3574 30.3493 65.4705 29.971 65.4705 29.4587C65.4705 28.8203 65.2804 25.6492 62.981 25.7577C60.4035 25.8774 60.4947 30.3493 60.4947 30.3493ZM85.2232 30.6254C83.826 29.7955 82.7447 28.9704 82.6676 27.6601C82.6331 27.0632 82.8924 26.262 83.914 25.9811C86.075 25.3874 88.0584 27.6984 88.3272 28.2857L88.1842 25.7322C88.1842 25.7322 86.8105 25.1768 84.6102 25.2853C83.4409 25.3428 80.3243 25.9524 80.4437 29.1731C80.4988 30.6621 81.3726 31.6915 84.321 33.4295C85.5658 34.1652 87.5665 35.2696 87.4769 37.1672C87.4329 38.0817 86.9001 38.8749 85.5312 39.0967C82.6519 39.5611 80.4139 36.1171 80.4139 36.1171V39.0058C81.7833 39.681 83.2991 39.9918 84.8193 39.9091C88.3351 39.7495 89.4808 37.389 89.5767 35.8138C89.6249 35.2727 89.5562 34.7275 89.3754 34.2162C89.1946 33.7048 88.9061 33.2397 88.5299 32.8533C87.9013 32.183 86.7555 31.5383 85.2185 30.619" fill="#525252"/>
<path d="M27.7891 72.0358C27.7888 72.2328 27.846 72.4255 27.9536 72.5895C28.0612 72.7535 28.2142 72.8814 28.3934 72.957C28.5726 73.0326 28.7698 73.0526 28.9601 73.0143C29.1505 72.9761 29.3254 72.8814 29.4627 72.7421C29.6 72.6029 29.6936 72.4255 29.7315 72.2323C29.7695 72.039 29.7502 71.8387 29.676 71.6566C29.6018 71.4746 29.4761 71.3189 29.3148 71.2094C29.1535 71.0999 28.9638 71.0415 28.7698 71.0415C28.51 71.0415 28.2607 71.1462 28.0769 71.3326C27.893 71.519 27.7895 71.7719 27.7891 72.0358Z" fill="#525252"/>
<path d="M19.4742 72.4271C19.4654 71.9752 19.5561 71.527 19.7399 71.1152H17.3242C17.4924 71.4919 17.5813 71.9002 17.5851 72.3138V81.6964C17.5813 82.11 17.4924 82.5183 17.3242 82.895H19.7399C19.5561 82.4833 19.4654 82.035 19.4742 81.5831V72.4271Z" fill="#525252"/>
<path d="M29.6491 81.5636V74.4121H29.5893C28.7878 75.0505 27.6641 75.2404 27.6641 75.2404C27.9127 75.4999 28.05 75.8488 28.046 76.2108V81.5636C28.0577 82.0245 27.9669 82.4822 27.7804 82.9026H29.921C29.7355 82.4819 29.6452 82.0244 29.6569 81.5636H29.6491Z" fill="#525252"/>
<path d="M43.2096 76.9117C43.2096 75.935 42.8229 75.1562 42.1597 74.6774C41.3094 74.0645 39.9437 74.1635 38.8828 75.2423C38.6661 75.4719 38.465 75.7161 38.2808 75.9733C38.1261 75.451 37.8056 74.9954 37.3693 74.6774C36.5174 74.0645 35.1517 74.1635 34.0892 75.2423L33.6334 75.7052V74.4093H33.5737C32.7737 75.0476 31.6484 75.2376 31.6484 75.2376C31.8971 75.497 32.0344 75.8459 32.0304 76.2079V81.5639C32.0421 82.0249 31.9513 82.4826 31.7647 82.9029H33.8959C33.7093 82.4826 33.6186 82.0249 33.6303 81.5639V77.1751C33.6303 75.7084 34.677 75.1386 35.6232 75.3094C36.4216 75.4514 36.8223 75.9797 36.8223 77.2804V81.599C36.8293 82.0482 36.7386 82.4934 36.5567 82.9029H38.6895C38.504 82.4823 38.4137 82.0247 38.4254 81.5639V77.1751C38.4254 75.7084 39.4722 75.1386 40.4183 75.3094C41.2151 75.4514 41.6159 75.9797 41.6159 77.2804V81.599C41.6229 82.0482 41.5322 82.4934 41.3503 82.9029H43.4815C43.2938 82.4828 43.202 82.0251 43.2127 81.5639L43.2096 76.9117Z" fill="#525252"/>
<path d="M82.4401 77.4721C81.6118 76.9805 80.969 76.4906 80.9234 75.7166C80.9048 75.4874 80.9697 75.2593 81.1059 75.0757C81.2421 74.8921 81.4401 74.7657 81.6621 74.7207C82.9446 74.3696 84.1202 75.7389 84.2805 76.0884L84.1956 74.5691C83.5108 74.3479 82.7907 74.2612 82.0739 74.3137C81.3808 74.3456 79.5309 74.7079 79.6032 76.6183C79.6347 77.5024 80.1533 78.1121 81.9026 79.1431C82.6397 79.5788 83.8279 80.2347 83.7744 81.3599C83.7493 81.9025 83.4318 82.3749 82.6192 82.5058C80.9124 82.7819 79.5859 80.7374 79.5859 80.7374V82.4515C80.3997 82.8513 81.3002 83.0342 82.2028 82.983C84.2884 82.8856 84.9673 81.4875 85.0239 80.5539C85.0517 80.2324 85.0098 79.9087 84.9012 79.6054C84.7926 79.3021 84.6199 79.0266 84.3952 78.7983C84.0322 78.3962 83.3501 78.0131 82.4401 77.4721Z" fill="#525252"/>
<path d="M70.8082 76.9117C70.8082 75.935 70.4216 75.1562 69.7583 74.6774C68.9065 74.0645 67.5423 74.1635 66.4814 75.2423L66.0241 75.7052V74.4093H65.9643C65.1628 75.0476 64.0391 75.2376 64.0391 75.2376C64.2877 75.497 64.425 75.8459 64.421 76.2079V81.5639C64.4327 82.0249 64.3419 82.4826 64.1554 82.9029H66.2865C66.1 82.4826 66.0092 82.0249 66.0209 81.5639V77.1751C66.0209 75.7084 67.0661 75.1386 68.0138 75.3094C68.8122 75.4514 69.2114 75.9797 69.2114 77.2804V81.599C69.2191 82.0483 69.1284 82.4937 68.9458 82.9029H71.0785C70.8909 82.4829 70.7996 82.025 70.8113 81.5639L70.8082 76.9117Z" fill="#525252"/>
<path d="M74.4831 77.7078H78.6904C78.6904 77.0566 78.3463 74.3052 75.61 74.3052C73.9833 74.3052 72.1523 75.6793 72.1523 78.8313C72.1523 81.3306 73.6643 82.9202 75.2737 82.9808C78.2362 83.1037 78.494 80.0171 78.494 80.0171H78.3918C78.3918 80.0171 77.7349 81.7296 76.0139 81.6418C74.0855 81.5428 73.8922 79.3292 73.911 78.2679C73.9143 78.1168 73.9763 77.9731 74.0835 77.8682C74.1906 77.7633 74.3343 77.7056 74.4831 77.7078ZM75.4858 74.5845C76.8375 74.5222 76.9506 76.3879 76.9506 76.7629C76.9506 77.0646 76.883 77.2864 76.531 77.2864H74.0163C74.0163 77.2864 73.9692 74.6563 75.4858 74.5845Z" fill="#525252"/>
<path d="M25.7131 71.1187H23.7941C23.7941 71.1187 24.3363 71.6868 23.4467 72.6683L19.582 76.9646L24.6271 82.8952H26.8274L21.2118 76.1379L25.7131 71.1187Z" fill="#525252"/>
<path d="M61.5686 75.1229C61.307 74.8697 60.9981 74.6722 60.6602 74.542C60.3247 74.3934 59.965 74.309 59.5993 74.293C58.6909 74.2579 58.0277 74.4925 57.5326 74.8404C56.5 75.4996 55.5979 76.7923 55.5979 78.8303C55.5916 79.4532 55.7159 80.0704 55.9624 80.6408C56.209 81.2112 56.5723 81.7218 57.0281 82.1387C57.289 82.3941 57.5972 82.5943 57.9349 82.7277C58.2705 82.8762 58.6301 82.9606 58.9958 82.9766C59.9042 83.0117 60.5675 82.7771 61.0625 82.4292C62.0967 81.7685 63.002 80.4774 63.002 78.4393C63.0086 77.8149 62.8842 77.1962 62.637 76.6244C62.3899 76.0525 62.0257 75.5407 61.5686 75.1229ZM60.9651 80.8061C60.6115 81.9887 60.0221 82.4707 59.307 82.4707C58.3766 82.4707 57.8422 81.8196 57.5562 80.6322C57.4047 79.9856 57.3329 79.3225 57.3424 78.658C57.3373 77.9254 57.4202 77.1949 57.5892 76.4827C57.9145 75.2634 58.4913 74.791 59.307 74.791C60.1667 74.791 60.7215 75.4293 61.0358 76.6566C61.3555 78.0235 61.3339 79.4499 60.973 80.8061H60.9651Z" fill="#525252"/>
<path d="M52.151 71.1264C52.3435 71.4599 52.4409 71.8412 52.4323 72.2276C52.4323 72.2276 52.4323 77.373 52.4323 79.1078C52.4323 80.1914 52.6979 82.4401 50.8386 82.5391C49.5703 82.6077 48.8803 81.0453 48.7059 80.6862L48.2344 82.2199C48.2344 82.2199 49.3911 83.0003 50.7019 83.0003C53.5843 83.0003 54.2035 81.3405 54.2035 79.3392V72.2212C54.1927 71.8342 54.2867 71.4516 54.4754 71.1152L52.151 71.1264Z" fill="#525252"/>
<path d="M52.3033 3.82469C51.9481 3.08895 52.1304 2.70752 52.1461 2.75699C52.2467 3.19748 52.484 3.32994 52.6003 3.51028C52.6481 3.58428 52.6906 3.66161 52.7276 3.7417L55.4246 3.14481C55.6053 3.10651 55.7138 3.78319 55.5818 3.8199C55.3696 3.87257 53.5732 4.26038 52.8424 4.41838C52.7103 5.83559 51.6699 6.52984 50.6609 6.85541C50.3677 6.94267 50.0681 7.00618 49.765 7.04533C49.525 6.60966 49.3422 6.14393 49.2213 5.66004C49.4625 5.87766 49.7565 6.02588 50.0731 6.08935C50.6138 6.16179 51.1622 6.03433 51.618 5.73026C52.4982 5.03283 52.4479 4.07844 52.3096 3.82469M59.5848 19.1363C59.2705 19.8002 58.3039 20.2806 57.3546 19.5098C56.9161 19.1555 56.465 18.5011 56.0344 17.8803C55.6038 17.2595 55.3067 16.7631 54.7111 16.5141C54.4765 16.4053 54.2157 16.3687 53.9609 16.409C53.7061 16.4493 53.4685 16.5647 53.2777 16.7408C53.2934 16.7583 53.7932 17.3552 54.3056 17.8771C54.7865 18.3671 55.3287 18.6144 55.8018 18.3367C55.8631 18.3016 55.9181 18.3511 55.8662 18.407C55.7028 18.5885 55.4984 18.7269 55.2706 18.8103C55.0428 18.8937 54.7985 18.9196 54.5586 18.8857C53.5307 18.7724 52.9979 17.9282 52.5154 17.3632C52.0329 16.7982 51.398 16.037 50.609 15.9955C50.4165 15.9723 50.2212 15.9954 50.0391 16.0631C49.857 16.1307 49.6931 16.241 49.5607 16.3849C49.9676 16.7967 50.3996 17.1821 50.8542 17.5387C51.4011 17.9489 51.9434 18.1676 52.3866 17.8452C52.4447 17.8021 52.5029 17.8452 52.4589 17.9074C52.3119 18.1026 52.1211 18.2593 51.9024 18.3645C51.6837 18.4697 51.4434 18.5204 51.2015 18.5123C50.2287 18.5123 49.4476 17.6217 48.9494 17.1493C48.4511 16.6769 47.9026 16.171 47.2205 16.0673C46.5384 15.9635 46.1817 16.2045 45.8626 16.5876C46.0292 16.6945 46.8936 17.3201 47.5584 17.6824C48.1588 18.0016 48.7262 18.1484 49.1191 17.7638C49.171 17.7127 49.2354 17.7494 49.1992 17.8165C49.0821 18.0311 48.9156 18.2139 48.7139 18.3492C48.5122 18.4846 48.2814 18.5684 48.0409 18.5937C47.0162 18.7357 46.2147 17.984 45.6976 17.6185C45.1805 17.2531 44.6194 16.7392 43.9452 16.8094C43.7363 16.8253 43.534 16.8904 43.3542 16.9996C43.1744 17.1087 43.0221 17.2589 42.9095 17.4382C43.5884 17.8069 43.579 17.8931 44.2642 18.2138C44.8819 18.5027 45.4571 18.6064 45.8359 18.1979C45.883 18.1436 45.9491 18.1771 45.9176 18.2458C45.8138 18.4677 45.6587 18.6608 45.4655 18.8087C45.2723 18.9565 45.0467 19.0547 44.808 19.0948C43.4093 19.3773 42.5716 18.0415 41.6647 18.0415C41.5722 18.04 41.4804 18.0572 41.3945 18.0922C41.3087 18.1272 41.2305 18.1792 41.1647 18.2451C41.0989 18.3111 41.0466 18.3897 41.011 18.4764C40.9755 18.5631 40.9572 18.6562 40.9575 18.7501C40.9575 19.3885 41.7433 19.7332 42.3452 19.2289C42.4254 19.1618 42.4804 19.189 42.4191 19.2895C42.2748 19.5218 42.059 19.6992 41.8051 19.794C41.5512 19.8887 41.2736 19.8956 41.0155 19.8134C40.7574 19.7313 40.5333 19.5648 40.3781 19.3398C40.2229 19.1149 40.1454 18.8441 40.1575 18.5697C40.1575 17.9808 40.5693 17.1334 41.6993 17.1158C42.0291 17.1226 42.3548 17.1919 42.6596 17.3201C42.9173 16.7424 43.4218 16.1359 44.3491 16.0896C44.9086 16.0641 45.1962 16.1997 45.6174 16.4264C45.7723 16.1144 46.016 15.8569 46.3168 15.6874C45.5483 15.1847 43.6183 13.5313 42.7712 12.1125C44.2108 11.6481 44.4465 10.732 45.575 9.63238C46.6 8.63627 47.7833 7.82313 49.0751 7.22727C48.6193 6.49153 48.2672 6.17553 48.1227 6.07339C48.6444 6.07339 49.5937 6.77721 49.8122 7.10119C50.0919 7.5321 49.6833 7.87682 49.4083 7.67573L49.1159 7.88002C48.3883 8.38115 47.8728 9.10092 47.5443 9.55577C47.2158 10.0106 46.7317 10.7543 46.2477 11.1821C46.7888 11.2878 47.3162 11.4564 47.8193 11.6848C50.1548 12.7684 51.662 14.8879 55.1747 16.1279C56.0501 16.4359 56.3864 16.7839 56.8202 17.3887C57.397 17.1174 58.2347 16.9626 58.9891 17.4159C59.283 17.576 59.5072 17.8421 59.6177 18.1616C59.7282 18.4811 59.717 18.8311 59.5863 19.1427M54.0195 16.0848C49.6283 14.358 48.0095 11.7438 45.5326 11.9082C45.1416 11.9243 44.7584 12.0249 44.4088 12.2035C45.0375 12.4173 45.8579 12.7828 46.9816 13.742C48.6539 15.1688 49.4711 15.614 50.8621 15.5406C51.2806 15.5317 51.6956 15.6202 52.0754 15.7992C52.6082 16.0433 52.9807 16.3865 53.6659 16.1758C53.7799 16.1347 53.8971 16.1037 54.0164 16.0832M58.3919 17.6042C57.932 17.438 57.4275 17.4522 56.9774 17.6441C57.0308 17.7255 57.7004 18.8889 58.1074 19.0804C58.5145 19.272 58.8681 19.1219 59.008 18.8171C59.2532 18.2825 58.8099 17.7702 58.3903 17.6026M53.5009 2.18564C53.7863 2.14179 54.0777 2.1625 54.3543 2.24629C54.3794 2.25586 54.3967 2.23033 54.381 2.20798C54.2721 2.05473 54.1229 1.93579 53.9504 1.86485C54.7126 0.690227 56.465 0.394976 57.6139 1.03017C57.2279 1.30938 56.9444 1.7111 56.8081 2.172C56.6718 2.6329 56.6905 3.12676 56.8611 3.57572C56.8611 3.57572 56.2104 4.23485 56.5892 5.34085C56.5986 5.36479 56.6348 5.36638 56.6363 5.34085C56.6788 4.51255 57.0277 4.05451 57.2367 3.86937C57.3625 3.94438 57.5149 4.0162 57.6721 4.10239C57.8544 4.20453 57.8732 4.26198 57.9644 4.03216C58.0571 3.82071 58.1621 3.61501 58.2787 3.41612C58.3023 3.37144 58.3212 3.33313 58.263 3.30281L57.7506 3.01713C57.7451 3.01357 57.7384 3.01211 57.7319 3.013C57.7253 3.01388 57.7193 3.01706 57.7148 3.02199C57.7104 3.02691 57.7077 3.03327 57.7074 3.03996C57.707 3.04665 57.709 3.05326 57.7129 3.05863C57.767 3.18607 57.839 3.30487 57.9267 3.41134C57.8544 3.55976 57.8292 3.57093 57.7538 3.71936C57.3876 3.55976 57.1754 3.4241 57.2084 2.86552C57.2634 1.87124 57.9628 1.50097 58.6732 1.18657C59.5062 0.816308 58.1923 0.28645 57.7994 0.161965C56.9907 -0.0816701 56.1257 -0.049718 55.3366 0.252936C54.4919 0.585892 53.7984 1.22424 53.3893 2.0452C53.3201 2.18404 53.3893 2.20479 53.4993 2.18564M41.3582 7.35175C41.4321 7.35973 41.5233 7.28313 41.4903 7.13151C41.4683 7.02937 41.4903 6.94 41.5956 6.91606L44.2265 6.33513C44.412 6.29364 44.522 6.54101 44.6461 6.60325C44.7436 6.65113 44.8127 6.55378 44.7797 6.40216C44.7577 6.30002 44.7797 6.21384 44.8898 6.1883C45.7337 6.00158 47.6857 5.57067 48.8503 5.31053C48.8503 5.31053 49.2983 5.20838 49.5702 5.15093C49.6728 5.14468 49.774 5.17703 49.8546 5.2418C49.9352 5.30656 49.9895 5.39921 50.0071 5.50204C50.0111 5.50981 50.017 5.5165 50.0241 5.52156C50.0311 5.52662 50.0393 5.5299 50.0479 5.53115C50.0565 5.53239 50.0652 5.53156 50.0734 5.52872C50.0816 5.52588 50.0891 5.52112 50.0951 5.51481C50.1581 5.39263 50.257 5.29337 50.378 5.23073C50.6546 5.07113 50.9501 5.10944 51.156 5.01368C51.7013 4.75513 51.7673 4.06727 51.739 3.69542C51.7108 3.36505 51.7312 2.85594 51.9104 2.57825C51.7013 2.62453 51.552 2.85754 51.4986 3.20227C51.4546 3.49113 51.5112 3.75447 51.3996 3.97311C51.3843 4.01274 51.359 4.04752 51.3261 4.07389C51.2932 4.10026 51.254 4.11726 51.2125 4.12313C51.0947 4.14707 51.0789 4.10558 50.9422 4.13111C50.8055 4.15665 50.7851 4.23325 50.6829 4.254C50.5352 4.28273 50.499 4.2141 50.4126 4.23325C50.2554 4.26358 50.2947 4.3322 50.1658 4.35135C49.9898 4.38008 50.0291 4.28752 49.9238 4.2939C49.7839 4.30348 49.8216 4.35614 49.6676 4.34337C49.5136 4.33061 49.4287 4.00822 49.4334 3.68425C49.4326 3.67278 49.4281 3.66189 49.4208 3.65314C49.4134 3.6444 49.4035 3.63825 49.3925 3.63558C49.3815 3.63292 49.3699 3.63388 49.3595 3.63832C49.3491 3.64277 49.3403 3.65046 49.3344 3.6603C49.2389 3.943 49.1792 4.23689 49.1568 4.53489L45.3298 5.38234C45.0045 5.45416 44.8426 5.73665 44.742 5.74303C44.6823 5.74303 44.665 5.71111 44.6399 5.5962C44.6289 5.54194 44.61 5.43661 44.599 5.38713C44.566 5.22754 44.4623 5.17806 44.3947 5.26265C44.3067 5.37117 44.3177 5.61695 44.1306 5.65844C42.8733 5.93614 42.0435 6.1085 42.0435 6.1085C41.7181 6.18032 41.5547 6.4644 41.4541 6.47238C41.396 6.47238 41.3787 6.44046 41.3535 6.32555C41.341 6.27129 41.3189 6.16596 41.3079 6.11648C41.2765 5.96487 41.1696 5.93295 41.1005 5.97444C40.9747 6.04945 40.9433 6.18671 41.0282 6.55058C41.1131 6.91446 41.2309 7.3342 41.3582 7.34856M43.4533 9.40894C43.5346 9.45521 43.6282 9.47454 43.7208 9.46424C43.8135 9.45394 43.9008 9.41453 43.9703 9.35149C44.474 8.70369 45.0296 8.09942 45.6316 7.54487C45.652 7.52731 45.6394 7.50018 45.6143 7.50816C44.9262 7.7137 44.2984 8.08805 43.7865 8.5982C43.7048 8.56529 43.6153 8.55804 43.5296 8.57739C43.4438 8.59674 43.3658 8.6418 43.3055 8.70672C43.0195 8.98282 42.2462 9.82389 42.1661 10.5293C42.1345 10.7543 42.1712 10.9836 42.2714 11.1868C42.2902 11.2188 42.3201 11.2028 42.3138 11.1661C42.2572 10.8469 42.4191 10.641 42.7004 10.2213C42.9001 9.90601 43.1534 9.62932 43.4485 9.40416M55.4969 1.80421C55.4513 1.77548 55.456 1.77548 55.4057 1.74515C55.3209 1.69568 55.2926 1.70685 55.2486 1.78825C55.2234 1.83134 55.2234 1.83613 55.1951 1.8856C55.1668 1.93507 55.1653 1.93029 55.1323 1.98774C55.0851 2.07073 55.093 2.10105 55.1747 2.14734C55.2218 2.17606 55.2234 2.17128 55.2674 2.19841C55.3114 2.22554 55.3099 2.22873 55.3712 2.26544C55.4324 2.30215 55.4843 2.30374 55.5283 2.22235C55.555 2.17447 55.5535 2.17128 55.5802 2.12499C55.6713 1.9654 55.7531 2.01008 55.7782 2.02445C55.8034 2.03881 55.8788 2.09467 55.7908 2.24948C55.7641 2.29576 55.7594 2.29576 55.7326 2.34204C55.6823 2.43142 55.6933 2.45536 55.7766 2.50164C55.8599 2.54792 55.8395 2.53356 55.8835 2.56069C55.9275 2.58782 55.926 2.58942 55.9747 2.61814C56.0611 2.66762 56.0831 2.66124 56.1318 2.57346C56.1633 2.516 56.1586 2.5176 56.1868 2.46812C56.2151 2.41865 56.2199 2.41546 56.245 2.37237C56.2922 2.28778 56.2827 2.25746 56.201 2.21277C56.1523 2.18404 56.1523 2.18724 56.1051 2.1617C55.9605 2.08509 55.9935 1.99093 56.0093 1.9638C56.025 1.93667 56.0894 1.86166 56.2261 1.95103C56.2701 1.97976 56.267 1.98136 56.3173 2.01008C56.399 2.05796 56.4305 2.04839 56.4745 1.96859C56.4996 1.9239 56.4996 1.91911 56.5279 1.86964C56.5562 1.82016 56.5578 1.82495 56.5892 1.7675C56.6379 1.68291 56.6285 1.65419 56.5483 1.6079C56.4996 1.58077 56.4996 1.58396 56.4556 1.55683C56.4116 1.5297 56.4132 1.52651 56.3519 1.4914C56.2576 1.43714 56.245 1.44033 56.1947 1.53289C56.1793 1.56634 56.162 1.59885 56.1428 1.63025C56.0344 1.78984 55.9448 1.73079 55.9448 1.73079C55.9448 1.73079 55.8427 1.68451 55.9322 1.50576C55.9558 1.45788 55.9621 1.46107 55.9888 1.4132C56.0375 1.32861 56.025 1.29829 55.9464 1.2536C55.8678 1.20891 55.8835 1.22168 55.8379 1.19615C55.7924 1.17061 55.7971 1.16742 55.7484 1.13869C55.6635 1.08922 55.6368 1.10039 55.5912 1.18338C55.5582 1.23924 55.5645 1.23924 55.5346 1.28871C55.5048 1.33819 55.5032 1.33978 55.478 1.38287C55.4293 1.47065 55.4372 1.49619 55.5205 1.54247C55.5518 1.56167 55.5843 1.57873 55.6179 1.59354C55.7609 1.67015 55.7264 1.77069 55.7138 1.79144C55.7012 1.81219 55.6336 1.89358 55.4969 1.80421Z" fill="#525252"/>
</svg>
