<svg width="21" height="443" viewBox="0 0 21 443" fill="none" xmlns="http://www.w3.org/2000/svg">
<line x1="15" y1="409.25" x2="20" y2="409.25" stroke="#EEEFE8" stroke-width="0.5"/>
<line x1="15" y1="195.312" x2="20" y2="195.312" stroke="#EEEFE8" stroke-width="0.5"/>
<line x1="15" y1="390.219" x2="20" y2="390.219" stroke="#EEEFE8" stroke-width="0.5"/>
<line x1="15" y1="176.281" x2="20" y2="176.281" stroke="#EEEFE8" stroke-width="0.5"/>
<line x1="15" y1="370.531" x2="20" y2="370.531" stroke="#EEEFE8" stroke-width="0.5"/>
<line x1="15" y1="156.594" x2="20" y2="156.594" stroke="#EEEFE8" stroke-width="0.5"/>
<line x1="15" y1="350.844" x2="20" y2="350.844" stroke="#EEEFE8" stroke-width="0.5"/>
<line x1="15" y1="136.906" x2="20" y2="136.906" stroke="#EEEFE8" stroke-width="0.5"/>
<line x1="15" y1="331.156" x2="20" y2="331.156" stroke="#EEEFE8" stroke-width="0.5"/>
<line x1="15" y1="117.219" x2="20" y2="117.219" stroke="#EEEFE8" stroke-width="0.5"/>
<line x1="15" y1="312.125" x2="20" y2="312.125" stroke="#EEEFE8" stroke-width="0.5"/>
<line x1="15" y1="98.1875" x2="20" y2="98.1875" stroke="#EEEFE8" stroke-width="0.5"/>
<line x1="15" y1="292.437" x2="20" y2="292.437" stroke="#EEEFE8" stroke-width="0.5"/>
<line x1="15" y1="78.5" x2="20" y2="78.5" stroke="#EEEFE8" stroke-width="0.5"/>
<line x1="15" y1="272.75" x2="20" y2="272.75" stroke="#EEEFE8" stroke-width="0.5"/>
<line x1="15" y1="58.8123" x2="20" y2="58.8123" stroke="#EEEFE8" stroke-width="0.5"/>
<line x1="15" y1="253.063" x2="20" y2="253.063" stroke="#EEEFE8" stroke-width="0.5"/>
<line x1="15" y1="39.125" x2="20" y2="39.125" stroke="#EEEFE8" stroke-width="0.5"/>
<line x1="15" y1="234.031" x2="20" y2="234.031" stroke="#EEEFE8" stroke-width="0.5"/>
<line x1="15" y1="20.094" x2="20" y2="20.094" stroke="#EEEFE8" stroke-width="0.5"/>
<line x1="1.05865e-08" y1="214.344" x2="20" y2="214.344" stroke="#EEEFE8" stroke-width="0.5"/>
<path d="M0 0.5H20.5V429H0" stroke="#EEEFE8" stroke-width="0.5"/>
<path d="M3.444 14.1126C2.996 14.1126 2.596 14.0486 2.244 13.9206C1.892 13.7846 1.592 13.5566 1.344 13.2366C1.096 12.9086 0.908 12.4726 0.78 11.9286C0.652 11.3766 0.588 10.6846 0.588 9.85263C0.588 9.02063 0.652 8.33263 0.78 7.78863C0.908 7.23663 1.096 6.80063 1.344 6.48063C1.592 6.15263 1.892 5.92463 2.244 5.79663C2.596 5.66063 2.996 5.59263 3.444 5.59263C3.892 5.59263 4.288 5.66063 4.632 5.79663C4.984 5.92463 5.284 6.15263 5.532 6.48063C5.78 6.80063 5.968 7.23663 6.096 7.78863C6.224 8.33263 6.288 9.02063 6.288 9.85263C6.288 10.6846 6.224 11.3766 6.096 11.9286C5.968 12.4726 5.78 12.9086 5.532 13.2366C5.284 13.5566 4.984 13.7846 4.632 13.9206C4.288 14.0486 3.892 14.1126 3.444 14.1126ZM3.444 13.2246C3.9 13.2246 4.252 13.1086 4.5 12.8766C4.756 12.6446 4.932 12.3006 5.028 11.8446C5.132 11.3886 5.184 10.8206 5.184 10.1406V9.58863C5.184 8.90063 5.132 8.32863 5.028 7.87263C4.932 7.40863 4.756 7.06063 4.5 6.82863C4.252 6.59663 3.9 6.48063 3.444 6.48063C2.988 6.48063 2.632 6.59663 2.376 6.82863C2.12 7.06063 1.94 7.40463 1.836 7.86063C1.74 8.31663 1.692 8.88863 1.692 9.57663V10.1166C1.692 10.7966 1.74 11.3686 1.836 11.8326C1.94 12.2966 2.12 12.6446 2.376 12.8766C2.632 13.1086 2.988 13.2246 3.444 13.2246ZM7.68291 13.9686V13.0686H9.75891V7.36863H7.67091V6.69663C7.96691 6.67263 8.27091 6.62863 8.58291 6.56463C8.90291 6.50063 9.21491 6.40063 9.51891 6.26463C9.82291 6.12063 10.0989 5.93663 10.3469 5.71263H10.8269V13.0686H12.7829V13.9686H7.68291Z" fill="#EEEFE8"/>
<path d="M3.444 228.05C2.996 228.05 2.596 227.986 2.244 227.858C1.892 227.722 1.592 227.494 1.344 227.174C1.096 226.846 0.908 226.41 0.78 225.866C0.652 225.314 0.588 224.622 0.588 223.79C0.588 222.958 0.652 222.27 0.78 221.726C0.908 221.174 1.096 220.738 1.344 220.418C1.592 220.09 1.892 219.862 2.244 219.734C2.596 219.598 2.996 219.53 3.444 219.53C3.892 219.53 4.288 219.598 4.632 219.734C4.984 219.862 5.284 220.09 5.532 220.418C5.78 220.738 5.968 221.174 6.096 221.726C6.224 222.27 6.288 222.958 6.288 223.79C6.288 224.622 6.224 225.314 6.096 225.866C5.968 226.41 5.78 226.846 5.532 227.174C5.284 227.494 4.984 227.722 4.632 227.858C4.288 227.986 3.892 228.05 3.444 228.05ZM3.444 227.162C3.9 227.162 4.252 227.046 4.5 226.814C4.756 226.582 4.932 226.238 5.028 225.782C5.132 225.326 5.184 224.758 5.184 224.078V223.526C5.184 222.838 5.132 222.266 5.028 221.81C4.932 221.346 4.756 220.998 4.5 220.766C4.252 220.534 3.9 220.418 3.444 220.418C2.988 220.418 2.632 220.534 2.376 220.766C2.12 220.998 1.94 221.342 1.836 221.798C1.74 222.254 1.692 222.826 1.692 223.514V224.054C1.692 224.734 1.74 225.306 1.836 225.77C1.94 226.234 2.12 226.582 2.376 226.814C2.632 227.046 2.988 227.162 3.444 227.162ZM7.47891 227.906V227.558C7.47891 227.222 7.54291 226.914 7.67091 226.634C7.80691 226.346 7.98291 226.086 8.19891 225.854C8.42291 225.614 8.67491 225.386 8.95491 225.17C9.23491 224.954 9.51891 224.742 9.80691 224.534C10.1989 224.262 10.5589 223.99 10.8869 223.718C11.2229 223.446 11.4909 223.154 11.6909 222.842C11.8909 222.522 11.9909 222.166 11.9909 221.774C11.9909 221.526 11.9309 221.302 11.8109 221.102C11.6989 220.894 11.5269 220.73 11.2949 220.61C11.0629 220.49 10.7669 220.43 10.4069 220.43C9.98291 220.43 9.64291 220.502 9.38691 220.646C9.13091 220.79 8.94291 220.982 8.82291 221.222C8.71091 221.462 8.65491 221.726 8.65491 222.014V222.506H7.61091C7.60291 222.466 7.59491 222.406 7.58691 222.326C7.57891 222.238 7.57491 222.138 7.57491 222.026C7.57491 221.434 7.70691 220.958 7.97091 220.598C8.23491 220.23 8.58691 219.962 9.02691 219.794C9.46691 219.618 9.94291 219.53 10.4549 219.53C10.9109 219.53 11.3029 219.594 11.6309 219.722C11.9589 219.842 12.2309 220.01 12.4469 220.226C12.6629 220.442 12.8229 220.69 12.9269 220.97C13.0309 221.242 13.0829 221.53 13.0829 221.834C13.0829 222.21 13.0149 222.554 12.8789 222.866C12.7509 223.178 12.5669 223.47 12.3269 223.742C12.0949 224.006 11.8189 224.262 11.4989 224.51C11.1869 224.758 10.8469 225.01 10.4789 225.266C10.2229 225.434 9.97091 225.614 9.72291 225.806C9.47491 225.99 9.26291 226.178 9.08691 226.37C8.91091 226.562 8.79891 226.746 8.75091 226.922H13.1309V227.906H7.47891Z" fill="#EEEFE8"/>
<path d="M3.444 442.644C2.996 442.644 2.596 442.58 2.244 442.452C1.892 442.316 1.592 442.088 1.344 441.768C1.096 441.44 0.908 441.004 0.78 440.46C0.652 439.908 0.588 439.216 0.588 438.384C0.588 437.552 0.652 436.864 0.78 436.32C0.908 435.768 1.096 435.332 1.344 435.012C1.592 434.684 1.892 434.456 2.244 434.328C2.596 434.192 2.996 434.124 3.444 434.124C3.892 434.124 4.288 434.192 4.632 434.328C4.984 434.456 5.284 434.684 5.532 435.012C5.78 435.332 5.968 435.768 6.096 436.32C6.224 436.864 6.288 437.552 6.288 438.384C6.288 439.216 6.224 439.908 6.096 440.46C5.968 441.004 5.78 441.44 5.532 441.768C5.284 442.088 4.984 442.316 4.632 442.452C4.288 442.58 3.892 442.644 3.444 442.644ZM3.444 441.756C3.9 441.756 4.252 441.64 4.5 441.408C4.756 441.176 4.932 440.832 5.028 440.376C5.132 439.92 5.184 439.352 5.184 438.672V438.12C5.184 437.432 5.132 436.86 5.028 436.404C4.932 435.94 4.756 435.592 4.5 435.36C4.252 435.128 3.9 435.012 3.444 435.012C2.988 435.012 2.632 435.128 2.376 435.36C2.12 435.592 1.94 435.936 1.836 436.392C1.74 436.848 1.692 437.42 1.692 438.108V438.648C1.692 439.328 1.74 439.9 1.836 440.364C1.94 440.828 2.12 441.176 2.376 441.408C2.632 441.64 2.988 441.756 3.444 441.756ZM10.3349 442.644C9.69491 442.644 9.15491 442.548 8.71491 442.356C8.27491 442.156 7.94291 441.876 7.71891 441.516C7.49491 441.156 7.38291 440.728 7.38291 440.232V440.076H8.45091V440.232C8.45091 440.728 8.60691 441.108 8.91891 441.372C9.23891 441.628 9.67891 441.756 10.2389 441.756C10.7989 441.756 11.2509 441.636 11.5949 441.396C11.9389 441.148 12.1109 440.756 12.1109 440.22C12.1109 439.828 12.0189 439.528 11.8349 439.32C11.6509 439.112 11.4109 438.968 11.1149 438.888C10.8269 438.8 10.5189 438.756 10.1909 438.756H9.32691V437.868H10.2269C10.5309 437.868 10.8109 437.82 11.0669 437.724C11.3229 437.628 11.5269 437.472 11.6789 437.256C11.8389 437.032 11.9189 436.744 11.9189 436.392C11.9189 436.072 11.8469 435.812 11.7029 435.612C11.5669 435.412 11.3789 435.264 11.1389 435.168C10.8989 435.064 10.6349 435.012 10.3469 435.012C10.0269 435.012 9.73891 435.068 9.48291 435.18C9.22691 435.284 9.02291 435.444 8.87091 435.66C8.72691 435.876 8.65491 436.148 8.65491 436.476V436.632H7.57491V436.416C7.57491 435.96 7.69091 435.56 7.92291 435.216C8.16291 434.872 8.48691 434.604 8.89491 434.412C9.31091 434.22 9.78691 434.124 10.3229 434.124C10.8509 434.124 11.3149 434.208 11.7149 434.376C12.1229 434.544 12.4429 434.792 12.6749 435.12C12.9069 435.448 13.0229 435.852 13.0229 436.332C13.0229 436.684 12.9589 436.984 12.8309 437.232C12.7029 437.472 12.5349 437.672 12.3269 437.832C12.1189 437.992 11.8949 438.124 11.6549 438.228V438.276C12.0949 438.404 12.4629 438.636 12.7589 438.972C13.0549 439.308 13.2029 439.748 13.2029 440.292C13.2029 440.78 13.0789 441.2 12.8309 441.552C12.5909 441.904 12.2509 442.176 11.8109 442.368C11.3789 442.552 10.8869 442.644 10.3349 442.644Z" fill="#EEEFE8"/>
</svg>
