<svg fill="none" height="20" viewBox="0 0 20 20" width="20" xmlns="http://www.w3.org/2000/svg"><path d="m18.75 7.96989c0 5.47001-8.1086 9.89761-8.4539 10.08051-.091.049-.1928.0746-.2961.0746-.10335 0-.20508-.0256-.29609-.0746-.34532-.1829-8.45391-4.6105-8.45391-10.08051.00145-1.2845.51223-2.51597 1.4203-3.42425s2.13925-1.41919 3.42345-1.42064c1.61328 0 3.02578.69391 3.90625 1.86685.8805-1.17294 2.293-1.86685 3.9062-1.86685 1.2842.00145 2.5154.51236 3.4235 1.42064s1.4189 2.13975 1.4203 3.42425z" fill="#e94430"/></svg>