<svg fill="none" height="16" viewBox="0 0 19 16" width="19" xmlns="http://www.w3.org/2000/svg"><path d="m18.25 5.3029c0 5.47-8.1086 9.8976-8.45391 10.0805-.09101.049-.19274.0746-.29609.0746s-.20508-.0256-.29609-.0746c-.34532-.1829-8.45391-4.6105-8.45391-10.0805.001447-1.2845.51223-2.51598 1.4203-3.42426.90807-.908277 2.13925-1.419184 3.42345-1.420632 1.61328 0 3.02578.693912 3.90625 1.866842.8805-1.17293 2.293-1.866842 3.9062-1.866842 1.2842.001448 2.5154.512355 3.4235 1.420632.9081.90828 1.4189 2.13976 1.4203 3.42426z" fill="#e94430"/></svg>