<svg width="130" height="118" viewBox="0 0 130 118" fill="none" xmlns="http://www.w3.org/2000/svg">
<path d="M94.1772 11.9652C94.1772 11.622 94.3748 11.4452 94.7648 11.4452H95.1444C95.2848 11.4192 95.5084 11.4036 95.8152 11.4036C96.2052 11.4036 96.5848 11.388 96.9488 11.362L97.6612 9.5524C97.9108 8.9336 98.1084 8.6268 98.2488 8.6268C98.3892 8.6268 98.6076 8.6476 98.8988 8.6892C99.1952 8.7308 99.424 8.7516 99.5904 8.7516C99.8972 8.7516 100.344 8.6216 100.937 8.3668C101.052 8.3148 101.145 8.2888 101.234 8.2888C101.374 8.2888 101.442 8.346 101.442 8.4552L100.979 9.4484L100.053 11.44H102.658C102.799 11.44 102.965 11.414 103.163 11.3568C103.36 11.2996 103.47 11.2736 103.501 11.2736C103.808 11.2736 103.964 11.388 103.964 11.6116C103.964 12.0068 103.376 12.2148 102.196 12.2408H99.84L94.1616 24.9808C93.5428 26.3536 93.236 27.222 93.236 27.586C93.236 28.1736 93.6728 28.47 94.5412 28.47C95.8048 28.47 96.9228 27.8096 97.9056 26.4888C98.1292 26.2132 98.2956 26.078 98.41 26.078C98.6336 26.078 98.748 26.1768 98.748 26.3744C98.748 26.7384 98.2852 27.326 97.3596 28.1424C96.2936 29.068 95.0196 29.5308 93.5324 29.5308C92.5236 29.5308 91.702 29.2812 91.0728 28.7768C90.4436 28.2724 90.1264 27.6276 90.1264 26.8476C90.1264 26.3432 90.4488 25.4072 91.0936 24.0344L96.6004 12.2512H94.874C94.3956 12.2512 94.1616 12.1576 94.1616 11.9704L94.1772 11.9652ZM63.9496 56.446H64.1992C64.48 56.3628 64.8596 56.3212 65.3328 56.3212C65.6396 56.3212 66.0764 56.3628 66.638 56.446C66.8356 56.446 67.0748 56.1236 67.3504 55.4788L70.3768 48.8332C71.6664 46.0044 73.0392 43.7996 74.4952 42.2344C75.9512 40.664 77.09 39.8788 77.9012 39.8788C78.572 39.8788 78.91 40.2168 78.91 40.8876C78.91 41.028 78.884 41.184 78.8268 41.3504L78.7436 41.7716C78.7436 42.0784 78.9672 42.2344 79.4144 42.2344C79.8928 42.2344 80.3088 42.0316 80.678 41.626C81.042 41.2204 81.224 40.7368 81.224 40.1752C81.224 38.9428 80.5376 38.324 79.1648 38.324C77.2044 38.324 74.932 40.118 72.3528 43.706L73.9076 39.9204C74.2716 39.026 74.4536 38.506 74.4536 38.3656C74.4536 38.1992 74.3704 38.116 74.204 38.116C74.178 38.116 74.048 38.142 73.8244 38.1992C73.32 38.3968 72.3372 38.5216 70.8812 38.5788C69.4252 38.636 68.6972 38.7452 68.6972 38.9168C68.6972 39.1144 68.9052 39.2132 69.3264 39.2132H69.7476C70.0024 39.2132 70.1844 39.1976 70.2936 39.1716H70.46C70.824 39.1716 71.006 39.286 71.006 39.5096L63.9028 55.692L63.6948 56.1132C63.6116 56.1964 63.57 56.2536 63.57 56.2796C63.57 56.394 63.6948 56.4512 63.9496 56.4512V56.446ZM88.0412 39.3328H90.3968C91.572 39.3068 92.1648 39.0936 92.1648 38.7036C92.1648 38.48 92.0088 38.3656 91.702 38.3656C91.676 38.3656 91.5616 38.3916 91.364 38.4488C91.1664 38.506 91 38.532 90.8596 38.532H88.2544L89.18 36.5404L89.6428 35.5472C89.6428 35.438 89.57 35.3808 89.4348 35.3808C89.3516 35.3808 89.2528 35.4068 89.1384 35.4588C88.5508 35.7188 88.1036 35.8436 87.7916 35.8436C87.6252 35.8436 87.3912 35.8228 87.1 35.7812C86.8036 35.7396 86.5904 35.7188 86.45 35.7188C86.3096 35.7188 86.112 36.0256 85.8624 36.6444L85.15 38.454C84.786 38.48 84.4064 38.4956 84.0164 38.4956C83.7096 38.4956 83.486 38.5112 83.3456 38.5372H82.966C82.5708 38.5372 82.3784 38.7088 82.3784 39.0572C82.3784 39.2444 82.6176 39.338 83.0908 39.338H84.8172L79.3104 51.1212C78.6656 52.494 78.3432 53.43 78.3432 53.9344C78.3432 54.7196 78.6604 55.3592 79.2896 55.8636C79.9188 56.368 80.7404 56.6176 81.7492 56.6176C83.2364 56.6176 84.5104 56.1548 85.5764 55.2292C86.502 54.418 86.9648 53.8252 86.9648 53.4612C86.9648 53.2636 86.8504 53.1648 86.6268 53.1648C86.5124 53.1648 86.346 53.3052 86.1224 53.5756C85.1396 54.8964 84.0216 55.5568 82.758 55.5568C81.8896 55.5568 81.4528 55.2604 81.4528 54.6728C81.4528 54.3088 81.7596 53.4404 82.3784 52.0676L88.0568 39.3276L88.0412 39.3328ZM101.79 38.2408C104.255 38.2408 105.492 39.1872 105.492 41.0852C105.492 42.5932 104.681 43.8412 103.054 44.8292C101.426 45.8172 99.3668 46.3164 96.8708 46.3164C95.9712 46.3164 94.978 46.2592 93.886 46.15C92.846 48.2976 92.3312 50.2944 92.3312 52.1352C92.3312 54.6208 93.4388 55.8584 95.654 55.8584C97.3648 55.8584 99.0288 54.9744 100.656 53.2012C101.02 52.8112 101.26 52.6188 101.369 52.6188C101.509 52.6188 101.577 52.6864 101.577 52.8268C101.577 53.4664 100.916 54.2568 99.6008 55.198C98.0876 56.2796 96.5172 56.8204 94.8896 56.8204C93.0644 56.8204 91.5668 56.29 90.3916 55.2292C89.2164 54.1684 88.6236 52.8268 88.6236 51.1992C88.6236 48.0688 90.3344 45.032 93.7508 42.0992C96.7512 39.5252 99.4292 38.2408 101.78 38.2408H101.79ZM101.202 39.0832C100.303 39.0832 99.424 39.4212 98.5556 40.092C96.9852 41.3244 95.5396 43.16 94.224 45.5988C94.562 45.6248 94.9364 45.6404 95.3576 45.6404C96.928 45.6404 98.4568 45.162 99.9388 44.2104C101.65 43.1444 102.502 41.8704 102.502 40.3832C102.502 39.5148 102.066 39.078 101.197 39.078L101.202 39.0832ZM55.3696 54.4284C55.3696 54.0072 55.4684 53.5184 55.666 52.9568C53.898 55.536 51.8544 56.8256 49.53 56.8256C48.074 56.8256 46.8832 56.3576 45.9576 55.4216C45.032 54.4856 44.5692 53.2896 44.5692 51.8336C44.5692 50.2372 45.0996 48.49 46.1656 46.592C47.2316 44.6888 48.646 42.9572 50.414 41.392C52.8268 39.2652 55.0368 38.2044 57.0596 38.2044C59.0824 38.2044 60.3408 39.2132 60.5904 41.2308L61.6408 39C61.8644 38.5528 62.062 38.3292 62.2284 38.3292C62.2856 38.3292 62.452 38.3552 62.7328 38.4124C63.0136 38.4696 63.2112 38.4956 63.3204 38.4956C63.9392 38.4956 64.4124 38.428 64.7504 38.298C64.8648 38.2304 64.9584 38.1992 65.0468 38.1992C65.2132 38.1992 65.2964 38.298 65.2964 38.4904C65.2964 38.5736 65.182 38.8648 64.9584 39.3692L59.41 51.922C58.8744 53.1232 58.6092 54.0436 58.6092 54.6832C58.6092 55.406 58.9732 55.77 59.7012 55.77C60.7932 55.77 61.8852 55.0264 62.9824 53.5392C63.206 53.2324 63.3724 53.0764 63.4868 53.0764C63.6012 53.0764 63.6532 53.1336 63.6532 53.2428C63.6532 53.5496 63.3464 54.0436 62.7276 54.7144C61.4952 56.03 60.0236 56.6904 58.3128 56.6904C57.4444 56.6904 56.7372 56.4824 56.1912 56.0612C55.6452 55.64 55.3696 55.094 55.3696 54.4232V54.4284ZM56.1704 50.6272L59.4516 43.5968C59.8156 42.8168 59.9976 42.2708 59.9976 41.964C59.9976 41.1008 59.7376 40.404 59.2176 39.8736C58.6976 39.3432 58.032 39.078 57.2208 39.078C55.8168 39.078 54.4752 39.8996 53.1856 41.548C51.6984 43.4148 50.5076 45.3908 49.6132 47.4656C48.7136 49.5456 48.2664 51.3604 48.2664 52.9256C48.2664 54.8236 49.0516 55.77 50.622 55.77C51.5164 55.77 52.494 55.2812 53.5444 54.3036C54.5948 53.326 55.4736 52.0988 56.1704 50.622V50.6272ZM63.9912 14.0504C66.404 12.1732 68.7284 11.232 70.9696 11.232C72.6804 11.232 74.0688 11.8508 75.1296 13.0832C76.1956 14.3156 76.726 15.9276 76.726 17.9192C76.726 19.9108 76.1956 21.6944 75.14 23.4104C75.2284 23.27 75.3272 23.1348 75.4416 23.01C75.9044 22.5056 76.4868 22.2508 77.1836 22.2508C77.714 22.2508 78.1716 22.4328 78.5512 22.7968C78.9308 23.1608 79.118 23.5976 79.118 24.102C79.118 24.9444 78.7124 25.3656 77.896 25.3656C77.0276 25.3656 76.5908 25.0692 76.5908 24.4816C76.5908 24.284 76.6272 24.0916 76.6948 23.894C76.7624 23.6964 76.7988 23.5872 76.7988 23.556C76.7988 23.2752 76.6844 23.1348 76.4608 23.1348C76.2112 23.1348 75.9772 23.322 75.7692 23.7016C75.5612 24.0812 75.452 24.492 75.452 24.9444C75.452 26.0364 75.9096 26.9932 76.8248 27.8044C77.74 28.6156 78.8164 29.0212 80.0592 29.0212C81.2136 29.0212 82.1808 28.6728 82.9504 27.9708C83.7252 27.2688 84.1152 26.39 84.1152 25.324C84.1152 24.57 83.8136 23.3324 83.2104 21.6268C82.6384 19.9992 82.3472 18.6576 82.3472 17.5916C82.3472 15.7716 82.8984 14.2376 84.006 12.9896C85.1136 11.7416 86.4656 11.1176 88.062 11.1176C89.128 11.1176 90.0536 11.44 90.8388 12.0848C91.624 12.7296 92.014 13.4888 92.014 14.3572C92.014 14.8356 91.858 15.2412 91.5512 15.5792C91.2444 15.9172 90.8804 16.0836 90.4592 16.0836C89.6168 16.0836 89.1956 15.678 89.1956 14.8668C89.1956 14.196 89.4764 13.858 90.038 13.858C90.1212 13.858 90.2564 13.8996 90.4384 13.9828C90.6204 14.066 90.766 14.1076 90.8804 14.1076C91.0468 14.1076 91.13 14.014 91.13 13.8164C91.13 13.3484 90.8076 12.896 90.1628 12.454C89.518 12.012 88.8576 11.7936 88.1868 11.7936C87.2872 11.7936 86.5332 12.0796 85.9144 12.6516C85.2956 13.2236 84.9888 13.9204 84.9888 14.7264C84.9888 15.4284 85.6492 17.368 86.9648 20.5556C87.2716 21.3096 87.4276 22.1624 87.4276 23.114C87.4276 25.0172 86.7828 26.6084 85.4932 27.898C84.2036 29.1876 82.5916 29.8272 80.6572 29.8272C78.9776 29.8272 77.5684 29.3592 76.4296 28.418C75.296 27.482 74.7292 26.3224 74.7292 24.9496C74.7292 24.362 74.8592 23.8524 75.1192 23.4208C74.3964 24.6012 73.4292 25.7244 72.2072 26.7956C69.8516 28.8704 67.3972 29.9052 64.8492 29.9052C63.1124 29.9052 61.6824 29.302 60.5592 28.0956C59.436 26.8892 58.8796 25.3344 58.8796 23.4312C58.8796 21.8036 59.3424 20.1396 60.268 18.4288C61.1936 16.718 62.426 15.262 63.9652 14.0556L63.9912 14.0504ZM64.5788 16.9936C62.9512 20.1864 62.14 23.1868 62.14 25.9896C62.14 28.0904 63.0812 29.1408 64.9584 29.1408C67.314 29.1408 69.2744 27.6276 70.8448 24.6012C72.6128 21.1796 73.4916 18.044 73.4916 15.184C73.4916 13.0572 72.54 11.9912 70.6316 11.9912C68.3072 11.9912 66.2844 13.6604 64.5788 16.9936ZM75.2596 81.8116C74.0272 83.1272 72.5556 83.7876 70.8448 83.7876C69.9764 83.7876 69.2692 83.5796 68.7232 83.1584C68.1772 82.7372 67.9016 82.1912 67.9016 81.5204C67.9016 81.0992 68.0004 80.6104 68.198 80.0488C66.43 82.628 64.3864 83.9176 62.062 83.9176C60.606 83.9176 59.4152 83.4496 58.4896 82.5136C57.564 81.5776 57.1012 80.3816 57.1012 78.9256C57.1012 77.3292 57.6316 75.582 58.6976 73.684C59.7636 71.7808 61.178 70.0492 62.946 68.484C65.3588 66.3572 67.5688 65.2964 69.5916 65.2964C71.6144 65.2964 72.8728 66.3052 73.1224 68.3228L74.1728 66.092C74.3964 65.6448 74.594 65.4212 74.7604 65.4212C74.8176 65.4212 74.984 65.4472 75.2648 65.5044C75.5456 65.5616 75.7432 65.5876 75.8524 65.5876C76.4712 65.5876 76.9444 65.52 77.2824 65.39C77.3968 65.3224 77.4904 65.2912 77.5788 65.2912C77.7452 65.2912 77.8284 65.39 77.8284 65.5824C77.8284 65.6656 77.714 65.9568 77.4904 66.4612L71.942 79.014C71.4064 80.2152 71.1412 81.1356 71.1412 81.7752C71.1412 82.498 71.5052 82.862 72.2332 82.862C73.3252 82.862 74.4172 82.1184 75.5144 80.6312C75.738 80.3244 75.9044 80.1684 76.0188 80.1684C76.1332 80.1684 76.1852 80.2256 76.1852 80.3348C76.1852 80.6416 75.8784 81.1356 75.2596 81.8064V81.8116ZM71.9784 70.6888C72.3424 69.9088 72.5244 69.3628 72.5244 69.056C72.5244 68.1928 72.2644 67.496 71.7444 66.9656C71.2244 66.4352 70.5588 66.17 69.7476 66.17C68.3436 66.17 67.002 66.9916 65.7124 68.64C64.2252 70.5068 63.0344 72.4828 62.14 74.5628C61.2404 76.6428 60.7932 78.4576 60.7932 80.0228C60.7932 81.9208 61.5784 82.8672 63.1488 82.8672C64.0432 82.8672 65.0208 82.3784 66.0712 81.4008C67.1216 80.4232 68.0004 79.196 68.6972 77.7192L71.9784 70.6888ZM111.186 53.6848H109.106C108.8 53.6848 108.644 53.7576 108.644 53.898C108.644 54.0384 108.909 54.1216 109.444 54.1476C110.339 54.2048 110.869 54.2516 111.02 54.2984C111.176 54.34 111.254 54.4596 111.254 54.6572C111.254 54.7716 111.197 54.8964 111.088 55.0368L111.062 55.0992C111.836 54.9224 112.622 54.444 113.402 53.6796C113.183 53.6796 112.949 53.6848 112.684 53.6848H111.192H111.186ZM90.6048 67.9796C90.6048 68.12 90.5788 68.276 90.5216 68.4424L90.4384 68.8636C90.4384 69.1704 90.662 69.3264 91.1092 69.3264C91.5876 69.3264 92.0036 69.1236 92.3728 68.718C92.7368 68.3124 92.9188 67.8288 92.9188 67.2672C92.9188 66.0348 92.2324 65.416 90.8596 65.416C88.8992 65.416 86.6268 67.21 84.0476 70.798L85.6024 67.0124C85.9664 66.118 86.1484 65.598 86.1484 65.4576C86.1484 65.2912 86.0652 65.208 85.8988 65.208C85.8728 65.208 85.7428 65.234 85.5192 65.2912C85.0148 65.4888 84.032 65.6136 82.576 65.6708C81.12 65.728 80.392 65.8372 80.392 66.0088C80.392 66.2064 80.6 66.3052 81.0212 66.3052H81.4424C81.692 66.3052 81.8792 66.2896 81.9884 66.2636H82.1548C82.5188 66.2636 82.7008 66.378 82.7008 66.6016L75.5976 82.784L75.3896 83.2052C75.3064 83.2884 75.2648 83.3456 75.2648 83.3716C75.2648 83.486 75.3896 83.5432 75.6444 83.5432H75.894C76.1748 83.46 76.5544 83.4184 77.0276 83.4184C77.3344 83.4184 77.7712 83.46 78.3328 83.5432C78.5304 83.5432 78.7696 83.2208 79.0452 82.576L82.0716 75.9304C83.3612 73.1016 84.734 70.8968 86.19 69.3316C87.646 67.7612 88.7796 66.976 89.596 66.976C90.2668 66.976 90.6048 67.314 90.6048 67.9848V67.9796ZM130 26.676C129.974 26.7592 129.932 26.858 129.875 26.9724C129.761 27.196 129.61 27.5184 129.412 27.9396L119.829 51.1576C119.101 52.9204 118.737 54.0124 118.737 54.4336C118.737 55.2188 119.184 55.6088 120.084 55.6088C121.43 55.6088 122.58 54.8756 123.531 53.4144C123.838 52.9464 124.051 52.7124 124.16 52.7124C124.358 52.7124 124.457 52.8268 124.457 53.0504C124.457 53.5288 123.978 54.1996 123.027 55.068C121.852 56.134 120.432 56.6644 118.778 56.6644C116.678 56.6644 115.627 55.77 115.627 53.976V52.754C115.435 53.0296 115.242 53.2844 115.055 53.5288C115.06 53.5288 115.076 53.5288 115.081 53.5288C115.248 53.5288 115.331 53.612 115.331 53.7784C115.305 53.8616 115.263 53.9604 115.206 54.0748C115.092 54.2984 114.941 54.6208 114.743 55.042L105.16 78.26C104.432 80.0228 104.068 81.1148 104.068 81.536C104.068 82.3212 104.515 82.7112 105.414 82.7112C106.688 82.7112 107.78 82.0508 108.701 80.7404C108.503 80.2412 108.399 79.7108 108.399 79.1388C108.399 78.3536 108.628 77.7088 109.091 77.2044C109.554 76.7 110.136 76.4452 110.838 76.4452C111.368 76.4452 111.826 76.6272 112.206 76.9912C112.585 77.3552 112.772 77.792 112.772 78.2964C112.772 79.1388 112.367 79.56 111.556 79.56C110.687 79.56 110.25 79.2636 110.25 78.676C110.25 78.4784 110.287 78.286 110.354 78.0884C110.422 77.8908 110.458 77.7816 110.458 77.7504C110.458 77.4696 110.344 77.3292 110.12 77.3292C109.871 77.3292 109.637 77.5164 109.429 77.896C109.221 78.2756 109.112 78.6864 109.112 79.1388C109.112 80.2308 109.569 81.1876 110.484 81.9988C111.4 82.81 112.476 83.2156 113.719 83.2156C114.873 83.2156 115.84 82.8672 116.615 82.1652C117.39 81.4632 117.775 80.5844 117.775 79.5184C117.775 78.7644 117.473 77.5268 116.87 75.8212C116.298 74.1936 116.007 72.852 116.007 71.786C116.007 69.966 116.558 68.432 117.666 67.184C118.773 65.936 120.125 65.312 121.722 65.312C122.788 65.312 123.713 65.6344 124.498 66.2792C125.284 66.924 125.674 67.6832 125.674 68.5516C125.674 69.03 125.518 69.4356 125.211 69.7736C124.904 70.1116 124.54 70.278 124.119 70.278C123.276 70.278 122.855 69.8724 122.855 69.0612C122.855 68.3904 123.136 68.0524 123.698 68.0524C123.781 68.0524 123.916 68.094 124.098 68.1772C124.28 68.2604 124.426 68.302 124.54 68.302C124.706 68.302 124.79 68.2084 124.79 68.0108C124.79 67.5428 124.467 67.0904 123.822 66.6484C123.178 66.2064 122.517 65.988 121.846 65.988C120.947 65.988 120.193 66.274 119.574 66.846C118.955 67.418 118.648 68.1148 118.648 68.9208C118.648 69.6228 119.309 71.5624 120.624 74.75C120.931 75.504 121.087 76.3568 121.087 77.3084C121.087 79.2116 120.442 80.8028 119.153 82.0924C117.863 83.3768 116.251 84.0216 114.317 84.0216C112.637 84.0216 111.228 83.5536 110.089 82.6124C109.663 82.2588 109.314 81.874 109.049 81.4632C108.852 81.6816 108.623 81.9156 108.342 82.1704C107.167 83.2364 105.747 83.7668 104.094 83.7668C101.993 83.7668 100.942 82.8724 100.942 81.0784V79.8564C99.9128 81.328 98.9248 82.3732 97.9784 82.9972C97.032 83.6212 95.9192 83.9332 94.64 83.9332C93.08 83.9332 91.806 83.4392 90.818 82.446C89.83 81.4528 89.336 80.158 89.336 78.5668C89.336 75.2648 90.9064 72.15 94.0472 69.212C96.876 66.5548 99.5852 65.2288 102.164 65.2288C103.958 65.2288 105.149 66.0868 105.737 67.7924L105.986 67.2828L106.283 66.6484L110.37 56.758C110.032 56.81 109.678 56.8412 109.309 56.8412C107.749 56.8412 106.475 56.3472 105.487 55.354C104.499 54.3608 104.005 53.066 104.005 51.4748C104.005 48.1728 105.576 45.058 108.716 42.12C111.545 39.4628 114.254 38.1368 116.834 38.1368C118.628 38.1368 119.818 38.9948 120.406 40.7004L120.656 40.1908L120.952 39.5564L125.746 27.9656C125.861 27.8252 125.913 27.7004 125.913 27.586C125.913 27.3884 125.835 27.2688 125.684 27.2272C125.528 27.1856 125.003 27.1336 124.108 27.0764C123.578 27.0504 123.308 26.9724 123.308 26.8268C123.308 26.6812 123.464 26.6136 123.77 26.6136H127.343C128.409 26.6136 129.095 26.5772 129.402 26.4992C129.568 26.4628 129.683 26.442 129.74 26.442C129.906 26.442 129.99 26.5252 129.99 26.6916L130 26.676ZM105.196 68.6036C105.196 67.9588 104.9 67.3868 104.312 66.8824C103.724 66.378 103.064 66.1284 102.336 66.1284C100.261 66.1284 98.1448 67.86 95.9868 71.3284C93.938 74.5992 92.9188 77.3656 92.9188 79.6328C92.9188 81.6764 93.8444 82.6956 95.6956 82.6956C97.3232 82.6956 98.9196 81.562 100.49 79.3C101.613 77.7088 102.575 75.8472 103.392 73.7204L104.359 71.2452C104.92 69.8204 105.201 68.9364 105.201 68.6036H105.196ZM119.865 41.5116C119.865 40.8668 119.569 40.2948 118.981 39.7904C118.394 39.286 117.733 39.0364 117.005 39.0364C114.93 39.0364 112.814 40.768 110.656 44.2364C108.607 47.5072 107.588 50.2736 107.588 52.5408C107.588 54.5844 108.514 55.6036 110.365 55.6036C111.992 55.6036 113.589 54.47 115.159 52.208C116.282 50.6168 117.25 48.7552 118.061 46.6284L119.028 44.1532C119.59 42.7284 119.87 41.8444 119.87 41.5116H119.865ZM10.426 56.3472C10.6756 56.3472 11.0448 56.368 11.518 56.4044H12.3604C12.7244 56.4044 12.9064 56.2796 12.9064 56.0248C12.9064 55.77 12.8388 55.6452 12.6984 55.6452L10.3428 55.7284C9.2768 55.5308 8.7464 55.2656 8.7464 54.9328C8.7464 54.7352 8.97 54.0644 9.4172 52.9204L12.948 43.9504C13.2288 43.2224 13.3848 42.8168 13.4108 42.7336C13.5512 42.2032 13.8164 41.938 14.2116 41.938H23.5456C24.3308 41.938 24.752 42.0784 24.8092 42.3592C24.6116 42.8948 24.4608 43.3004 24.3464 43.5812L20.5608 53.4508C20.3112 54.1268 20.1552 54.548 20.098 54.7144C19.9316 55.1096 19.7756 55.354 19.6352 55.4528C19.4948 55.5516 19.2296 55.614 18.8344 55.64H16.2708C15.8756 55.614 15.6832 55.744 15.6832 56.0404C15.6832 56.2796 15.8652 56.3992 16.2292 56.3992H27.5808C28.0852 56.3992 28.3348 56.2744 28.3348 56.0196C28.3348 55.8792 28.1788 55.7804 27.872 55.7232C26.2756 55.6972 25.246 55.6296 24.7832 55.536C24.3204 55.4372 24.0916 55.2032 24.0916 54.8392C24.2892 54.2204 24.57 53.4352 24.934 52.4784L32.9628 31.564C33.6648 29.7076 34.19 28.6104 34.5384 28.2776C34.8868 27.9396 35.6668 27.7732 36.8732 27.7732H38.1368C38.5008 27.7732 38.6828 27.6536 38.6828 27.4196C38.6828 27.2064 38.4436 27.1024 37.9704 27.1024H37.466C37.0708 27.1024 36.6392 27.144 36.1608 27.2272H35.1936L32.136 27.1804L40.4092 4.6384C40.716 3.8272 40.9552 3.1408 41.1216 2.5792C41.2048 2.3556 41.2776 2.2152 41.3296 2.158C41.4388 2.158 41.496 2.4804 41.496 3.1252C41.496 3.432 41.47 4.1184 41.4128 5.1844L40.2792 26.5408V27.846L40.196 28.3088C40.196 28.756 40.3104 28.9796 40.534 28.9796C40.7004 28.9796 41.054 28.6156 41.5844 27.8876L55.4996 7.41C58.2452 3.3436 59.6336 1.3 59.6596 1.2688L51.4176 22.0792C50.7156 23.8472 50.0136 25.61 49.3168 27.378C49.0672 27.9396 48.828 28.262 48.6044 28.3452C48.126 28.4856 47.502 28.5532 46.7324 28.5532C45.9628 28.5532 45.578 28.7092 45.578 29.016C45.578 29.1824 45.7184 29.2656 45.9992 29.2656H56.1756C56.5968 29.2916 56.8048 29.1356 56.8048 28.7924C56.8048 28.6884 56.7632 28.6208 56.68 28.5948H54.2412C53.5132 28.5948 53.1492 28.4284 53.1492 28.0904C53.1492 28.0072 53.2064 27.9084 53.3156 27.794C53.482 27.3728 53.6016 27.0556 53.6744 26.8476C53.742 26.6396 53.7784 26.5044 53.7784 26.4472C53.9448 26.026 54.0592 25.7192 54.1164 25.5216L61.9788 5.044C62.4832 3.7284 63.0032 2.522 63.5336 1.43C63.7312 1.04 63.9964 0.8424 64.3344 0.8424H66.1024C66.2688 0.8424 66.4092 0.8528 66.5236 0.8736C66.7732 0.9152 66.9604 0.9464 67.0696 0.9672C67.4076 0.9672 67.574 0.754 67.574 0.322399C67.574 0.109199 67.4076 0 67.0696 0L62.2336 0.124799H59.0824L46.384 19.0892L45.3752 20.4776C44.8396 21.2056 44.5172 21.6684 44.408 21.866L45.3752 2.704C45.4324 1.5808 45.4584 0.805999 45.4584 0.384799C45.4584 0.129999 45.3752 0.00519913 45.2088 0.00519913H45.0008C44.8604 0.0883991 43.7112 0.13 41.5532 0.13C39.0884 0.13 37.6688 0.104 37.3048 0.0468001C37.1384 0.0208001 36.9564 0.00519913 36.7588 0.00519913C36.452 0.00519913 36.296 0.140399 36.296 0.405599C36.296 0.696799 36.3948 0.847601 36.5924 0.847601H39.156C39.4628 0.847601 39.78 0.909999 40.1024 1.0348C40.4248 1.1596 40.586 1.2792 40.586 1.3936C40.5288 1.5028 40.4612 1.6172 40.378 1.7316C40.2376 2.0956 40.1232 2.418 40.04 2.6988L31.5484 25.3656C31.2676 26.104 31.0284 26.6968 30.8256 27.1544L27.2168 27.0972C26.572 27.0972 26.2496 27.2064 26.2496 27.4248C26.2496 27.768 26.572 27.9396 27.2168 27.9396H28.8964C29.7388 27.9968 30.16 28.2048 30.16 28.5688C30.16 28.9328 29.9104 29.7336 29.4008 30.966L26.078 39.0832C25.6828 40.0088 25.428 40.5704 25.298 40.7628C25.1732 40.9604 25.012 41.0592 24.8144 41.0592H15.9432C14.794 41.0332 14.2168 40.8876 14.2168 40.638C14.2428 40.5548 14.2844 40.4664 14.3416 40.3832L18.0024 30.9452C18.59 29.4476 18.9748 28.574 19.1568 28.3192C19.3388 28.0644 19.708 27.9396 20.2696 27.9396H22.5004C22.9476 27.9396 23.1712 27.7784 23.1712 27.4612C23.1712 27.222 22.9216 27.1024 22.4172 27.1024C22.4432 27.1024 22.3028 27.1024 21.996 27.1024H11.3984C11.0916 27.1024 10.9356 27.2064 10.9356 27.4196C10.9356 27.6588 11.2424 27.7732 11.8612 27.7732C12.896 27.7732 13.4888 27.7888 13.6292 27.8148C14.4716 27.898 14.8928 28.1528 14.8928 28.574C14.8928 28.7716 14.6536 29.4632 14.1804 30.6436L5.6888 51.9272C5.044 53.5028 4.5968 54.5064 4.342 54.9276C4.1756 55.1824 3.952 55.3488 3.6712 55.4372C3.3072 55.5776 2.5376 55.6504 1.3572 55.6504H0.4628C0.156 55.6504 0 55.7804 0 56.0456C0 56.2848 0.2964 56.4044 0.884 56.4044C1.3052 56.4044 1.9552 56.3784 2.8392 56.3212C3.7232 56.264 4.3992 56.238 4.8776 56.238L10.426 56.3524V56.3472ZM31.8604 83.46C31.7096 83.4756 31.5484 83.4912 31.3664 83.4964C31.6576 83.486 31.8188 83.4704 31.8604 83.46ZM56.5708 65.2912C56.0976 65.2912 55.6972 65.4472 55.3644 65.754C55.0316 66.0608 54.8652 66.4248 54.8652 66.846C54.8652 67.548 55.2656 67.8964 56.0664 67.8964C56.2328 67.8964 56.342 67.886 56.3992 67.8652C56.6176 67.8028 56.758 67.7716 56.81 67.7716C57.1688 67.7716 57.3456 68.0784 57.3456 68.6972C57.3456 71.4428 56.4616 74.2872 54.6988 77.2304C52.3172 81.1824 50.1176 83.1584 48.1 83.1584C46.8936 83.1584 46.2904 82.472 46.2904 81.0992C46.2904 80.1164 46.5972 78.858 47.216 77.3136L51.168 67.4336C51.3344 67.0124 51.4904 66.664 51.6308 66.3832C51.7452 66.2688 51.7972 66.1596 51.7972 66.0452C51.7972 65.8788 51.6828 65.7956 51.4592 65.7956C51.5164 65.7956 51.3864 65.8216 51.0796 65.8788L49.9044 66.0868L48.8956 66.2116L48.3912 66.2532C48.0844 66.2792 47.8868 66.4612 47.8036 66.7992L47.0028 69.1912L44.8604 74.3496C42.4216 80.2204 40.04 83.1584 37.7156 83.1584C36.764 83.1584 36.2856 82.5708 36.2856 81.3956C36.2856 80.444 36.608 79.2584 37.2528 77.8284L39.7332 72.3736C40.6276 70.3872 41.08 68.8376 41.08 67.7196C41.08 66.0972 40.0556 65.286 38.012 65.286C36.4676 65.286 34.97 66.0296 33.514 67.5168C32.422 68.64 31.876 69.4512 31.876 69.9556C31.876 70.1792 31.9592 70.2936 32.1308 70.2936C32.3024 70.2936 32.4532 70.1428 32.5936 69.836C33.0408 68.978 33.7012 68.1772 34.5696 67.444C35.438 66.7108 36.1556 66.3416 36.712 66.3416C37.3568 66.3416 37.6792 66.7212 37.6792 67.4752C37.6792 68.094 37.4712 68.8896 37.05 69.8724L34.528 75.6756C33.7428 77.4696 33.3528 79.0556 33.3528 80.4284C33.3528 81.4684 33.7168 82.3212 34.4448 82.992C35.1728 83.6628 36.0984 84.0008 37.2216 84.0008C39.7436 84.0008 41.834 82.264 43.4876 78.7852C43.4876 79.7368 43.5292 80.4128 43.6124 80.8028C43.81 81.7856 44.2416 82.5604 44.9176 83.1376C45.5884 83.7096 46.3736 84.0008 47.2732 84.0008C49.8784 84.0008 52.3536 82.2744 54.6936 78.8164C57.0336 75.3584 58.2036 71.682 58.2036 67.7768C58.2036 66.118 57.6628 65.2912 56.5864 65.2912H56.5708ZM32.7964 82.9816C32.7964 83.2312 32.4792 83.3872 31.8604 83.46C31.9696 83.4288 31.2624 83.3976 29.7284 83.3716H20.982C20.7844 83.4548 20.5608 83.4964 20.3112 83.4964C19.8328 83.4964 19.5988 83.33 19.5988 82.992C19.5988 82.7424 19.7548 82.6124 20.0616 82.6124H21.45C22.2092 82.6124 22.88 82.4876 23.4676 82.2328C23.8576 82.0664 24.154 81.2812 24.3516 79.8772L25.194 74.1988C25.22 74.1156 25.2356 74.0012 25.2356 73.8608C25.2356 73.6632 24.7312 73.5644 23.7224 73.5644H17.1652C16.9988 73.736 16.6348 74.1676 16.0732 74.854L12.1628 80.3608C11.6324 81.1044 11.362 81.6244 11.362 81.9104C11.362 82.5136 12.1316 82.8152 13.676 82.8152C13.8424 82.8152 14.0972 82.7788 14.4352 82.7112C14.7732 82.6436 15.0228 82.6072 15.1892 82.6072C15.5792 82.6072 15.7768 82.7476 15.7768 83.0284C15.7768 83.3352 15.3972 83.4912 14.6432 83.4912L12.3292 83.3664L8.502 83.4912C6.682 83.5172 5.5328 83.4964 5.0544 83.4288C4.576 83.3612 4.342 83.1948 4.342 82.9452C4.342 82.7216 4.4824 82.6072 4.7632 82.6072C4.9608 82.6072 5.2416 82.6436 5.6056 82.7112C5.9696 82.7788 6.2504 82.8152 6.448 82.8152C7.3996 82.8152 8.2004 82.6332 8.8452 82.2692C9.2924 82.0144 10.2024 80.9744 11.5804 79.1492L23.7328 63.128C24.4608 62.1712 25.5684 60.7516 27.0556 58.8692L30.2952 54.6572C29.484 53.6952 29.0732 52.546 29.0732 51.1992C29.0732 48.0688 30.784 45.032 34.2004 42.0992C37.2008 39.5252 39.8788 38.2408 42.2292 38.2408C44.5796 38.2408 45.9316 39.1872 45.9316 41.0852C45.9316 42.5932 45.1204 43.8412 43.4928 44.8292C41.8652 45.8172 39.806 46.3164 37.31 46.3164C36.4104 46.3164 35.4172 46.2592 34.3252 46.15C33.2852 48.2976 32.7704 50.2944 32.7704 52.1352C32.7704 54.6208 33.878 55.8584 36.0932 55.8584C37.804 55.8584 39.468 54.9744 41.0956 53.2012C41.4596 52.8112 41.6988 52.6188 41.808 52.6188C41.9484 52.6188 42.016 52.6864 42.016 52.8268C42.016 53.4664 41.3556 54.2568 40.04 55.198C38.5268 56.2796 36.9564 56.8204 35.3288 56.8204C33.9248 56.8204 32.7132 56.5032 31.694 55.874C31.6628 56.0508 31.6264 56.2328 31.5848 56.42C31.2208 58.1048 30.8308 60.6424 30.4096 64.0432L28.5584 79.0348C28.392 80.4128 28.3088 81.1668 28.3088 81.3072C28.3088 82.1236 28.8132 82.5552 29.822 82.6124H32.3024C32.6404 82.6436 32.8068 82.7684 32.8068 82.9816H32.7964ZM34.6424 45.5988C34.9804 45.6248 35.3548 45.6404 35.776 45.6404C37.3464 45.6404 38.8752 45.162 40.3572 44.2104C42.068 43.1444 42.9208 41.8704 42.9208 40.3832C42.9208 39.5148 42.484 39.078 41.6156 39.078C40.7472 39.078 39.8372 39.416 38.9688 40.0868C37.3984 41.3192 35.9528 43.1548 34.6372 45.5936L34.6424 45.5988ZM27.2012 60.8764C27.2012 60.6268 27.144 60.4968 27.0348 60.4968C26.8684 60.4968 26.7124 60.6736 26.572 61.022C26.4316 61.3704 26.3068 61.5888 26.1924 61.672C26.026 61.8696 25.5736 62.4572 24.8456 63.4296L20.3476 69.4616C19.8432 70.1324 19.1828 70.9956 18.3716 72.0564C18.2312 72.1708 18.148 72.2644 18.122 72.3476C18.122 72.5712 18.3196 72.67 18.7096 72.6388H21.6528C23.7276 72.6648 24.986 72.5712 25.4384 72.3476L26.7436 63.7572C26.8268 63.2008 26.9516 62.4312 27.1232 61.4536C27.1804 61.1728 27.2064 60.9804 27.2064 60.866L27.2012 60.8764Z" fill="black"/>
<path d="M54.8857 107.14C54.8659 106.784 54.9022 106.455 54.9944 106.152C55.0867 105.849 55.2284 105.588 55.4195 105.371C55.6172 105.147 55.861 104.972 56.151 104.847C56.4409 104.722 56.7704 104.659 57.1394 104.659C57.4426 104.659 57.7259 104.705 57.9895 104.797C58.2597 104.883 58.4937 105.012 58.6914 105.183C58.8891 105.348 59.0439 105.555 59.156 105.806C59.2746 106.056 59.3339 106.346 59.3339 106.676C59.3339 106.985 59.2845 107.259 59.1856 107.496C59.0934 107.733 58.9681 107.947 58.81 108.139C58.6518 108.323 58.4706 108.491 58.2663 108.643C58.062 108.794 57.8512 108.939 57.6337 109.078C57.4162 109.209 57.1988 109.341 56.9813 109.473C56.7638 109.598 56.5628 109.733 56.3783 109.878C56.2004 110.023 56.0455 110.181 55.9137 110.353C55.7885 110.518 55.7061 110.709 55.6666 110.926H59.2647V111.667H54.688C54.7209 111.252 54.7934 110.9 54.9055 110.61C55.0241 110.313 55.1723 110.056 55.3503 109.839C55.5282 109.621 55.7292 109.43 55.9533 109.265C56.1773 109.101 56.4113 108.946 56.6551 108.801C56.9516 108.616 57.2119 108.448 57.436 108.297C57.66 108.139 57.8446 107.98 57.9895 107.822C58.1411 107.664 58.2531 107.493 58.3256 107.308C58.4047 107.124 58.4442 106.91 58.4442 106.666C58.4442 106.475 58.408 106.303 58.3355 106.152C58.263 105.994 58.1642 105.858 58.039 105.746C57.9203 105.634 57.7787 105.549 57.6139 105.489C57.4492 105.43 57.2745 105.4 57.09 105.4C56.8462 105.4 56.6353 105.453 56.4574 105.559C56.286 105.657 56.1444 105.789 56.0323 105.954C55.9203 106.119 55.8379 106.307 55.7852 106.517C55.7391 106.722 55.7193 106.929 55.7259 107.14H54.8857ZM60.8528 108.218C60.8528 108.481 60.8594 108.778 60.8726 109.107C60.8924 109.43 60.9451 109.737 61.0308 110.027C61.123 110.31 61.268 110.55 61.4657 110.748C61.6634 110.946 61.9402 111.045 62.296 111.045C62.6519 111.045 62.9287 110.946 63.1264 110.748C63.3241 110.55 63.4657 110.31 63.5514 110.027C63.6437 109.737 63.6964 109.43 63.7096 109.107C63.7293 108.778 63.7392 108.481 63.7392 108.218C63.7392 108.046 63.7359 107.859 63.7293 107.654C63.7293 107.443 63.7129 107.236 63.6799 107.031C63.6536 106.821 63.6107 106.616 63.5514 106.419C63.4987 106.221 63.4163 106.05 63.3043 105.905C63.1989 105.753 63.0638 105.631 62.899 105.539C62.7343 105.447 62.5333 105.4 62.296 105.4C62.0588 105.4 61.8578 105.447 61.6931 105.539C61.5283 105.631 61.3899 105.753 61.2779 105.905C61.1725 106.05 61.0901 106.221 61.0308 106.419C60.978 106.616 60.9352 106.821 60.9023 107.031C60.8759 107.236 60.8594 107.443 60.8528 107.654C60.8528 107.859 60.8528 108.046 60.8528 108.218ZM59.9632 108.228C59.9632 107.971 59.9698 107.704 59.983 107.427C59.9962 107.15 60.0291 106.88 60.0818 106.616C60.1345 106.353 60.2103 106.102 60.3092 105.865C60.408 105.628 60.5431 105.42 60.7145 105.242C60.8858 105.064 61.1 104.923 61.357 104.817C61.6206 104.712 61.9336 104.659 62.296 104.659C62.6585 104.659 62.9682 104.712 63.2252 104.817C63.4888 104.923 63.7063 105.064 63.8776 105.242C64.049 105.42 64.1841 105.628 64.2829 105.865C64.3817 106.102 64.4575 106.353 64.5103 106.616C64.563 106.88 64.5959 107.15 64.6091 107.427C64.6223 107.704 64.6289 107.971 64.6289 108.228C64.6289 108.485 64.6223 108.751 64.6091 109.028C64.5959 109.305 64.563 109.575 64.5103 109.839C64.4575 110.102 64.3817 110.353 64.2829 110.59C64.1841 110.821 64.049 111.025 63.8776 111.203C63.7063 111.381 63.4921 111.523 63.2351 111.628C62.9781 111.727 62.6651 111.776 62.296 111.776C61.9336 111.776 61.6206 111.727 61.357 111.628C61.1 111.523 60.8858 111.381 60.7145 111.203C60.5431 111.025 60.408 110.821 60.3092 110.59C60.2103 110.353 60.1345 110.102 60.0818 109.839C60.0291 109.575 59.9962 109.305 59.983 109.028C59.9698 108.751 59.9632 108.485 59.9632 108.228ZM65.0803 107.14C65.0605 106.784 65.0967 106.455 65.189 106.152C65.2812 105.849 65.4229 105.588 65.614 105.371C65.8117 105.147 66.0556 104.972 66.3455 104.847C66.6355 104.722 66.965 104.659 67.334 104.659C67.6371 104.659 67.9205 104.705 68.1841 104.797C68.4543 104.883 68.6882 105.012 68.8859 105.183C69.0836 105.348 69.2385 105.555 69.3505 105.806C69.4691 106.056 69.5285 106.346 69.5285 106.676C69.5285 106.985 69.479 107.259 69.3802 107.496C69.2879 107.733 69.1627 107.947 69.0046 108.139C68.8464 108.323 68.6652 108.491 68.4609 108.643C68.2566 108.794 68.0457 108.939 67.8283 109.078C67.6108 109.209 67.3933 109.341 67.1759 109.473C66.9584 109.598 66.7574 109.733 66.5729 109.878C66.3949 110.023 66.2401 110.181 66.1083 110.353C65.9831 110.518 65.9007 110.709 65.8612 110.926H69.4593V111.667H64.8826C64.9155 111.252 64.988 110.9 65.1 110.61C65.2186 110.313 65.3669 110.056 65.5448 109.839C65.7228 109.621 65.9238 109.43 66.1478 109.265C66.3719 109.101 66.6058 108.946 66.8497 108.801C67.1462 108.616 67.4065 108.448 67.6306 108.297C67.8546 108.139 68.0391 107.98 68.1841 107.822C68.3357 107.664 68.4477 107.493 68.5202 107.308C68.5993 107.124 68.6388 106.91 68.6388 106.666C68.6388 106.475 68.6026 106.303 68.5301 106.152C68.4576 105.994 68.3587 105.858 68.2335 105.746C68.1149 105.634 67.9732 105.549 67.8085 105.489C67.6437 105.43 67.4691 105.4 67.2846 105.4C67.0408 105.4 66.8299 105.453 66.652 105.559C66.4806 105.657 66.3389 105.789 66.2269 105.954C66.1149 106.119 66.0325 106.307 65.9798 106.517C65.9337 106.722 65.9139 106.929 65.9205 107.14H65.0803ZM73.835 106.448C73.7954 106.132 73.6735 105.878 73.4692 105.687C73.2649 105.496 72.9947 105.4 72.6586 105.4C72.3028 105.4 72.0161 105.489 71.7987 105.667C71.5812 105.839 71.4099 106.059 71.2846 106.33C71.166 106.593 71.0837 106.88 71.0375 107.19C70.9914 107.499 70.965 107.789 70.9584 108.059L70.9782 108.079C71.1759 107.756 71.4197 107.522 71.7097 107.377C72.0062 107.232 72.3456 107.16 72.7278 107.16C73.0639 107.16 73.3638 107.219 73.6274 107.338C73.8976 107.45 74.1216 107.608 74.2995 107.812C74.4841 108.017 74.6257 108.257 74.7246 108.534C74.8234 108.811 74.8729 109.111 74.8729 109.433C74.8729 109.691 74.8333 109.957 74.7542 110.234C74.6752 110.511 74.5434 110.765 74.3589 110.995C74.1809 111.219 73.9404 111.407 73.6373 111.559C73.3407 111.704 72.9717 111.776 72.5301 111.776C72.0095 111.776 71.5911 111.671 71.2748 111.46C70.9584 111.249 70.7146 110.979 70.5433 110.649C70.3719 110.32 70.2566 109.957 70.1973 109.562C70.1446 109.167 70.1182 108.784 70.1182 108.415C70.1182 107.934 70.1578 107.47 70.2368 107.022C70.3225 106.567 70.4642 106.165 70.6619 105.816C70.8596 105.466 71.1232 105.186 71.4527 104.975C71.7822 104.765 72.1974 104.659 72.6982 104.659C73.2781 104.659 73.7394 104.814 74.0821 105.124C74.4247 105.427 74.6224 105.868 74.6752 106.448H73.835ZM72.5697 107.901C72.3324 107.901 72.1249 107.944 71.9469 108.03C71.769 108.109 71.6174 108.221 71.4922 108.366C71.367 108.504 71.2715 108.672 71.2056 108.87C71.1463 109.061 71.1166 109.265 71.1166 109.483C71.1166 109.7 71.1496 109.905 71.2155 110.096C71.2814 110.287 71.3736 110.452 71.4922 110.59C71.6174 110.728 71.769 110.84 71.9469 110.926C72.1315 111.005 72.339 111.045 72.5697 111.045C72.8003 111.045 73.0013 111.005 73.1727 110.926C73.3506 110.84 73.4989 110.725 73.6175 110.58C73.7361 110.435 73.8251 110.27 73.8844 110.086C73.9503 109.895 73.9832 109.697 73.9832 109.493C73.9832 109.275 73.9536 109.071 73.8943 108.88C73.8415 108.682 73.7559 108.514 73.6373 108.376C73.5186 108.231 73.3704 108.116 73.1924 108.03C73.0145 107.944 72.8069 107.901 72.5697 107.901Z" fill="black"/>
<rect x="45.0325" y="100.227" width="39.935" height="16.7673" rx="8.38363" stroke="black" stroke-width="0.531313"/>
</svg>
