<svg width="215" height="72" viewBox="0 0 215 72" fill="none" xmlns="http://www.w3.org/2000/svg">
<mask id="mask0_467_24423" style="mask-type:luminance" maskUnits="userSpaceOnUse" x="1" y="0" width="214" height="72">
<path d="M1.36462 0.00012207H214.719V71.573H1.36462V0.00012207Z" fill="white"/>
</mask>
<g mask="url(#mask0_467_24423)">
<path d="M207.885 6.40118L14.7709 -1.62486C14.1198 -1.6509 13.474 -1.61444 12.8282 -1.51548C12.1875 -1.41653 11.5573 -1.25507 10.948 -1.03111C10.3386 -0.807149 9.75004 -0.5259 9.19796 -0.187358C8.64067 0.151184 8.12504 0.5366 7.64587 0.979309C7.16671 1.41681 6.73442 1.89598 6.349 2.42202C5.96879 2.94806 5.64067 3.50014 5.36462 4.08868C5.08858 4.67723 4.88025 5.2866 4.724 5.91681C4.57296 6.54702 4.47921 7.18764 4.45317 7.83348L2.35421 57.9585C2.32817 58.6043 2.36462 59.2501 2.46358 59.8908C2.56254 60.5314 2.724 61.1564 2.94796 61.7658C3.17192 62.3751 3.45317 62.9585 3.79171 63.5106C4.13546 64.0626 4.52087 64.5783 4.96358 65.0574C5.40629 65.5314 5.89067 65.9637 6.41671 66.3439C6.94275 66.7293 7.50004 67.0574 8.08858 67.3283C8.68233 67.5991 9.29171 67.8126 9.92712 67.9689C10.5573 68.1199 11.198 68.2085 11.849 68.2345L204.958 76.2554C205.609 76.2814 206.255 76.2449 206.901 76.146C207.542 76.0418 208.172 75.8804 208.781 75.6616C209.391 75.4376 209.979 75.1564 210.531 74.8179C211.089 74.4793 211.604 74.0939 212.083 73.6564C212.563 73.2137 212.995 72.7345 213.38 72.2085C213.766 71.6876 214.094 71.1304 214.365 70.5418C214.641 69.9585 214.854 69.3491 215.01 68.7189C215.162 68.0887 215.255 67.4481 215.281 66.8022L217.385 16.6772C217.412 16.0314 217.37 15.3856 217.271 14.7449C217.172 14.1043 217.01 13.4793 216.781 12.8751C216.557 12.2658 216.276 11.6824 215.938 11.1304C215.599 10.5783 215.208 10.0626 214.771 9.58348C214.328 9.10952 213.844 8.67723 213.318 8.29702C212.797 7.9116 212.234 7.58347 211.646 7.31264C211.057 7.0366 210.443 6.82827 209.813 6.67202C209.177 6.52098 208.537 6.42723 207.885 6.40118ZM22.948 42.3231C22.9063 42.8231 22.7709 43.297 22.5469 43.7449C22.3177 44.1929 22.0209 44.5783 21.6407 44.9116C21.2657 45.2397 20.8386 45.4897 20.3646 45.6564C19.8907 45.8231 19.4063 45.896 18.9011 45.8751C18.4011 45.8543 17.9167 45.7449 17.4636 45.5366C17.0052 45.3283 16.599 45.047 16.25 44.6876C15.9063 44.3231 15.6355 43.9116 15.448 43.4481C15.2657 42.9793 15.1719 42.5001 15.1719 42.0001L15.8907 24.797C15.9323 24.297 16.0678 23.8231 16.2917 23.3804C16.5157 22.9324 16.8177 22.5418 17.1927 22.2085C17.573 21.8804 18 21.6304 18.4688 21.4637C18.9427 21.297 19.4323 21.2241 19.9375 21.2449C20.4375 21.2658 20.9167 21.3804 21.375 21.5835C21.8334 21.7918 22.2344 22.0731 22.5834 22.4376C22.9323 22.797 23.198 23.2085 23.3855 23.6772C23.573 24.1408 23.6667 24.6199 23.6667 25.1251L22.948 42.3231Z" fill="#231F20"/>
</g>
<mask id="mask1_467_24423" style="mask-type:luminance" maskUnits="userSpaceOnUse" x="0" y="0" width="215" height="72">
<path d="M0.03125 0.00012207H214.698V71.448H0.03125V0.00012207Z" fill="white"/>
</mask>
<g mask="url(#mask1_467_24423)">
<path d="M203.552 0.463684H10.276C9.62496 0.463684 8.97913 0.526184 8.34371 0.656392C7.70308 0.781392 7.08329 0.968892 6.48433 1.21368C5.88017 1.46368 5.31246 1.76577 4.77079 2.12514C4.22913 2.48452 3.72913 2.89598 3.26558 3.35431C2.80725 3.80743 2.39579 4.30743 2.03121 4.84389C1.67183 5.38556 1.36454 5.95327 1.11454 6.55223C0.864543 7.14598 0.677042 7.76577 0.546834 8.40118C0.421834 9.0366 0.354126 9.67723 0.354126 10.3231V60.5106C0.354126 61.1564 0.416625 61.797 0.546834 62.4324C0.671834 63.0731 0.859334 63.6876 1.10933 64.2866C1.35933 64.8856 1.66663 65.4533 2.03121 65.9949C2.39058 66.5314 2.80204 67.0314 3.26038 67.4897C3.72392 67.9481 4.22392 68.3543 4.76558 68.7189C5.30725 69.0783 5.88017 69.3804 6.47913 69.6304C7.08329 69.8751 7.70308 70.0626 8.34371 70.1929C8.97913 70.3179 9.62496 70.3804 10.276 70.3804H203.552C204.203 70.3804 204.849 70.3179 205.49 70.1929C206.125 70.0626 206.745 69.8751 207.349 69.6304C207.948 69.3804 208.521 69.0783 209.062 68.7189C209.604 68.3543 210.104 67.9481 210.562 67.4897C211.026 67.0314 211.437 66.5314 211.797 65.9949C212.161 65.4533 212.464 64.8856 212.714 64.2866C212.964 63.6876 213.151 63.0679 213.276 62.4324C213.406 61.797 213.469 61.1564 213.469 60.5106V10.3231C213.469 9.67723 213.401 9.0366 213.276 8.40118C213.146 7.76577 212.958 7.15118 212.708 6.55223C212.458 5.95327 212.156 5.38556 211.792 4.84389C211.432 4.30743 211.021 3.80743 210.557 3.35431C210.099 2.89598 209.599 2.48452 209.057 2.12514C208.516 1.76577 207.948 1.46368 207.344 1.21368C206.745 0.968892 206.125 0.781392 205.484 0.656392C204.849 0.526184 204.203 0.463684 203.552 0.463684ZM20.276 44.0314C20.2604 44.5314 20.1458 45.0106 19.9375 45.4637C19.7291 45.922 19.4479 46.3231 19.0833 46.6668C18.7187 47.0158 18.3073 47.2814 17.8385 47.4689C17.375 47.6564 16.8906 47.7449 16.3854 47.7449C15.8854 47.7449 15.401 47.6564 14.9323 47.4689C14.4687 47.2814 14.052 47.0158 13.6927 46.6668C13.3281 46.3231 13.0468 45.922 12.8385 45.4637C12.6302 45.0106 12.5156 44.5314 12.4948 44.0314V26.8179C12.5156 26.3179 12.6302 25.8387 12.8385 25.3804C13.0468 24.9272 13.3281 24.5262 13.6927 24.1772C14.052 23.8335 14.4687 23.5679 14.9323 23.3804C15.401 23.1929 15.8854 23.0991 16.3854 23.0991C16.8906 23.0991 17.375 23.1929 17.8385 23.3804C18.3073 23.5679 18.7187 23.8335 19.0833 24.1772C19.4479 24.5262 19.7291 24.9272 19.9375 25.3804C20.1458 25.8387 20.2604 26.3179 20.276 26.8179V44.0314Z" fill="white"/>
</g>
<mask id="mask2_467_24423" style="mask-type:luminance" maskUnits="userSpaceOnUse" x="0" y="0" width="215" height="72">
<path d="M0 0.00012207H214.698V71.448H0V0.00012207Z" fill="white"/>
</mask>
<g mask="url(#mask2_467_24423)">
<path d="M203.552 70.7397H10.276C9.60417 70.7397 8.93229 70.672 8.27083 70.5418C7.60937 70.4116 6.96875 70.2137 6.34375 69.9585C5.72396 69.7033 5.13021 69.3856 4.56771 69.0106C4.01042 68.6408 3.48958 68.2137 3.01042 67.7397C2.53646 67.2658 2.10938 66.7502 1.73438 66.1929C1.35938 65.6304 1.04167 65.0418 0.786458 64.422C0.526042 63.8022 0.333333 63.1616 0.197917 62.5054C0.0677087 61.8439 0 61.1825 0 60.5106V10.3231C0 9.65121 0.067709 8.98975 0.203125 8.3335C0.333333 7.67204 0.531251 7.03662 0.791667 6.41683C1.04688 5.79704 1.36458 5.2085 1.73958 4.6512C2.11458 4.09391 2.54167 3.57829 3.02083 3.10433C3.49479 2.63037 4.01562 2.2085 4.57292 1.8335C5.13542 1.46371 5.72917 1.15121 6.34896 0.890788C6.97396 0.63558 7.61458 0.442871 8.27604 0.312663C8.9375 0.182453 9.60417 0.114746 10.276 0.114746H203.552C204.229 0.114746 204.896 0.182453 205.552 0.312663C206.214 0.442871 206.854 0.635579 207.479 0.895996C208.099 1.1512 208.693 1.4637 209.255 1.8387C209.813 2.2085 210.333 2.63558 210.807 3.10954C211.286 3.57829 211.708 4.09391 212.089 4.6512C212.464 5.2085 212.776 5.79704 213.036 6.41683C213.297 7.03662 213.495 7.67725 213.625 8.3335C213.76 8.98975 213.828 9.65121 213.828 10.3231V60.5106C213.828 61.1825 213.76 61.8439 213.63 62.5054C213.495 63.1616 213.302 63.8022 213.042 64.422C212.786 65.0418 212.469 65.6304 212.094 66.1877C211.719 66.745 211.292 67.2658 210.818 67.7397C210.339 68.2137 209.818 68.6356 209.26 69.0106C208.698 69.3856 208.104 69.6981 207.484 69.9585C206.859 70.2137 206.219 70.4064 205.557 70.5418C204.896 70.672 204.229 70.7397 203.552 70.7397ZM10.276 0.823079C9.65104 0.823079 9.02604 0.885579 8.41146 1.00537C7.79688 1.13037 7.20313 1.30745 6.625 1.54704C6.04167 1.78662 5.49479 2.07829 4.97396 2.42725C4.44792 2.771 3.96875 3.16683 3.52604 3.60954C3.07812 4.04704 2.68229 4.5262 2.33333 5.04704C1.98438 5.56266 1.69271 6.10954 1.44792 6.68766C1.20833 7.26579 1.02604 7.85954 0.901042 8.46891C0.78125 9.0835 0.713542 9.69808 0.713542 10.3231V60.5106C0.713542 61.1356 0.776042 61.7502 0.901042 62.3647C1.02083 62.9793 1.20312 63.5731 1.44792 64.146C1.6875 64.7241 1.97917 65.271 2.32813 65.7918C2.67708 66.3127 3.07292 66.7918 3.52083 67.2345C3.96354 67.6772 4.44792 68.0679 4.96875 68.4168C5.48958 68.7658 6.04167 69.0575 6.61979 69.297C7.19792 69.5366 7.79688 69.7137 8.41146 69.8387C9.02604 69.9585 9.65104 70.021 10.276 70.021H203.552C204.182 70.021 204.802 69.9585 205.417 69.8387C206.031 69.7137 206.63 69.5366 207.208 69.297C207.792 69.0575 208.339 68.7658 208.859 68.4168C209.385 68.0679 209.865 67.6772 210.313 67.2345C210.755 66.7918 211.151 66.3127 211.5 65.7918C211.849 65.271 212.141 64.7241 212.385 64.146C212.625 63.5731 212.807 62.9793 212.927 62.3647C213.052 61.7502 213.115 61.1356 213.115 60.5106V10.3231C213.115 9.69808 213.052 9.0835 212.927 8.46891C212.802 7.85954 212.62 7.26579 212.38 6.68766C212.141 6.10954 211.844 5.56266 211.495 5.04704C211.146 4.5262 210.75 4.04704 210.307 3.60954C209.859 3.16683 209.38 2.771 208.859 2.42725C208.339 2.07829 207.786 1.78662 207.208 1.54704C206.625 1.30745 206.031 1.13037 205.417 1.00537C204.802 0.885579 204.182 0.823079 203.552 0.823079H10.276ZM16.3854 48.2606C15.8229 48.2606 15.2813 48.1512 14.7604 47.9377C14.2396 47.7189 13.7813 47.4168 13.3854 47.021C12.9896 46.62 12.6823 46.1668 12.4688 45.646C12.25 45.1304 12.1458 44.5887 12.1458 44.0314V26.8179C12.1198 26.2397 12.2135 25.6825 12.4167 25.146C12.6198 24.6095 12.9271 24.1304 13.3229 23.7189C13.724 23.3022 14.1927 22.9845 14.724 22.7554C15.2552 22.5314 15.8073 22.4168 16.3854 22.4168C16.9635 22.4168 17.5208 22.5314 18.0521 22.7554C18.5833 22.9845 19.0521 23.3022 19.4479 23.7189C19.849 24.1304 20.151 24.6095 20.3594 25.146C20.5625 25.6825 20.6563 26.2397 20.6302 26.8179V44.0314C20.6302 44.5887 20.526 45.1304 20.3073 45.6512C20.0938 46.1668 19.7865 46.6252 19.3854 47.021C18.9896 47.4168 18.5313 47.7241 18.0104 47.9377C17.4896 48.1512 16.9479 48.2606 16.3854 48.2606ZM16.3854 23.297C15.9167 23.297 15.4635 23.3856 15.0313 23.5679C14.599 23.745 14.2188 24.0002 13.8854 24.3283C13.5573 24.6616 13.3021 25.0418 13.1198 25.4689C12.9427 25.9012 12.849 26.3491 12.849 26.8179V44.0314C12.849 44.495 12.9375 44.9481 13.1198 45.3752C13.2969 45.8075 13.5521 46.1877 13.8854 46.521C14.2188 46.8491 14.599 47.1043 15.0313 47.2814C15.4635 47.4585 15.9167 47.547 16.3854 47.547C16.8542 47.547 17.3021 47.4585 17.7344 47.2814C18.1719 47.1043 18.5521 46.8491 18.8854 46.521C19.2135 46.1877 19.4688 45.8075 19.651 45.3752C19.8281 44.9481 19.9167 44.495 19.9167 44.0314V26.8179C19.9167 26.3491 19.8281 25.9012 19.651 25.4689C19.4688 25.0366 19.2135 24.6564 18.8854 24.3283C18.5521 24.0002 18.1719 23.745 17.7344 23.5627C17.3021 23.3856 16.8542 23.297 16.3854 23.297Z" fill="#231F20"/>
</g>
<path d="M202.839 67.6822H11.0781C10.5469 67.6822 10.0208 67.6302 9.5 67.526C8.98438 67.4218 8.47917 67.2708 7.98958 67.0677C7.5 66.8645 7.03125 66.6197 6.59375 66.3229C6.15104 66.0312 5.74479 65.6979 5.36979 65.3229C4.99479 64.9531 4.66146 64.5468 4.36458 64.1041C4.06771 63.6666 3.82292 63.2031 3.61979 62.7187C3.41667 62.2291 3.26042 61.7291 3.15625 61.2083C3.05208 60.6927 3 60.1666 3 59.6406V11.0364C3 10.5104 3.05208 9.98952 3.15625 9.46869C3.26042 8.95306 3.41667 8.44786 3.61979 7.96348C3.82292 7.4739 4.06771 7.01036 4.36458 6.57286C4.66146 6.13536 4.99479 5.72911 5.36979 5.35411C5.74479 4.97911 6.15104 4.64577 6.59375 4.35411C7.03125 4.06244 7.5 3.81244 7.98958 3.60931C8.47917 3.4114 8.98438 3.25515 9.5 3.15098C10.0208 3.05202 10.5469 2.99994 11.0781 2.99994H202.839C203.37 2.99994 203.896 3.05202 204.417 3.15098C204.938 3.25515 205.443 3.4114 205.932 3.60931C206.422 3.81244 206.885 4.06244 207.328 4.35411C207.766 4.64577 208.177 4.97911 208.552 5.35411C208.927 5.72911 209.26 6.13536 209.557 6.57286C209.849 7.01036 210.099 7.4739 210.302 7.96348C210.505 8.44786 210.661 8.95306 210.766 9.46869C210.87 9.98432 210.922 10.5104 210.922 11.0364V59.6406C210.922 60.1718 210.87 60.6927 210.766 61.2083C210.661 61.7291 210.505 62.2291 210.302 62.7187C210.099 63.2031 209.849 63.6666 209.557 64.1093C209.26 64.5468 208.927 64.9531 208.552 65.3229C208.177 65.6979 207.766 66.0312 207.328 66.3229C206.885 66.6197 206.422 66.8645 205.932 67.0677C205.443 67.2708 204.938 67.4218 204.417 67.526C203.896 67.6302 203.37 67.6822 202.839 67.6822ZM11.0781 3.70827C10.5938 3.70827 10.1198 3.75515 9.64583 3.8489C9.17187 3.94265 8.71354 4.07806 8.27083 4.26556C7.82292 4.44786 7.40104 4.67181 7 4.93744C6.59896 5.20306 6.22917 5.51036 5.89063 5.8489C5.55208 6.18744 5.24479 6.55723 4.97917 6.95306C4.70833 7.35411 4.48438 7.77077 4.30208 8.21869C4.11458 8.6614 3.97917 9.11452 3.88021 9.58848C3.78646 10.0572 3.73958 10.5312 3.73958 11.0104V59.6406C3.73958 60.1197 3.78646 60.5937 3.88021 61.0677C3.97917 61.5364 4.11458 61.9947 4.30208 62.4374C4.48438 62.8802 4.70833 63.302 4.97917 63.6979C5.24479 64.0989 5.55208 64.4687 5.89063 64.8072C6.22917 65.1458 6.59896 65.4479 7 65.7135C7.40104 65.9791 7.82292 66.2031 8.27083 66.3906C8.71354 66.5729 9.17187 66.7083 9.64583 66.802C10.1198 66.8958 10.5938 66.9427 11.0781 66.9427H202.839C203.323 66.9427 203.802 66.8958 204.271 66.802C204.745 66.7083 205.203 66.5729 205.651 66.3854C206.099 66.2031 206.521 65.9791 206.922 65.7135C207.323 65.4479 207.693 65.1458 208.036 64.8072C208.38 64.4687 208.682 64.0989 208.953 63.6979C209.224 63.302 209.448 62.8802 209.635 62.4374C209.823 61.9947 209.964 61.5364 210.057 61.0677C210.156 60.5989 210.203 60.1197 210.208 59.6406V11.0364C210.203 10.5572 210.156 10.0833 210.057 9.60931C209.964 9.14056 209.823 8.68223 209.635 8.23952C209.448 7.79681 209.224 7.38015 208.953 6.97911C208.682 6.58327 208.38 6.21348 208.036 5.87494C207.693 5.5364 207.323 5.23431 206.922 4.96869C206.521 4.69786 206.099 4.4739 205.651 4.29161C205.203 4.10932 204.745 3.96869 204.271 3.87494C203.802 3.78119 203.323 3.73431 202.839 3.73431L11.0781 3.70827Z" fill="#231F20"/>
</svg>
