<svg width="434" height="292" viewBox="0 0 434 292" fill="none" xmlns="http://www.w3.org/2000/svg">
<g clip-path="url(#clip0_208_6751)">
<path d="M284.053 191.522L194.815 36.7483L258.924 0L369.891 191.522H284.053Z" fill="white"/>
<path d="M46.3608 169.836L110.47 132.84L144.39 191.521H58.8011L46.3608 169.836Z" fill="white"/>
<path d="M172.173 290.262H190.419V216.6H172.173V290.262Z" fill="white"/>
<path d="M400.826 292C380.424 292 368.149 281.489 367.486 266.674H386.727C386.727 271.308 389.63 278.095 402.07 278.344C410.364 278.344 414.261 273.46 414.261 269.819C413.764 264.025 406.466 263.528 398.67 262.287C390.874 261.045 384.239 259.638 379.429 257.155C373.291 254.01 369.145 247.223 369.145 239.443C369.145 226.283 380.59 215.855 399.665 215.855C418.159 215.855 429.853 225.539 431.097 239.94H412.52C412.354 236.05 411.608 229.925 400.66 229.925C393.279 229.925 388.386 231.415 387.971 236.547C387.971 244.078 403.314 243.582 415.257 246.727C426.702 249.624 434 256.742 434 266.674C434 284.965 419.155 292 400.826 292" fill="white"/>
<path d="M121.5 104.12L185.609 67.2065L257.514 191.522H190.419V209.73H172.174V191.439L121.5 104.12Z" fill="white"/>
<path fill-rule="evenodd" clip-rule="evenodd" d="M123.159 292C101.927 292 84.6768 274.702 84.6768 253.762C84.6768 232.574 101.927 215.855 123.159 215.855C131.203 215.855 138.502 218.007 144.888 222.393V191.521H163.134V290.262H144.888V285.379C138.502 289.517 131.203 292 123.159 292V292ZM102.176 253.762C102.176 265.184 111.963 274.702 123.656 274.702C135.101 274.702 144.888 265.184 144.888 253.762C144.888 242.34 135.101 232.574 123.656 232.574C111.963 232.574 102.176 242.34 102.176 253.762" fill="white"/>
<path fill-rule="evenodd" clip-rule="evenodd" d="M258.011 191.521H276.008V290.262H258.011V285.379C251.874 289.517 244.327 292 236.034 292C215.051 292 197.8 274.702 197.8 253.762C197.8 232.574 215.051 215.855 236.034 215.855C244.327 215.855 251.625 218.007 258.011 222.393V191.521V191.521ZM215.549 253.762C215.549 265.184 225.335 274.702 236.531 274.702C248.225 274.702 258.011 265.184 258.011 253.762C258.011 242.34 248.225 232.574 236.531 232.574C225.335 232.574 215.549 242.34 215.549 253.762Z" fill="white"/>
<path fill-rule="evenodd" clip-rule="evenodd" d="M320.379 292C299.479 292 282.146 274.702 282.146 253.762C282.146 232.574 299.479 215.855 320.379 215.855C328.424 215.855 335.971 218.007 342.108 222.393V216.517H360.354V290.262H342.108V285.379C335.971 289.517 328.672 292 320.379 292ZM299.894 253.762C299.894 265.184 309.68 274.702 321.125 274.702C332.57 274.702 342.108 265.184 342.108 253.762C342.108 242.34 332.57 232.574 321.125 232.574C309.68 232.574 299.894 242.34 299.894 253.762Z" fill="white"/>
<path fill-rule="evenodd" clip-rule="evenodd" d="M17.5823 253.762C17.5823 265.184 27.3686 274.702 38.8137 274.702C50.5075 274.702 60.2939 265.184 60.2939 253.762C60.2939 242.34 50.5075 232.574 38.8137 232.574C27.3686 232.574 17.5823 242.34 17.5823 253.762V253.762ZM38.3161 292C17.3335 292 0 274.702 0 253.762C0 232.574 17.3335 215.855 38.3161 215.855C46.3608 215.855 53.9079 218.007 60.2939 222.393V216.517H78.2908V290.262H60.2939V285.379C54.1567 289.517 46.6096 292 38.3161 292Z" fill="white"/>
</g>
<defs>
<clipPath id="clip0_208_6751">
<rect width="434" height="292" fill="white"/>
</clipPath>
</defs>
</svg>
