<svg width="653" height="350" viewBox="0 0 653 350" fill="none" xmlns="http://www.w3.org/2000/svg">
<path d="M651.16 1.38965H1.15991V174.59H651.16V1.38965Z" fill="#151515" stroke="white" stroke-width="2" stroke-miterlimit="10"/>
<path d="M651.16 174.59H1.15991V348.59H651.16V174.59Z" fill="#151515" stroke="white" stroke-width="2" stroke-miterlimit="10"/>
<path d="M122.34 1H0.439941V174.98H122.34V1Z" fill="white"/>
<path d="M197.86 38.3202C218.04 38.3202 226.56 52.0302 227.79 64.8502L228.11 68.2302H250.61L250.38 64.2802C248.73 36.1202 227.14 16.4502 197.85 16.4502C168.56 16.4502 145.31 37.8302 145.31 67.3002V108.81C145.31 138.28 167.4 159.66 197.87 159.66C227.97 159.46 249.82 138.08 249.82 108.81V80.9602H187.19V101.71H227.39V107.88C227.39 121.57 219.65 137.62 197.85 137.79C175.63 137.79 167.75 121.67 167.75 107.88V68.2402C167.75 47.5802 182.87 38.3302 197.85 38.3302L197.86 38.3202Z" fill="white"/>
<path d="M273.79 38.6196H315.22V137.47H273.79V159.53H379.09V137.47H337.84V38.6196H379.09V16.5596H273.79V38.6196V38.6196Z" fill="white"/>
<path d="M402.26 159.53H424.88V97.2896H503.63V75.2596H424.88V38.6196H507.56V16.5596H402.27V159.53H402.26Z" fill="white"/>
<path d="M530.72 38.6196H572.06V159.53H594.68V38.6196H636.16V16.5596H530.73V38.6196H530.72Z" fill="white"/>
<path d="M595.79 261.01L636.15 190.51H613.01L583.5 242.21L553.79 190.51H530.84L571.2 261L530.84 333.47H554.02L583.18 279.58L612.82 333.47H636.14L595.78 261.01H595.79Z" fill="white"/>
<path d="M17.0399 212.48H58.4699V311.33H17.0399V333.39H122.34V311.33H81.0999V212.48H122.34V190.42H17.0399V212.48Z" fill="white"/>
<path d="M228.74 291.04L166.26 190.42H145.5V333.39H167.56V232.87L229.28 333.39H250.79V190.41H228.73V291.03L228.74 291.04Z" fill="white"/>
<path d="M324.93 190.41H273.97V333.37H324.93C340.57 333.37 354.05 328.64 363.9 319.71C373.92 310.61 379.22 298.04 379.22 283.33V242.37C379.22 212.25 356.39 190.4 324.93 190.4V190.41ZM324.93 311.74H297.35V212.24H324.93C346.42 212.24 356.04 227.86 356.04 243.34V282.37C356.04 304.02 339.97 311.74 324.93 311.74Z" fill="white"/>
<path d="M425.01 270.47H499.45V249.34H425.01V211.72H507.68V190.41H402.39V333.38H507.68V312.25H425.01V270.47V270.47Z" fill="white"/>
<path fill-rule="evenodd" clip-rule="evenodd" d="M7.93994 8.5H28.9599V13.5H12.9399V29.51H7.93994V8.5Z" fill="#151515"/>
<path fill-rule="evenodd" clip-rule="evenodd" d="M109.84 13.5H93.8199V8.5H114.84V29.51H109.84V13.5Z" fill="#151515"/>
<path fill-rule="evenodd" clip-rule="evenodd" d="M109.84 162.48V146.46H114.84V167.48H93.8199V162.48H109.84Z" fill="#151515"/>
<path fill-rule="evenodd" clip-rule="evenodd" d="M12.9399 162.48V146.47H7.93994V167.48H28.9599V162.48H12.9399Z" fill="#151515"/>
<path d="M30.54 65.6299V82.7899H48.64V65.6299H58.47V110.35H48.64V91.0599H30.54V110.35H20.71V65.6299H30.54V65.6299Z" fill="#151515"/>
<path d="M85.65 65.6299C87.78 65.6299 89.72 65.8199 91.47 66.1899C93.22 66.5699 94.73 67.1899 95.98 68.0399C97.23 68.8999 98.2 70.0299 98.89 71.4499C99.58 72.8699 99.93 74.6199 99.93 76.7099C99.93 78.9599 99.42 80.8399 98.39 82.3499C97.36 83.8599 95.86 85.0799 93.85 86.0499C96.61 86.8499 98.66 88.2399 100.02 90.2099C101.38 92.1899 102.06 94.5799 102.06 97.3799C102.06 99.6299 101.62 101.59 100.75 103.23C99.87 104.88 98.7 106.23 97.21 107.27C95.73 108.31 94.04 109.09 92.14 109.59C90.24 110.09 88.29 110.34 86.29 110.34H64.62V65.6099H85.66V65.6299H85.65ZM84.39 83.7299C86.14 83.7299 87.59 83.3099 88.71 82.4799C89.84 81.6499 90.4 80.2899 90.4 78.4099C90.4 77.3699 90.21 76.5099 89.84 75.8399C89.46 75.1799 88.96 74.6499 88.33 74.2699C87.7 73.8899 86.99 73.6399 86.17 73.4899C85.36 73.3399 84.51 73.2699 83.64 73.2699H74.44V83.7299H84.39V83.7299ZM84.95 102.7C85.91 102.7 86.83 102.61 87.71 102.42C88.59 102.23 89.36 101.92 90.03 101.48C90.69 101.04 91.23 100.45 91.63 99.6999C92.02 98.9499 92.22 97.9899 92.22 96.8199C92.22 94.5299 91.57 92.8799 90.28 91.8999C88.98 90.9199 87.28 90.4299 85.14 90.4299H74.43V102.71H84.95V102.7Z" fill="#151515"/>
</svg>
