<svg width="653" height="470" viewBox="0 0 653 470" fill="none" xmlns="http://www.w3.org/2000/svg">
<path d="M651.72 1.38965H1.71997V174.59H651.72V1.38965Z" fill="black" stroke="white" stroke-width="2" stroke-miterlimit="10"/>
<path d="M651.72 174.59H1.71997V348.59H651.72V174.59Z" fill="black" stroke="white" stroke-width="2" stroke-miterlimit="10"/>
<path d="M274.53 348.59H1.71997V408.59H274.53V348.59Z" fill="black" stroke="white" stroke-width="2" stroke-miterlimit="10"/>
<path d="M651.72 348.59H274.53V468.59H651.72V348.59Z" fill="white" stroke="white" stroke-width="2" stroke-miterlimit="10"/>
<path d="M122.9 1H1V174.98H122.9V1Z" fill="white"/>
<path d="M198.42 38.3202C218.6 38.3202 227.12 52.0302 228.35 64.8502L228.67 68.2302H251.17L250.94 64.2802C249.29 36.1202 227.7 16.4502 198.41 16.4502C169.12 16.4502 145.87 37.8302 145.87 67.3002V108.81C145.87 138.28 167.96 159.66 198.43 159.66C228.53 159.46 250.38 138.08 250.38 108.81V80.9602H187.75V101.71H227.95V107.88C227.95 121.57 220.21 137.62 198.41 137.79C176.19 137.79 168.31 121.67 168.31 107.88V68.2402C168.31 47.5802 183.43 38.3302 198.41 38.3302L198.42 38.3202Z" fill="white"/>
<path d="M274.35 38.6196H315.78V137.47H274.35V159.53H379.65V137.47H338.4V38.6196H379.65V16.5596H274.35V38.6196V38.6196Z" fill="white"/>
<path d="M402.82 159.53H425.44V97.2896H504.19V75.2596H425.44V38.6196H508.12V16.5596H402.83V159.53H402.82Z" fill="white"/>
<path d="M531.28 38.6196H572.62V159.53H595.24V38.6196H636.72V16.5596H531.29V38.6196H531.28Z" fill="white"/>
<path d="M596.35 261.01L636.71 190.51H613.57L584.06 242.21L554.35 190.51H531.4L571.76 261L531.4 333.47H554.58L583.74 279.58L613.38 333.47H636.7L596.34 261.01H596.35Z" fill="white"/>
<path d="M17.6 212.48H59.03V311.33H17.6V333.39H122.9V311.33H81.66V212.48H122.9V190.42H17.6V212.48Z" fill="white"/>
<path d="M229.3 291.04L166.82 190.42H146.06V333.39H168.12V232.87L229.84 333.39H251.35V190.41H229.29V291.03L229.3 291.04Z" fill="white"/>
<path d="M325.49 190.41H274.53V333.37H325.49C341.13 333.37 354.61 328.64 364.46 319.71C374.48 310.61 379.78 298.04 379.78 283.33V242.37C379.78 212.25 356.95 190.4 325.49 190.4V190.41ZM325.49 311.74H297.91V212.24H325.49C346.98 212.24 356.6 227.86 356.6 243.34V282.37C356.6 304.02 340.53 311.74 325.49 311.74Z" fill="white"/>
<path d="M425.57 270.47H500.01V249.34H425.57V211.72H508.24V190.41H402.95V333.38H508.24V312.25H425.57V270.47V270.47Z" fill="white"/>
<path fill-rule="evenodd" clip-rule="evenodd" d="M8.5 8.5H29.52V13.5H13.5V29.51H8.5V8.5Z" fill="black"/>
<path fill-rule="evenodd" clip-rule="evenodd" d="M110.4 13.5H94.38V8.5H115.4V29.51H110.4V13.5Z" fill="black"/>
<path fill-rule="evenodd" clip-rule="evenodd" d="M110.4 162.48V146.46H115.4V167.48H94.38V162.48H110.4Z" fill="black"/>
<path fill-rule="evenodd" clip-rule="evenodd" d="M13.5 162.48V146.47H8.5V167.48H29.52V162.48H13.5Z" fill="black"/>
<path d="M19.0699 390.56V366.56H27.4999C29.9999 366.56 31.8699 367.09 33.1099 368.14C34.3499 369.19 34.9699 370.77 34.9699 372.89V375.83C34.9699 377.95 34.3499 379.54 33.0899 380.59C31.8299 381.64 29.9699 382.16 27.4699 382.16H22.0699V390.56H19.0699V390.56ZM22.0699 379.52H27.4699C29.0899 379.52 30.2399 379.23 30.9399 378.66C31.6299 378.09 31.9699 377.12 31.9699 375.77V373.01C31.9699 371.65 31.6299 370.68 30.9399 370.11C30.2499 369.54 29.0899 369.26 27.4699 369.26H22.0699V379.52Z" fill="white"/>
<path d="M41.96 390.56H38.96V366.56H47.99C50.49 366.56 52.36 367.09 53.6 368.14C54.84 369.19 55.46 370.77 55.46 372.89V374.75C55.46 376.67 54.97 378.17 54 379.25C53.03 380.33 51.56 380.97 49.58 381.17L55.73 390.56H52.31L46.22 381.26H41.96V390.56ZM41.96 378.62H47.96C49.58 378.62 50.73 378.33 51.42 377.74C52.11 377.15 52.46 376.15 52.46 374.76V372.9C52.46 371.58 52.11 370.65 51.42 370.1C50.73 369.55 49.58 369.28 47.96 369.28H41.96V378.64V378.62Z" fill="white"/>
<path d="M59.3099 390.56V366.56H74.9099V369.26H62.3099V376.16H73.4099V378.86H62.3099V387.86H74.9099V390.56H59.3099V390.56Z" fill="white"/>
<path d="M87.3799 390.74C85.5799 390.74 83.8999 390.45 82.3399 389.87C80.7799 389.29 79.3799 388.23 78.1399 386.69L80.2999 384.65C81.1399 385.79 82.1399 386.64 83.3199 387.2C84.4899 387.76 85.8699 388.04 87.4699 388.04C88.9499 388.04 90.1399 387.69 91.0499 387C91.9599 386.31 92.4199 385.38 92.4199 384.2C92.4199 383.02 92.0299 382.18 91.2499 381.58C90.4699 380.97 88.9299 380.32 86.6299 379.64C83.7099 378.8 81.7199 377.89 80.6599 376.91C79.5999 375.93 79.0699 374.54 79.0699 372.74C79.0699 370.66 79.7599 369.09 81.1499 368.03C82.5399 366.97 84.2299 366.44 86.2099 366.44C87.8899 366.44 89.4799 366.73 90.9899 367.32C92.4999 367.91 93.8299 368.95 94.9899 370.45L92.9199 372.52C92.1199 371.38 91.1199 370.53 89.9199 369.97C88.7199 369.41 87.4999 369.13 86.2599 369.13C85.0199 369.13 83.9899 369.39 83.2299 369.9C82.4699 370.41 82.0899 371.27 82.0899 372.46C82.0899 373.52 82.5099 374.35 83.3399 374.97C84.1699 375.58 85.7999 376.23 88.2399 376.93C90.9999 377.73 92.8899 378.61 93.8999 379.55C94.9099 380.5 95.4199 381.87 95.4199 383.67C95.4199 385.97 94.5999 387.72 92.9599 388.92C91.3199 390.12 89.4599 390.72 87.3799 390.72V390.74Z" fill="white"/>
<path d="M99.3999 390.56V366.56H115V369.26H102.4V376.16H113.5V378.86H102.4V387.86H115V390.56H99.3999V390.56Z" fill="white"/>
<path d="M129.85 390.56L121.84 370.34V390.56H119.14V366.56H123.25L131.44 387.23V366.56H134.14V390.56H129.85V390.56Z" fill="white"/>
<path d="M145.33 390.56V369.26H137.83V366.56H155.83V369.26H148.33V390.56H145.33Z" fill="white"/>
<path d="M159.53 390.56V366.56H175.13V369.26H162.53V376.16H173.63V378.86H162.53V387.86H175.13V390.56H159.53V390.56Z" fill="white"/>
<path d="M179.27 390.56V366.56H185.9C188.7 366.56 190.9 367.35 192.48 368.94C194.07 370.53 194.87 372.65 194.87 375.29V381.95C194.87 384.57 194.07 386.66 192.47 388.22C190.87 389.78 188.67 390.56 185.87 390.56H179.27ZM182.27 387.86H185.87C187.89 387.86 189.39 387.32 190.39 386.23C191.38 385.14 191.87 383.71 191.87 381.95V375.29C191.87 373.55 191.37 372.11 190.39 370.97C189.4 369.83 187.89 369.26 185.87 369.26H182.27V387.86V387.86Z" fill="white"/>
<path d="M219.95 390.56V366.56H227.39C229.89 366.56 231.73 367.02 232.93 367.94C234.12 368.86 234.71 370.28 234.71 372.2V373.55C234.71 374.57 234.42 375.43 233.84 376.11C233.26 376.8 232.46 377.23 231.44 377.42V378.29C232.74 378.41 233.77 378.9 234.53 379.76C235.29 380.62 235.67 381.73 235.67 383.09V384.44C235.67 386.52 235.01 388.06 233.69 389.06C232.37 390.06 230.34 390.56 227.6 390.56H219.95V390.56ZM222.95 376.76H227.69C229.11 376.76 230.14 376.49 230.79 375.97C231.44 375.44 231.76 374.59 231.76 373.43V372.59C231.76 371.43 231.43 370.58 230.79 370.05C230.14 369.52 229.1 369.26 227.69 369.26H222.95V376.76V376.76ZM222.95 387.86H228.29C229.81 387.86 230.92 387.57 231.62 386.98C232.32 386.39 232.67 385.44 232.67 384.11V383.15C232.67 381.83 232.32 380.88 231.62 380.28C230.92 379.69 229.81 379.4 228.29 379.4H222.95V387.86Z" fill="white"/>
<path d="M248.63 390.56H245.63V381.56L237.05 366.56H240.41L247.31 378.86L253.88 366.56H257.18L248.63 381.56V390.56V390.56Z" fill="white"/>
<path d="M31.1 65.6299V82.7899H49.2V65.6299H59.03V110.35H49.2V91.0599H31.1V110.35H21.27V65.6299H31.1V65.6299Z" fill="black"/>
<path d="M86.2101 65.6299C88.3401 65.6299 90.2801 65.8199 92.0301 66.1899C93.7801 66.5699 95.2901 67.1899 96.5401 68.0399C97.7901 68.8999 98.7601 70.0299 99.4501 71.4499C100.14 72.8699 100.49 74.6199 100.49 76.7099C100.49 78.9599 99.9801 80.8399 98.9501 82.3499C97.9201 83.8599 96.4201 85.0799 94.4101 86.0499C97.1701 86.8499 99.2201 88.2399 100.58 90.2099C101.94 92.1899 102.62 94.5799 102.62 97.3799C102.62 99.6299 102.18 101.59 101.31 103.23C100.43 104.88 99.2601 106.23 97.7701 107.27C96.2901 108.31 94.6001 109.09 92.7001 109.59C90.8001 110.09 88.8501 110.34 86.8501 110.34H65.1801V65.6099H86.2201V65.6299H86.2101ZM84.9501 83.7299C86.7001 83.7299 88.1501 83.3099 89.2701 82.4799C90.4001 81.6499 90.9601 80.2899 90.9601 78.4099C90.9601 77.3699 90.7701 76.5099 90.4001 75.8399C90.0201 75.1799 89.5201 74.6499 88.8901 74.2699C88.2601 73.8899 87.5501 73.6399 86.7301 73.4899C85.9201 73.3399 85.0701 73.2699 84.2001 73.2699H75.0001V83.7299H84.9501V83.7299ZM85.5101 102.7C86.4701 102.7 87.3901 102.61 88.2701 102.42C89.1501 102.23 89.9201 101.92 90.5901 101.48C91.2501 101.04 91.7901 100.45 92.1901 99.6999C92.5801 98.9499 92.7801 97.9899 92.7801 96.8199C92.7801 94.5299 92.1301 92.8799 90.8401 91.8999C89.5401 90.9199 87.8401 90.4299 85.7001 90.4299H74.9901V102.71H85.5101V102.7Z" fill="black"/>
<g clip-path="url(#clip0_29_6392)">
<path d="M411.803 392.76H401.9H393.644L392.566 401.476L393.627 401.737C394.569 398.407 396.222 395.565 398.936 395.458L399.289 395.446V416.134C399.289 416.202 399.287 416.266 399.284 416.33C399.231 417.774 398.602 418.588 397.427 418.665V419.79H408.018V418.665C406.844 418.588 406.214 417.774 406.161 416.33C406.159 416.266 406.156 416.202 406.156 416.134V395.446L406.509 395.458C409.225 395.565 410.875 398.407 411.817 401.737L412.879 401.476L411.801 392.76H411.803Z" fill="#E4002B"/>
<path d="M417.019 425.808H407.116H398.86L397.782 434.524L398.843 434.785C399.785 431.455 401.438 428.613 404.152 428.506L404.505 428.494V449.182C404.505 449.25 404.503 449.314 404.5 449.379C404.447 450.822 403.818 451.636 402.643 451.713V452.838H413.234V451.713C412.06 451.636 411.43 450.822 411.377 449.379C411.375 449.314 411.372 449.25 411.372 449.182V428.494L411.725 428.506C414.441 428.613 416.091 431.455 417.033 434.785L418.095 434.524L417.017 425.808H417.019Z" fill="#E4002B"/>
<path d="M502.67 440.271C502.723 438.828 503.352 438.013 504.527 437.936V436.811H494.16V437.936C495.334 438.013 495.965 438.828 496.017 440.271C496.019 440.335 496.023 440.399 496.023 440.467C496.023 440.467 496.023 443.054 496.028 443.054L496.025 449.877C495.637 449.877 495.255 449.858 494.885 449.816C494.465 449.768 494.05 449.691 493.655 449.586C493.278 449.487 492.907 449.36 492.553 449.209C492.216 449.066 491.885 448.897 491.57 448.707C491.269 448.527 490.975 448.325 490.696 448.104C490.432 447.895 490.173 447.665 489.928 447.419C489.696 447.187 489.473 446.937 489.261 446.676C489.062 446.43 488.87 446.168 488.691 445.898C488.522 445.645 488.363 445.38 488.214 445.11C488.077 444.858 487.946 444.597 487.826 444.336C487.716 444.093 487.615 443.845 487.526 443.602C487.401 443.266 487.299 442.907 487.214 442.497L487.196 442.413C487.171 442.295 487.149 442.183 487.131 442.065C486.879 440.705 486.75 439.221 486.75 437.655C486.75 431.784 489.368 428.28 493.753 428.28C496.97 428.28 498.663 429.416 499.784 432.332L500.136 433.502L501.196 433.274L500.282 425.594C500.282 425.594 499.954 426.252 498.902 426.262C498.467 426.265 497.615 426.137 496.913 425.979C495.717 425.71 494.295 425.368 492.421 425.368C488.399 425.368 485.281 426.571 482.884 429.041C482.324 429.621 481.755 430.35 481.241 431.154L481.137 431.314V445.075L481.203 445.198C482.243 447.137 483.5 448.737 484.942 449.948C486.546 451.296 488.571 452.186 490.8 452.52C492.774 452.816 494.822 452.842 496.751 452.842C496.751 452.842 504.277 452.842 504.281 452.842C504.243 452.842 503.683 452.18 503.531 451.973C503.295 451.647 503.131 451.274 503.009 450.89C502.909 450.573 502.833 450.243 502.783 449.893C502.685 449.299 502.672 448.671 502.672 448.189C502.672 448.189 502.672 445.321 502.67 443.052V440.466C502.67 440.398 502.672 440.333 502.676 440.269L502.67 440.271Z" fill="#E4002B"/>
<path d="M423.79 418.663C422.616 418.586 421.985 417.772 421.933 416.328C421.931 416.264 421.929 407.267 421.929 407.267L421.972 407.257C422.773 407.086 423.395 406.925 424.021 406.645L424.065 406.625L424.09 406.667C425.668 409.324 426.87 411.668 427.658 413.633L427.665 413.65C427.89 414.159 428.064 414.611 428.199 415.032C428.355 415.512 428.455 415.92 428.515 416.304C428.515 416.312 428.511 416.321 428.511 416.328C428.611 417.101 428.433 417.391 428.227 417.762C427.92 418.31 427.415 418.617 426.714 418.665V419.79L441.043 419.794V418.669C440.364 418.625 439.865 418.332 439.557 417.816C439.344 417.457 439.327 416.795 439.371 416.398C439.429 415.95 439.537 415.519 439.652 415.111L441.317 408.888H441.36C444.75 409.006 447.634 410.841 448.886 413.681L448.948 413.819C448.959 413.846 448.971 413.876 448.982 413.905C449.227 414.514 449.392 415.159 449.473 415.839C449.493 415.983 449.508 416.117 449.519 416.249C449.519 416.281 449.518 416.312 449.517 416.343C449.497 416.887 449.395 417.341 449.214 417.702C448.913 418.296 448.393 418.63 447.661 418.678V419.803L464.216 419.79V418.665C463.042 418.588 462.411 417.773 462.359 416.33C462.357 416.266 462.355 397.541 462.355 397.541L473.764 413.635C473.78 413.659 473.809 413.705 473.829 413.738C473.979 413.977 474.124 414.264 474.264 414.587C474.331 414.745 474.38 414.893 474.416 415.04C474.432 415.102 474.447 415.176 474.459 415.26C474.47 415.341 474.479 415.418 474.486 415.497C474.514 415.812 474.515 416.132 474.49 416.455C474.49 416.461 474.49 416.468 474.49 416.474C474.401 417.825 473.774 418.586 472.642 418.661V419.786H480.177V418.663C479.003 418.586 478.373 417.772 478.32 416.328C478.318 416.264 478.315 416.2 478.315 416.132C478.315 416.132 478.318 396.627 478.318 396.409C478.318 396.344 478.32 396.284 478.322 396.221C478.375 394.778 479.003 393.963 480.179 393.886V392.761H473.091V393.886C474.265 393.963 474.896 394.778 474.948 396.221C474.95 396.285 474.954 396.35 474.954 396.418V403.843L470.185 396.541L469.924 396.151C469.877 396.078 469.83 396.002 469.781 395.923L469.636 395.679C469.615 395.642 469.593 395.605 469.571 395.568C469.537 395.506 469.504 395.443 469.473 395.381C469.231 394.866 469.263 394.434 469.789 394.133C470.035 393.991 470.328 393.906 470.667 393.884V392.759H456.771V393.884C457.945 393.962 458.576 394.776 458.628 396.219C458.63 396.282 458.628 416.38 458.624 416.485C458.603 416.922 458.552 417.275 458.465 417.564C458.447 417.553 458.429 417.54 458.411 417.529L458.262 417.42C457.119 416.58 456.202 415.143 455.747 413.475C455.606 412.958 455.447 412.352 455.282 411.721L455.213 411.453C454.845 410.03 454.468 408.53 454.273 407.745H454.276L451.638 397.302L451.586 397.1C451.578 397.072 451.573 397.045 451.566 397.015L451.415 396.42L451.376 396.247C451.318 396.037 451.265 395.82 451.223 395.598C451.153 394.953 451.321 394.68 451.64 394.372C451.939 394.081 452.339 393.916 452.839 393.883V392.757H440.271V393.883C440.769 393.916 441.17 394.081 441.471 394.372C441.876 394.765 442.041 395.096 441.775 396.219L441.704 396.48L436.653 414.074C436.606 414.234 436.209 415.358 435.803 416.496L435.68 416.181C434.195 411.905 432.729 408.044 429.826 404.104L429.788 404.053L429.846 404.024C432.914 402.43 434.745 399.762 434.745 396.888C434.745 395.868 434.745 392.763 428.497 392.763H413.086V393.888C414.26 393.965 414.89 394.78 414.943 396.223C414.945 396.287 414.948 396.352 414.948 396.42V399.006L414.935 416.133C414.935 416.201 414.934 416.266 414.93 416.33C414.877 417.773 414.249 418.588 413.073 418.665V419.79H423.797V418.665L423.79 418.663ZM444.574 397.765L444.659 397.466L444.73 397.753L447.326 407.342L447.364 407.496L447.243 407.401C445.437 406.064 442.576 405.875 442.27 405.858L442.204 405.853L444.576 397.764L444.574 397.765ZM421.929 397.832C421.929 395.903 422.692 395.153 424.65 395.153C426.609 395.153 427.654 396.219 427.654 398.078C427.654 400.76 425.592 402.858 421.998 403.831L421.929 403.849V397.832ZM390.468 406.52C389.431 405.833 387.612 405.158 385.088 404.222C384.337 403.943 383.485 403.628 382.583 403.284C381.722 402.961 380.724 402.562 379.856 402.067C379.785 402.027 379.581 401.907 379.476 401.838C379.43 401.808 379.343 401.746 379.34 401.744C378.028 400.803 376.832 399.036 377.776 397.157C378.82 395.079 381.7 394.668 383.847 394.945C384.072 394.975 384.293 395.011 384.501 395.056C385.54 395.274 386.474 395.695 387.27 396.309C389.4 397.955 389.699 400.211 389.746 400.779L390.719 401.019L391.58 393.627L391.725 392.449C391.73 392.478 391.292 392.66 391.245 392.68C391.074 392.752 390.901 392.814 390.721 392.864C390.35 392.967 389.953 393.006 389.567 392.958C389.181 392.91 388.804 392.818 388.435 392.71C388.092 392.61 387.755 392.493 387.42 392.368C387.166 392.274 386.906 392.177 386.641 392.088C386.54 392.053 386.435 392.024 386.331 391.993L385.735 391.82C384.266 391.43 380.467 390.673 376.917 392.077C372.462 393.84 370.719 396.719 370.042 398.83C369.938 399.161 369.848 399.508 369.759 399.905C369.625 400.578 369.558 401.279 369.558 401.988C369.558 403.057 369.696 403.58 370.033 404.604C370.418 405.774 371.06 406.849 371.939 407.796C372.457 408.355 373.026 408.84 373.629 409.237C374.167 409.592 374.796 409.931 375.499 410.245C376.673 410.769 377.888 411.23 379.062 411.677L379.485 411.837C380.392 412.183 381.421 412.574 382.507 413.003C382.84 413.133 383.146 413.26 383.429 413.39L383.9 413.622C386.375 414.839 387.558 416.88 387.235 419.369C387.067 420.66 386.454 421.715 385.415 422.506C383.686 423.82 381.333 424.017 380.084 424.017C379.481 424.017 378.874 423.971 378.325 423.884C376.479 423.594 374.923 422.868 373.694 421.726C372.134 420.274 371.451 418.196 370.953 416.681C370.823 416.284 370.687 415.834 370.549 415.341L369.482 415.494L369.516 427.508C370.549 426.416 371.776 426.491 372.54 426.598C373.127 426.681 373.705 426.819 374.285 426.942C376.093 427.328 378.345 427.808 381.146 427.808C385.255 427.808 388.953 426.526 391.56 424.201C394.084 421.949 395.475 418.84 395.475 415.45C395.475 411.6 393.932 408.848 390.468 406.522V406.52ZM556.958 385.056H369.543V388.068H556.958V385.056ZM501.911 407.21C501.964 405.766 502.592 404.952 503.768 404.875V403.75H493.401V404.875C494.575 404.952 495.206 405.766 495.258 407.21C495.26 407.274 495.264 407.338 495.264 407.406C495.264 407.406 495.264 409.993 495.269 409.993L495.266 416.816C494.878 416.816 494.496 416.797 494.126 416.755C493.706 416.707 493.291 416.63 492.896 416.525C492.519 416.426 492.148 416.299 491.794 416.148C491.457 416.005 491.126 415.836 490.811 415.646C490.51 415.466 490.216 415.264 489.937 415.043C489.673 414.834 489.414 414.604 489.169 414.358C488.937 414.126 488.714 413.876 488.502 413.615C488.303 413.368 488.111 413.107 487.932 412.837C487.763 412.583 487.604 412.319 487.455 412.048C487.317 411.797 487.187 411.535 487.067 411.274C486.957 411.032 486.855 410.784 486.767 410.541C486.642 410.204 486.54 409.846 486.455 409.436L486.437 409.351C486.412 409.234 486.39 409.122 486.372 409.004C486.12 407.643 485.991 406.16 485.991 404.593C485.991 398.723 488.609 395.219 492.994 395.219C496.211 395.219 497.904 396.355 499.025 399.271L499.377 400.44L500.436 400.212L499.523 392.533C499.523 392.533 499.195 393.191 498.143 393.201C497.708 393.204 496.856 393.076 496.153 392.917C494.958 392.649 493.535 392.307 491.662 392.307C487.64 392.307 484.522 393.509 482.125 395.98C481.565 396.559 480.996 397.289 480.482 398.093L480.378 398.253V412.013L480.444 412.137C481.484 414.076 482.741 415.676 484.183 416.887C485.786 418.235 487.812 419.125 490.041 419.459C492.015 419.755 494.063 419.781 495.992 419.781C495.992 419.781 503.518 419.781 503.522 419.781C503.484 419.781 502.924 419.119 502.772 418.911C502.536 418.586 502.371 418.213 502.25 417.829C502.15 417.512 502.074 417.181 502.024 416.832C501.926 416.238 501.913 415.61 501.913 415.128C501.913 415.128 501.913 412.26 501.911 409.991V407.404C501.911 407.336 501.913 407.272 501.917 407.208L501.911 407.21ZM369.545 435.206H394.859L395.191 432.194H369.545V435.206ZM521.897 437.184H521.895C521.105 436.658 519.706 436.14 517.77 435.421L517.752 435.413C517.175 435.2 516.525 434.959 515.835 434.696C515.01 434.386 514.066 434.001 513.309 433.498C511.709 432.476 511.454 430.959 511.72 429.972C511.78 429.747 511.865 429.534 511.972 429.335C512.613 428.148 514.485 427.14 517.079 427.732C518.875 428.142 520.35 429.646 521.127 431.856C521.159 431.946 521.187 432.038 521.216 432.132L521.232 432.183L522.292 432.062L522.799 425.818C522.591 426.08 522.067 426.342 521.15 426.238C520.609 426.175 520.221 426.006 519.754 425.815C519.531 425.723 519.299 425.629 519.058 425.548L518.82 425.469C518.311 425.296 517.829 425.133 517.157 425.019C516.853 424.967 516.541 424.927 516.237 424.901C513.863 424.704 511.51 425.272 509.608 426.497C507.781 427.673 506.455 429.578 506.057 431.593C505.953 432.121 505.899 432.659 505.899 433.196C505.899 435.64 506.792 437.476 508.711 438.978C509.579 439.646 511.296 440.3 513.481 441.133C514.186 441.401 514.987 441.706 515.829 442.037L516.36 442.245L516.407 442.265C518.545 443.177 519.576 444.802 519.31 446.841C519.181 447.829 518.712 448.636 517.915 449.242C516.581 450.255 514.762 450.406 513.796 450.406C513.331 450.406 512.863 450.371 512.441 450.305C511.017 450.082 509.816 449.524 508.87 448.645C507.818 447.669 507.319 446.168 506.881 444.845L506.79 444.573C506.763 444.492 506.74 444.409 506.716 444.324L506.691 444.234L505.625 444.411L505.924 452.677L506.571 452.518C506.801 452.463 507.046 452.434 507.299 452.434C507.879 452.434 508.586 452.585 509.483 452.776C510.874 453.074 512.604 453.441 514.755 453.441C517.904 453.441 520.737 452.461 522.732 450.68C524.662 448.959 525.723 446.584 525.723 443.993C525.723 441.056 524.544 438.954 521.899 437.178L521.897 437.184ZM524.209 435.207H556.956V432.196H524.508L524.209 435.207ZM554.32 424.673C553.693 423.605 553.298 422.454 552.88 421.235L552.862 421.18C552.505 420.139 552.2 419.264 551.883 418.38C550.981 415.863 550.213 413.97 549.39 412.241C548.367 410.09 547.265 408.226 546.024 406.542L545.986 406.491L546.044 406.461C550.285 404.257 552.347 401.516 552.347 398.078C552.347 394.64 549.717 392.761 544.305 392.761H525.008V393.888C526.182 393.965 526.812 394.78 526.865 396.223C526.867 396.287 526.87 396.352 526.87 396.42V399.006V421.268V423.855C526.87 423.923 526.868 423.987 526.865 424.052C526.812 425.495 526.183 426.309 525.008 426.387V427.512H537.755V426.387C536.581 426.309 535.951 425.495 535.898 424.052C535.896 423.987 535.893 423.923 535.893 423.855V422.401V410.624L535.936 410.614C536.965 410.394 537.766 410.186 538.572 409.828L538.616 409.807L538.641 409.85C541.873 415.29 543.323 419.461 543.901 421.471L543.917 421.526C543.942 421.616 543.968 421.704 543.993 421.794C544.02 421.893 544.048 421.993 544.073 422.096L544.145 422.381C544.267 422.908 544.394 423.541 544.404 424.221C544.404 424.403 544.397 424.563 544.383 424.71C544.182 425.741 543.582 426.322 542.6 426.387V427.512H556.96V426.44C555.704 426.228 554.67 425.26 554.324 424.673H554.32ZM535.96 407.366L535.891 407.384V399.286C535.891 396.789 536.835 395.861 539.371 395.861C541.908 395.861 543.214 397.19 543.214 399.602C543.214 403.125 540.366 406.173 535.96 407.366V407.366ZM432.24 426.929C433.414 427.006 434.044 427.821 434.097 429.264C434.099 429.328 434.102 429.392 434.102 429.46V432.047V433.579H427.576V429.527V429.46C427.576 429.392 427.578 429.328 427.582 429.264C427.634 427.821 428.263 427.006 429.439 426.929V425.804H418.72V426.929C419.894 427.006 420.525 427.821 420.577 429.264C420.579 429.328 420.583 429.392 420.583 429.46V432.047V446.586V449.172C420.583 449.24 420.581 449.305 420.577 449.369C420.525 450.812 419.896 451.627 418.72 451.704V452.829H429.439V451.704C428.265 451.627 427.634 450.812 427.582 449.369C427.58 449.305 427.576 449.24 427.576 449.172V448.531V436.476H434.102V446.586V449.172C434.102 449.24 434.1 449.305 434.097 449.369C434.044 450.812 433.416 451.627 432.24 451.704V452.829H442.958V451.704C441.784 451.627 441.154 450.812 441.101 449.369C441.099 449.305 441.096 449.24 441.096 449.172V446.586V432.047V429.46C441.096 429.392 441.097 429.328 441.101 429.264C441.154 427.821 441.782 427.006 442.958 426.929V425.804H432.24V426.929ZM514.648 419.792C514.795 419.792 514.94 419.792 515.086 419.792C515.4 419.792 515.715 419.792 516.034 419.798C516.5 419.807 516.965 419.825 517.416 419.853C518.445 419.917 519.342 420.02 520.159 420.167C520.529 420.237 521.015 420.336 521.498 420.489C521.781 420.579 522.013 420.665 522.223 420.765L522.875 421.068L523.897 414.442L524.718 410.111L523.656 409.874C523.241 411.565 521.556 414.435 520.678 415.413L520.663 415.429C519.417 416.928 518.058 417.634 516.375 417.647H516.266C513.608 417.621 513.496 416.391 513.496 413.615V404.983H514.601C515.092 404.983 515.574 405.031 516.07 405.127C516.231 405.16 516.375 405.198 516.507 405.248C516.739 405.333 516.972 405.437 517.199 405.56C517.809 405.89 518.368 406.338 518.859 406.893C518.92 406.963 519.109 407.289 519.183 407.579L520.268 407.522L519.685 399.826L518.628 399.894C518.243 401.279 517.09 401.731 516.19 401.867L515.961 401.906C515.748 401.93 515.521 401.941 515.288 401.941H513.496V397.995C513.496 396.126 513.709 395.302 515.034 395.035L515.181 395.004C515.268 394.991 515.394 394.976 515.557 394.965C515.717 394.953 515.885 394.947 516.056 394.947C516.521 394.947 516.985 395.002 517.442 395.114C517.886 395.214 521.808 396.201 522.728 400.499L523.796 400.291L522.573 392.774L505.618 392.757V392.761H504.808V393.886C505.982 393.963 506.613 394.778 506.665 396.221C506.667 396.285 506.671 396.35 506.671 396.418V399.005V413.543V416.13C506.671 416.198 506.669 416.262 506.665 416.327C506.613 417.77 505.984 418.584 504.808 418.661V419.786H514.641L514.648 419.792ZM444.864 426.931C446.038 427.008 446.669 427.822 446.721 429.266C446.723 429.33 446.727 429.394 446.727 429.462V432.049V446.588V449.174C446.727 449.242 446.725 449.307 446.721 449.371C446.669 450.814 446.04 451.629 444.864 451.706V452.831H455.582V451.706C454.408 451.629 453.778 450.814 453.725 449.371C453.724 449.307 453.72 449.242 453.72 449.174V448.533V429.527V429.46C453.72 429.392 453.722 429.328 453.725 429.264C453.778 427.821 454.407 427.006 455.582 426.929V425.804H444.864V426.929V426.931ZM473.863 426.927C475.037 427.004 475.668 427.819 475.72 429.262C475.722 429.326 475.726 429.391 475.726 429.459V436.884L470.957 429.582L470.696 429.192C470.649 429.119 470.602 429.043 470.553 428.964L470.408 428.72C470.386 428.683 470.365 428.646 470.343 428.609C470.309 428.547 470.276 428.484 470.245 428.422C470.002 427.907 470.035 427.475 470.56 427.173C470.807 427.032 471.1 426.947 471.439 426.925V425.8H457.543V426.925C458.717 427.002 459.347 427.817 459.4 429.26C459.4 429.308 459.4 440.982 459.4 446.586V449.172C459.4 449.24 459.398 449.305 459.394 449.369C459.342 450.812 458.713 451.627 457.537 451.704V452.829H461.344L464.995 452.825V451.7C463.821 451.623 463.19 450.809 463.138 449.365C463.136 449.301 463.134 430.576 463.134 430.576L474.543 446.67C474.559 446.694 474.588 446.74 474.608 446.773C474.758 447.012 474.903 447.299 475.043 447.623C475.11 447.781 475.159 447.928 475.195 448.075C475.211 448.137 475.226 448.211 475.238 448.295C475.249 448.376 475.258 448.454 475.266 448.533C475.293 448.847 475.295 449.167 475.269 449.49C475.269 449.496 475.269 449.503 475.269 449.509C475.18 450.86 474.554 451.621 473.421 451.697V452.822H480.956V451.698C479.782 451.621 479.152 450.807 479.099 449.364C479.097 449.299 479.094 449.235 479.094 449.167C479.094 449.167 479.097 429.663 479.097 429.444C479.097 429.38 479.099 429.319 479.101 429.256C479.154 427.813 479.782 426.999 480.958 426.922V425.796H473.87V426.922L473.863 426.927Z" fill="#E20818"/>
</g>
<path d="M443.003 377.714C442.164 377.863 441.31 377.908 440.427 378.028L437.733 370.045V378.37C436.894 378.46 436.128 378.579 435.334 378.698V363.447H437.571L440.633 372.1V363.447H443.003V377.714ZM447.64 369.032C448.552 369.032 449.951 368.987 450.79 368.987V371.369C449.745 371.369 448.523 371.369 447.64 371.414V374.959C449.023 374.869 450.407 374.75 451.805 374.706V376.999L445.284 377.521V363.447H451.805V365.83H447.64V369.032V369.032ZM460.564 365.83H458.12V376.791C457.326 376.791 456.53 376.791 455.766 376.821V365.83H453.322V363.447H460.565V365.83H460.564ZM464.391 368.868H467.615V371.251H464.391V376.657H462.079V363.447H468.66V365.83H464.391V368.867V368.868ZM472.487 374.573C473.826 374.602 475.18 374.707 476.49 374.781V377.134C474.385 377 472.28 376.866 470.131 376.821V363.447H472.486V374.572L472.487 374.573ZM478.478 377.298C479.228 377.343 480.024 377.388 480.789 377.477V363.447H478.478V377.297V377.298ZM491.108 363.447L488.12 370.7L491.108 378.698C490.225 378.579 489.342 378.415 488.458 378.266L486.765 373.858L485.043 377.908C484.189 377.759 483.365 377.714 482.51 377.595L485.543 370.61L482.806 363.447H485.338L486.884 367.453L488.533 363.447H491.108Z" fill="#E20818"/>
<defs>
<clipPath id="clip0_29_6392">
<rect width="187.476" height="68.3907" fill="white" transform="translate(369.482 385.056)"/>
</clipPath>
</defs>
</svg>
