<svg width="653" height="470" viewBox="0 0 653 470" fill="none" xmlns="http://www.w3.org/2000/svg">
<path d="M651.72 1.38965H1.71997V174.59H651.72V1.38965Z" fill="#151515" stroke="white" stroke-width="2" stroke-miterlimit="10"/>
<path d="M651.72 174.59H1.71997V348.59H651.72V174.59Z" fill="#151515" stroke="white" stroke-width="2" stroke-miterlimit="10"/>
<path d="M274.53 348.59H1.71997V408.59H274.53V348.59Z" fill="#151515" stroke="white" stroke-width="2" stroke-miterlimit="10"/>
<path d="M651.72 348.59H274.53V468.59H651.72V348.59Z" fill="white" stroke="white" stroke-width="2" stroke-miterlimit="10"/>
<path d="M122.9 1H1V174.98H122.9V1Z" fill="white"/>
<path d="M198.42 38.3202C218.6 38.3202 227.12 52.0302 228.35 64.8502L228.67 68.2302H251.17L250.94 64.2802C249.29 36.1202 227.7 16.4502 198.41 16.4502C169.12 16.4502 145.87 37.8302 145.87 67.3002V108.81C145.87 138.28 167.96 159.66 198.43 159.66C228.53 159.46 250.38 138.08 250.38 108.81V80.9602H187.75V101.71H227.95V107.88C227.95 121.57 220.21 137.62 198.41 137.79C176.19 137.79 168.31 121.67 168.31 107.88V68.2402C168.31 47.5802 183.43 38.3302 198.41 38.3302L198.42 38.3202Z" fill="white"/>
<path d="M274.35 38.6196H315.78V137.47H274.35V159.53H379.65V137.47H338.4V38.6196H379.65V16.5596H274.35V38.6196Z" fill="white"/>
<path d="M402.82 159.53H425.44V97.2896H504.19V75.2596H425.44V38.6196H508.12V16.5596H402.83V159.53H402.82Z" fill="white"/>
<path d="M531.28 38.6196H572.62V159.53H595.24V38.6196H636.72V16.5596H531.29V38.6196H531.28Z" fill="white"/>
<path d="M596.35 261.01L636.71 190.51H613.57L584.06 242.21L554.35 190.51H531.4L571.76 261L531.4 333.47H554.58L583.74 279.58L613.38 333.47H636.7L596.34 261.01H596.35Z" fill="white"/>
<path d="M17.6 212.48H59.03V311.33H17.6V333.39H122.9V311.33H81.66V212.48H122.9V190.42H17.6V212.48Z" fill="white"/>
<path d="M229.3 291.04L166.82 190.42H146.06V333.39H168.12V232.87L229.84 333.39H251.35V190.41H229.29V291.03L229.3 291.04Z" fill="white"/>
<path d="M325.49 190.41H274.53V333.37H325.49C341.13 333.37 354.61 328.64 364.46 319.71C374.48 310.61 379.78 298.04 379.78 283.33V242.37C379.78 212.25 356.95 190.4 325.49 190.4V190.41ZM325.49 311.74H297.91V212.24H325.49C346.98 212.24 356.6 227.86 356.6 243.34V282.37C356.6 304.02 340.53 311.74 325.49 311.74Z" fill="white"/>
<path d="M425.57 270.47H500.01V249.34H425.57V211.72H508.24V190.41H402.95V333.38H508.24V312.25H425.57V270.47Z" fill="white"/>
<path fill-rule="evenodd" clip-rule="evenodd" d="M8.5 8.5H29.52V13.5H13.5V29.51H8.5V8.5Z" fill="#151515"/>
<path fill-rule="evenodd" clip-rule="evenodd" d="M110.4 13.5H94.38V8.5H115.4V29.51H110.4V13.5Z" fill="#151515"/>
<path fill-rule="evenodd" clip-rule="evenodd" d="M110.4 162.48V146.46H115.4V167.48H94.38V162.48H110.4Z" fill="#151515"/>
<path fill-rule="evenodd" clip-rule="evenodd" d="M13.5 162.48V146.47H8.5V167.48H29.52V162.48H13.5Z" fill="#151515"/>
<path d="M19.0699 390.56V366.56H27.4999C29.9999 366.56 31.8699 367.09 33.1099 368.14C34.3499 369.19 34.9699 370.77 34.9699 372.89V375.83C34.9699 377.95 34.3499 379.54 33.0899 380.59C31.8299 381.64 29.9699 382.16 27.4699 382.16H22.0699V390.56H19.0699ZM22.0699 379.52H27.4699C29.0899 379.52 30.2399 379.23 30.9399 378.66C31.6299 378.09 31.9699 377.12 31.9699 375.77V373.01C31.9699 371.65 31.6299 370.68 30.9399 370.11C30.2499 369.54 29.0899 369.26 27.4699 369.26H22.0699V379.52Z" fill="white"/>
<path d="M41.96 390.56H38.96V366.56H47.99C50.49 366.56 52.36 367.09 53.6 368.14C54.84 369.19 55.46 370.77 55.46 372.89V374.75C55.46 376.67 54.97 378.17 54 379.25C53.03 380.33 51.56 380.97 49.58 381.17L55.73 390.56H52.31L46.22 381.26H41.96V390.56ZM41.96 378.62H47.96C49.58 378.62 50.73 378.33 51.42 377.74C52.11 377.15 52.46 376.15 52.46 374.76V372.9C52.46 371.58 52.11 370.65 51.42 370.1C50.73 369.55 49.58 369.28 47.96 369.28H41.96V378.64V378.62Z" fill="white"/>
<path d="M59.3099 390.56V366.56H74.9099V369.26H62.3099V376.16H73.4099V378.86H62.3099V387.86H74.9099V390.56H59.3099Z" fill="white"/>
<path d="M87.38 390.739C85.58 390.739 83.9 390.449 82.34 389.869C80.78 389.289 79.38 388.229 78.14 386.689L80.3 384.649C81.14 385.789 82.14 386.639 83.32 387.199C84.49 387.759 85.87 388.039 87.47 388.039C88.95 388.039 90.14 387.689 91.05 386.999C91.96 386.309 92.42 385.379 92.42 384.199C92.42 383.019 92.03 382.179 91.25 381.579C90.47 380.969 88.93 380.319 86.63 379.639C83.71 378.799 81.72 377.889 80.66 376.909C79.6 375.929 79.07 374.539 79.07 372.739C79.07 370.659 79.76 369.089 81.15 368.029C82.54 366.969 84.23 366.439 86.21 366.439C87.89 366.439 89.48 366.729 90.99 367.319C92.5 367.909 93.83 368.949 94.99 370.449L92.92 372.519C92.12 371.379 91.12 370.529 89.92 369.969C88.72 369.409 87.5 369.129 86.26 369.129C85.02 369.129 83.99 369.389 83.23 369.899C82.47 370.409 82.09 371.269 82.09 372.459C82.09 373.519 82.51 374.349 83.34 374.969C84.17 375.579 85.8 376.229 88.24 376.929C91 377.729 92.89 378.609 93.9 379.549C94.91 380.499 95.42 381.869 95.42 383.669C95.42 385.969 94.6 387.719 92.96 388.919C91.32 390.119 89.46 390.719 87.38 390.719V390.739Z" fill="white"/>
<path d="M99.4 390.56V366.56H115V369.26H102.4V376.16H113.5V378.86H102.4V387.86H115V390.56H99.4Z" fill="white"/>
<path d="M129.85 390.56L121.84 370.34V390.56H119.14V366.56H123.25L131.44 387.23V366.56H134.14V390.56H129.85Z" fill="white"/>
<path d="M145.33 390.56V369.26H137.83V366.56H155.83V369.26H148.33V390.56H145.33Z" fill="white"/>
<path d="M159.53 390.56V366.56H175.13V369.26H162.53V376.16H173.63V378.86H162.53V387.86H175.13V390.56H159.53Z" fill="white"/>
<path d="M179.27 390.56V366.56H185.9C188.7 366.56 190.9 367.35 192.48 368.94C194.07 370.53 194.87 372.65 194.87 375.29V381.95C194.87 384.57 194.07 386.66 192.47 388.22C190.87 389.78 188.67 390.56 185.87 390.56H179.27ZM182.27 387.86H185.87C187.89 387.86 189.39 387.32 190.39 386.23C191.38 385.14 191.87 383.71 191.87 381.95V375.29C191.87 373.55 191.37 372.11 190.39 370.97C189.4 369.83 187.89 369.26 185.87 369.26H182.27V387.86Z" fill="white"/>
<path d="M219.95 390.56V366.56H227.39C229.89 366.56 231.73 367.02 232.93 367.94C234.12 368.86 234.71 370.28 234.71 372.2V373.55C234.71 374.57 234.42 375.43 233.84 376.11C233.26 376.8 232.46 377.23 231.44 377.42V378.29C232.74 378.41 233.77 378.9 234.53 379.76C235.29 380.62 235.67 381.73 235.67 383.09V384.44C235.67 386.52 235.01 388.06 233.69 389.06C232.37 390.06 230.34 390.56 227.6 390.56H219.95ZM222.95 376.76H227.69C229.11 376.76 230.14 376.49 230.79 375.97C231.44 375.44 231.76 374.59 231.76 373.43V372.59C231.76 371.43 231.43 370.58 230.79 370.05C230.14 369.52 229.1 369.26 227.69 369.26H222.95V376.76ZM222.95 387.86H228.29C229.81 387.86 230.92 387.57 231.62 386.98C232.32 386.39 232.67 385.44 232.67 384.11V383.15C232.67 381.83 232.32 380.88 231.62 380.28C230.92 379.69 229.81 379.4 228.29 379.4H222.95V387.86Z" fill="white"/>
<path d="M248.63 390.56H245.63V381.56L237.05 366.56H240.41L247.31 378.86L253.88 366.56H257.18L248.63 381.56V390.56Z" fill="white"/>
<path d="M31.1 65.6289V82.7889H49.2V65.6289H59.03V110.349H49.2V91.0589H31.1V110.349H21.27V65.6289H31.1Z" fill="#151515"/>
<path d="M86.21 65.6294C88.34 65.6294 90.28 65.8194 92.03 66.1894C93.78 66.5694 95.29 67.1894 96.54 68.0394C97.79 68.8994 98.76 70.0294 99.45 71.4494C100.14 72.8694 100.49 74.6194 100.49 76.7094C100.49 78.9594 99.98 80.8394 98.95 82.3494C97.92 83.8594 96.42 85.0794 94.41 86.0494C97.17 86.8494 99.22 88.2394 100.58 90.2094C101.94 92.1894 102.62 94.5794 102.62 97.3794C102.62 99.6294 102.18 101.589 101.31 103.229C100.43 104.879 99.26 106.229 97.77 107.269C96.29 108.309 94.6 109.089 92.7 109.589C90.8 110.089 88.85 110.339 86.85 110.339H65.18V65.6094H86.22V65.6294H86.21ZM84.95 83.7294C86.7 83.7294 88.15 83.3094 89.27 82.4794C90.4 81.6494 90.96 80.2894 90.96 78.4094C90.96 77.3694 90.77 76.5094 90.4 75.8394C90.02 75.1794 89.52 74.6494 88.89 74.2694C88.26 73.8894 87.55 73.6394 86.73 73.4894C85.92 73.3394 85.07 73.2694 84.2 73.2694H75V83.7294H84.95ZM85.51 102.699C86.47 102.699 87.39 102.609 88.27 102.419C89.15 102.229 89.92 101.919 90.59 101.479C91.25 101.039 91.79 100.449 92.19 99.6994C92.58 98.9494 92.78 97.9894 92.78 96.8194C92.78 94.5294 92.13 92.8794 90.84 91.8994C89.54 90.9194 87.84 90.4294 85.7 90.4294H74.99V102.709H85.51V102.699Z" fill="#151515"/>
<path fill-rule="evenodd" clip-rule="evenodd" d="M541.237 431.347C541.237 431.122 541.237 431.01 541.237 430.786C541.181 430.674 541.014 430.786 540.958 430.786C537.896 432.972 534.723 435.159 530.658 434.935C530.046 434.71 529.433 434.43 529.099 433.813C528.32 432.3 529.266 429.833 529.211 429.833C526.148 431.739 523.086 433.701 519.801 434.878C519.467 434.822 518.576 435.327 518.743 434.654C525.536 431.178 532.217 426.133 537.952 420.19C539.455 420.19 542.74 420.19 542.684 420.19C539.678 423.218 534.834 428.095 531.883 431.234C531.438 431.683 530.77 432.3 531.048 433.028C532.106 434.094 533.887 433.421 534.89 432.972C538.397 431.066 542.016 428.375 544.577 425.18C547.473 422.209 551.37 420.246 555.323 419.63C556.659 419.518 557.884 419.91 558.608 421.031C558.664 421.143 558.664 421.256 558.775 421.312C559.276 421.256 559.944 420.527 560.278 420.19C561.781 420.19 563.229 420.19 564.621 420.19C563.73 421.424 556.826 429.272 554.321 432.188C554.098 432.412 554.098 432.748 554.265 432.972C554.766 433.253 555.156 433.309 555.713 433.197C558.497 432.86 560.445 430.674 562.561 428.768C565.623 425.46 568.964 421.704 572.805 419.742C574.03 419.293 575.868 419.069 576.981 419.91C577.928 420.695 577.872 421.928 578.15 422.993C579.208 422.769 579.988 421.704 580.823 421.143C581.491 420.695 582.103 420.359 582.66 420.134C583.996 419.63 585.889 419.237 587.17 420.19C588.228 421.312 588.284 422.993 587.782 424.395C587.56 424.843 587.393 425.236 587.059 425.572C584.943 427.815 582.772 430.113 580.656 432.412C580.377 432.692 580.099 433.028 580.21 433.477C580.934 434.15 581.881 433.533 582.605 433.309C584.943 432.356 587.059 430.618 589.007 428.768C591.903 423.778 597.08 420.527 602.481 419.686C603.817 419.574 605.042 419.966 605.766 421.087C605.822 421.199 605.822 421.312 605.933 421.368C606.434 421.312 607.102 420.583 607.436 420.246C608.94 420.246 610.387 420.246 611.779 420.246C610.888 421.48 603.984 429.328 601.479 432.244C601.256 432.468 601.256 432.804 601.423 433.028C601.924 433.309 602.76 433.197 603.316 433.085C609.719 430.898 614.841 425.012 619.685 419.798C619.908 419.518 620.298 419.349 620.632 419.405C620.799 419.854 620.409 420.19 620.186 420.527C615.454 426.469 609.552 432.58 602.704 435.047C601.368 435.383 599.642 435.327 598.751 434.15C598.305 433.757 598.528 433.085 598.027 433.028C596.078 434.486 593.684 435.215 591.067 434.935C589.898 434.71 588.673 433.645 588.451 432.356C588.451 431.963 588.451 431.627 588.284 431.347C585.388 433.365 582.438 435.551 578.596 435.047C578.095 435.047 577.427 434.094 577.315 433.421C577.037 431.739 578.484 430.618 579.487 429.384C581.658 427.142 583.829 424.9 585.889 422.601C586.168 422.265 586.001 421.816 585.945 421.48C585.722 420.975 585.221 420.919 584.776 420.807C583.05 420.807 581.825 421.928 580.6 422.993C576.814 426.974 573.028 430.674 569.353 434.654C567.85 434.654 564.398 434.71 564.343 434.654C567.516 431.291 571.358 427.759 574.364 424.283C575.033 423.498 576.09 422.545 575.868 421.031C575.478 420.359 574.643 420.583 574.03 420.583C570.356 421.928 567.293 425.628 564.565 428.487C562.728 430.562 560.668 432.58 558.385 433.757C557.494 434.318 556.548 434.598 555.657 434.935C554.321 435.271 552.595 435.215 551.704 434.038C551.259 433.645 551.481 432.972 550.98 432.916C549.031 434.374 546.637 435.103 544.021 434.822C542.851 434.598 541.627 433.533 541.404 432.244C541.404 432.244 541.237 431.683 541.237 431.347ZM547.361 426.693C549.421 424.283 551.76 422.377 554.376 421.256C555.156 421.031 556.325 420.919 556.938 421.648C557.16 422.04 557.494 422.545 557.272 423.049C556.715 424.395 555.546 425.46 554.488 426.637C551.481 429.497 548.809 434.206 544.243 433.645C543.909 433.589 543.687 433.309 543.52 432.972C543.297 431.01 545.802 428.431 547.361 426.693ZM594.464 426.693C596.524 424.283 598.862 422.377 601.479 421.256C602.258 421.031 603.428 420.919 604.04 421.648C604.263 422.04 604.597 422.545 604.374 423.049C603.817 424.395 602.648 425.46 601.59 426.637C598.584 429.497 595.911 434.206 591.346 433.645C591.012 433.589 590.789 433.309 590.622 432.972C590.399 431.01 592.905 428.431 594.464 426.693ZM543.854 413.014C544.577 412.678 545.468 412.23 546.359 412.566C546.916 412.79 547.25 413.183 547.417 413.575C547.64 414.921 547.194 416.21 546.025 417.051C545.245 417.724 543.854 417.78 542.963 417.275C542.629 416.939 542.406 416.883 542.239 416.154C542.183 414.864 542.851 413.743 543.854 413.014ZM500.092 422.937C500.593 422.769 501.15 422.937 501.484 423.218C502.374 424.339 502.096 426.021 501.484 427.142C501.094 427.983 500.314 428.6 499.535 428.992C500.481 431.459 503.098 432.58 505.659 432.58C520.135 432.356 528.208 416.49 536.282 406.567C540.569 400.344 545.19 394.29 550.479 388.515C543.352 384.087 533.219 386.105 526.427 389.861C519.857 393.169 513.565 398.438 508.889 404.773C507.552 406.792 506.327 409.539 507.552 412.061C509.056 414.696 512.118 415.145 514.957 414.921C525.926 413.183 536.115 403.26 540.569 393.056C541.07 391.599 541.515 390.141 541.905 388.628H541.961C541.961 393.561 539.511 397.654 537.061 401.634C532.106 408.978 524.812 415.649 516.127 416.602C512.341 416.995 508.722 415.93 506.495 412.79C504.991 409.539 506.049 405.558 507.664 402.699C514.401 392.496 525.091 386.834 536.282 384.984C541.682 384.199 547.083 384.815 551.537 387.45C551.593 387.45 560.946 378.032 567.683 376.743C567.795 376.743 567.962 376.686 568.017 376.799C568.017 376.799 568.017 376.799 568.017 376.855C562.784 379.097 557.94 382.517 553.764 387.002C553.486 387.45 552.706 387.843 552.929 388.459C556.604 391.767 558.775 396.588 557.049 401.466C555.88 404.998 552.595 408.361 548.864 408.922C547.138 409.09 545.357 408.642 544.522 406.96C543.408 404.269 544.967 401.69 546.804 399.672C548.53 398.046 550.535 396.925 552.985 396.925C553.207 396.981 553.597 397.037 553.653 397.317C552.873 397.317 551.815 397.597 551.036 398.158C548.252 399.728 545.413 402.699 545.58 406.063C545.747 406.792 546.526 407.464 547.25 407.633C548.697 407.801 549.7 406.96 550.757 406.007C554.711 402.475 556.492 397.878 554.599 393C553.987 391.711 553.04 390.309 551.76 389.525C547.083 394.626 541.292 405.951 541.237 405.951C538.843 410.155 536.393 414.304 532.997 418.06C527.206 425.292 519.801 430.113 511.951 433.028C508.22 434.15 503.098 434.71 499.925 432.019C498.032 430.281 497.085 427.647 498.032 425.18C498.31 424.115 499.145 423.386 500.092 422.937ZM466.24 428.263C469.024 424.956 472.476 422.096 476.373 420.975C477.042 420.751 477.877 420.863 478.545 421.087C479.102 421.424 479.324 421.984 479.38 422.601C479.38 423.049 479.436 423.498 479.157 423.722C478.044 423.89 477.042 424.675 476.429 425.684C476.039 426.357 475.872 427.142 475.872 428.039C473.812 430.281 471.251 431.963 468.634 433.141C467.465 433.645 465.739 433.813 464.626 433.028C464.125 432.636 463.902 431.963 464.069 431.347C464.514 430.225 465.405 429.272 466.24 428.263ZM428.603 430.842C430.774 428.151 433.224 425.404 435.896 423.049C437.734 421.368 440.184 420.078 442.578 420.863C443.079 421.143 443.302 421.648 443.357 422.209C443.246 422.657 443.357 423.162 443.134 423.554C441.743 424.003 440.295 425.348 440.017 426.806C439.905 427.142 439.961 427.703 439.961 427.983C437.288 430.394 434.616 432.804 431.22 433.589C430.106 433.701 428.826 433.645 428.157 432.636C427.99 431.963 428.269 431.347 428.603 430.842ZM439.014 390.926C443.079 386.609 447.477 382.685 453.49 383.078C454.492 383.358 455.773 383.806 456.107 384.984C456.72 387.618 454.827 389.581 453.379 391.487C446.308 399.448 437.567 403.989 428.659 407.801C427.99 408.025 427.267 408.249 426.598 408.361C430.106 402.251 434.338 396.476 439.014 390.926ZM381.333 431.963C385.398 430.337 390.297 431.291 394.139 432.748C392.858 433.421 391.299 433.645 389.685 433.701C387.235 433.981 384.34 434.15 381.834 433.589C381.445 433.365 380.944 433.309 380.721 432.804C380.498 432.356 381.055 432.131 381.333 431.963ZM379.552 431.515C383.727 428.88 389.629 429.889 394.417 430.45C395.642 430.674 396.867 430.73 398.036 431.066C399.484 430.674 400.709 429.721 401.989 429.104C404.272 427.647 406.444 425.965 408.559 424.171C408.671 424.227 411.733 420.863 411.844 420.751C413.96 418.116 415.964 415.481 417.857 412.79C417.857 412.734 417.857 412.678 417.857 412.622C415.407 412.734 413.069 412.902 410.285 412.51C406.833 412.061 403.994 410.604 401.154 407.857C397.424 404.269 398.036 398.326 399.874 395.355C403.381 389.917 407.835 386.778 414.517 384.143C417.3 383.021 420.474 382.405 421.922 382.124C426.264 381.508 431.22 380.947 435.562 381.956C435.674 382.012 435.618 382.124 435.618 382.181C435.562 382.293 435.395 382.237 435.34 382.349C422.868 381.452 411.232 384.703 403.604 394.907C401.544 397.878 399.985 402.195 401.989 405.726C405.887 411.277 413.347 412.005 419.528 410.436C420.697 409.202 421.588 407.745 422.645 406.399C428.881 398.382 436.119 389.581 444.693 384.143C447.867 382.405 452.154 380.667 455.829 382.629C457.388 383.75 457.944 385.544 457.555 387.394C455.216 394.29 447.978 399.055 442.244 402.867C436.676 406.287 430.774 408.922 424.65 410.996C418.692 419.742 409.784 426.301 401.21 431.403C401.21 431.571 401.433 431.571 401.488 431.627C405.887 432.019 410.675 432.188 415.018 431.907C419.75 431.291 424.149 429.945 427.823 426.862C430.941 422.545 435.395 419.069 440.796 419.125C442.299 419.237 444.025 419.742 444.526 421.368C444.916 422.657 444.304 424.003 444.359 425.348C444.359 425.516 444.192 425.684 444.248 425.853C444.471 426.133 444.749 425.853 444.972 425.853C447.422 424.283 449.704 422.321 451.931 420.246C451.987 418.621 452.265 416.883 453.824 415.986C454.158 415.93 454.493 415.705 454.827 415.874C455.161 415.93 455.439 416.266 455.495 416.658C455.55 418.172 454.381 419.125 453.546 420.246C454.994 421.031 457.555 420.134 458 422.377C458.279 425.124 455.94 426.806 454.27 428.768C452.878 430.169 451.208 431.627 449.927 433.141C449.704 433.477 449.983 433.981 450.261 433.981C452.767 434.542 455.773 432.972 458.111 431.627C460.784 429.721 462.955 427.086 465.294 424.619C468.801 420.919 473.367 418.565 478.545 419.686C479.436 420.022 480.438 420.919 480.661 421.872C481.162 423.442 480.215 424.731 480.382 426.245C480.716 426.525 481.05 426.301 481.329 426.189C485.226 422.713 488.678 418.565 491.963 414.696C492.241 414.584 492.353 414.864 492.408 415.033C491.74 416.546 490.627 417.892 489.624 419.237C486.507 422.769 483.5 427.366 479.102 428.992C478.322 429.384 477.821 428.992 477.209 429.16C474.035 432.131 470.639 434.654 466.463 435.159C464.793 435.327 463.401 434.654 462.51 433.197C461.953 432.244 462.065 430.394 461.953 430.394C459.058 432.86 455.829 434.598 452.154 435.159C450.595 435.383 448.869 435.103 448.09 433.757C447.088 429.328 451.987 426.75 454.66 423.946C455.105 423.274 456.218 422.993 455.996 422.096C454.938 421.704 453.824 421.648 452.655 421.48C451.263 422.209 450.205 423.722 448.869 424.675C446.92 426.301 444.86 427.703 442.578 428.544C440.963 428.207 440.295 430.225 439.07 430.898C435.785 433.365 431.776 436.448 427.489 434.43C425.93 433.533 425.986 431.571 426.153 429.889C426.097 429.833 426.097 429.833 426.042 429.777C423.648 430.898 421.309 432.244 418.692 432.916C412.011 434.822 403.882 435.271 397.034 433.477C392.58 435.215 387.235 435.719 382.169 434.991C380.999 434.654 379.329 434.486 378.995 433.028C378.939 432.412 379.106 431.907 379.552 431.515Z" fill="#9F5B49"/>
<path fill-rule="evenodd" clip-rule="evenodd" d="M348.874 428.039C349.431 426.75 349.208 425.068 350.266 424.059C350.321 424.732 350.544 425.405 351.101 425.909C351.713 426.021 352.047 425.461 352.326 425.068C352.66 424.564 352.604 423.835 352.27 423.33L351.769 422.77C352.103 422.601 352.604 422.826 352.994 422.882C353.718 422.994 354.442 423.667 355.165 423.05C355.555 422.714 355.833 422.265 355.666 421.704C355.555 421.368 355.277 421.2 354.998 421.032C354.609 420.864 354.163 420.976 353.829 421.088C354.219 420.415 354.998 420.191 355.722 420.191C356.669 420.247 357.559 421.032 357.782 421.873C358.896 420.471 358.84 418.117 357.949 416.547L357.671 416.21C358.283 416.266 358.84 416.659 359.397 416.995C359.786 416.154 360.51 415.201 361.457 414.921C361.345 415.482 361.123 416.154 361.568 416.603C362.014 417.22 362.904 417.163 363.517 416.995C363.907 416.827 364.185 416.435 364.241 416.042C364.296 415.65 364.074 415.369 363.795 415.201C363.461 415.145 363.071 415.089 362.849 415.37C362.682 415.538 362.626 415.818 362.403 415.93C362.069 415.089 362.459 414.192 362.849 413.519C362.96 413.351 363.238 413.183 363.127 413.015C362.459 412.174 361.902 411.333 361.457 410.38C362.181 410.716 362.96 411.165 363.795 411.165C363.962 410.38 364.296 409.427 365.131 409.147L365.633 409.203C365.466 409.651 365.076 410.1 365.354 410.66C365.466 410.941 365.688 411.221 366.022 411.221C366.468 411.221 366.802 410.997 367.08 410.604C367.915 408.81 366.579 407.128 365.41 405.783C364.352 404.718 363.016 404.269 361.512 404.157C361.847 403.597 362.459 403.036 363.071 402.868C363.461 402.7 363.851 403.204 364.018 402.756C364.241 401.859 364.241 400.681 365.354 400.457H365.466C365.354 401.186 365.354 402.027 365.8 402.587C366.468 402.531 367.359 402.363 367.971 402.756C368.472 403.092 368.862 403.597 368.917 404.157C368.528 404.101 368.249 403.597 367.804 403.821C367.47 403.989 367.526 404.381 367.581 404.662C367.748 405.054 368.138 405.447 368.583 405.447C369.084 405.503 369.419 405.166 369.697 404.774C370.421 402.924 369.363 401.242 367.971 399.953C367.024 398.775 364.241 397.318 364.185 397.206C365.02 396.757 366.022 396.477 366.969 396.645C367.136 396.589 367.303 396.365 367.136 396.196C366.802 395.468 365.911 395.131 365.688 394.402C364.909 392.777 364.575 390.983 364.463 389.133C364.575 389.133 364.63 389.301 364.797 389.301C364.964 389.133 364.797 388.852 364.909 388.74C365.076 388.292 365.243 387.731 365.8 387.619C365.688 388.067 365.41 388.684 365.577 389.301C365.744 389.918 366.022 390.646 366.635 390.927C367.247 390.478 367.526 389.749 367.47 388.964C368.138 389.637 368.528 390.534 368.528 391.543C368.917 391.487 369.252 391.207 369.641 391.039C370.087 390.871 370.699 390.702 371.256 390.871C370.309 391.655 369.92 392.889 370.198 394.122C370.309 394.458 370.365 394.851 370.755 395.131C370.977 394.795 370.866 394.346 370.922 393.954C370.866 393.505 371.312 393.281 371.59 393.057C371.757 393.281 371.59 393.618 371.701 393.898C372.314 394.851 372.425 395.972 372.369 397.206C372.369 397.262 372.481 397.318 372.536 397.374C373.038 397.149 373.093 396.533 373.26 396.084L373.427 395.243C375.042 397.206 373.873 400.121 373.372 402.195C373.316 402.587 373.316 402.98 373.483 403.316C373.761 403.653 374.151 403.765 374.541 403.653C375.487 403.148 375.042 401.859 375.821 401.186C376.378 402.195 376.267 403.765 375.877 404.886C376.768 404.774 377.492 405.391 377.881 406.119L378.215 407.072C377.937 407.184 377.714 406.904 377.492 406.848C375.821 406.175 373.873 406.624 372.536 407.801C371.868 408.362 371.701 409.259 371.868 410.044C371.924 410.38 372.147 410.772 372.481 410.997C372.815 411.165 373.427 411.165 373.706 410.885C374.151 410.492 374.151 409.932 374.541 409.539C374.764 409.988 374.541 410.548 374.596 411.053C374.374 412.51 373.26 414.08 371.813 414.585C371.145 415.089 370.476 415.762 370.643 416.659C370.755 416.883 371.033 417.051 371.312 416.939C371.868 416.771 371.98 416.154 372.147 415.762C372.592 416.547 372.926 417.668 372.369 418.509C372.592 419.126 372.871 419.742 372.926 420.415C372.926 421.088 372.982 421.873 372.592 422.433H372.536C372.202 421.088 371.033 419.742 369.641 419.462C368.472 419.126 367.247 419.518 366.245 420.023C365.911 420.359 365.688 420.751 365.855 421.2C366.189 422.097 367.247 421.929 367.971 421.929C368.082 421.873 368.249 421.873 368.416 421.873C368.361 422.377 368.027 422.882 367.581 423.274C367.526 423.498 367.804 423.723 367.915 423.947C368.194 424.564 368.249 425.292 368.138 425.965C366.913 424.732 365.41 423.835 363.572 424.059C363.183 424.171 362.793 424.564 362.793 425.012C362.682 426.189 364.352 426.077 364.129 427.311C362.849 426.806 361.512 426.526 360.065 426.47C358.896 426.414 357.114 426.414 356.502 427.647C356.502 428.264 356.891 428.712 357.392 429.105C357.615 429.273 358.116 429.273 358.061 429.609C357.448 430.394 356.167 430.282 355.332 430.002C355.221 430.058 355.054 429.946 354.998 430.058C354.943 430.562 355.221 430.955 355.332 431.403C354.497 431.627 353.718 431.123 353.161 430.45C352.214 431.403 351.101 431.964 349.82 432.02C349.765 431.683 350.043 431.347 349.876 431.011C349.097 431.291 348.484 431.964 347.816 432.524C346.702 433.59 345.756 434.823 345.199 436.112C345.7 436.168 346.201 436.281 346.48 436.785C346.591 437.009 346.702 437.177 346.647 437.458C346.313 437.458 345.923 437.009 345.589 437.234C344.921 437.626 344.42 438.299 344.197 438.971C344.531 439.14 344.865 439.084 345.144 439.42C344.865 439.812 344.475 440.037 344.253 440.485C344.03 440.878 343.919 441.326 343.752 441.718H339.576C339.464 441.55 339.464 441.326 339.409 441.158C339.242 440.541 338.741 439.981 338.24 439.588C338.295 439.028 339.464 439.42 339.019 438.691C338.574 438.131 338.073 437.234 337.293 437.346C337.07 437.458 336.903 437.682 336.681 437.682C336.514 437.346 336.736 437.121 336.848 436.841C337.182 436.449 337.627 436.337 338.017 436.224C337.182 434.262 335.344 432.468 333.563 431.235C333.451 431.235 333.396 431.179 333.284 431.179C333.173 431.515 333.507 431.908 333.34 432.244C332.059 432.188 331.002 431.627 330.055 430.674C329.554 431.403 328.775 431.74 327.939 431.683C327.939 431.179 328.385 430.618 328.106 430.114C327.271 430.506 326.046 430.618 325.323 430.002C325.211 429.889 325.156 429.833 325.156 429.665C325.49 429.441 325.879 429.385 326.213 429.049C326.548 428.656 326.826 428.208 326.715 427.703C325.768 426.245 323.708 426.638 322.149 426.75C321.091 426.918 320.089 427.199 319.143 427.535C319.087 427.255 319.198 426.862 319.421 426.582C319.755 426.133 320.479 426.077 320.479 425.405C320.534 424.9 320.256 424.508 319.866 424.339C318.53 424.059 317.194 424.564 316.136 425.292L315.134 426.189C314.911 425.236 315.134 424.339 315.691 423.611C315.301 423.162 314.855 422.714 314.8 422.153C315.635 422.265 316.86 422.377 317.361 421.592C317.528 421.2 317.417 420.695 317.138 420.415C316.025 419.518 314.132 419.294 312.851 419.967C311.682 420.415 311.014 421.592 310.735 422.714C310.568 422.714 310.513 422.489 310.401 422.321C310.012 421.2 310.234 419.798 310.791 418.789C310.346 417.948 310.457 416.659 310.958 415.93C310.958 415.93 311.348 416.995 311.905 417.107C312.127 417.22 312.35 417.051 312.517 416.883C312.684 415.986 312.016 415.313 311.348 414.809C309.789 414.304 308.675 412.622 308.508 411.053C308.453 410.66 308.397 410.212 308.453 409.819C308.453 409.819 309.176 411.389 310.123 411.389C310.513 411.333 310.847 411.221 311.069 410.829C311.459 410.212 311.403 409.203 311.014 408.586C309.845 407.016 307.729 406.624 305.891 407.128C305.502 407.128 305.279 407.521 304.889 407.577C305.112 406.624 305.557 405.503 306.615 405.278C306.782 405.222 307.061 405.334 307.172 405.222C306.782 404.045 306.727 402.644 307.228 401.522C308.119 402.195 307.562 404.886 309.455 403.821C310.012 403.036 309.51 402.027 309.288 401.242C308.675 399.504 308.341 397.037 309.566 395.524C309.789 396.252 309.845 397.149 310.401 397.71C310.513 397.766 310.568 397.654 310.624 397.542C310.513 396.252 310.735 395.075 311.292 394.066C311.348 393.842 311.459 393.393 311.459 393.393C312.294 393.842 311.96 394.795 312.183 395.468C312.795 394.739 313.018 393.562 312.628 392.608C312.461 392.048 312.016 391.599 311.626 391.151C312.684 390.871 313.519 391.431 314.354 391.824C314.577 391.487 314.41 390.983 314.633 390.646C314.8 390.142 315.134 389.693 315.468 389.301C315.356 390.086 315.746 390.927 316.414 391.319C317.361 390.534 317.639 389.245 317.25 388.067C317.918 388.292 318.085 388.964 318.085 389.581L318.419 389.469C318.419 391.543 317.973 393.505 317.027 395.243C316.637 395.804 315.802 396.14 315.858 396.869C315.858 396.869 318.029 396.981 318.864 397.542C318.864 397.822 315.635 399.504 314.466 400.962C313.519 401.915 312.962 403.092 313.129 404.494C313.296 404.998 313.519 405.671 314.132 405.783C314.688 405.895 315.022 405.671 315.301 405.222C315.412 404.886 315.579 404.606 315.356 404.269C315.189 403.989 314.855 404.101 314.633 404.213C314.466 404.325 314.299 404.494 314.076 404.494C314.076 403.877 314.577 403.372 315.078 403.036C315.746 402.644 316.581 402.756 317.305 402.98C317.695 402.531 317.751 401.803 317.584 401.186L317.417 400.793C317.639 400.737 317.918 400.681 318.14 400.85C318.92 401.41 318.975 402.363 319.198 403.204C319.811 402.924 320.479 403.148 320.924 403.597C321.203 403.933 321.481 404.213 321.704 404.55C320.145 404.381 318.586 405.166 317.417 406.4C316.581 407.297 316.136 408.362 315.802 409.427C315.746 410.212 315.969 410.997 316.693 411.333C316.86 411.445 317.194 411.445 317.361 411.333C317.806 411.053 317.862 410.492 317.751 409.988C317.751 409.763 317.305 409.539 317.584 409.315C318.252 409.203 318.697 409.651 319.031 410.156C319.477 410.492 319.031 411.725 319.978 411.333C320.59 411.165 321.203 410.941 321.759 410.604C321.759 410.604 320.701 412.51 320.089 413.351C320.757 414.08 321.147 415.033 320.98 416.042C320.924 416.098 320.924 416.154 320.868 416.21C320.701 416.21 320.701 415.986 320.59 415.874C320.367 415.65 320.145 415.37 319.811 415.426C319.588 415.482 319.365 415.482 319.254 415.594C318.975 415.818 318.92 416.21 319.031 416.547C319.198 416.939 319.588 417.332 320.033 417.332C320.479 417.388 321.036 417.444 321.37 417.163C321.871 416.771 321.982 416.266 321.871 415.65C321.871 415.482 321.704 415.369 321.704 415.201C322.65 415.369 323.374 416.379 323.819 417.22C324.265 417.163 325.378 416.379 325.601 416.435C325.545 416.603 325.378 416.771 325.267 416.883C324.543 418.453 324.376 420.695 325.545 422.097C325.824 421.256 326.659 420.471 327.605 420.415C328.385 420.359 329.053 420.583 329.554 421.144V421.312C329.109 421.144 328.552 421.088 328.162 421.368C327.828 421.704 327.605 422.097 327.772 422.545C327.995 422.994 328.385 423.33 328.83 423.386C329.832 423.33 330.668 422.714 331.67 422.826C331.113 423.33 330.779 423.947 331.002 424.732C331.169 425.236 331.558 425.909 332.227 425.965C332.95 425.685 333.062 424.844 333.173 424.171C333.229 424.059 333.284 424.227 333.34 424.227C334.175 425.405 334.064 426.918 334.621 428.208C336.291 430.17 338.184 432.244 340.188 433.702C340.411 433.365 340.244 432.973 340.133 432.693C339.799 432.188 339.297 431.908 338.685 431.908C338.796 431.627 339.13 431.515 339.409 431.459H340.077C340.133 431.123 339.799 430.899 339.576 430.73C339.297 430.562 338.908 430.562 338.629 430.394C339.019 429.946 339.687 429.777 340.3 429.946C340.411 430.002 340.578 430.114 340.745 430.058C340.578 429.609 340.3 429.217 340.021 428.824C339.576 428.208 339.13 427.591 338.518 427.142C338.295 427.199 338.128 427.367 338.073 427.591C337.961 427.871 338.295 428.039 338.128 428.208C337.906 428.264 337.739 428.039 337.683 427.871L337.516 427.311C335.79 427.142 334.843 425.405 333.785 424.171C333.34 423.498 332.95 422.77 333.229 421.929C333.396 421.368 333.953 420.976 334.454 420.807C336.18 420.527 337.349 422.489 338.295 423.667C338.685 424.339 339.186 425.012 339.019 425.853C339.353 425.909 339.687 426.021 339.854 426.358C339.799 426.47 339.91 426.47 339.91 426.582C339.687 426.582 339.353 426.414 339.075 426.694C339.632 427.367 340.3 428.152 340.912 428.712C340.968 427.591 341.135 426.526 341.079 425.348C340.856 425.236 340.634 425.517 340.522 425.685C340.467 425.741 340.522 425.853 340.411 425.853C340.133 425.853 340.188 425.573 340.077 425.405C340.021 425.068 340.244 424.788 340.3 424.451C339.242 423.106 339.019 421.144 339.743 419.574C340.133 418.901 340.801 418.453 341.58 418.453C342.304 418.453 342.972 418.901 343.418 419.574C344.086 421.144 343.919 423.162 342.861 424.451C342.916 424.788 343.139 425.012 343.083 425.405C342.972 425.573 343.028 425.853 342.749 425.853C342.582 425.853 342.694 425.685 342.638 425.685C342.527 425.517 342.304 425.236 342.081 425.348C342.026 426.526 342.193 427.591 342.248 428.712C342.861 428.152 343.585 427.423 344.086 426.694C343.863 426.414 343.529 426.582 343.251 426.582C343.195 426.47 343.306 426.47 343.306 426.358C343.473 426.021 343.807 425.909 344.141 425.853C343.974 424.956 344.475 424.283 344.865 423.667C345.812 422.489 346.925 420.527 348.707 420.807C349.208 420.976 349.765 421.368 349.932 421.929C350.21 422.77 349.82 423.498 349.375 424.171C348.373 425.405 347.371 427.142 345.645 427.311L345.478 427.871C345.422 428.039 345.255 428.264 345.032 428.208C344.865 428.039 345.199 427.871 345.088 427.591C344.976 427.423 344.865 427.199 344.642 427.142C344.03 427.647 343.585 428.264 343.139 428.824C342.861 429.217 342.582 429.609 342.415 430.058C342.582 430.114 342.749 430.002 342.861 429.946C343.473 429.777 344.141 429.946 344.531 430.394C344.253 430.562 343.863 430.506 343.585 430.73C343.362 430.899 343.028 431.179 343.083 431.459H343.752C344.03 431.515 344.42 431.627 344.475 431.908C343.863 431.908 343.362 432.188 343.028 432.693C342.916 433.029 342.694 433.421 342.972 433.702C345.311 432.188 347.204 430.002 348.874 428.039ZM327.661 414.697C325.991 414.416 324.432 412.959 324.098 411.389L323.986 410.268V395.243H341.914V416.21C341.19 415.145 339.687 414.529 338.295 414.697H327.661ZM359.731 378.537V394.907H341.914V375.566H360.566C359.842 376.407 359.731 377.416 359.731 378.537ZM341.914 417.444C341.413 416.435 340.3 415.538 339.186 415.426H328.663C327.438 415.426 326.492 415.313 325.378 414.529C323.708 413.351 323.096 411.613 323.207 409.707V377.416C323.096 376.575 322.483 375.398 321.37 375.005C321.147 374.949 320.813 374.837 320.813 374.837H363.016C363.016 374.837 362.626 374.893 362.459 375.005C361.345 375.398 360.733 376.519 360.622 377.416V409.707C360.677 411.613 360.121 413.351 358.45 414.529C357.337 415.257 356.39 415.426 355.165 415.426H344.642C343.529 415.538 342.415 416.435 341.914 417.444ZM347.482 389.637C347.872 388.236 348.317 386.946 348.595 385.489C347.538 384.648 345.422 382.966 345.422 382.966H349.431C349.987 381.676 350.377 380.219 350.934 378.985C351.491 380.219 351.936 381.676 352.493 382.966H356.502C356.502 382.966 354.386 384.648 353.328 385.489C353.606 386.946 354.107 388.236 354.442 389.637L350.934 387.17L347.482 389.637ZM329.387 409.595C329.777 408.194 330.222 406.904 330.501 405.447C329.443 404.606 327.327 402.924 327.327 402.924H331.336C331.892 401.634 332.282 400.177 332.839 398.943C333.396 400.177 333.841 401.634 334.398 402.924H338.407C338.407 402.924 336.291 404.606 335.233 405.447C335.511 406.904 336.013 408.194 336.347 409.595L332.839 407.128L329.387 409.595ZM356.613 402.587C356.78 402.531 356.947 402.756 357.003 402.924C357.281 403.821 357.726 404.606 357.838 405.559C357.782 405.615 357.726 405.559 357.671 405.615C357.058 404.83 357.003 403.765 356.502 402.924C356.613 402.812 356.446 402.644 356.613 402.587ZM356.223 399.896C356.891 400.121 356.891 400.962 357.17 401.522C357.225 401.747 357.058 401.915 356.891 402.027C356.724 402.083 356.669 401.971 356.557 401.859C356.446 401.242 355.945 400.681 356 400.065L356.223 399.896ZM355.778 402.531C356.168 402.7 356.279 403.204 356.446 403.54C356.669 404.101 356.891 404.662 356.891 405.278C356.836 405.391 356.724 405.391 356.669 405.334C356.223 404.606 356 403.709 355.611 402.924C355.666 402.812 355.666 402.587 355.778 402.531ZM355.221 400.289C355.778 400.345 355.722 401.018 356 401.354C356.056 401.578 356.112 401.971 355.889 402.083C355.833 402.139 355.666 402.083 355.555 402.139C355.277 401.69 355.221 401.13 354.998 400.625C354.998 400.457 355.054 400.345 355.221 400.289ZM354.998 402.812C355.221 402.98 355.332 403.26 355.444 403.54C355.555 403.989 355.722 404.381 355.778 404.774C355.499 404.83 355.499 404.437 355.332 404.269C355.277 403.765 354.831 403.316 354.998 402.812ZM354.386 402.924C354.664 403.26 354.831 403.765 354.831 404.213C354.776 404.325 354.664 404.213 354.609 404.157C354.497 403.765 354.33 403.428 354.274 403.036L354.386 402.924ZM354.442 407.409C354.887 407.745 354.998 408.306 355.332 408.698L355.277 409.035C354.887 409.203 354.72 408.698 354.609 408.474C354.497 408.138 354.052 407.689 354.442 407.409ZM354.163 400.625C354.831 400.625 354.72 401.41 354.998 401.803C355.054 401.971 354.998 402.251 354.776 402.251C353.94 402.475 354.219 401.41 353.885 401.074C353.773 400.906 353.94 400.681 354.163 400.625ZM353.662 402.98C353.885 402.868 353.996 403.148 354.052 403.316C354.107 403.597 354.219 403.877 354.107 404.157H354.052C353.829 403.765 353.662 403.428 353.662 402.98ZM353.606 407.353C353.718 407.353 353.829 407.465 353.829 407.521C353.829 407.857 354.219 408.25 353.885 408.53C353.606 408.25 353.495 407.801 353.606 407.353ZM353.885 396.084C354.497 395.804 355.388 395.86 355.889 396.421C356.557 397.542 357.003 398.775 357.615 399.953C357.893 400.737 358.228 401.634 358.005 402.475C357.726 402.98 358.172 403.428 358.339 403.821C358.562 404.55 358.84 405.278 358.896 406.119C358.339 405.11 357.893 404.101 357.559 402.98C357.392 402.475 358.061 402.307 357.838 401.803C357.559 400.962 357.337 400.121 356.613 399.56C356 399.28 355.722 400.065 355.054 399.896C354.664 400.457 353.885 400.065 353.439 400.569C353.384 400.289 353.439 400.009 353.495 399.728C353.439 398.663 352.938 397.486 353.439 396.421L353.885 396.084ZM352.938 402.868C353.272 402.812 353.272 403.204 353.384 403.428C353.384 403.709 353.551 403.989 353.384 404.213C353.105 404.381 353.161 403.933 353.05 403.821C353.05 403.484 352.771 403.204 352.938 402.868ZM352.938 400.962C353.217 400.793 353.384 401.074 353.495 401.298C353.495 401.747 354.052 402.363 353.439 402.644C352.66 402.644 352.994 401.747 352.771 401.298C352.771 401.074 352.827 400.962 352.938 400.962ZM352.883 407.409C353.105 407.409 353.105 407.689 353.161 407.857V408.194C352.938 408.25 352.883 408.025 352.827 407.857C352.771 407.689 352.771 407.521 352.883 407.409ZM352.326 405.278C352.716 404.942 353.272 404.886 353.773 404.942C354.107 405.054 354.33 405.447 354.553 405.727L356.724 409.483C356.947 409.763 357.281 409.707 357.559 409.932C357.337 409.988 357.058 410.324 357.003 410.66C356.78 410.324 356.446 410.044 356.056 410.1C356.279 409.988 356.335 409.651 356.223 409.371L354.107 406.231C353.662 405.895 353.272 405.334 352.716 405.671C352.604 405.727 352.549 405.839 352.604 405.951C352.771 406.175 353.05 405.895 353.217 406.007C353.606 406.119 353.829 406.568 353.885 406.96C353.606 406.848 353.328 406.792 353.105 407.016C352.771 406.904 352.381 407.241 352.27 406.848C352.214 406.344 351.992 405.727 352.326 405.278ZM350.154 398.439C350.321 398.439 350.433 398.495 350.488 398.551C350.488 398.607 350.377 398.719 350.321 398.719C350.21 398.663 349.987 398.775 349.932 398.663C349.932 398.607 350.043 398.439 350.154 398.439ZM349.653 396.309C349.82 396.365 349.987 396.589 350.21 396.477C350.544 396.309 350.266 395.636 350.767 395.804C350.934 396.028 350.823 396.421 351.212 396.477C351.435 396.477 351.769 396.028 351.88 396.421C351.88 396.701 351.769 396.869 351.546 397.093C350.934 397.037 350.266 397.037 349.709 397.093C349.653 396.813 349.431 396.477 349.653 396.309ZM349.876 398.046C350.21 397.934 350.6 398.103 350.878 397.878C351.212 397.99 351.546 398.103 351.825 398.046C351.769 398.383 351.268 398.271 351.157 398.607V399.56C351.045 399.56 350.934 399.448 350.823 399.504C350.711 399.56 350.767 399.672 350.656 399.728C350.488 399.672 350.321 399.392 350.099 399.56C350.043 399.616 349.987 399.672 349.932 399.616C349.876 399.448 350.043 399.224 349.932 398.999C349.709 398.663 349.319 398.663 348.985 398.663C349.319 398.719 349.653 398.439 349.876 398.046ZM348.54 402.924C348.707 403.316 348.54 403.765 348.428 404.101L348.261 404.045C348.261 403.709 348.15 403.148 348.54 402.924ZM348.93 409.259C349.486 408.025 350.823 406.736 349.987 405.222C349.041 404.157 348.985 402.307 349.431 400.962C349.653 400.625 349.765 399.953 350.377 400.065C350.544 400.177 350.656 400.457 350.823 400.233C350.878 400.065 351.045 400.009 351.212 400.065C351.324 400.177 351.379 400.401 351.546 400.401C351.602 400.289 351.713 400.345 351.769 400.345C352.493 401.186 352.381 402.419 352.326 403.597C352.214 404.325 351.992 405.054 351.602 405.671C351.324 406.568 351.88 407.241 352.214 407.969L353.662 410.38V410.548C352.994 410.604 352.716 409.819 352.214 409.427C352.103 409.315 351.936 409.483 351.88 409.595C352.159 410.436 352.938 411.053 353.384 411.782C352.938 411.782 352.493 411.277 352.159 410.885C351.825 410.548 351.88 409.875 351.324 409.763L351.212 409.875C351.324 410.548 351.379 411.501 351.157 412.118C350.934 412.286 350.767 412.006 350.711 411.782C350.6 411.109 350.6 410.38 350.6 409.707C350.544 409.595 350.433 409.651 350.321 409.651C349.876 410.548 349.542 411.838 348.484 412.062C348.93 411.277 349.486 410.604 349.82 409.763C349.82 409.651 349.82 409.427 349.653 409.427C349.264 409.595 349.208 410.1 348.818 410.324C348.595 410.436 348.428 410.66 348.15 410.66C348.317 410.156 348.763 409.763 348.93 409.259ZM348.595 407.577C348.707 407.857 348.54 408.081 348.428 408.306C348.373 408.362 348.261 408.418 348.15 408.362C348.261 408.081 348.261 407.633 348.595 407.577ZM348.651 400.85C348.818 401.074 348.763 401.466 348.707 401.747C348.595 402.027 348.651 402.307 348.373 402.475C348.206 402.475 347.983 402.475 347.927 402.307C348.094 402.027 347.816 401.578 348.039 401.41C348.15 401.186 348.15 400.569 348.651 400.85ZM347.649 402.868C348.039 402.868 347.76 403.26 347.816 403.484C347.705 403.765 347.76 404.101 347.482 404.325L347.315 404.269C347.371 403.765 347.204 403.148 347.649 402.868ZM347.649 407.633C347.872 407.857 347.593 408.194 347.482 408.474C347.426 408.586 347.315 408.754 347.148 408.81H346.981C347.037 408.362 347.315 407.913 347.649 407.633ZM346.981 400.625C347.204 400.569 347.426 400.569 347.593 400.737C347.649 401.298 347.426 401.803 347.315 402.307C347.148 402.419 346.925 402.475 346.758 402.363C346.647 401.971 346.814 401.578 346.814 401.186L346.981 400.625ZM346.535 402.868C346.647 402.812 346.814 402.868 346.869 403.036C346.758 403.709 346.702 404.381 346.313 404.886C346.257 404.942 346.201 404.942 346.146 404.942C345.867 404.269 346.368 403.653 346.424 403.036L346.535 402.868ZM346.869 407.689C346.814 408.25 346.424 408.866 345.923 409.259H345.756C345.979 408.642 346.313 408.025 346.869 407.689ZM346.09 400.121C346.257 400.065 346.48 400.121 346.535 400.289C346.48 400.962 346.424 401.747 346.09 402.363C345.923 402.419 345.645 402.419 345.645 402.251C345.645 401.522 345.867 400.85 346.09 400.121ZM345.311 403.092C345.422 402.924 345.645 402.924 345.756 402.98C345.7 403.765 345.366 404.494 345.199 405.278C345.088 405.334 345.032 405.391 344.921 405.334C344.809 405.166 344.865 404.942 344.865 404.774L345.311 403.092ZM344.865 400.177C345.032 400.065 345.144 399.896 345.366 400.009C345.478 400.177 345.422 400.401 345.422 400.569L344.921 402.251C344.809 402.307 344.587 402.419 344.475 402.307C344.308 402.027 344.475 401.69 344.475 401.41L344.865 400.177ZM344.42 403.092C344.475 402.98 344.587 403.036 344.698 403.036C344.865 403.204 344.698 403.484 344.642 403.709C344.475 404.494 344.42 405.278 343.974 405.895C343.919 405.895 343.807 405.895 343.807 405.839C343.752 404.83 344.141 403.989 344.42 403.092ZM344.03 410.38C345.199 408.754 346.313 407.072 347.426 405.447C347.816 405.054 348.317 404.774 348.874 404.998C349.152 405.054 349.431 405.278 349.542 405.559C349.932 406.568 349.375 407.409 348.985 408.25C349.041 408.025 349.041 407.801 349.041 407.577C348.93 407.297 348.651 407.241 348.428 407.353C348.261 407.409 347.983 407.184 347.76 407.297C347.649 407.353 347.482 407.465 347.315 407.353C347.315 406.848 347.76 406.512 348.15 406.288C348.428 406.231 348.818 405.951 349.041 406.288C349.097 406.288 349.097 406.231 349.152 406.231C349.152 406.063 348.985 405.895 348.874 405.783C347.983 405.615 347.315 406.344 346.702 407.016L344.531 410.212C344.42 410.66 344.976 410.548 345.088 410.772C344.642 410.66 344.086 410.716 343.807 411.165C343.696 410.941 343.585 410.548 343.251 410.548C343.529 410.324 343.807 410.436 344.03 410.38ZM343.418 403.148C342.749 402.475 343.195 401.354 343.473 400.625C344.086 399.28 344.754 397.934 345.311 396.589C345.756 396.084 346.535 396.084 347.148 396.252C347.705 396.477 347.927 396.981 347.983 397.598C348.15 398.551 347.426 399.28 347.705 400.233C347.426 400.177 346.925 400.233 346.758 399.784C346.424 399.56 345.923 399.728 345.589 399.448C344.03 399.504 344.03 401.242 343.585 402.251C343.473 402.419 343.529 402.7 343.529 402.868C344.086 403.036 343.585 403.653 343.696 404.045C343.362 404.83 343.306 405.727 342.861 406.512C342.694 406.568 342.861 406.4 342.749 406.344C342.805 405.222 343.195 404.213 343.418 403.148ZM336.402 383.078C336.514 383.022 336.569 382.742 336.736 382.91C336.848 383.022 336.903 383.246 337.07 383.246C337.46 383.302 337.739 382.742 338.073 383.19C338.184 383.246 338.351 383.19 338.407 383.302C337.739 382.966 337.237 383.919 336.681 383.246C336.402 383.358 336.068 383.639 335.734 383.414C335.901 383.19 336.235 383.246 336.402 383.078ZM335.511 379.714C335.567 379.434 335.289 379.266 335.456 379.042C335.623 378.985 335.678 379.21 335.79 379.378C335.79 379.602 335.79 379.826 335.623 379.995C335.4 380.051 335.177 380.443 334.955 380.163C335.177 379.939 335.4 379.995 335.511 379.714ZM334.565 380.107C334.676 380.051 334.732 380.163 334.788 380.163C334.621 380.331 334.732 380.667 334.509 380.723C334.398 380.555 334.398 380.219 334.565 380.107ZM333.451 383.863C333.507 383.246 334.287 383.526 334.621 383.19C335.01 382.742 334.454 382.013 334.955 381.564C335.01 381.34 334.899 381.116 334.899 380.892C335.066 380.836 335.289 380.836 335.344 381.06C335.344 381.508 335.01 381.901 335.177 382.405C335.177 382.573 335.233 382.966 335.01 383.078C334.676 383.751 333.618 383.246 333.618 384.143C333.507 384.367 333.229 384.255 333.062 384.199C333.284 384.311 333.396 384.031 333.451 383.863ZM328.162 380.948C328.496 380.892 328.329 381.34 328.496 381.508C328.608 381.676 328.83 381.789 328.997 381.845C329.554 382.125 329.888 381.116 330.334 381.789C330.612 381.901 330.89 381.676 330.946 381.452C331.002 380.779 331.948 381.508 332.115 380.723C332.338 380.443 331.948 379.882 332.449 379.77C332.616 379.602 332.672 379.322 332.505 379.154C332.449 379.154 332.449 379.098 332.449 379.042C332.672 378.929 332.839 379.21 332.895 379.378C332.95 379.939 332.338 380.163 332.561 380.723C332.449 381.06 332.115 381.34 331.725 381.396C331.057 381.172 331.336 382.125 330.723 382.069C330.334 382.181 330.166 381.508 329.777 381.901C329.554 382.293 329.053 382.181 328.719 382.125C328.385 382.013 328.162 381.676 328.106 381.396C328.051 381.172 328.106 381.004 328.162 380.948ZM325.824 382.349C325.712 381.957 325.991 381.676 326.269 381.508C326.492 381.452 326.77 381.508 326.993 381.34C326.882 380.892 326.77 380.275 327.271 379.939C327.438 379.882 327.605 379.995 327.717 379.882C327.605 379.546 327.717 379.21 327.884 378.985C328.218 378.761 328.886 378.761 328.83 378.145C328.942 377.976 329.109 377.864 329.331 377.808C329.777 377.696 330.278 378.313 330.334 377.528C330.89 376.743 331.892 377.472 332.728 377.192C333.229 377.36 333.229 377.92 333.563 378.257C333.953 377.864 334.454 377.584 335.01 377.752C335.344 377.864 335.734 377.976 335.846 378.369C335.901 378.481 335.846 378.593 336.013 378.705C336.291 378.593 336.514 378.313 336.848 378.481C337.349 378.705 337.404 379.21 337.404 379.658C337.683 379.714 337.961 379.546 338.184 379.826C338.351 380.051 337.85 380.443 338.351 380.499C338.518 380.555 338.518 380.779 338.462 380.892C338.629 381.06 338.963 381.06 338.963 381.34C339.186 381.845 338.574 382.237 338.963 382.686C339.019 382.854 338.796 383.078 339.019 383.19C339.242 383.134 339.409 383.302 339.576 383.358C339.743 383.583 339.743 383.919 339.687 384.143C339.799 384.76 338.518 384.648 339.186 385.264C339.242 385.545 339.019 385.825 338.741 385.937C338.574 386.049 338.407 385.769 338.295 385.937C338.295 386.442 338.073 386.89 337.627 387.058C337.293 387.114 336.848 387.227 336.569 387.058L336.068 386.498C335.678 386.89 335.177 387.002 334.732 386.89C333.841 386.554 334.676 385.377 333.897 384.984C333.173 384.816 332.616 385.545 332.227 386.049L332.06 385.993C331.447 385.208 331.224 384.311 330.779 383.47C330.668 383.47 330.556 383.47 330.556 383.583C330.668 384.648 331.336 385.489 331.892 386.33C332.004 386.442 332.115 386.666 332.338 386.498C332.728 386.049 333.006 385.545 333.618 385.433C333.841 385.769 333.841 386.217 333.785 386.554C332.783 387.507 333.284 389.133 333.229 390.478C333.396 391.88 333.284 393.393 334.064 394.515C333.563 394.795 332.95 394.571 332.505 394.29C332.059 394.234 331.781 394.683 331.336 394.627C331.169 394.515 330.946 394.683 330.89 394.515C332.059 393.505 331.614 391.768 331.725 390.422C331.336 389.021 332.115 387.17 330.779 386.161C330.445 385.489 330.055 384.76 329.888 384.031C329.832 383.919 329.721 383.919 329.554 383.919C329.331 384.143 329.387 384.592 329.053 384.76C328.496 385.096 328.162 384.087 327.717 384.704C327.494 384.704 327.271 384.592 327.16 384.367C327.104 384.311 327.104 384.199 327.049 384.199C326.937 384.143 326.937 384.255 326.882 384.311C326.826 384.648 327.049 384.928 327.327 385.096C327.55 385.152 327.772 385.152 327.995 385.04C328.162 384.592 328.441 385.04 328.663 384.984L329.61 384.928C329.944 385.769 330.334 386.61 330.89 387.339C330.946 387.563 330.89 387.787 330.668 387.787C330.222 387.339 330.222 388.124 329.832 388.124C329.554 388.18 329.387 388.067 329.164 387.955L328.719 387.451C328.441 387.507 328.051 387.563 327.939 387.283C327.884 387.17 327.884 387.002 327.884 386.834C327.605 386.834 327.271 386.89 327.049 386.722C326.659 386.498 327.104 385.657 326.38 385.769C325.991 385.601 325.712 385.208 325.712 384.76C325.768 384.423 325.879 383.919 325.378 383.807C325.156 383.302 325.323 382.629 325.824 382.349Z" fill="#9F5B49"/>
</svg>
