<svg width="653" height="470" viewBox="0 0 653 470" fill="none" xmlns="http://www.w3.org/2000/svg">
<path d="M651.44 1H1.43994V174.2H651.44V1Z" fill="white"/>
<path fill-rule="evenodd" clip-rule="evenodd" d="M0.439941 0H652.44V175.2H0.439941V0ZM2.43994 2V173.2H650.44V2H2.43994Z" fill="#151515"/>
<path d="M651.44 174.2H1.43994V348.2H651.44V174.2Z" fill="white" stroke="#151515" stroke-width="2" stroke-miterlimit="10"/>
<path d="M274.25 348.2H1.43994V408.2H274.25V348.2Z" fill="white" stroke="#151515" stroke-width="2" stroke-miterlimit="10"/>
<path d="M651.44 348.2H274.25V468.2H651.44V348.2Z" fill="white" stroke="#151515" stroke-width="2" stroke-miterlimit="10"/>
<path d="M198.14 37.9305C218.32 37.9305 226.84 51.6405 228.07 64.4605L228.39 67.8405H250.89L250.66 63.8905C249.01 35.7305 227.42 16.0605 198.13 16.0605C168.84 16.0605 145.59 37.4406 145.59 66.9106V108.421C145.59 137.891 167.68 159.271 198.15 159.271C228.25 159.071 250.1 137.691 250.1 108.421V80.5705H187.47V101.321H227.67V107.491C227.67 121.181 219.93 137.231 198.13 137.401C175.91 137.401 168.03 121.281 168.03 107.491V67.8505C168.03 47.1905 183.15 37.9405 198.13 37.9405L198.14 37.9305Z" fill="#151515"/>
<path d="M274.07 38.2299H315.5V137.08H274.07V159.14H379.37V137.08H338.12V38.2299H379.37V16.1699H274.07V38.2299V38.2299Z" fill="#151515"/>
<path d="M402.54 159.14H425.16V96.8999H503.91V74.8699H425.16V38.2299H507.84V16.1699H402.55V159.14H402.54Z" fill="#151515"/>
<path d="M531 38.2299H572.34V159.14H594.96V38.2299H636.44V16.1699H531.01V38.2299H531Z" fill="#151515"/>
<path d="M596.07 260.62L636.43 190.12H613.29L583.78 241.82L554.07 190.12H531.12L571.48 260.61L531.12 333.08H554.3L583.46 279.19L613.1 333.08H636.42L596.06 260.62H596.07Z" fill="#151515"/>
<path d="M17.3199 212.09H58.7499V310.94H17.3199V333H122.62V310.94H81.38V212.09H122.62V190.03H17.3199V212.09Z" fill="#151515"/>
<path d="M229.02 290.65L166.54 190.031H145.78V333.001H167.84V232.48L229.56 333.001H251.07V190.021H229.01V290.641L229.02 290.65Z" fill="#151515"/>
<path d="M325.21 190.02H274.25V332.98H325.21C340.85 332.98 354.33 328.25 364.18 319.32C374.2 310.22 379.5 297.65 379.5 282.94V241.98C379.5 211.86 356.67 190.01 325.21 190.01V190.02ZM325.21 311.35H297.63V211.85H325.21C346.7 211.85 356.32 227.47 356.32 242.95V281.98C356.32 303.63 340.25 311.35 325.21 311.35Z" fill="#151515"/>
<path d="M425.29 270.08H499.73V248.951H425.29V211.331H507.96V190.021H402.67V332.99H507.96V311.86H425.29V270.08V270.08Z" fill="#151515"/>
<path fill-rule="evenodd" clip-rule="evenodd" d="M8.21997 8.11035H29.24V13.1104H13.22V29.1204H8.21997V8.11035Z" fill="#020203"/>
<path fill-rule="evenodd" clip-rule="evenodd" d="M110.12 13.1104H94.1V8.11035H115.12V29.1204H110.12V13.1104Z" fill="#020203"/>
<path fill-rule="evenodd" clip-rule="evenodd" d="M110.12 162.09V146.07H115.12V167.09H94.1V162.09H110.12Z" fill="#020203"/>
<path fill-rule="evenodd" clip-rule="evenodd" d="M13.22 162.09V146.08H8.21997V167.09H29.24V162.09H13.22Z" fill="#020203"/>
<path d="M18.7899 390.17V366.17H27.2199C29.7199 366.17 31.5899 366.7 32.8299 367.75C34.0699 368.8 34.6899 370.38 34.6899 372.5V375.44C34.6899 377.56 34.0699 379.15 32.8099 380.2C31.5499 381.25 29.6899 381.77 27.1899 381.77H21.7899V390.17H18.7899V390.17ZM21.7899 379.13H27.1899C28.8099 379.13 29.9599 378.84 30.6599 378.27C31.3499 377.7 31.6899 376.73 31.6899 375.38V372.62C31.6899 371.26 31.3499 370.29 30.6599 369.72C29.9699 369.15 28.8099 368.87 27.1899 368.87H21.7899V379.13Z" fill="#151515"/>
<path d="M41.6799 390.17H38.6799V366.17H47.7099C50.2099 366.17 52.0799 366.7 53.3199 367.75C54.5599 368.8 55.1799 370.38 55.1799 372.5V374.36C55.1799 376.28 54.6899 377.78 53.7199 378.86C52.7499 379.94 51.2799 380.58 49.2999 380.78L55.4499 390.17H52.0299L45.9399 380.87H41.6799V390.17ZM41.6799 378.23H47.6799C49.2999 378.23 50.4499 377.94 51.1399 377.35C51.8299 376.76 52.1799 375.76 52.1799 374.37V372.51C52.1799 371.19 51.8299 370.26 51.1399 369.71C50.4499 369.16 49.2999 368.89 47.6799 368.89H41.6799V378.25V378.23Z" fill="#151515"/>
<path d="M59.0299 390.17V366.17H74.6299V368.87H62.0299V375.77H73.1299V378.47H62.0299V387.47H74.6299V390.17H59.0299V390.17Z" fill="#151515"/>
<path d="M87.0999 390.35C85.2999 390.35 83.6199 390.06 82.0599 389.48C80.4999 388.9 79.0999 387.84 77.8599 386.3L80.0199 384.26C80.8599 385.4 81.8599 386.25 83.0399 386.81C84.2099 387.37 85.5899 387.65 87.1899 387.65C88.6699 387.65 89.8599 387.3 90.7699 386.61C91.6799 385.92 92.1399 384.99 92.1399 383.81C92.1399 382.63 91.7499 381.79 90.9699 381.19C90.1899 380.58 88.6499 379.93 86.3499 379.25C83.4299 378.41 81.4399 377.5 80.3799 376.52C79.3199 375.54 78.7899 374.15 78.7899 372.35C78.7899 370.27 79.4799 368.7 80.8699 367.64C82.2599 366.58 83.9499 366.05 85.9299 366.05C87.6099 366.05 89.1999 366.34 90.7099 366.93C92.2199 367.52 93.5499 368.56 94.7099 370.06L92.6399 372.13C91.8399 370.99 90.8399 370.14 89.6399 369.58C88.4399 369.02 87.2199 368.74 85.9799 368.74C84.7399 368.74 83.7099 369 82.9499 369.51C82.1899 370.02 81.8099 370.88 81.8099 372.07C81.8099 373.13 82.2299 373.96 83.0599 374.58C83.8899 375.19 85.5199 375.84 87.9599 376.54C90.7199 377.34 92.6099 378.22 93.6199 379.16C94.6299 380.11 95.1399 381.48 95.1399 383.28C95.1399 385.58 94.3199 387.33 92.6799 388.53C91.0399 389.73 89.1799 390.33 87.0999 390.33V390.35Z" fill="#151515"/>
<path d="M99.1199 390.17V366.17H114.72V368.87H102.12V375.77H113.22V378.47H102.12V387.47H114.72V390.17H99.1199V390.17Z" fill="#151515"/>
<path d="M129.57 390.17L121.56 369.95V390.17H118.86V366.17H122.97L131.16 386.84V366.17H133.86V390.17H129.57V390.17Z" fill="#151515"/>
<path d="M145.05 390.17V368.87H137.55V366.17H155.55V368.87H148.05V390.17H145.05Z" fill="#151515"/>
<path d="M159.25 390.17V366.17H174.85V368.87H162.25V375.77H173.35V378.47H162.25V387.47H174.85V390.17H159.25V390.17Z" fill="#151515"/>
<path d="M178.99 390.17V366.17H185.62C188.42 366.17 190.62 366.96 192.2 368.55C193.79 370.14 194.59 372.26 194.59 374.9V381.56C194.59 384.18 193.79 386.27 192.19 387.83C190.59 389.39 188.39 390.17 185.59 390.17H178.99ZM181.99 387.47H185.59C187.61 387.47 189.11 386.93 190.11 385.84C191.1 384.75 191.59 383.32 191.59 381.56V374.9C191.59 373.16 191.09 371.72 190.11 370.58C189.12 369.44 187.61 368.87 185.59 368.87H181.99V387.47V387.47Z" fill="#151515"/>
<path d="M219.67 390.17V366.17H227.11C229.61 366.17 231.45 366.63 232.65 367.55C233.84 368.47 234.43 369.89 234.43 371.81V373.16C234.43 374.18 234.14 375.04 233.56 375.72C232.98 376.41 232.18 376.84 231.16 377.03V377.9C232.46 378.02 233.49 378.51 234.25 379.37C235.01 380.23 235.39 381.34 235.39 382.7V384.05C235.39 386.13 234.73 387.67 233.41 388.67C232.09 389.67 230.06 390.17 227.32 390.17H219.67V390.17ZM222.67 376.37H227.41C228.83 376.37 229.86 376.1 230.51 375.58C231.16 375.05 231.48 374.2 231.48 373.04V372.2C231.48 371.04 231.15 370.19 230.51 369.66C229.86 369.13 228.82 368.87 227.41 368.87H222.67V376.37V376.37ZM222.67 387.47H228.01C229.53 387.47 230.64 387.18 231.34 386.59C232.04 386 232.39 385.05 232.39 383.72V382.76C232.39 381.44 232.04 380.49 231.34 379.89C230.64 379.3 229.53 379.01 228.01 379.01H222.67V387.47Z" fill="#151515"/>
<path d="M248.35 390.17H245.35V381.17L236.77 366.17H240.13L247.03 378.47L253.6 366.17H256.9L248.35 381.17V390.17V390.17Z" fill="#151515"/>
<path d="M50.8851 89.1124H59.0516V65.2857C59.0516 56.4328 53.7035 52.4366 45.8945 52.4366C43.2176 52.4366 40.8999 52.9537 39.0259 53.9612C35.0502 56.2045 34.197 60.941 34.197 60.941H33.7708V60.0289H33.7582V45.583H25.5917V89.1124H33.7582V68.1465C33.7582 63.796 37.6259 60.0745 42.1684 60.0745C47.5784 60.0745 50.8851 62.5893 50.8851 67.041V89.1124V89.1124ZM51.2099 119.731C51.2099 119.719 51.2099 119.706 51.2099 119.694V119.731ZM51.2099 114.738C51.2099 118.431 48.538 122.83 42.7194 122.83C42.6792 122.83 42.639 122.829 42.5988 122.829V122.83C42.5988 122.83 32.5701 123.766 32.5701 111.781V110.501C32.5701 100.28 39.8616 99.4559 42.0093 99.4352C42.2438 99.4244 42.4799 99.4169 42.7194 99.4169C48.538 99.4169 51.2099 104.037 51.2099 107.68V114.738V114.738ZM51.2099 129.47H59.3765V92.9401H51.2099V101.192H50.7837C50.7837 101.192 50.0561 97.1603 46.8206 94.7742C46.3986 94.4672 45.9347 94.1875 45.4231 93.9509C43.7652 93.1841 41.7472 92.7359 39.741 92.6878C31.7243 92.4927 26.8812 96.7329 25.0575 103.577C24.5635 105.43 24.1699 107.599 24.1699 110.211V112.069C24.1699 115.021 24.6489 117.411 25.2861 119.399C27.3501 125.843 32.3616 129.559 39.5191 129.559C42.2614 129.559 44.2249 129.015 45.9146 128.095C48.2918 126.771 49.5621 124.557 50.2018 122.971C50.427 122.412 50.5744 121.932 50.6648 121.597C50.669 121.58 50.6741 121.563 50.6782 121.547C50.6799 121.542 50.6808 121.538 50.6816 121.533C50.7544 121.253 50.7846 121.09 50.7846 121.09H51.2108V129.469L51.2099 129.47ZM70.9869 106.803C70.9869 100.736 76.3216 99.4816 80.1449 99.4816C83.9681 99.4816 89.3028 100.699 89.3028 106.803H70.9878H70.9869ZM62.8732 109.993C62.8732 109.993 62.8497 111.693 62.8765 112.263C63.3772 122.838 67.9977 129.559 80.9286 129.617C91.3911 129.665 95.5769 123.995 96.7961 118.947C96.8513 118.719 97.0255 118.037 97.0255 118.037L89.2333 116.92C89.2333 116.92 89.1998 117.124 89.1872 117.185C88.3206 121.279 85.4887 122.96 80.4329 123.044C73.684 123.158 70.9149 120.597 70.9149 113.884H97.723C97.723 113.884 97.7975 109.219 97.5689 107.279C96.7358 100.197 91.443 92.6886 80.4697 92.6886C69.4965 92.6886 62.874 99.4708 62.874 109.994M90.7698 71.6223C90.7698 81.843 83.4774 82.6671 81.3305 82.6879C81.0961 82.6986 80.8599 82.7061 80.6205 82.7061C74.8018 82.7061 72.1299 78.3058 72.1299 74.6632V67.6046C72.1299 63.9113 74.8018 59.2911 80.6205 59.2911C80.6607 59.2911 80.7008 59.2927 80.741 59.2936V59.2911C80.741 59.2911 90.7698 58.3549 90.7698 70.34V71.6206V71.6223ZM72.1299 62.3917C72.1299 62.4042 72.1299 62.4158 72.1299 62.4291V62.3917ZM99.1699 71.9111V70.0529C99.1699 67.1016 98.691 64.7114 98.0538 62.7229C95.9897 56.2792 90.9783 52.5636 83.8208 52.5636C81.0785 52.5636 79.1149 53.1072 77.4252 54.0276C75.048 55.3514 73.7778 57.5656 73.138 59.15C72.9128 59.7094 72.7654 60.1899 72.675 60.5244C72.6708 60.541 72.6658 60.5584 72.6616 60.5742C72.6599 60.5791 72.6591 60.5833 72.6583 60.5883C72.5854 60.868 72.5553 61.0315 72.5553 61.0315H72.1291V45.7258H63.9625V89.1829H72.1291V80.9309H72.5553C72.5553 80.9309 73.2829 84.9627 76.5184 87.3488C76.9404 87.6559 77.4034 87.9355 77.9159 88.1721C79.5738 88.9389 81.5918 89.3871 83.598 89.4352C91.6147 89.6303 96.4578 85.3901 98.2815 78.5456C98.7755 76.6932 99.1691 74.5238 99.1691 71.9119" fill="black"/>
<line x1="122.539" y1="0.610352" x2="122.539" y2="174.2" stroke="#151515" stroke-width="2"/>
<g clip-path="url(#clip0_29_6395)">
<path d="M411.523 392.37H401.62H393.364L392.286 401.086L393.347 401.347C394.289 398.018 395.942 395.175 398.656 395.069L399.009 395.056V415.744C399.009 415.812 399.007 415.876 399.004 415.941C398.951 417.384 398.322 418.198 397.146 418.276V419.401H407.738V418.276C406.564 418.198 405.934 417.384 405.881 415.941C405.879 415.876 405.876 415.812 405.876 415.744V395.056L406.229 395.069C408.945 395.175 410.595 398.018 411.537 401.347L412.599 401.086L411.521 392.37H411.523Z" fill="#E4002B"/>
<path d="M416.739 425.418H406.836H398.58L397.502 434.134L398.563 434.395C399.505 431.066 401.158 428.223 403.872 428.117L404.225 428.104V448.792C404.225 448.86 404.223 448.925 404.22 448.989C404.167 450.432 403.538 451.246 402.363 451.324V452.449H412.954V451.324C411.78 451.246 411.15 450.432 411.097 448.989C411.095 448.925 411.092 448.86 411.092 448.792V428.104L411.445 428.117C414.161 428.223 415.811 431.066 416.753 434.395L417.815 434.134L416.737 425.418H416.739Z" fill="#E4002B"/>
<path d="M502.39 439.881C502.443 438.438 503.072 437.623 504.247 437.546V436.421H493.88V437.546C495.054 437.623 495.685 438.438 495.738 439.881C495.739 439.945 495.743 440.01 495.743 440.078C495.743 440.078 495.743 442.664 495.748 442.664L495.745 449.487C495.357 449.487 494.975 449.469 494.605 449.426C494.185 449.379 493.77 449.301 493.375 449.197C492.998 449.097 492.627 448.97 492.273 448.82C491.936 448.676 491.605 448.507 491.29 448.318C490.989 448.138 490.695 447.935 490.416 447.715C490.152 447.505 489.893 447.275 489.648 447.029C489.416 446.797 489.193 446.547 488.981 446.286C488.782 446.04 488.59 445.779 488.411 445.509C488.242 445.255 488.083 444.99 487.934 444.72C487.797 444.468 487.666 444.207 487.547 443.946C487.436 443.703 487.335 443.455 487.246 443.212C487.121 442.876 487.019 442.517 486.934 442.107L486.916 442.023C486.891 441.905 486.869 441.793 486.851 441.675C486.599 440.315 486.47 438.831 486.47 437.265C486.47 431.395 489.088 427.891 493.473 427.891C496.691 427.891 498.383 429.027 499.504 431.943L499.856 433.112L500.916 432.884L500.002 425.205C500.002 425.205 499.675 425.863 498.622 425.872C498.187 425.876 497.336 425.747 496.633 425.589C495.437 425.32 494.015 424.979 492.141 424.979C488.119 424.979 485.001 426.181 482.604 428.652C482.044 429.231 481.475 429.961 480.961 430.764L480.857 430.924V444.685L480.923 444.808C481.963 446.748 483.22 448.347 484.662 449.559C486.266 450.906 488.291 451.796 490.52 452.131C492.494 452.427 494.542 452.452 496.471 452.452C496.471 452.452 503.997 452.452 504.001 452.452C503.963 452.452 503.403 451.791 503.251 451.583C503.015 451.257 502.851 450.884 502.729 450.5C502.63 450.184 502.553 449.853 502.503 449.504C502.405 448.91 502.392 448.281 502.392 447.799C502.392 447.799 502.392 444.931 502.39 442.663V440.076C502.39 440.008 502.392 439.944 502.396 439.879L502.39 439.881Z" fill="#E4002B"/>
<path d="M423.51 418.274C422.336 418.196 421.705 417.382 421.652 415.939C421.651 415.874 421.649 406.877 421.649 406.877L421.692 406.868C422.493 406.697 423.115 406.535 423.741 406.256L423.785 406.235L423.81 406.278C425.388 408.934 426.59 411.278 427.378 413.244L427.385 413.26C427.61 413.769 427.784 414.222 427.919 414.643C428.075 415.122 428.175 415.531 428.235 415.915C428.235 415.922 428.231 415.931 428.231 415.939C428.331 416.711 428.153 417.001 427.947 417.373C427.64 417.921 427.135 418.228 426.434 418.275V419.401L440.763 419.404V418.279C440.084 418.235 439.585 417.943 439.277 417.426C439.064 417.068 439.047 416.406 439.091 416.009C439.149 415.56 439.257 415.13 439.372 414.722L441.037 408.498H441.08C444.47 408.616 447.354 410.451 448.606 413.291L448.668 413.429C448.679 413.457 448.691 413.486 448.702 413.516C448.947 414.124 449.112 414.769 449.193 415.45C449.213 415.593 449.228 415.727 449.238 415.86C449.238 415.891 449.238 415.922 449.237 415.953C449.217 416.498 449.115 416.952 448.934 417.312C448.633 417.906 448.113 418.24 447.381 418.288V419.413L463.936 419.401V418.275C462.762 418.198 462.131 417.384 462.078 415.941C462.077 415.876 462.075 397.151 462.075 397.151L473.484 413.245C473.5 413.269 473.529 413.315 473.549 413.348C473.699 413.587 473.844 413.874 473.984 414.198C474.051 414.356 474.1 414.503 474.136 414.65C474.152 414.712 474.167 414.786 474.179 414.871C474.19 414.951 474.199 415.029 474.206 415.108C474.234 415.422 474.235 415.742 474.21 416.066C474.21 416.071 474.21 416.078 474.21 416.084C474.121 417.435 473.494 418.196 472.362 418.272V419.397H479.897V418.274C478.723 418.196 478.093 417.382 478.04 415.939C478.038 415.874 478.035 415.81 478.035 415.742C478.035 415.742 478.038 396.238 478.038 396.019C478.038 395.955 478.04 395.894 478.042 395.831C478.095 394.388 478.723 393.574 479.899 393.497V392.371H472.811V393.497C473.985 393.574 474.616 394.388 474.668 395.831C474.67 395.896 474.674 395.96 474.674 396.028V403.454L469.905 396.151L469.644 395.762C469.597 395.688 469.55 395.613 469.501 395.534L469.356 395.289C469.335 395.252 469.313 395.216 469.291 395.179C469.257 395.116 469.224 395.054 469.193 394.991C468.951 394.477 468.983 394.044 469.509 393.743C469.755 393.601 470.048 393.517 470.387 393.495V392.37H456.491V393.495C457.665 393.572 458.296 394.386 458.348 395.83C458.35 395.892 458.348 415.99 458.344 416.095C458.323 416.533 458.272 416.886 458.185 417.174C458.167 417.163 458.149 417.15 458.131 417.139L457.982 417.031C456.839 416.191 455.922 414.753 455.467 413.085C455.326 412.569 455.167 411.962 455.002 411.332L454.933 411.063C454.565 409.64 454.188 408.14 453.993 407.355H453.996L451.358 396.912L451.306 396.71C451.298 396.683 451.293 396.655 451.286 396.626L451.135 396.03L451.096 395.857C451.038 395.648 450.985 395.431 450.943 395.208C450.873 394.563 451.041 394.291 451.36 393.982C451.659 393.692 452.059 393.526 452.559 393.493V392.368H439.991V393.493C440.489 393.526 440.89 393.692 441.191 393.982C441.596 394.375 441.761 394.706 441.495 395.83L441.424 396.091L436.373 413.685C436.326 413.845 435.929 414.968 435.523 416.106L435.4 415.792C433.915 411.515 432.449 407.655 429.546 403.715L429.508 403.663L429.566 403.634C432.634 402.04 434.465 399.372 434.465 396.499C434.465 395.478 434.465 392.373 428.217 392.373H412.806V393.498C413.98 393.576 414.61 394.39 414.663 395.833C414.664 395.898 414.668 395.962 414.668 396.03V398.617L414.655 415.744C414.655 415.812 414.654 415.876 414.65 415.941C414.597 417.384 413.969 418.198 412.793 418.275V419.401H423.517V418.275L423.51 418.274ZM444.294 397.376L444.379 397.076L444.45 397.363L447.046 406.952L447.084 407.107L446.963 407.011C445.157 405.675 442.296 405.485 441.99 405.469L441.924 405.463L444.296 397.374L444.294 397.376ZM421.649 397.442C421.649 395.513 422.412 394.763 424.37 394.763C426.329 394.763 427.374 395.83 427.374 397.688C427.374 400.371 425.312 402.468 421.718 403.441L421.649 403.459V397.442ZM390.187 406.131C389.151 405.443 387.332 404.768 384.808 403.832C384.056 403.553 383.205 403.239 382.303 402.895C381.442 402.571 380.444 402.172 379.576 401.678C379.505 401.637 379.301 401.518 379.195 401.448C379.15 401.419 379.063 401.356 379.06 401.354C377.748 400.413 376.552 398.646 377.496 396.767C378.54 394.69 381.42 394.278 383.567 394.556C383.792 394.585 384.013 394.622 384.221 394.666C385.259 394.885 386.194 395.306 386.99 395.92C389.12 397.565 389.419 399.821 389.466 400.389L390.439 400.63L391.3 393.237L391.445 392.059C391.45 392.088 391.012 392.27 390.965 392.291C390.794 392.362 390.621 392.425 390.441 392.474C390.07 392.577 389.673 392.616 389.287 392.568C388.901 392.52 388.524 392.428 388.155 392.32C387.812 392.221 387.475 392.103 387.14 391.978C386.886 391.884 386.626 391.787 386.361 391.699C386.26 391.664 386.155 391.634 386.051 391.603L385.455 391.43C383.986 391.04 380.187 390.283 376.637 391.688C372.182 393.451 370.439 396.33 369.762 398.44C369.658 398.771 369.568 399.119 369.479 399.516C369.345 400.189 369.278 400.889 369.278 401.599C369.278 402.667 369.416 403.191 369.753 404.215C370.138 405.384 370.78 406.46 371.659 407.406C372.177 407.965 372.746 408.451 373.349 408.848C373.887 409.203 374.516 409.541 375.219 409.855C376.393 410.379 377.608 410.841 378.782 411.287L379.205 411.447C380.112 411.793 381.141 412.185 382.227 412.613C382.56 412.743 382.866 412.87 383.149 413.001L383.62 413.232C386.095 414.45 387.278 416.49 386.955 418.98C386.787 420.27 386.174 421.325 385.134 422.116C383.406 423.43 381.053 423.627 379.804 423.627C379.201 423.627 378.594 423.581 378.045 423.495C376.199 423.204 374.643 422.478 373.414 421.336C371.854 419.884 371.171 417.807 370.673 416.292C370.542 415.895 370.407 415.444 370.269 414.951L369.202 415.104L369.236 427.118C370.269 426.026 371.495 426.102 372.26 426.208C372.847 426.291 373.425 426.429 374.005 426.552C375.813 426.938 378.065 427.418 380.866 427.418C384.975 427.418 388.673 426.137 391.28 423.811C393.804 421.559 395.195 418.45 395.195 415.06C395.195 411.21 393.652 408.458 390.187 406.132V406.131ZM556.678 384.667H369.263V387.678H556.678V384.667ZM501.631 406.82C501.684 405.377 502.312 404.562 503.488 404.485V403.36H493.121V404.485C494.295 404.562 494.926 405.377 494.978 406.82C494.98 406.884 494.984 406.949 494.984 407.017C494.984 407.017 494.984 409.603 494.989 409.603L494.986 416.426C494.598 416.426 494.216 416.408 493.846 416.365C493.426 416.317 493.011 416.24 492.616 416.135C492.239 416.036 491.868 415.909 491.514 415.759C491.177 415.615 490.846 415.446 490.53 415.257C490.23 415.076 489.936 414.874 489.657 414.654C489.393 414.444 489.134 414.214 488.889 413.968C488.657 413.736 488.434 413.486 488.222 413.225C488.023 412.979 487.831 412.718 487.652 412.447C487.483 412.194 487.324 411.929 487.175 411.659C487.037 411.407 486.907 411.146 486.787 410.885C486.677 410.642 486.575 410.394 486.487 410.151C486.362 409.815 486.26 409.456 486.175 409.046L486.157 408.962C486.132 408.844 486.11 408.732 486.092 408.614C485.84 407.254 485.711 405.77 485.711 404.204C485.711 398.334 488.329 394.83 492.714 394.83C495.931 394.83 497.624 395.966 498.745 398.881L499.097 400.051L500.156 399.823L499.243 392.144C499.243 392.144 498.915 392.802 497.863 392.811C497.428 392.815 496.576 392.686 495.873 392.528C494.678 392.259 493.255 391.917 491.382 391.917C487.36 391.917 484.242 393.12 481.845 395.591C481.285 396.17 480.716 396.9 480.202 397.703L480.098 397.863V411.624L480.164 411.747C481.204 413.687 482.461 415.286 483.903 416.498C485.506 417.845 487.532 418.735 489.76 419.07C491.735 419.366 493.783 419.391 495.712 419.391C495.712 419.391 503.238 419.391 503.242 419.391C503.204 419.391 502.644 418.729 502.492 418.522C502.256 418.196 502.091 417.823 501.97 417.439C501.87 417.123 501.794 416.792 501.744 416.442C501.646 415.849 501.633 415.22 501.633 414.738C501.633 414.738 501.633 411.87 501.631 409.602V407.015C501.631 406.947 501.633 406.882 501.637 406.818L501.631 406.82ZM369.265 434.816H394.579L394.911 431.805H369.265V434.816ZM521.617 436.794H521.615C520.825 436.268 519.426 435.75 517.49 435.031L517.471 435.024C516.895 434.81 516.245 434.57 515.555 434.307C514.73 433.996 513.786 433.612 513.029 433.108C511.429 432.086 511.174 430.569 511.44 429.582C511.5 429.358 511.585 429.144 511.692 428.946C512.333 427.758 514.205 426.751 516.799 427.343C518.595 427.753 520.07 429.257 520.847 431.466C520.879 431.556 520.907 431.648 520.936 431.742L520.952 431.794L522.012 431.672L522.519 425.429C522.311 425.69 521.787 425.953 520.87 425.848C520.329 425.785 519.941 425.616 519.473 425.425C519.251 425.333 519.019 425.239 518.778 425.159L518.54 425.08C518.031 424.907 517.549 424.743 516.877 424.629C516.573 424.578 516.261 424.537 515.957 424.511C513.583 424.315 511.23 424.883 509.328 426.107C507.501 427.284 506.175 429.188 505.777 431.203C505.673 431.731 505.619 432.27 505.619 432.807C505.619 435.25 506.512 437.087 508.431 438.589C509.299 439.256 511.016 439.91 513.201 440.743C513.906 441.012 514.707 441.317 515.549 441.648L516.08 441.855L516.127 441.876C518.265 442.788 519.296 444.413 519.03 446.452C518.901 447.439 518.432 448.246 517.635 448.853C516.301 449.866 514.482 450.016 513.516 450.016C513.051 450.016 512.583 449.981 512.161 449.915C510.737 449.693 509.536 449.134 508.59 448.255C507.538 447.279 507.039 445.779 506.601 444.455L506.51 444.183C506.483 444.102 506.46 444.019 506.436 443.935L506.411 443.845L505.345 444.021L505.644 452.287L506.291 452.129C506.521 452.074 506.766 452.044 507.019 452.044C507.599 452.044 508.306 452.195 509.203 452.386C510.594 452.684 512.324 453.052 514.475 453.052C517.624 453.052 520.457 452.072 522.452 450.29C524.382 448.57 525.443 446.194 525.443 443.604C525.443 440.666 524.264 438.565 521.619 436.789L521.617 436.794ZM523.929 434.818H556.676V431.806H524.228L523.929 434.818ZM554.04 424.283C553.413 423.215 553.018 422.064 552.6 420.846L552.582 420.79C552.225 419.75 551.92 418.875 551.603 417.99C550.701 415.474 549.933 413.58 549.11 411.852C548.087 409.701 546.985 407.837 545.744 406.153L545.706 406.101L545.764 406.072C550.005 403.867 552.067 401.126 552.067 397.688C552.067 394.25 549.437 392.371 544.025 392.371H524.728V393.498C525.902 393.576 526.532 394.39 526.585 395.833C526.586 395.898 526.59 395.962 526.59 396.03V398.617V420.879V423.465C526.59 423.533 526.588 423.598 526.585 423.662C526.532 425.105 525.903 425.92 524.728 425.997V427.122H537.475V425.997C536.301 425.92 535.671 425.105 535.618 423.662C535.616 423.598 535.613 423.533 535.613 423.465V422.011V410.234L535.656 410.225C536.685 410.004 537.486 409.796 538.292 409.438L538.336 409.418L538.361 409.46C541.593 414.9 543.043 419.071 543.621 421.081L543.637 421.136C543.662 421.226 543.688 421.314 543.713 421.404C543.74 421.504 543.767 421.603 543.793 421.706L543.865 421.991C543.987 422.519 544.114 423.151 544.124 423.831C544.124 424.013 544.117 424.173 544.103 424.32C543.902 425.352 543.302 425.933 542.32 425.997V427.122H556.68V426.05C555.424 425.839 554.39 424.87 554.044 424.283H554.04ZM535.68 406.976L535.611 406.995V398.896C535.611 396.4 536.555 395.471 539.091 395.471C541.628 395.471 542.934 396.8 542.934 399.212C542.934 402.735 540.086 405.783 535.68 406.976V406.976ZM431.96 426.539C433.134 426.616 433.764 427.431 433.817 428.874C433.819 428.938 433.822 429.003 433.822 429.071V431.658V433.189H427.296V429.137V429.071C427.296 429.003 427.298 428.938 427.302 428.874C427.354 427.431 427.983 426.616 429.159 426.539V425.414H418.44V426.539C419.614 426.616 420.245 427.431 420.297 428.874C420.299 428.938 420.303 429.003 420.303 429.071V431.658V446.196V448.783C420.303 448.851 420.301 448.915 420.297 448.98C420.245 450.423 419.616 451.237 418.44 451.314V452.439H429.159V451.314C427.985 451.237 427.354 450.423 427.302 448.98C427.3 448.915 427.296 448.851 427.296 448.783V448.141V436.086H433.822V446.196V448.783C433.822 448.851 433.82 448.915 433.817 448.98C433.764 450.423 433.135 451.237 431.96 451.314V452.439H442.678V451.314C441.504 451.237 440.874 450.423 440.821 448.98C440.819 448.915 440.816 448.851 440.816 448.783V446.196V431.658V429.071C440.816 429.003 440.817 428.938 440.821 428.874C440.874 427.431 441.502 426.616 442.678 426.539V425.414H431.96V426.539ZM514.368 419.402C514.515 419.402 514.66 419.402 514.806 419.402C515.12 419.402 515.435 419.402 515.754 419.408C516.22 419.417 516.685 419.435 517.136 419.463C518.165 419.527 519.062 419.63 519.879 419.777C520.249 419.847 520.734 419.947 521.218 420.099C521.501 420.189 521.733 420.276 521.943 420.375L522.595 420.678L523.617 414.052L524.438 409.721L523.376 409.484C522.961 411.175 521.276 414.045 520.397 415.023L520.383 415.04C519.137 416.538 517.778 417.244 516.095 417.257H515.986C513.328 417.231 513.216 416.001 513.216 413.225V404.594H514.321C514.812 404.594 515.294 404.641 515.79 404.737C515.951 404.77 516.095 404.809 516.227 404.858C516.459 404.943 516.692 405.048 516.919 405.171C517.529 405.5 518.087 405.949 518.578 406.504C518.64 406.574 518.829 406.899 518.903 407.189L519.988 407.132L519.405 399.437L518.348 399.505C517.962 400.889 516.81 401.341 515.91 401.477L515.681 401.516C515.468 401.54 515.241 401.551 515.007 401.551H513.216V397.606C513.216 395.736 513.429 394.912 514.754 394.646L514.901 394.614C514.988 394.602 515.114 394.587 515.277 394.576C515.437 394.563 515.605 394.557 515.776 394.557C516.241 394.557 516.705 394.613 517.162 394.725C517.606 394.824 521.528 395.811 522.448 400.11L523.516 399.902L522.293 392.384L505.338 392.368V392.371H504.528V393.497C505.702 393.574 506.333 394.388 506.385 395.831C506.387 395.896 506.391 395.96 506.391 396.028V398.615V413.153V415.74C506.391 415.808 506.389 415.873 506.385 415.937C506.333 417.38 505.704 418.194 504.528 418.272V419.397H514.361L514.368 419.402ZM444.584 426.541C445.758 426.618 446.389 427.433 446.441 428.876C446.443 428.94 446.447 429.005 446.447 429.073V431.659V446.198V448.785C446.447 448.853 446.445 448.917 446.441 448.981C446.389 450.425 445.76 451.239 444.584 451.316V452.441H455.302V451.316C454.128 451.239 453.498 450.425 453.445 448.981C453.444 448.917 453.44 448.853 453.44 448.785V448.143V429.137V429.071C453.44 429.003 453.442 428.938 453.445 428.874C453.498 427.431 454.127 426.616 455.302 426.539V425.414H444.584V426.539V426.541ZM473.583 426.537C474.757 426.615 475.388 427.429 475.44 428.872C475.442 428.937 475.446 429.001 475.446 429.069V436.495L470.677 429.192L470.416 428.802C470.369 428.729 470.322 428.653 470.273 428.574L470.128 428.33C470.106 428.293 470.085 428.256 470.063 428.22C470.029 428.157 469.996 428.095 469.965 428.032C469.722 427.517 469.755 427.085 470.28 426.784C470.527 426.642 470.82 426.558 471.159 426.536V425.41H457.263V426.536C458.437 426.613 459.067 427.427 459.12 428.87C459.12 428.918 459.12 440.592 459.12 446.196V448.783C459.12 448.851 459.118 448.915 459.114 448.98C459.062 450.423 458.433 451.237 457.257 451.314V452.439H461.064L464.715 452.436V451.311C463.541 451.233 462.91 450.419 462.858 448.976C462.856 448.911 462.854 430.187 462.854 430.187L474.263 446.281C474.279 446.305 474.308 446.351 474.328 446.384C474.478 446.623 474.623 446.909 474.763 447.233C474.83 447.391 474.879 447.538 474.915 447.685C474.931 447.748 474.946 447.821 474.958 447.906C474.969 447.987 474.978 448.064 474.986 448.143C475.013 448.457 475.015 448.777 474.989 449.101C474.989 449.106 474.989 449.114 474.989 449.119C474.9 450.47 474.273 451.232 473.141 451.307V452.432H480.676V451.309C479.502 451.232 478.872 450.417 478.819 448.974C478.817 448.91 478.814 448.845 478.814 448.777C478.814 448.777 478.817 429.273 478.817 429.054C478.817 428.99 478.819 428.929 478.821 428.867C478.874 427.424 479.502 426.609 480.678 426.532V425.407H473.59V426.532L473.583 426.537Z" fill="#E20818"/>
</g>
<path d="M442.723 377.325C441.884 377.474 441.03 377.519 440.147 377.638L437.453 369.655V377.981C436.614 378.07 435.848 378.189 435.054 378.308V363.057H437.291L440.353 371.71V363.057H442.723V377.325ZM447.36 368.642C448.272 368.642 449.671 368.597 450.51 368.597V370.98C449.465 370.98 448.243 370.98 447.36 371.024V374.569C448.743 374.479 450.127 374.361 451.525 374.316V376.61L445.004 377.131V363.057H451.525V365.44H447.36V368.642V368.642ZM460.284 365.44H457.84V376.401C457.046 376.401 456.25 376.401 455.486 376.431V365.44H453.042V363.057H460.285V365.44H460.284ZM464.111 368.479H467.335V370.861H464.111V376.268H461.799V363.057H468.38V365.44H464.111V368.478V368.479ZM472.207 374.183C473.546 374.213 474.9 374.317 476.21 374.391V376.744C474.105 376.61 472 376.476 469.851 376.431V363.057H472.206V374.182L472.207 374.183ZM478.198 376.908C478.948 376.953 479.744 376.998 480.509 377.087V363.057H478.198V376.908V376.908ZM490.828 363.057L487.84 370.31L490.828 378.308C489.945 378.189 489.062 378.026 488.178 377.877L486.485 373.468L484.763 377.519C483.909 377.37 483.085 377.325 482.231 377.205L485.263 370.22L482.526 363.057H485.058L486.604 367.064L488.253 363.057H490.828Z" fill="#E20818"/>
<defs>
<clipPath id="clip0_29_6395">
<rect width="187.476" height="68.3907" fill="white" transform="translate(369.202 384.667)"/>
</clipPath>
</defs>
</svg>
