<svg width="653" height="350" viewBox="0 0 653 350" fill="none" xmlns="http://www.w3.org/2000/svg">
<path d="M651.88 1H1.87988V174.2H651.88V1Z" fill="white"/>
<path fill-rule="evenodd" clip-rule="evenodd" d="M0.879883 0H652.88V175.2H0.879883V0ZM2.87988 2V173.2H650.88V2H2.87988Z" fill="#151515"/>
<path d="M651.88 174.2H1.87988V348.2H651.88V174.2Z" fill="white"/>
<path fill-rule="evenodd" clip-rule="evenodd" d="M0.879883 173.2H652.88V349.2H0.879883V173.2ZM2.87988 175.2V347.2H650.88V175.2H2.87988Z" fill="#151515"/>
<path d="M123.06 0.0126953H0.879883V175.241H123.06V0.0126953Z" fill="white"/>
<path fill-rule="evenodd" clip-rule="evenodd" d="M0.879883 0.0126953H123.06V175.241H0.879883V0.0126953ZM2.87988 173.241H121.06V2.0127H2.87988V173.241Z" fill="#151515"/>
<path d="M198.58 37.9305C218.76 37.9305 227.28 51.6405 228.51 64.4605L228.83 67.8405H251.33L251.1 63.8905C249.45 35.7305 227.86 16.0605 198.57 16.0605C169.28 16.0605 146.03 37.4406 146.03 66.9106V108.421C146.03 137.891 168.12 159.271 198.59 159.271C228.69 159.071 250.54 137.691 250.54 108.421V80.5705H187.91V101.321H228.11V107.491C228.11 121.181 220.37 137.231 198.57 137.401C176.35 137.401 168.47 121.281 168.47 107.491V67.8505C168.47 47.1905 183.59 37.9405 198.57 37.9405L198.58 37.9305Z" fill="#151515"/>
<path d="M274.51 38.2299H315.94V137.08H274.51V159.14H379.81V137.08H338.56V38.2299H379.81V16.1699H274.51V38.2299Z" fill="#151515"/>
<path d="M402.979 159.14H425.599V96.8999H504.349V74.8699H425.599V38.2299H508.279V16.1699H402.989V159.14H402.979Z" fill="#151515"/>
<path d="M531.439 38.2299H572.779V159.14H595.399V38.2299H636.879V16.1699H531.449V38.2299H531.439Z" fill="#151515"/>
<path d="M596.51 260.62L636.87 190.12H613.73L584.22 241.82L554.51 190.12H531.56L571.92 260.61L531.56 333.08H554.74L583.9 279.19L613.54 333.08H636.86L596.5 260.62H596.51Z" fill="#151515"/>
<path d="M17.7598 212.09H59.1898V310.94H17.7598V333H123.06V310.94H81.8198V212.09H123.06V190.03H17.7598V212.09Z" fill="#151515"/>
<path d="M229.46 290.65L166.98 190.031H146.22V333.001H168.28V232.48L230 333.001H251.51V190.021H229.45V290.641L229.46 290.65Z" fill="#151515"/>
<path d="M325.649 190.02H274.689V332.98H325.649C341.289 332.98 354.769 328.25 364.619 319.32C374.639 310.22 379.939 297.65 379.939 282.94V241.98C379.939 211.86 357.109 190.01 325.649 190.01V190.02ZM325.649 311.35H298.069V211.85H325.649C347.139 211.85 356.759 227.47 356.759 242.95V281.98C356.759 303.63 340.689 311.35 325.649 311.35Z" fill="#151515"/>
<path d="M425.729 270.08H500.169V248.951H425.729V211.331H508.399V190.021H403.109V332.99H508.399V311.86H425.729V270.08Z" fill="#151515"/>
<path fill-rule="evenodd" clip-rule="evenodd" d="M8.66016 8.11035H29.6802V13.1104H13.6602V29.1204H8.66016V8.11035Z" fill="#020203"/>
<path fill-rule="evenodd" clip-rule="evenodd" d="M110.56 13.1104H94.54V8.11035H115.56V29.1204H110.56V13.1104Z" fill="#020203"/>
<path fill-rule="evenodd" clip-rule="evenodd" d="M110.56 162.09V146.07H115.56V167.09H94.54V162.09H110.56Z" fill="#020203"/>
<path fill-rule="evenodd" clip-rule="evenodd" d="M13.6602 162.09V146.08H8.66016V167.09H29.6802V162.09H13.6602Z" fill="#020203"/>
<path d="M31.2597 65.2402V82.4002H49.3597V65.2402H59.1897V109.96H49.3597V90.6702H31.2597V109.96H21.4297V65.2402H31.2597Z" fill="white"/>
<path d="M86.3698 65.2407C88.4998 65.2407 90.4398 65.4307 92.1898 65.8007C93.9398 66.1807 95.4498 66.8007 96.6998 67.6507C97.9498 68.5107 98.9198 69.6407 99.6098 71.0607C100.3 72.4807 100.65 74.2307 100.65 76.3207C100.65 78.5707 100.14 80.4507 99.1098 81.9607C98.0798 83.4707 96.5798 84.6907 94.5698 85.6607C97.3298 86.4607 99.3798 87.8507 100.74 89.8207C102.1 91.8007 102.78 94.1907 102.78 96.9907C102.78 99.2407 102.34 101.201 101.47 102.841C100.59 104.491 99.4198 105.841 97.9298 106.881C96.4498 107.921 94.7598 108.701 92.8598 109.201C90.9598 109.701 89.0098 109.951 87.0098 109.951H65.3398V65.2207H86.3798V65.2407H86.3698ZM85.1098 83.3407C86.8598 83.3407 88.3098 82.9207 89.4298 82.0907C90.5598 81.2607 91.1198 79.9007 91.1198 78.0207C91.1198 76.9807 90.9298 76.1207 90.5598 75.4507C90.1798 74.7907 89.6798 74.2607 89.0498 73.8807C88.4198 73.5007 87.7098 73.2507 86.8898 73.1007C86.0798 72.9507 85.2298 72.8807 84.3598 72.8807H75.1598V83.3407H85.1098ZM85.6698 102.311C86.6298 102.311 87.5498 102.221 88.4298 102.031C89.3098 101.841 90.0798 101.531 90.7498 101.091C91.4098 100.651 91.9498 100.061 92.3498 99.3107C92.7398 98.5607 92.9398 97.6007 92.9398 96.4307C92.9398 94.1407 92.2898 92.4907 90.9998 91.5107C89.6998 90.5307 87.9998 90.0407 85.8598 90.0407H75.1498V102.321H85.6698V102.311Z" fill="white"/>
<line x1="121.959" y1="1" x2="121.959" y2="174.59" stroke="#151515" stroke-width="2"/>
<path d="M50.305 89.502H58.4715V65.6754C58.4715 56.8224 53.1234 52.8263 45.3145 52.8263C42.6375 52.8263 40.3198 53.3433 38.4458 54.3509C34.4702 56.5942 33.6169 61.3306 33.6169 61.3306H33.1907V60.4185H33.1782V45.9727H25.0116V89.502H33.1782V68.5362C33.1782 64.1856 37.0458 60.4642 41.5883 60.4642C46.9984 60.4642 50.305 62.9789 50.305 67.4307V89.502ZM50.6299 120.121C50.6299 120.108 50.6299 120.096 50.6299 120.084V120.121ZM50.6299 115.127C50.6299 118.82 47.9579 123.22 42.1393 123.22C42.0991 123.22 42.0589 123.218 42.0187 123.218V123.22C42.0187 123.22 31.99 124.156 31.99 112.171V110.89C31.99 100.67 39.2815 99.8456 41.4292 99.8248C41.6637 99.814 41.8998 99.8066 42.1393 99.8066C47.9579 99.8066 50.6299 104.427 50.6299 108.069V115.128V115.127ZM50.6299 129.859H58.7964V93.3297H50.6299V101.582H50.2037C50.2037 101.582 49.476 97.5499 46.2406 95.1639C45.8185 94.8568 45.3547 94.5771 44.8431 94.3406C43.1851 93.5737 41.1672 93.1256 39.1609 93.0774C31.1443 92.8824 26.3011 97.1225 24.4774 103.967C23.9834 105.819 23.5898 107.989 23.5898 110.601V112.459C23.5898 115.41 24.0688 117.8 24.706 119.789C26.77 126.233 31.7815 129.948 38.939 129.948C41.6813 129.948 43.6448 129.405 45.3346 128.484C47.7118 127.16 48.982 124.946 49.6217 123.361C49.847 122.802 49.9943 122.322 50.0848 121.987C50.0889 121.97 50.094 121.953 50.0982 121.937C50.0998 121.932 50.1007 121.928 50.1015 121.923C50.1744 121.643 50.2045 121.48 50.2045 121.48H50.6307V129.859L50.6299 129.859ZM70.4069 107.192C70.4069 101.125 75.7415 99.8713 79.5648 99.8713C83.388 99.8713 88.7227 101.089 88.7227 107.192H70.4077H70.4069ZM62.2931 110.382C62.2931 110.382 62.2696 112.083 62.2964 112.652C62.7972 123.227 67.4176 129.949 80.3485 130.007C90.811 130.054 94.9968 124.384 96.216 119.337C96.2713 119.108 96.4454 118.426 96.4454 118.426L88.6532 117.31C88.6532 117.31 88.6197 117.513 88.6071 117.575C87.7405 121.669 84.9086 123.349 79.8528 123.434C73.1039 123.548 70.3349 120.987 70.3349 114.274H97.1429C97.1429 114.274 97.2175 109.609 96.9889 107.669C96.1557 100.587 90.8629 93.0782 79.8897 93.0782C68.9164 93.0782 62.2939 99.8605 62.2939 110.383M90.1897 72.0119C90.1897 82.2326 82.8974 83.0568 80.7504 83.0775C80.516 83.0883 80.2799 83.0958 80.0404 83.0958C74.2218 83.0958 71.5498 78.6954 71.5498 75.0528V67.9942C71.5498 64.301 74.2218 59.6807 80.0404 59.6807C80.0806 59.6807 80.1208 59.6824 80.161 59.6832V59.6807C80.161 59.6807 90.1897 58.7446 90.1897 70.7297V72.0103V72.0119ZM71.5498 62.7814C71.5498 62.7938 71.5498 62.8054 71.5498 62.8187V62.7814ZM98.5898 72.3008V70.4425C98.5898 67.4913 98.1109 65.1011 97.4737 63.1125C95.4097 56.6689 90.3982 52.9533 83.2407 52.9533C80.4984 52.9533 78.5349 53.4969 76.8451 54.4173C74.4679 55.741 73.1977 57.9553 72.558 59.5396C72.3327 60.099 72.1854 60.5796 72.0949 60.914C72.0907 60.9306 72.0857 60.948 72.0815 60.9638C72.0799 60.9688 72.079 60.9729 72.0782 60.9779C72.0053 61.2576 71.9752 61.4211 71.9752 61.4211H71.549V46.1154H63.3825V89.5726H71.549V81.3205H71.9752C71.9752 81.3205 72.7028 85.3524 75.9383 87.7384C76.3603 88.0455 76.8233 88.3252 77.3358 88.5617C78.9937 89.3286 81.0117 89.7768 83.0179 89.8249C91.0346 90.0199 95.8777 85.7798 97.7014 78.9353C98.1955 77.0829 98.589 74.9134 98.589 72.3016" fill="black"/>
</svg>
