<svg fill="none" height="16" viewBox="0 0 40 16" width="40" xmlns="http://www.w3.org/2000/svg" xmlns:xlink="http://www.w3.org/1999/xlink"><clipPath id="a"><path d="m0 0h40v16h-40z"/></clipPath><g clip-path="url(#a)"><path d="m35.291.975878c.1002-.006885.1891-.027541.2682-.060591.0776-.033049.1411-.084.1862-.15423.0466-.068852.0706-.166623.0706-.289181 0-.104656-.0212-.188657-.0621-.250624-.0423-.061968-.096-.108788-.1609-.1432139-.0663-.0330493-.1411-.0564592-.2272-.0674757-.0367-.00550818-.0733-.00963934-.11-.01239345h-.803v.98734805h.5207c.1129 0 .2188-.002754.319-.011016zm-1.8824 1.813582c.2032.20518.4417.3663.7183.48335.2765.11704.5757.17488.8974.17488.3218 0 .6139-.05784.8876-.17488.2738-.11705.5123-.27817.7155-.48335.2018-.20518.3612-.44754.477-.72571.1143-.27954.1721-.58249.1721-.91299 0-.330489-.0578-.616917-.1721-.893705-.0381-.090885-.0819-.1748857-.1285-.257509h-.7803c.079.132197.1199.296067.1199.494363 0 .280919-.0804.487477-.2427.618301-.1609.13082-.3612.20931-.6011.23272l.9172 1.37981h-.5348l-.8721-1.34401h-.5278v1.34401h-.4981v-2.725194h-.8946c-.0466.0826233-.0904.168001-.1285.257509-.1143.276788-.1721.574232-.1721.893705 0 .31948.0578.63345.1721.91299.1143.27817.2738.52053.477.72571zm-19.3142 2.55994c-.6943 0-1.0626.52879-1.071 1.07135h2.2324c0-.63895-.4149-1.07135-1.1628-1.07135zm5.9056 10.6501c.3119-.1859 8.0787-5.0675 16.1533 0l3.8467-15.999954h-2.4991c.0169.0330493.0353.0660986.0508.100525.1467.324985.2201.674757.2201 1.050689 0 .37594-.0734.74361-.2201 1.06998-.1468.32498-.3443.61003-.5941.85102-.2498.24098-.5405.42826-.8721.56183-.3316.13358-.6872.19968-1.064.19968s-.7309-.06748-1.0654-.19968c-.3344-.13357-.6279-.32085-.8805-.56183-.2512-.24099-.4502-.52466-.5969-.85102-.1468-.32774-.2202-.68302-.2202-1.06998 0-.386949.0734-.727081.2202-1.050689.0155-.0344264.0338-.0674757.0508-.100525h-32.5295l3.84675 15.999954c8.07595-5.0675 15.84135-.1859 16.15465 0zm-9.4306-6.28621h-5.25789v-5.34435h2.36365v3.89018h2.89424zm7.0712-2.21706h-4.613c0 .69541.604 1.22007 1.4083 1.22007.4784 0 .9144-.15423 1.222-.57148h1.8402c-.6012 1.34814-1.7682 1.73234-3.3571 1.73234-2.0673 0-3.5307-1.092-3.5307-2.82296 0-1.84801 1.4408-2.82434 3.5307-2.82434 2.3382 0 3.5095 1.47896 3.5095 2.90145 0 .11843.0098.23686-.0085.3663zm4.28 2.22532h-1.9926l-2.9746-5.35674h2.6839l1.7061 3.25673.0466.09778.0423-.09778 1.596-3.25673h1.6115l-2.7221 5.35674zm5.2522-.00964h-2.2804v-5.35674h2.2804zm1.7131-4.68611-.6872.72846h-.2851l.3147-.79456h-.6293v-1.06034h1.2869zm2.9916 4.83759c-2.4356 0-2.8801-1.37292-2.8801-1.71443h1.7639c0 .19967.278.43928.5122.53705.1934.07987.4079.09639.6082.09639.4968 0 .9046-.11705.9046-.39934 0-.34289-.4177-.41863-.8777-.48335-1.2531-.17626-3.0086-.38145-3.0086-1.74886 0-1.27515 1.4267-1.92512 2.9422-1.92512 2.4258 0 3.0678 1.31095 3.0678 1.69102h-1.7921c0-.11292-.0889-.33049-.333-.45581-.1821-.09226-.4474-.16662-.7056-.16662-.6703 0-1.0471.13633-1.0471.43515 0 .24512.3401.3663.8284.44754 1.2728.21345 3.2287.28781 3.2287 1.79981 0 .7684-.6816 1.88519-3.2118 1.88519z" fill="#c41230"/></g></svg>