<svg viewBox="0 0 1440 732" xmlns="http://www.w3.org/2000/svg" xmlns:xlink="http://www.w3.org/1999/xlink"><clipPath id="a"><path d="m-195 87.5h2172.2v556.7h-2172.2z"/></clipPath><g clip-path="url(#a)" fill="#141414"><path d="m1112.7 633.1v11.2h4.4v-11.2-11.1h-4.4z"/><path d="m278.9 499.5v11.1h4.4v-11.1-11.1h-4.4z"/><path d="m836.2 443.8h4.4v11.1h-4.4z"/><path d="m1433 410.4h-4.3-4.4-4.4-4.4-4.4-4.4v11.2 11.1 11.1 11.2 11.1 11.1 11.2 11.1 11.1 11.2 11.1h4.4v-11.1-11.2h4.4 4.4v11.2 11.1h4.4v-11.1h4.4v-11.2h4.3 4.4 4.4v-11.1-11.1-11.2-11.1-11.1-11.2-11.1-11.1-11.2h-4.4z"/><path d="m1397.9 410.4h-17.5v55.7 22.3h8.8v33.4h4.4v11.1h4.4v11.1h4.4v-11.1h4.4v-66.8-55.7h-8.8zm4.4 111.5h-4.4v-.2h4.4z"/><path d="m1371.6 410.4h-4.4-4.4-4.4-4.3-4.4-4.4-4.4-4.4-4.4-4.4-4.4-4.4-4.3-4.4-4.4-4.4v11.2h4.4v11.1 11.1 11.2h4.4v11.1 11.1 11.2 11.1 11.1h4.4 4.3v11.2 11.1 11.1 11.2 11.1 11.2 11.1 11.1 11.2h4.4v-11.2-11.1-11.1-11.2-11.1-11.2-11.1-11.1-11.2h4.4 4.4v-11.1h4.4 4.4v11.1h4.4v-11.1-11.1h4.4 4.4v11.1h4.3v11.1 11.2 11.1 11.1 11.2h4.4v-11.2-11.1h4.4 4.4 4.4 4.4v-11.1-11.2-11.1-11.1-11.2-11.1-11.1-11.2-11.1-11.1-11.2h-4.4z"/><path d="m1261.9 410.4h-4.4-4.4-4.4-4.4-4.3-4.4-4.4-4.4-4.4-4.4-4.4-4.4-4.3-.1-4.3-4.4-4.4-4.4-4.4-4.4-4.4-4.3-4.4-4.4-4.4-4.4-4.4-4.4-4.4-4.4-4.3-.1-4.3-4.4-4.4-4.4-4.4-4.4-4.4-4.3-4.4-4.4-4.4-4.4-4.4-4.4-4.4-4.4-4.3-4.4-4.4-4.4-4.4-4.4-4.4-4.4-4.4-4.3-4.4-4.4-4.4-4.4-4.4-4.4-4.4v11.2 11.1 11.1 11.2 11.1 11.1 11.2 11.1 11.1h4.4 4.4v11.2 11.1 11.1h4.4v11.2 11.1 11.2 11.1 11.1h4.4v-11.1-11.1-11.2-11.1-11.2h4.4 4.4 4.4v11.2h4.3v-11.2-11.1-11.1h4.4v-11.2-11.1-11.1-11.2h4.4 4.4 4.4v11.2 11.1h4.4v11.1 11.2 11.1h4.4v-11.1h4.4v-11.2-11.1-11.1-11.2-11.1h4.4 4.3v11.1 11.2 11.1h4.4v11.1h4.4v-11.1h4.4v-11.1-11.2-11.1h4.4 4.4 4.4 4.4v11.1 11.2 11.1 11.1 11.2h4.4v11.1 11.1 11.2h4.3 4.4 4.4v-11.2h4.4v11.2 11.1 11.2 11.1 11.1 11.2 11.1h4.4v-11.1h4.4v-11.2-11.1-11.1-11.2-11.1-11.2-11.1-11.1-11.2-11.1h4.4 4.3.1 4.3 4.4v11.1 11.2 11.1h4.4v-11.1h4.4v-11.2-11.1h4.4 4.4 4.4v-11.1-11.2-11.1h4.4v-11.1-11.2h4.4 4.3v11.2 11.1 11.1 11.2 11.1h4.4v-11.1-11.2-11.1h4.4v-11.1-11.2-11.1h4.4 4.4 4.4 4.4v11.1 11.2h4.4v-11.2-11.1-11.1h4.3 4.4 4.4v11.1 11.1h4.4 4.4 4.4 4.4v11.2h4.4 4.3 4.4v11.1h4.4 4.4v-11.1-11.2h4.4v-11.1h4.4 4.4v-11.1-11.2h-4.4z"/><path d="m976.7 410.4h-4.4-4.4-4.4-4.4-4.4v11.2h4.4 4.4 4.4v11.1h4.4 4.4 4.4v11.1 11.2 11.1h4.3v-11.1-11.2-11.1-11.1-11.2h-4.3z"/><path d="m945.9 410.4h-4.3-4.4-4.4-4.4-4.4v11.2 11.1 11.1 11.2 11.1h4.4 4.4v-11.1h4.4v11.1h4.4v-11.1-11.2-11.1-11.1h4.3 4.4 4.4v-11.2h-4.4z"/><path d="m915.2 410.4h-4.4-4.3-4.4-4.4-4.4-4.4-4.4v11.2 11.1 11.1 11.2 11.1 11.1 11.2h4.4v11.1h4.4v-11.1h4.4 4.4 4.4v11.1 11.1 11.2 11.1 11.1 11.2 11.1h4.3v-11.1-11.2-11.1-11.1-11.2h4.4v-11.1-11.1h4.4v-11.2-11.1-11.1h4.4v-11.2-11.1-11.1-11.2h-4.4z"/><path d="m880.1 421.6v11.1 11.1h4.4v-11.1-11.1-11.2h-4.4z"/><path d="m862.6 410.4v11.2h4.4 4.3v-11.2h-4.3z"/><path d="m849.4 410.4h-4.4-4.4-4.4-4.3-4.4-4.4-4.4-4.4-4.4-4.4-4.4-4.4-4.3-4.4v11.2 11.1 11.1 11.2 11.1 11.1 11.2h4.4 4.3 4.4v11.1 11.1h4.4 4.4v-11.1-11.1h4.4v-11.2h4.4 4.4v-11.1-11.1-11.2h4.4 4.4 4.3v-11.1h4.4v11.1h4.4v-11.1-11.1h4.4 4.4v11.1h4.4v-11.1-11.2h-4.4z"/><path d="m779.2 410.4h-4.4-4.4v11.2h4.4v11.1 11.1h4.4v11.2 11.1h4.4v11.1h4.4v-11.1-11.1-11.2-11.1-11.1-11.2h-4.4z"/><path d="m761.6 410.4h-4.3v11.2 11.1 11.1h4.3v-11.1-11.1h4.4 4.4v-11.2h-4.4z"/><path d="m748.5 410.4h-4.4-4.4v11.2 11.1h4.4 4.4v11.1h4.4 4.4v-11.1-11.1-11.2h-4.4z"/><path d="m730.9 410.4h-4.4-4.4-4.3-4.4-4.4v11.2 11.1 11.1 11.2 11.1h4.4 4.4 4.3v11.1 11.2h4.4 4.4v-11.2-11.1-11.1-11.2-11.1-11.1h4.4 4.4v-11.2h-4.4z"/><path d="m700.2 410.4h-4.4-4.4v11.2 11.1 11.1 11.2 11.1 11.1 11.2 11.1 11.1 11.2 11.1 11.1h4.4v11.2h-4.4v11.1h4.4v11.2h4.4v-11.2-11.1-11.2-11.1-11.1h4.4v-11.2-11.1-11.1h4.4v-11.2-11.1-11.1-11.2-11.1-11.1-11.2h-4.4z"/><path d="m682.7 410.4h-4.4-4.4-4.4-4.4-4.4v11.2 11.1 11.1h4.4 4.4 4.4 4.4v11.2 11.1 11.1 11.2h4.4 4.3v11.1 11.1 11.2 11.1 11.1 11.2h4.4v-11.2-11.1-11.1-11.2-11.1-11.1-11.2-11.1-11.1-11.2-11.1-11.1-11.2h-4.4z"/><path d="m651.9 410.4h-4.4-4.3v11.2 11.1 11.1 11.2 11.1h4.3v-11.1h4.4v-11.2h4.4 4.4v-11.1-11.1-11.2h-4.4z"/><path d="m634.4 410.4h-4.4-4.4-4.4v11.2 11.1 11.1h4.4 4.4 4.4v-11.1h-4.4v-11.1h4.4 4.4 4.4v-11.2h-4.4z"/><path d="m616.8 410.4h-4.4v11.2 11.1 11.1h4.4 4.4v-11.1-11.1-11.2z"/><path d="m603.7 410.4h-4.4-4.4-4.4v11.2 11.1 11.1 11.2 11.1 11.1 11.2h4.4 4.4 4.4v-11.2-11.1h4.4v-11.1h4.3v-11.2-11.1-11.1-11.2h-4.3z"/><path d="m581.7 410.4h-4.4-4.4v11.2 11.1 11.1 11.2 11.1 11.1 11.2 11.1 11.1 11.2h4.4 4.4v-11.2-11.1h4.4 4.4v-11.1-11.2-11.1-11.1-11.2-11.1-11.1-11.2h-4.4z"/><path d="m564.2 410.4h-4.4-4.4-4.4-4.4v11.2h-4.4v11.1 11.1h4.4v11.2h4.4v-11.2-11.1-11.1h4.4 4.4v11.1h4.4v11.1 11.2 11.1 11.1 11.2 11.1 11.1 11.2h4.4 4.3v-11.2-11.1-11.1-11.2-11.1-11.1-11.2-11.1-11.1-11.2h-4.3z"/><path d="m537.8 410.4h4.4v11.1h-4.4z"/><path d="m511.5 410.4h-4.4-4.4-4.4-4.3-4.4-4.4-4.4-4.4v11.2 11.1 11.1h4.4v-11.1h4.4v11.1h4.4 4.4 4.3v-11.1-11.1h4.4 4.4 4.4v11.1 11.1h4.4v-11.1h4.4v-11.1-11.2h-4.4z"/><path d="m467.6 410.4h-4.4-4.3-4.4v11.2h4.4v11.1 11.1 11.2 11.1 11.1 11.2h4.3v-11.2h4.4v-11.1h4.4 4.4v-11.1-11.2-11.1-11.1-11.2h-4.4z"/><path d="m436.9 410.4h4.4v11.1h-4.4z"/><path d="m432.5 410.4h-4.4-4.4-4.3-4.4v11.2 11.1 11.1h4.4 4.3v-11.1h4.4 4.4 4.4v-11.1-11.2z"/><path d="m406.2 410.4v11.2 11.1h4.4 4.4v-11.1-11.2h-4.4z"/><path d="m401.8 410.4h-4.4v11.2 11.1 11.1 11.2h4.4v-11.2h4.4v-11.1-11.1-11.2z"/><path d="m388.6 410.4h-4.3-4.4-4.4-4.4-4.4v11.2 11.1 11.1 11.2 11.1 11.1 11.2h4.4v-11.2h4.4 4.4v-11.1-11.1-11.2h4.4 4.3 4.4v11.2h4.4v-11.2-11.1-11.1-11.2h-4.4z"/><path d="m357.9 410.4v11.2 11.1 11.1 11.2 11.1 11.1 11.2 11.1 11.1 11.2h4.4v-11.2-11.1-11.1h4.4v-11.2-11.1-11.1-11.2-11.1-11.1-11.2h-4.4z"/><path d="m353.5 410.4h-4.4v11.2 11.1 11.1h4.4v11.2 11.1h4.4v-11.1-11.2-11.1-11.1-11.2z"/><path d="m340.4 410.4v11.2h4.4 4.3v-11.2h-4.3z"/><path d="m322.8 410.4h-4.4v11.2h4.4 4.4v-11.2z"/><path d="m314 410.4h4.4v11.1h-4.4z"/><path d="m283.3 410.4h-4.4v11.2 11.1 11.1 11.2 11.1 11.1h4.4v-11.1-11.1-11.2-11.1h4.4v-11.1-11.2z"/><path d="m274.5 410.4h-4.3v11.2 11.1 11.1 11.2 11.1 11.1 11.2 11.1 11.1h4.3 4.4v-11.1-11.1-11.2-11.1-11.1-11.2-11.1-11.1-11.2z"/><path d="m261.4 410.4v11.2 11.1 11.1 11.2 11.1 11.1 11.2 11.1 11.1 11.2 11.1 11.1 11.2h4.4v-11.2-11.1-11.1-11.2h4.4v-11.1-11.1-11.2-11.1-11.1-11.2-11.1-11.1-11.2h-4.4z"/><path d="m252.6 410.4h-4.4-4.4-4.4-4.3-.1-4.3v11.2h4.3.1 4.3 4.4 4.4v11.1 11.1h4.4v11.2 11.1 11.1 11.2 11.1 11.1h4.4v11.2 11.1 11.1 11.2 11.1 11.2 11.1 11.1 11.2 11.1h4.4v-11.1-11.2-11.1-11.1-11.2-11.1-11.2-11.1-11.1-11.2-11.1-11.1-11.2-11.1-11.1-11.2-11.1-11.1-11.2h-4.4z"/><path d="m221.9 410.4v11.2h4.4v11.1h4.4v-11.1-11.2h-4.4z"/><path d="m217.5 410.4h-4.4-4.4-4.4-4.4-4.3-4.4-4.4-4.4v11.2 11.1 11.1 11.2 11.1h4.4 4.4 4.4v11.1 11.2h4.3v-11.2h4.4v-11.1-11.1-11.2-11.1h4.4v-11.1h4.4 4.4 4.4v-11.2z"/><path d="m173.6 410.4v11.2 11.1 11.1 11.2 11.1 11.1h4.4 4.4v-11.1-11.1-11.2-11.1-11.1-11.2h-4.4z"/><path d="m169.2 410.4h-4.4-4.3-4.4-4.4-4.4-4.4v11.2 11.1 11.1h4.4 4.4v11.2 11.1 11.1h4.4v11.2 11.1h4.4 4.3 4.4 4.4v-11.1-11.2-11.1-11.1-11.2-11.1-11.1-11.2z"/><path d="m138.5 410.4h-4.4v11.2h4.4v11.1 11.1h4.4v-11.1-11.1-11.2z"/><path d="m129.7 410.4h4.4v11.1h-4.4z"/><path d="m107.8 410.4h-4.4v11.2 11.1 11.1 11.2 11.1h4.4v-11.1h4.4v-11.2-11.1-11.1-11.2z"/><path d="m99 421.6v11.1 11.1 11.2 11.1h4.4v-11.1-11.2-11.1-11.1-11.2h-4.4z"/><path d="m94.6 421.6v11.1 11.1h4.4v-11.1-11.1-11.2h-4.4z"/><path d="m90.2 410.4h-4.3v11.2h4.3v11.1 11.1h4.4v-11.1-11.1-11.2z"/><path d="m72.7 410.4h4.4v11.1h-4.4z"/><path d="m68.3 410.4h-4.4v11.2 11.1h4.4v-11.1h4.4v-11.2z"/><path d="m59.5 421.6v11.1h4.4v-11.1-11.2h-4.4z"/><path d="m55.1 421.6v11.1h4.4v-11.1-11.2h-4.4z"/><path d="m46.4 410.4h4.4v11.1h-4.4z"/><path d="m42 410.4h-4.4v11.2 11.1h4.4v11.1 11.2 11.1h4.4v-11.1-11.2-11.1-11.1h-4.4z"/><path d="m33.2 421.6v11.1h4.4v-11.1-11.2h-4.4z"/><path d="m15.6 421.6v11.1 11.1h4.4v-11.1-11.1-11.2h-4.4z"/><path d="m11.2 421.6v11.1 11.1 11.2h4.4v-11.2-11.1-11.1-11.2h-4.4z"/><path d="m6.9 410.4h4.4v11.1h-4.4z"/><path d="m2.5 410.4h-4.4v11.2h4.4 4.4v-11.2z"/><path d="m1433 343.6h-4.3-4.4-4.4-4.4-4.4-4.4v11.2 11.1 11.1 11.2 11.1 11.1h4.4 4.4 4.4 4.4 4.4 4.3 4.4 4.4v-11.1-11.1-11.2-11.1-11.1-11.2h-4.4z"/><path d="m1397.9 343.6h-4.3-4.4-4.4-4.4v11.2 11.1 11.1 11.2 11.1 11.1h4.4 4.4 4.4 4.3 4.4 4.4v-11.1-11.1-11.2-11.1-11.1-11.2h-4.4z"/><path d="m1371.6 343.6h-4.4-4.4-4.4-4.3-4.4-4.4-4.4-4.4-4.4-4.4-4.4-4.4-4.3-4.4-4.4-4.4-4.4-4.4-4.4-4.4-4.3-4.4-4.4-4.4-4.4-4.4-4.4-4.4-4.4-4.3-4.4-4.4-4.4-4.4-4.4-4.4-4.4-4.3-.1-4.3-4.4-4.4-4.4-4.4-4.4-4.4-4.3-4.4-4.4-4.4-4.4-4.4-4.4-4.4-4.4-4.3-.1-4.3-4.4-4.4-4.4-4.4-4.4-4.4-4.3-4.4-4.4-4.4-4.4-4.4-4.4-4.4-4.4-4.3-4.4-4.4-4.4-4.4-4.4-4.4-4.4-4.4-4.3-4.4-4.4-4.4-4.4-4.4-4.4-4.4v11.2 11.1 11.1 11.2 11.1 11.1h4.4 4.4 4.4 4.4 4.4 4.4 4.4 4.3 4.4 4.4 4.4 4.4 4.4 4.4 4.4 4.4 4.3 4.4 4.4 4.4 4.4 4.4 4.4 4.4 4.4 4.3 4.4 4.4 4.4 4.4 4.4 4.4 4.3.1 4.3 4.4 4.4 4.4 4.4 4.4 4.4 4.4 4.4 4.3 4.4 4.4 4.4 4.4 4.4 4.4 4.3.1 4.3 4.4 4.4 4.4 4.4 4.4 4.4 4.4 4.3 4.4 4.4 4.4 4.4 4.4 4.4 4.4 4.4v-11.1h4.3 4.4 4.4 4.4v11.1h4.4 4.4 4.4 4.4 4.3 4.4 4.4 4.4 4.4 4.4 4.4 4.4 4.4 4.3 4.4 4.4 4.4 4.4 4.4v-11.1-11.1-11.2-11.1-11.1-11.2h-4.4z"/><path d="m976.7 343.6h-4.4-4.4-4.4-4.4-4.4v11.2 11.1 11.1 11.2 11.1 11.1h4.4 4.4 4.4 4.4 4.4 4.4 4.3v-11.1-11.1-11.2-11.1-11.1-11.2h-4.3z"/><path d="m945.9 343.6h-4.3-4.4-4.4-4.4-4.4v11.2 11.1 11.1 11.2 11.1 11.1h4.4 4.4 4.4 4.4 4.3 4.4 4.4v-11.1-11.1-11.2-11.1-11.1-11.2h-4.4z"/><path d="m915.2 343.6h-4.4-4.3-4.4-4.4-4.4-4.4-4.4v11.2 11.1 11.1 11.2 11.1 11.1h4.4 4.4 4.4 4.4 4.4 4.3 4.4 4.4 4.4v-11.1-11.1-11.2-11.1-11.1-11.2h-4.4z"/><path d="m880.1 343.6h-4.4v11.2 11.1 11.1 11.2 11.1 11.1h4.4 4.4v-11.1-11.1-11.2-11.1-11.1-11.2z"/><path d="m867 343.6h-4.4-4.4-4.4-4.4-4.4-4.4-4.4-4.3-4.4-4.4-4.4-4.4-4.4-4.4-4.4-4.4-4.3-4.4v11.2 11.1 11.1 11.2 11.1 11.1h4.4 4.3 4.4 4.4 4.4 4.4 4.4 4.4 4.4 4.4 4.3 4.4 4.4 4.4 4.4 4.4 4.4 4.4 4.3 4.4v-11.1-11.1-11.2-11.1-11.1-11.2h-4.4z"/><path d="m779.2 343.6h-4.4-4.4v11.2 11.1 11.1 11.2 11.1 11.1h4.4 4.4 4.4 4.4v-11.1-11.1-11.2-11.1-11.1-11.2h-4.4z"/><path d="m761.6 343.6h-4.3v11.2 11.1 11.1 11.2 11.1 11.1h4.3 4.4 4.4v-11.1-11.1-11.2-11.1-11.1-11.2h-4.4z"/><path d="m748.5 343.6h-4.4-4.4v11.2 11.1 11.1 11.2 11.1 11.1h4.4 4.4 4.4 4.4v-11.1-11.1-11.2-11.1-11.1-11.2h-4.4z"/><path d="m730.9 343.6h-4.4-4.4-4.3-4.4-4.4v11.2 11.1 11.1 11.2 11.1 11.1h4.4 4.4 4.3 4.4 4.4 4.4 4.4v-11.1-11.1-11.2-11.1-11.1-11.2h-4.4z"/><path d="m700.2 343.6h-4.4-4.4v11.2 11.1 11.1 11.2 11.1 11.1h4.4 4.4 4.4 4.4v-11.1-11.1-11.2-11.1-11.1-11.2h-4.4z"/><path d="m682.7 343.6h-4.4-4.4-4.4-4.4-4.4v11.2 11.1 11.1 11.2 11.1 11.1h4.4 4.4 4.4 4.4 4.4 4.3 4.4v-11.1-11.1-11.2-11.1-11.1-11.2h-4.4z"/><path d="m651.9 343.6h-4.4-4.3v11.2 11.1 11.1 11.2 11.1 11.1h4.3 4.4 4.4 4.4v-11.1-11.1-11.2-11.1-11.1-11.2h-4.4z"/><path d="m634.4 343.6h-4.4-4.4-4.4v11.2 11.1 11.1 11.2 11.1 11.1h4.4 4.4 4.4 4.4 4.4v-11.1-11.1-11.2-11.1-11.1-11.2h-4.4z"/><path d="m616.8 343.6h-4.4v11.2 11.1 11.1 11.2 11.1 11.1h4.4 4.4v-11.1-11.1-11.2-11.1-11.1-11.2z"/><path d="m603.7 343.6h-4.4-4.4-4.4v11.2 11.1 11.1 11.2 11.1 11.1h4.4 4.4 4.4 4.4 4.3v-11.1-11.1-11.2-11.1-11.1-11.2h-4.3z"/><path d="m581.7 343.6h-4.4-4.4v11.2 11.1 11.1 11.2 11.1 11.1h4.4 4.4 4.4 4.4v-11.1-11.1-11.2-11.1-11.1-11.2h-4.4z"/><path d="m564.2 343.6h-4.4-4.4-4.4-4.4-4.4-4.4-4.3-4.4-4.4v11.2 11.1 11.1 11.2h4.4 4.4v11.1h4.3v11.1h4.4 4.4 4.4 4.4 4.4 4.4 4.4 4.3v-11.1-11.1-11.2-11.1-11.1-11.2h-4.3z"/><path d="m515.9 343.6h-4.4-4.4-4.4-4.4-4.3-4.4-4.4-4.4-4.4v11.2 11.1 11.1 11.2 11.1 11.1h4.4 4.4 4.4 4.4 4.3 4.4 4.4 4.4 4.4 4.4 4.4v-11.1-11.1-11.2-11.1-11.1-11.2h-4.4z"/><path d="m467.6 343.6h-4.4-4.3-4.4-4.4-4.4-4.4-4.4v11.2 11.1 11.1 11.2 11.1 11.1h4.4 4.4 4.4 4.4 4.4 4.3 4.4 4.4 4.4v-11.1-11.1-11.2-11.1-11.1-11.2h-4.4z"/><path d="m432.5 343.6h-4.4-4.4-4.3-4.4v11.2 11.1 11.1 11.2 11.1 11.1h4.4 4.3 4.4 4.4 4.4v-11.1-11.1-11.2-11.1-11.1-11.2z"/><path d="m406.2 343.6v11.2 11.1 11.1 11.2 11.1 11.1h4.4 4.4v-11.1-11.1-11.2-11.1-11.1-11.2h-4.4z"/><path d="m401.8 343.6h-4.4v11.2 11.1 11.1 11.2 11.1 11.1h4.4 4.4v-11.1-11.1-11.2-11.1-11.1-11.2z"/><path d="m388.6 343.6h-4.3-4.4-4.4-4.4-4.4v11.2 11.1 11.1 11.2 11.1 11.1h4.4 4.4 4.4 4.4 4.3 4.4 4.4v-11.1-11.1-11.2-11.1-11.1-11.2h-4.4z"/><path d="m357.9 343.6v11.2 11.1 11.1 11.2 11.1 11.1h4.4 4.4v-11.1-11.1-11.2-11.1-11.1-11.2h-4.4z"/><path d="m353.5 343.6h-4.4v11.2 11.1 11.1 11.2 11.1 11.1h4.4 4.4v-11.1-11.1-11.2-11.1-11.1-11.2z"/><path d="m340.4 343.6v11.2 11.1 11.1 11.2 11.1 11.1h4.4 4.3v-11.1-11.1-11.2-11.1-11.1-11.2h-4.3z"/><path d="m331.6 343.6h-4.4-4.4-4.4v11.2 11.1 11.1 11.2 11.1 11.1h4.4 4.4v-11.1h4.4 4.4 4.4v-11.1-11.2-11.1-11.1-11.2h-4.4z"/><path d="m309.7 343.6v11.2 11.1 11.1 11.2 11.1h4.3v11.1h4.4v-11.1-11.1-11.2-11.1-11.1-11.2h-4.4z"/><path d="m305.3 343.6h-4.4v11.2 11.1 11.1 11.2 11.1h4.4 4.4v-11.1-11.2-11.1-11.1-11.2z"/><path d="m292.1 343.6v11.2 11.1 11.1 11.2 11.1 11.1h4.4 4.4v-11.1-11.1-11.2-11.1-11.1-11.2h-4.4z"/><path d="m283.3 343.6h-4.4v11.2 11.1 11.1 11.2 11.1 11.1h4.4 4.4 4.4v-11.1-11.1-11.2-11.1-11.1-11.2h-4.4z"/><path d="m274.5 343.6h-4.3v11.2 11.1 11.1 11.2 11.1 11.1h4.3 4.4v-11.1-11.1-11.2-11.1-11.1-11.2z"/><path d="m261.4 343.6v11.2 11.1 11.1 11.2 11.1 11.1h4.4 4.4v-11.1-11.1-11.2-11.1-11.1-11.2h-4.4z"/><path d="m252.6 343.6h-4.4-4.4-4.4-4.3-.1-4.3v11.2 11.1 11.1 11.2 11.1 11.1h4.3.1 4.3 4.4 4.4 4.4 4.4 4.4v-11.1-11.1-11.2-11.1-11.1-11.2h-4.4z"/><path d="m221.9 343.6v11.2 11.1 11.1 11.2 11.1 11.1h4.4 4.4v-11.1-11.1-11.2-11.1-11.1-11.2h-4.4z"/><path d="m217.5 343.6h-4.4-4.4-4.4-4.4-4.3-4.4-4.4-4.4v11.2 11.1 11.1 11.2 11.1 11.1h4.4 4.4 4.4 4.3 4.4 4.4 4.4 4.4 4.4v-11.1-11.1-11.2-11.1-11.1-11.2z"/><path d="m173.6 343.6v11.2 11.1 11.1 11.2 11.1 11.1h4.4 4.4v-11.1-11.1-11.2-11.1-11.1-11.2h-4.4z"/><path d="m169.2 343.6h-4.4-4.3-4.4-4.4-4.4-4.4v11.2 11.1 11.1 11.2 11.1 11.1h4.4 4.4 4.4 4.4 4.3 4.4 4.4v-11.1-11.1-11.2-11.1-11.1-11.2z"/><path d="m138.5 343.6h-4.4v11.2 11.1 11.1 11.2 11.1 11.1h4.4 4.4v-11.1-11.1-11.2-11.1-11.1-11.2z"/><path d="m125.3 343.6h-4.3-4.4-4.4-4.4-4.4v11.2 11.1 11.1 11.2 11.1 11.1h4.4 4.4v-11.1h4.4 4.4 4.3v11.1h4.4 4.4v-11.1-11.1-11.2-11.1-11.1-11.2h-4.4z"/><path d="m99 354.8v11.1 11.1 11.2 11.1 11.1h4.4v-11.1-11.1-11.2-11.1-11.1-11.2h-4.4z"/><path d="m94.6 354.8v11.1 11.1 11.2 11.1 11.1h4.4v-11.1-11.1-11.2-11.1-11.1-11.2h-4.4z"/><path d="m90.2 343.6h-4.3v11.2 11.1 11.1 11.2 11.1 11.1h4.3 4.4v-11.1-11.1-11.2-11.1-11.1-11.2z"/><path d="m81.5 354.8v11.1 11.1 11.2 11.1h4.4v-11.1-11.2-11.1-11.1-11.2h-4.4z"/><path d="m77.1 354.8v11.1 11.1 11.2 11.1h4.4v-11.1-11.2-11.1-11.1-11.2h-4.4z"/><path d="m72.7 354.8v11.1 11.1 11.2 11.1h4.4v-11.1-11.2-11.1-11.1-11.2h-4.4z"/><path d="m68.3 343.6h-4.4v11.2 11.1 11.1 11.2 11.1 11.1h4.4 4.4v-11.1-11.1-11.2-11.1-11.1-11.2z"/><path d="m59.5 354.8v11.1 11.1 11.2 11.1 11.1h4.4v-11.1-11.1-11.2-11.1-11.1-11.2h-4.4z"/><path d="m55.1 343.6h-4.4v11.2 11.1 11.1 11.2 11.1 11.1h4.4 4.4v-11.1-11.1-11.2-11.1-11.1-11.2z"/><path d="m46.4 354.8v11.1 11.1 11.2 11.1 11.1h4.3v-11.1-11.1-11.2-11.1-11.1-11.2h-4.3z"/><path d="m42 343.6h-4.4v11.2 11.1 11.1 11.2 11.1 11.1h4.4 4.4v-11.1-11.1-11.2-11.1-11.1-11.2z"/><path d="m33.2 354.8v11.1 11.1 11.2 11.1 11.1h4.4v-11.1-11.1-11.2-11.1-11.1-11.2h-4.4z"/><path d="m28.8 354.8v11.1 11.1 11.2 11.1h4.4v-11.1-11.2-11.1-11.1-11.2h-4.4z"/><path d="m24.4 354.8v11.1 11.1 11.2 11.1h4.4v-11.1-11.2-11.1-11.1-11.2h-4.4z"/><path d="m20 343.6h-4.4v11.2 11.1 11.1 11.2 11.1 11.1h4.4v-11.1h4.4v-11.1-11.2-11.1-11.1-11.2z"/><path d="m11.2 354.8v11.1 11.1 11.2 11.1 11.1h4.4v-11.1-11.1-11.2-11.1-11.1-11.2h-4.4z"/><path d="m6.9 354.8v11.1 11.1 11.2 11.1 11.1h4.3v-11.1-11.1-11.2-11.1-11.1-11.2h-4.3z"/><path d="m2.5 343.6h-4.4v11.2 11.1 11.1 11.2 11.1 11.1h4.4 4.4v-11.1-11.1-11.2-11.1-11.1-11.2z"/><path d="m945.9 321.4v-11.2-11.1-11.1h-4.3-4.4-4.4-4.4-4.4v11.1 11.1 11.2 11.1 11.1h4.4 4.4 4.4 4.4 4.3 4.4 4.4v-11.1-11.1h-4.4z"/><path d="m867 321.4h-4.4-4.4v-11.2h-4.4v-11.1-11.1-11.2h-4.4-4.4-4.4v-11.1h-4.4v-11.1h-4.3-4.4v-11.2-11.1h-4.4-4.4-4.4-4.4v-11.2-11.1-11.1h-4.4-4.4v-11.2-11.1h-4.4v-11.1-11.2-11.1h-4.3v11.1h-4.4v11.2 11.1 11.1 11.2 11.1 11.1 11.2 11.1 11.2 11.1 11.1 11.2 11.1 11.1 11.2 11.1 11.1h4.4 4.3 4.4 4.4 4.4 4.4 4.4 4.4 4.4 4.4 4.3 4.4 4.4 4.4 4.4 4.4 4.4 4.4 4.3 4.4v-11.1-11.1h-4.4z"/><path d="m138.5 321.4h-4.4v11.1 11.1h4.4 4.4v-11.1-11.1z"/><path d="m81.5 332.5v11.1h4.4v-11.1-11.1h-4.4z"/><path d="m77.1 332.5v11.1h4.4v-11.1-11.1h-4.4z"/><path d="m515.9 310.2h-4.4-4.4v-11.1h-4.4-4.4v-11.1-11.2h-4.3-4.4v11.2h-4.4-4.4-4.4v11.1 11.1 11.2 11.1 11.1h4.4 4.4 4.4 4.4 4.3 4.4 4.4 4.4 4.4 4.4 4.4v-11.1-11.1-11.2h-4.4z"/><path d="m331.6 310.2v-11.1h-4.4-4.4v11.1h-4.4v11.2 11.1 11.1h4.4 4.4 4.4 4.4 4.4v-11.1-11.1-11.2h-4.4z"/><path d="m125.3 310.2v-11.1h-4.3-4.4v-11.1h-4.4v-11.2h-4.4-4.4v11.2 11.1 11.1 11.2 11.1 11.1h4.4 4.4 4.4 4.4 4.3 4.4 4.4v-11.1-11.1-11.2h-4.4z"/><path d="m33.2 321.4v11.1 11.1h4.4v-11.1-11.1-11.2h-4.4z"/><path d="m28.8 321.4v11.1 11.1h4.4v-11.1-11.1-11.2h-4.4z"/><path d="m24.4 321.4v11.1 11.1h4.4v-11.1-11.1-11.2h-4.4z"/><path d="m761.6 299.1h-4.3v11.1 11.2 11.1 11.1h4.3 4.4 4.4v-11.1-11.1-11.2-11.1h-4.4z"/><path d="m344.8 310.2h-4.4v11.2 11.1 11.1h4.4 4.3v-11.1-11.1-11.2-11.1h-4.3z"/><path d="m314 299.1h-4.3v11.1 11.2 11.1 11.1h4.3 4.4v-11.1-11.1-11.2h-4.4z"/><path d="m305.3 299.1h-4.4v11.1 11.2 11.1 11.1h4.4 4.4v-11.1-11.1-11.2-11.1z"/><path d="m292.1 299.1v11.1 11.2 11.1 11.1h4.4 4.4v-11.1-11.1-11.2-11.1h-4.4z"/><path d="m226.3 299.1h-4.4v11.1 11.2 11.1 11.1h4.4 4.4v-11.1-11.1-11.2h-4.4z"/><path d="m217.5 299.1h-4.4v-11.1h-4.4v-11.2-11.1-11.1h-4.4v-11.2h-4.4v-11.1h-4.3v11.1 11.2 11.1h-4.4-4.4-4.4v11.1 11.2 11.1 11.1 11.2 11.1 11.1h4.4 4.4 4.4 4.3 4.4 4.4 4.4 4.4 4.4v-11.1-11.1-11.2-11.1z"/><path d="m90.2 310.2v11.2h-4.3v11.1 11.1h4.3 4.4v-11.1-11.1-11.2-11.1h-4.4z"/><path d="m20 299.1h-4.4v11.1 11.2 11.1 11.1h4.4 4.4v-11.1-11.1-11.2-11.1z"/><path d="m976.7 288h-4.4-4.4v11.1h-4.4v11.1h-4.4v11.2h-4.4v11.1 11.1h4.4 4.4 4.4 4.4 4.4 4.4 4.3v-11.1-11.1-11.2-11.1-11.1h-4.3z"/><path d="m432.5 288h-4.4v11.1h4.4v11.1h-4.4v-11.1h-4.4-4.3v11.1h-4.4v11.2 11.1 11.1h4.4 4.3 4.4 4.4 4.4v-11.1-11.1-11.2-11.1h-4.4z"/><path d="m880.1 288v11.1 11.1 11.2h-4.4v11.1 11.1h4.4 4.4v-11.1-11.1-11.2-11.1-11.1-11.2h-4.4z"/><path d="m752.9 276.8h-4.4v11.2h-4.4-4.4v11.1 11.1 11.2 11.1 11.1h4.4 4.4 4.4 4.4v-11.1-11.1-11.2-11.1-11.1h-4.4z"/><path d="m735.3 276.8h-4.4v-11.1-11.1h-4.4-4.4v11.1 11.1h-4.3-4.4-4.4v11.2 11.1 11.1 11.2 11.1 11.1h4.4 4.4 4.3 4.4 4.4 4.4 4.4v-11.1-11.1-11.2-11.1-11.1h-4.4z"/><path d="m634.4 276.8h-4.4v-11.1h-4.4-4.4v11.1 11.2 11.1 11.1 11.2 11.1 11.1h4.4 4.4 4.4 4.4 4.4v-11.1-11.1-11.2-11.1-11.1-11.2h-4.4z"/><path d="m472 276.8v-11.1h-4.4v-11.1h-4.4v-11.2h-4.3v11.2 11.1 11.1h-4.4v11.2 11.1 11.1 11.2 11.1h-4.4v-11.1h-4.4v11.1h-4.4v-11.1h-4.4v11.1 11.1h4.4 4.4 4.4 4.4 4.4 4.3 4.4 4.4 4.4v-11.1-11.1-11.2-11.1-11.1h-4.4z"/><path d="m283.3 276.8v-11.1-11.1-11.2-11.1h-4.4v11.1 11.2 11.1 11.1 11.2 11.1 11.1 11.2 11.1 11.1h4.4 4.4 4.4v-11.1-11.1-11.2-11.1-11.1-11.2h-4.4z"/><path d="m99 288v11.1 11.1 11.2 11.1 11.1h4.4v-11.1-11.1-11.2-11.1-11.1-11.2h-4.4z"/><path d="m94.6 288v11.1 11.1 11.2 11.1 11.1h4.4v-11.1-11.1-11.2-11.1-11.1-11.2h-4.4z"/><path d="m72.7 288v11.1 11.1 11.2 11.1 11.1h4.4v-11.1-11.1-11.2-11.1-11.1-11.2h-4.4z"/><path d="m68.3 276.8h-4.4v11.2 11.1 11.1 11.2 11.1 11.1h4.4 4.4v-11.1-11.1-11.2-11.1-11.1h-4.4z"/><path d="m59.5 288v11.1 11.1 11.2 11.1 11.1h4.4v-11.1-11.1-11.2-11.1-11.1-11.2h-4.4z"/><path d="m42 288v11.1 11.1h-4.4v11.2 11.1 11.1h4.4 4.4v-11.1-11.1-11.2-11.1-11.1-11.2h-4.4z"/><path d="m11.2 288v11.1 11.1 11.2 11.1 11.1h4.4v-11.1-11.1-11.2-11.1-11.1-11.2h-4.4z"/><path d="m6.9 288v11.1 11.1 11.2 11.1 11.1h4.3v-11.1-11.1-11.2-11.1-11.1-11.2h-4.3z"/><path d="m919.6 265.7v-11.1-11.2h-4.4v-11.1-11.2-11.1h-4.4v-11.1h-4.3-4.4v11.1h-4.4v11.1 11.2h-4.4-4.4-4.4v11.1 11.2 11.1 11.1 11.2 11.1 11.1 11.2 11.1 11.1h4.4 4.4 4.4 4.4 4.4 4.3 4.4 4.4 4.4v-11.1-11.1-11.2-11.1-11.1-11.2h-4.4z"/><path d="m651.9 265.7h-4.4v11.1h-4.3v11.2 11.1 11.1 11.2 11.1 11.1h4.3 4.4 4.4 4.4v-11.1-11.1-11.2-11.1-11.1-11.2-11.1h-4.4z"/><path d="m410.6 265.7v-11.1h-4.4v11.1 11.1 11.2 11.1 11.1 11.2 11.1 11.1h4.4 4.4v-11.1-11.1-11.2-11.1-11.1-11.2h-4.4z"/><path d="m401.8 265.7h-4.4v11.1 11.2 11.1 11.1 11.2 11.1 11.1h4.4 4.4v-11.1-11.1-11.2-11.1-11.1-11.2-11.1z"/><path d="m55.1 265.7h-4.4v11.1 11.2 11.1 11.1 11.2 11.1 11.1h4.4 4.4v-11.1-11.1-11.2-11.1-11.1-11.2h-4.4z"/><path d="m46.4 276.8v11.2 11.1 11.1 11.2 11.1 11.1h4.3v-11.1-11.1-11.2-11.1-11.1-11.2-11.1h-4.3z"/><path d="m2.5 265.7v-11.1h-4.4v11.1 11.1 11.2 11.1 11.1 11.2 11.1 11.1h4.4 4.4v-11.1-11.1-11.2-11.1-11.1-11.2h-4.4z"/><path d="m616.8 254.6h-4.4v11.1 11.1 11.2 11.1 11.1 11.2 11.1 11.1h4.4 4.4v-11.1-11.1-11.2-11.1-11.1-11.2-11.1-11.1z"/><path d="m564.2 254.6v11.1h-4.4v11.1 11.2h-4.4-4.4v-11.2h-4.4v11.2 11.1h-4.4v11.1h-4.4v11.2h-4.3-4.4-4.4v11.1 11.1h4.4 4.4 4.3 4.4 4.4 4.4 4.4 4.4 4.4 4.4 4.3v-11.1-11.1-11.2-11.1-11.1-11.2-11.1-11.1h-4.3z"/><path d="m489.6 254.6h-4.4v11.1 11.1h4.4v-11.1z"/><path d="m353.5 265.7v11.1 11.2h-4.4v11.1 11.1 11.2 11.1 11.1h4.4 4.4v-11.1-11.1-11.2-11.1-11.1-11.2-11.1-11.1h-4.4z"/><path d="m173.6 254.6v11.1 11.1 11.2 11.1 11.1 11.2 11.1 11.1h4.4 4.4v-11.1-11.1-11.2-11.1-11.1-11.2-11.1-11.1h-4.4z"/><path d="m608.1 243.4v-11.1h-4.4-4.4-4.4v11.1h-4.4v11.2 11.1 11.1 11.2 11.1 11.1 11.2 11.1 11.1h4.4 4.4 4.4 4.4 4.3v-11.1-11.1-11.2-11.1-11.1-11.2-11.1-11.1h-4.3z"/><path d="m274.5 243.4h-4.3v11.2 11.1 11.1 11.2 11.1 11.1 11.2 11.1 11.1h4.3 4.4v-11.1-11.1-11.2-11.1-11.1-11.2-11.1-11.1-11.2z"/><path d="m169.2 243.4v-11.1-11.2-11.1-11.1h-4.4-4.3-4.4v11.1 11.1 11.2h-4.4v11.1 11.2 11.1 11.1h-4.4-4.4v11.2 11.1 11.1 11.2 11.1 11.1h4.4 4.4 4.4 4.4 4.3 4.4 4.4v-11.1-11.1-11.2-11.1-11.1-11.2-11.1-11.1h-4.4z"/><path d="m1437.4 232.3h-4.4-4.3v-11.2-11.1-11.1-11.2h-4.4v.3h-4.4v-.3h-4.4v11.2 11.1h-4.4-4.4v11.1 11.2 11.1 11.2 11.1 11.1 11.2 11.1 11.1 11.2 11.1 11.1h4.4 4.4 4.4 4.4 4.4 4.3 4.4 4.4v-11.1-11.1-11.2-11.1-11.1-11.2-11.1-11.1-11.2-11.1z"/><path d="m362.3 232.3v-11.2h-4.4v11.2 11.1 11.2 11.1 11.1 11.2 11.1 11.1 11.2 11.1 11.1h4.4 4.4v-11.1-11.1-11.2-11.1-11.1-11.2-11.1-11.1-11.2h-4.4z"/><path d="m265.8 232.3v-11.2-11.1-11.1-11.2-11.1h-4.4v11.1 11.2 11.1 11.1 11.2 11.1 11.2 11.1 11.1 11.2 11.1 11.1 11.2 11.1 11.1h4.4 4.4v-11.1-11.1-11.2-11.1-11.1-11.2-11.1-11.1-11.2h-4.4z"/><path d="m1397.9 221.1h-4.3v-11.1h-4.4-4.4v-11.1h-4.4v11.1 11.1 11.2 11.1 11.2 11.1 11.1 11.2 11.1 11.1 11.2 11.1 11.1h4.4 4.4 4.4 4.3 4.4 4.4v-11.1-11.1-11.2-11.1-11.1-11.2-11.1-11.1-11.2-11.1-11.2h-4.4z"/><path d="m581.7 221.1v-11.1-11.1h-4.4-4.4v11.1 11.1 11.2 11.1 11.2 11.1 11.1 11.2 11.1 11.1 11.2 11.1 11.1h4.4 4.4 4.4 4.4v-11.1-11.1-11.2-11.1-11.1-11.2-11.1-11.1-11.2-11.1-11.2h-4.4z"/><path d="m393 221.1h-4.4-4.3-4.4-4.4v11.2 11.1h-4.4-4.4v11.2 11.1 11.1 11.2 11.1 11.1 11.2 11.1 11.1h4.4 4.4 4.4 4.4 4.3 4.4 4.4v-11.1-11.1-11.2-11.1-11.1-11.2-11.1-11.1-11.2-11.1h-4.4z"/><path d="m1371.6 198.9v-11.1h-4.4v-22.3h-4.4v66.8h-13.2v-22.3h-4.4v11.1h-17.6v-44.5h-8.8v66.8h-8.8v44.5h-8.8v44.5h-13.2v-33.4h-4.4v-11.1h-4.4v11.1 11.1h4.4-4.4-4.4 4.4v-11.1-11.1h-4.4v11.1h-4.4-4.4v11.1h-4.4v-44.5h-4.4v-11.1h-4.4v11.1h-4.4v-11.1h-4.4v44.5h-4.4-4.4v-22.3h-30.7v-11.1h-4.4v33.4h-17.6v-44.5h-4.4v-22.3h-30.7v11.1h-8.8v-77.9h-4.4v-11.1-11.1h-4.4v11.1 11.1h-4.4v22.3h-8.8v-33.4-22.3h-21.9v22.3 100.2h-8.8v22.3h-13.2v-22.3h-4.4v11.1h-4.4v-22.3h-17.6v11.1h-13.2v-11.1h-8.8v-66.8h-26.3v11.1h-8.8v-11.1h-4.4v167h394.9v-144.7h-8.8zm-237-22.3h-4.4v-.3h4.4zm114.1 133.6h-4.4z"/><path d="m704.6 198.9v-11.2-11.1-11.1-11.2h-4.4v11.2 11.1h-4.4-4.4v11.1 11.2 11.1 11.1 11.2 11.1 11.2 11.1 11.1 11.2 11.1 11.1 11.2 11.1 11.1h4.4 4.4 4.4 4.4v-11.1-11.1-11.2-11.1-11.1-11.2-11.1-11.1-11.2-11.1-11.2-11.1h-4.4z"/><path d="m682.7 198.9h-4.4-4.4v11.1 11.1 11.2 11.1 11.2 11.1h-4.4-4.4-4.4v11.1 11.2 11.1 11.1 11.2 11.1 11.1h4.4 4.4 4.4 4.4 4.4 4.3 4.4v-11.1-11.1-11.2-11.1-11.1-11.2-11.1-11.1-11.2-11.1-11.2-11.1-11.1h-4.4z"/><path d="m783.6 187.7h-4.4v11.2 11.1 11.1 11.2 11.1 11.2 11.1 11.1 11.2h-4.4v-11.2h-4.4v11.2 11.1 11.1 11.2 11.1 11.1h4.4 4.4 4.4 4.4v-11.1-11.1-11.2-11.1-11.1-11.2-11.1-11.1-11.2-11.1-11.2-11.1-11.1h-4.4z"/><path d="m1424.3 176.6v-11.1-11.2-11.1h-4.4v11.1 11.2 11.1 11.1h4.4z"/><path d="m257 187.7v11.2 11.1h-4.4v11.1 11.2 11.1 11.2h-4.4v11.1 11.1 11.2 11.1h-4.4v11.1 11.2h-4.4-4.3-.1-4.3v11.1 11.1h4.3.1 4.3 4.4 4.4 4.4 4.4 4.4v-11.1-11.1-11.2-11.1-11.1-11.2-11.1-11.1-11.2-11.1-11.2-11.1-11.1-11.2-11.1h-4.4z"/><path d="m801.1 165.5h4.4v11.1h-4.4z"/><path d="m1103.9 132.1h4.4 4.4 4.4v-11.2h-4.4-4.4-4.4-4.4-4.3v11.2h4.3z"/><path d="m1103.9 120.9h4.4 4.4 4.4v-11.1-11.1h-4.4-4.3v-.5h-.1v-10.7h-4.4v11.2h.1v10.6h4.3v.5h-4.4v-11.1h-4.4v11.1h-4.3v11.1h4.3z"/></g></svg>