<svg width="192" height="254" viewBox="0 0 192 254" fill="none" xmlns="http://www.w3.org/2000/svg">
  <g fill="#fff">
    <path clip-rule="evenodd"
      d="m190.232 75.7294c1.474 3.2723 1.134 7.4376-.09 11.7297-3.126 10.9581-11.344 22.9239-22.654 34.8169-11.317 11.901-25.766 23.765-41.409 34.516-31.2723 21.493-67.3944 38.589-92.9117 42.61-12.7231 2.004-20.6164 1.686-25.27496.012-2.34159-.841-3.89603-2.035-4.81807-3.478-.92232-1.442-1.17834-3.081-1.02046-4.746.31317-3.304 2.26402-6.815 4.08681-9.459.91767-1.332 1.81567-2.461 2.48428-3.258.33448-.399.61201-.715.80649-.932.09725-.108.17377-.192.2263-.249.02626-.029.04653-.05.0604-.065l.01595-.017.00547-.006c.00034 0 .00057-.001.34559.326l.1381.13c.207.196.207.196.2069.196l-.0007.001-.0032.004-.014.014c-.0125.014-.0313.034-.0562.061-.0496.054-.1231.134-.2173.239-.18827.21-.45891.518-.78599.908-.65452.78-1.53323 1.886-2.4299 3.187-1.80591 2.62-3.63428 5.961-3.92324 9.01-.14319 1.51.09399 2.923.87511 4.145.78139 1.222 2.14061 2.306 4.33887 3.095 4.42115 1.589 12.11225 1.943 24.80585-.057 25.3162-3.989 61.3012-20.996 92.5216-42.454 15.604-10.724 29.998-22.546 41.259-34.388 11.269-11.85 19.365-23.682 22.428-34.4224 1.205-4.2232 1.472-8.117.138-11.079-1.314-2.916-4.242-5.0566-9.75-5.6531l.102-.9445c5.724.6199 9.019 2.889 10.514 6.2074z"
      fill-rule="evenodd" />
    <g stroke="#fff" stroke-width="1.23377">
      <path
        d="m11.197 205.213c-.2825.567-.5029 1.132-.6749 1.669-.172-.537-.3924-1.102-.67484-1.669-.64972-1.304-1.63389-2.628-3.12171-3.628-.62002-.416-1.32122-.772-2.11294-1.046.79172-.275 1.49292-.631 2.11294-1.047 1.48782-.999 2.47199-2.324 3.12171-3.628.28254-.567.50294-1.132.67494-1.67.1721.538.3926 1.103.6751 1.67.6499 1.304 1.6341 2.629 3.122 3.628.6199.416 1.3211.772 2.1126 1.046-.7918.275-1.4931.631-2.1132 1.047-1.4878 1-2.472 2.324-3.1217 3.628z" />
      <path
        d="m181.023 222.658c-.975.316-1.829.74-2.577 1.242-1.66 1.115-2.76 2.594-3.486 4.052-.357.717-.626 1.433-.828 2.103-.202-.67-.471-1.386-.828-2.103-.727-1.458-1.826-2.937-3.486-4.052-.748-.502-1.603-.926-2.577-1.241.974-.316 1.829-.74 2.577-1.242 1.66-1.115 2.759-2.594 3.486-4.052.357-.717.626-1.433.828-2.104.202.671.471 1.387.828 2.104.727 1.459 1.826 2.937 3.487 4.052.747.502 1.602.926 2.576 1.241z" />
      <path
        d="m182.332 77.1989c-.283.567-.503 1.1323-.675 1.6694-.172-.5371-.393-1.1024-.675-1.6694-.65-1.3042-1.634-2.6284-3.122-3.6278-.62-.4165-1.321-.7723-2.113-1.0467.792-.2743 1.493-.6301 2.113-1.0466 1.488-.9995 2.472-2.3237 3.122-3.6279.283-.5671.503-1.1325.675-1.6697.172.5372.393 1.1026.675 1.6698.65 1.3041 1.634 2.6284 3.122 3.6278.62.4164 1.321.7722 2.113 1.0465-.792.2744-1.493.6302-2.114 1.0468-1.487.9994-2.472 2.3236-3.121 3.6278z" />
    </g>
  </g>
</svg>
