<svg width="192" height="254" viewBox="0 0 192 254" fill="none" xmlns="http://www.w3.org/2000/svg">
  <g clip-rule="evenodd" fill="#fff" fill-rule="evenodd">
    <path
      d="m173.482 241.551v-153.6273c0-42.0539-34.091-76.1454-76.1452-76.1454-42.0539 0-76.1454 34.0915-76.1454 76.1455v153.6272zm-76.1452-230.7727c-42.6062 0-77.1454 34.5392-77.1454 77.1455v154.6272h154.2906v-154.6273c0-42.6062-34.539-77.1454-77.1452-77.1454z" />
    <path
      d="m184.262 252.331v-164.4074c0-48.0077-38.918-86.925553-86.9253-86.925553-48.0077 0-86.9256 38.917853-86.9256 86.925453v164.4075zm-86.9253-252.33295312c-48.56 0-87.92557 39.36555312-87.92557 87.92545312v165.4075h175.85087v-165.4074c0-48.5599-39.365-87.92555312-87.9253-87.92555312z" />
  </g>
</svg>
