<svg width="322" height="496" viewBox="0 0 322 496" fill="none" xmlns="http://www.w3.org/2000/svg">
  <path fill-rule="evenodd" clip-rule="evenodd"
    d="M17.9863 9.86328H233.329C272.367 9.86328 304.014 41.51 304.014 80.5482V485.48H88.6712C49.633 485.48 17.9863 453.833 17.9863 414.795V9.86328ZM19.0822 10.9592V414.795C19.0822 453.228 50.2383 484.384 88.6712 484.384H302.918V80.5482C302.918 42.1152 271.762 10.9592 233.329 10.9592H19.0822Z"
    fill="white" />
  <path fill-rule="evenodd" clip-rule="evenodd"
    d="M0.452148 9.86328H250.863C289.901 9.86328 321.548 41.51 321.548 80.5482V485.48H71.1371C32.0989 485.48 0.452148 453.833 0.452148 414.795V9.86328ZM1.54804 10.9592V414.795C1.54804 453.228 32.7041 484.384 71.1371 484.384H320.452V80.5482C320.452 42.1152 289.296 10.9592 250.863 10.9592H1.54804Z"
    fill="white" />
  <path
    d="M303.366 115.391C303.366 115.412 303.367 115.434 303.367 115.455L303.367 115.328C303.422 93.0723 317.808 93.069 317.808 93.069C317.808 93.069 303.422 93.0674 303.367 70.8113L303.367 70.6846C303.367 70.706 303.366 70.7274 303.366 70.7488C303.366 70.7274 303.364 70.706 303.364 70.6846L303.364 70.8113C303.309 93.0674 288.923 93.069 288.923 93.069C288.923 93.069 303.309 93.0706 303.364 115.327L303.364 115.453C303.366 115.434 303.366 115.412 303.366 115.391Z"
    fill="white" />
  <path
    d="M18.7298 424.587C18.7298 424.609 18.7308 424.63 18.7308 424.651L18.7308 424.525C18.7861 402.269 33.1719 402.265 33.1719 402.265C33.1719 402.265 18.7861 402.264 18.7308 380.008L18.7308 379.881C18.7308 379.902 18.7298 379.924 18.7298 379.945C18.7298 379.924 18.7287 379.902 18.7287 379.881L18.7287 380.008C18.6735 402.264 4.28768 402.265 4.28768 402.265C4.28768 402.265 18.6735 402.267 18.7287 424.523L18.7287 424.65C18.7298 424.63 18.7298 424.609 18.7298 424.587Z"
    fill="white" />
  <path fill-rule="evenodd" clip-rule="evenodd" d="M302.972 494.948V475.222H304.068V494.948H302.972Z" fill="white" />
  <path fill-rule="evenodd" clip-rule="evenodd"
    d="M299.469 480.204L308.345 489.079L307.57 489.854L298.695 480.979L299.469 480.204Z" fill="white" />
  <path fill-rule="evenodd" clip-rule="evenodd"
    d="M308.344 480.979L299.469 489.854L298.694 489.08L307.569 480.204L308.344 480.979Z" fill="white" />
  <path fill-rule="evenodd" clip-rule="evenodd" d="M18.04 20.4292V0.703125H19.1359V20.4292H18.04Z" fill="white" />
  <path fill-rule="evenodd" clip-rule="evenodd"
    d="M14.5388 5.68622L23.4141 14.5615L22.6392 15.3364L13.7638 6.46113L14.5388 5.68622Z" fill="white" />
  <path fill-rule="evenodd" clip-rule="evenodd"
    d="M23.4144 6.46161L14.5391 15.3369L13.7642 14.562L22.6395 5.6867L23.4144 6.46161Z" fill="white" />
</svg>
